G04 #@! TF.FileFunction,Soldermask,Bot*
%FSLAX46Y46*%
G04 Gerber Fmt 4.6, Leading zero omitted, Abs format (unit mm)*
G04 Created by KiCad (PCBNEW 4.0.1-stable) date 2017/02/23 14:55:37*
%MOMM*%
G01*
G04 APERTURE LIST*
%ADD10C,0.100000*%
%ADD11R,2.127200X2.432000*%
%ADD12O,2.127200X2.432000*%
%ADD13R,2.635200X2.635200*%
%ADD14R,2.127200X2.127200*%
%ADD15O,2.127200X2.127200*%
G04 APERTURE END LIST*
D10*
D11*
X167640000Y-63260000D03*
D12*
X170180000Y-63260000D03*
X172720000Y-63260000D03*
X175260000Y-63260000D03*
D13*
X127000000Y-48020000D03*
D14*
X172720000Y-58180000D03*
D15*
X175260000Y-58180000D03*
D14*
X172720000Y-53100000D03*
D15*
X175260000Y-53100000D03*
D11*
X182880000Y-70880000D03*
D12*
X185420000Y-70880000D03*
X187960000Y-70880000D03*
D11*
X127000000Y-55640000D03*
D12*
X129540000Y-55640000D03*
X132080000Y-55640000D03*
X134620000Y-55640000D03*
X137160000Y-55640000D03*
X139700000Y-55640000D03*
D11*
X127000000Y-63260000D03*
D12*
X129540000Y-63260000D03*
X132080000Y-63260000D03*
X134620000Y-63260000D03*
X137160000Y-63260000D03*
X139700000Y-63260000D03*
D11*
X127000000Y-70880000D03*
D12*
X129540000Y-70880000D03*
X132080000Y-70880000D03*
X134620000Y-70880000D03*
X137160000Y-70880000D03*
X139700000Y-70880000D03*
X142240000Y-70880000D03*
X144780000Y-70880000D03*
X147320000Y-70880000D03*
X149860000Y-70880000D03*
X152400000Y-70880000D03*
X154940000Y-70880000D03*
X157480000Y-70880000D03*
X160020000Y-70880000D03*
X162560000Y-70880000D03*
X165100000Y-70880000D03*
X167640000Y-70880000D03*
X170180000Y-70880000D03*
X172720000Y-70880000D03*
X175260000Y-70880000D03*
D11*
X127000000Y-119380000D03*
D12*
X129540000Y-119380000D03*
X132080000Y-119380000D03*
X134620000Y-119380000D03*
X137160000Y-119380000D03*
X139700000Y-119380000D03*
X142240000Y-119380000D03*
X144780000Y-119380000D03*
X147320000Y-119380000D03*
X149860000Y-119380000D03*
X152400000Y-119380000D03*
X154940000Y-119380000D03*
X157480000Y-119380000D03*
X160020000Y-119380000D03*
X162560000Y-119380000D03*
X165100000Y-119380000D03*
X167640000Y-119380000D03*
X170180000Y-119380000D03*
X172720000Y-119380000D03*
X175260000Y-119380000D03*
D11*
X127000000Y-111760000D03*
D12*
X129540000Y-111760000D03*
X132080000Y-111760000D03*
X134620000Y-111760000D03*
X137160000Y-111760000D03*
X139700000Y-111760000D03*
D11*
X127000000Y-104140000D03*
D12*
X129540000Y-104140000D03*
X132080000Y-104140000D03*
X134620000Y-104140000D03*
X137160000Y-104140000D03*
X139700000Y-104140000D03*
D11*
X182880000Y-119380000D03*
D12*
X185420000Y-119380000D03*
X187960000Y-119380000D03*
D14*
X172720000Y-101600000D03*
D15*
X175260000Y-101600000D03*
D14*
X172720000Y-106680000D03*
D15*
X175260000Y-106680000D03*
D13*
X127000000Y-96520000D03*
D11*
X167640000Y-111760000D03*
D12*
X170180000Y-111760000D03*
X172720000Y-111760000D03*
X175260000Y-111760000D03*
M02*
