G04 #@! TF.FileFunction,Copper,L1,Top,Signal*
%FSLAX46Y46*%
G04 Gerber Fmt 4.6, Leading zero omitted, Abs format (unit mm)*
G04 Created by KiCad (PCBNEW 4.0.1-stable) date 2017/04/12 16:11:32*
%MOMM*%
G01*
G04 APERTURE LIST*
%ADD10C,0.100000*%
%ADD11O,2.500000X0.900000*%
%ADD12O,0.900000X2.500000*%
%ADD13R,6.000000X6.000000*%
%ADD14R,3.000000X3.000000*%
%ADD15R,1.050000X0.650000*%
%ADD16R,1.727200X2.032000*%
%ADD17O,1.727200X2.032000*%
%ADD18R,0.701040X1.501140*%
%ADD19R,1.000760X1.501140*%
%ADD20R,1.998980X0.800100*%
%ADD21R,0.500000X0.900000*%
%ADD22R,1.000000X1.600000*%
%ADD23R,0.750000X0.800000*%
%ADD24R,0.800000X0.750000*%
%ADD25R,1.600000X1.000000*%
%ADD26R,0.900000X0.500000*%
%ADD27R,1.501140X0.701040*%
%ADD28R,1.501140X1.000760*%
%ADD29R,0.800100X1.998980*%
%ADD30R,2.032000X1.727200*%
%ADD31O,2.032000X1.727200*%
%ADD32R,0.650000X1.050000*%
%ADD33C,0.600000*%
%ADD34C,0.500000*%
%ADD35C,0.400000*%
%ADD36C,0.200000*%
G04 APERTURE END LIST*
D10*
D11*
X148480000Y-54780000D03*
X148480000Y-53510000D03*
X148480000Y-52240000D03*
X148480000Y-50970000D03*
X148480000Y-49700000D03*
X148480000Y-48430000D03*
X148480000Y-47160000D03*
X148480000Y-45890000D03*
X148480000Y-44620000D03*
X148480000Y-43350000D03*
X148480000Y-42080000D03*
X148480000Y-40810000D03*
X148480000Y-39540000D03*
X148480000Y-38270000D03*
D12*
X151765000Y-36780000D03*
X153035000Y-36780000D03*
X154305000Y-36780000D03*
X155575000Y-36780000D03*
X156845000Y-36780000D03*
X158115000Y-36780000D03*
X159385000Y-36780000D03*
X160655000Y-36780000D03*
X161925000Y-36780000D03*
X163195000Y-36780000D03*
D11*
X166480000Y-38270000D03*
X166480000Y-39540000D03*
X166480000Y-40810000D03*
X166480000Y-42080000D03*
X166480000Y-43350000D03*
X166480000Y-44620000D03*
X166480000Y-45890000D03*
X166480000Y-47160000D03*
X166480000Y-48430000D03*
X166480000Y-49700000D03*
X166480000Y-50970000D03*
X166480000Y-52240000D03*
X166480000Y-53510000D03*
X166480000Y-54780000D03*
D13*
X157780000Y-47080000D03*
D14*
X157780000Y-47080000D03*
D15*
X139235000Y-39175000D03*
X135085000Y-39175000D03*
X135085000Y-37025000D03*
X139235000Y-37025000D03*
X139235000Y-42985000D03*
X135085000Y-42985000D03*
X135085000Y-40835000D03*
X139235000Y-40835000D03*
D16*
X194310000Y-30480000D03*
D17*
X191770000Y-30480000D03*
X189230000Y-30480000D03*
X186690000Y-30480000D03*
X184150000Y-30480000D03*
X181610000Y-30480000D03*
X179070000Y-30480000D03*
X176530000Y-30480000D03*
X173990000Y-30480000D03*
X171450000Y-30480000D03*
X168910000Y-30480000D03*
X166370000Y-30480000D03*
X163830000Y-30480000D03*
X161290000Y-30480000D03*
X158750000Y-30480000D03*
X156210000Y-30480000D03*
X153670000Y-30480000D03*
X151130000Y-30480000D03*
X148590000Y-30480000D03*
X146050000Y-30480000D03*
X143510000Y-30480000D03*
X140970000Y-30480000D03*
X138430000Y-30480000D03*
X135890000Y-30480000D03*
X133350000Y-30480000D03*
X130810000Y-30480000D03*
X128270000Y-30480000D03*
X125730000Y-30480000D03*
X123190000Y-30480000D03*
X120650000Y-30480000D03*
D10*
G36*
X177530760Y-42261790D02*
X177030380Y-43011090D01*
X176029620Y-43011090D01*
X175529240Y-42261790D01*
X177530760Y-42261790D01*
X177530760Y-42261790D01*
G37*
D18*
X178031140Y-43761660D03*
X175028860Y-43761660D03*
X178031140Y-40058340D03*
D19*
X176530000Y-40058340D03*
D18*
X175028860Y-40058340D03*
D19*
X176530000Y-43761660D03*
D10*
G36*
X175529240Y-41558210D02*
X176029620Y-40808910D01*
X177030380Y-40808910D01*
X177530760Y-41558210D01*
X175529240Y-41558210D01*
X175529240Y-41558210D01*
G37*
D20*
X176530000Y-41910000D03*
D21*
X172200000Y-48260000D03*
X170700000Y-48260000D03*
D22*
X175030000Y-48260000D03*
X178030000Y-48260000D03*
D23*
X171450000Y-42660000D03*
X171450000Y-41160000D03*
X181610000Y-42660000D03*
X181610000Y-41160000D03*
D24*
X125210000Y-50800000D03*
X123710000Y-50800000D03*
X125210000Y-60960000D03*
X123710000Y-60960000D03*
D25*
X130810000Y-57380000D03*
X130810000Y-54380000D03*
D26*
X130810000Y-60210000D03*
X130810000Y-61710000D03*
D10*
G36*
X124811790Y-54879240D02*
X125561090Y-55379620D01*
X125561090Y-56380380D01*
X124811790Y-56880760D01*
X124811790Y-54879240D01*
X124811790Y-54879240D01*
G37*
D27*
X126311660Y-54378860D03*
X126311660Y-57381140D03*
X122608340Y-54378860D03*
D28*
X122608340Y-55880000D03*
D27*
X122608340Y-57381140D03*
D28*
X126311660Y-55880000D03*
D10*
G36*
X124108210Y-56880760D02*
X123358910Y-56380380D01*
X123358910Y-55379620D01*
X124108210Y-54879240D01*
X124108210Y-56880760D01*
X124108210Y-56880760D01*
G37*
D29*
X124460000Y-55880000D03*
D30*
X113030000Y-38100000D03*
D31*
X113030000Y-40640000D03*
X113030000Y-43180000D03*
X113030000Y-45720000D03*
X113030000Y-48260000D03*
X113030000Y-50800000D03*
X113030000Y-53340000D03*
X113030000Y-55880000D03*
X113030000Y-58420000D03*
X113030000Y-60960000D03*
X113030000Y-63500000D03*
X113030000Y-66040000D03*
X113030000Y-68580000D03*
X113030000Y-71120000D03*
X113030000Y-73660000D03*
X113030000Y-76200000D03*
X113030000Y-78740000D03*
X113030000Y-81280000D03*
X113030000Y-83820000D03*
X113030000Y-86360000D03*
X113030000Y-88900000D03*
X113030000Y-91440000D03*
X113030000Y-93980000D03*
X113030000Y-96520000D03*
X113030000Y-99060000D03*
X113030000Y-101600000D03*
X113030000Y-104140000D03*
X113030000Y-106680000D03*
X113030000Y-109220000D03*
X113030000Y-111760000D03*
D32*
X125535000Y-93175000D03*
X125535000Y-97325000D03*
X123385000Y-97325000D03*
X123385000Y-93175000D03*
X121725000Y-93175000D03*
X121725000Y-97325000D03*
X119575000Y-97325000D03*
X119575000Y-93175000D03*
D12*
X137330000Y-83930000D03*
X136060000Y-83930000D03*
X134790000Y-83930000D03*
X133520000Y-83930000D03*
X132250000Y-83930000D03*
X130980000Y-83930000D03*
X129710000Y-83930000D03*
X128440000Y-83930000D03*
X127170000Y-83930000D03*
X125900000Y-83930000D03*
X124630000Y-83930000D03*
X123360000Y-83930000D03*
X122090000Y-83930000D03*
X120820000Y-83930000D03*
D11*
X119330000Y-80645000D03*
X119330000Y-79375000D03*
X119330000Y-78105000D03*
X119330000Y-76835000D03*
X119330000Y-75565000D03*
X119330000Y-74295000D03*
X119330000Y-73025000D03*
X119330000Y-71755000D03*
X119330000Y-70485000D03*
X119330000Y-69215000D03*
D12*
X120820000Y-65930000D03*
X122090000Y-65930000D03*
X123360000Y-65930000D03*
X124630000Y-65930000D03*
X125900000Y-65930000D03*
X127170000Y-65930000D03*
X128440000Y-65930000D03*
X129710000Y-65930000D03*
X130980000Y-65930000D03*
X132250000Y-65930000D03*
X133520000Y-65930000D03*
X134790000Y-65930000D03*
X136060000Y-65930000D03*
X137330000Y-65930000D03*
D13*
X129630000Y-74630000D03*
D14*
X129630000Y-74630000D03*
D12*
X177630000Y-65930000D03*
X178900000Y-65930000D03*
X180170000Y-65930000D03*
X181440000Y-65930000D03*
X182710000Y-65930000D03*
X183980000Y-65930000D03*
X185250000Y-65930000D03*
X186520000Y-65930000D03*
X187790000Y-65930000D03*
X189060000Y-65930000D03*
X190330000Y-65930000D03*
X191600000Y-65930000D03*
X192870000Y-65930000D03*
X194140000Y-65930000D03*
D11*
X195630000Y-69215000D03*
X195630000Y-70485000D03*
X195630000Y-71755000D03*
X195630000Y-73025000D03*
X195630000Y-74295000D03*
X195630000Y-75565000D03*
X195630000Y-76835000D03*
X195630000Y-78105000D03*
X195630000Y-79375000D03*
X195630000Y-80645000D03*
D12*
X194140000Y-83930000D03*
X192870000Y-83930000D03*
X191600000Y-83930000D03*
X190330000Y-83930000D03*
X189060000Y-83930000D03*
X187790000Y-83930000D03*
X186520000Y-83930000D03*
X185250000Y-83930000D03*
X183980000Y-83930000D03*
X182710000Y-83930000D03*
X181440000Y-83930000D03*
X180170000Y-83930000D03*
X178900000Y-83930000D03*
X177630000Y-83930000D03*
D13*
X185330000Y-75230000D03*
D14*
X185330000Y-75230000D03*
D32*
X193235000Y-56685000D03*
X193235000Y-52535000D03*
X195385000Y-52535000D03*
X195385000Y-56685000D03*
X189425000Y-56685000D03*
X189425000Y-52535000D03*
X191575000Y-52535000D03*
X191575000Y-56685000D03*
D30*
X201930000Y-111760000D03*
D31*
X201930000Y-109220000D03*
X201930000Y-106680000D03*
X201930000Y-104140000D03*
X201930000Y-101600000D03*
X201930000Y-99060000D03*
X201930000Y-96520000D03*
X201930000Y-93980000D03*
X201930000Y-91440000D03*
X201930000Y-88900000D03*
X201930000Y-86360000D03*
X201930000Y-83820000D03*
X201930000Y-81280000D03*
X201930000Y-78740000D03*
X201930000Y-76200000D03*
X201930000Y-73660000D03*
X201930000Y-71120000D03*
X201930000Y-68580000D03*
X201930000Y-66040000D03*
X201930000Y-63500000D03*
X201930000Y-60960000D03*
X201930000Y-58420000D03*
X201930000Y-55880000D03*
X201930000Y-53340000D03*
X201930000Y-50800000D03*
X201930000Y-48260000D03*
X201930000Y-45720000D03*
X201930000Y-43180000D03*
X201930000Y-40640000D03*
X201930000Y-38100000D03*
D10*
G36*
X190148210Y-94980760D02*
X189398910Y-94480380D01*
X189398910Y-93479620D01*
X190148210Y-92979240D01*
X190148210Y-94980760D01*
X190148210Y-94980760D01*
G37*
D27*
X188648340Y-95481140D03*
X188648340Y-92478860D03*
X192351660Y-95481140D03*
D28*
X192351660Y-93980000D03*
D27*
X192351660Y-92478860D03*
D28*
X188648340Y-93980000D03*
D10*
G36*
X190851790Y-92979240D02*
X191601090Y-93479620D01*
X191601090Y-94480380D01*
X190851790Y-94980760D01*
X190851790Y-92979240D01*
X190851790Y-92979240D01*
G37*
D29*
X190500000Y-93980000D03*
D26*
X184150000Y-89650000D03*
X184150000Y-88150000D03*
D25*
X184150000Y-92480000D03*
X184150000Y-95480000D03*
D24*
X189750000Y-88900000D03*
X191250000Y-88900000D03*
X189750000Y-99060000D03*
X191250000Y-99060000D03*
D23*
X133350000Y-107200000D03*
X133350000Y-108700000D03*
X143510000Y-107200000D03*
X143510000Y-108700000D03*
D22*
X139930000Y-101600000D03*
X136930000Y-101600000D03*
D21*
X142760000Y-101600000D03*
X144260000Y-101600000D03*
D10*
G36*
X137429240Y-107598210D02*
X137929620Y-106848910D01*
X138930380Y-106848910D01*
X139430760Y-107598210D01*
X137429240Y-107598210D01*
X137429240Y-107598210D01*
G37*
D18*
X136928860Y-106098340D03*
X139931140Y-106098340D03*
X136928860Y-109801660D03*
D19*
X138430000Y-109801660D03*
D18*
X139931140Y-109801660D03*
D19*
X138430000Y-106098340D03*
D10*
G36*
X139430760Y-108301790D02*
X138930380Y-109051090D01*
X137929620Y-109051090D01*
X137429240Y-108301790D01*
X139430760Y-108301790D01*
X139430760Y-108301790D01*
G37*
D20*
X138430000Y-107950000D03*
D16*
X120650000Y-119380000D03*
D17*
X123190000Y-119380000D03*
X125730000Y-119380000D03*
X128270000Y-119380000D03*
X130810000Y-119380000D03*
X133350000Y-119380000D03*
X135890000Y-119380000D03*
X138430000Y-119380000D03*
X140970000Y-119380000D03*
X143510000Y-119380000D03*
X146050000Y-119380000D03*
X148590000Y-119380000D03*
X151130000Y-119380000D03*
X153670000Y-119380000D03*
X156210000Y-119380000D03*
X158750000Y-119380000D03*
X161290000Y-119380000D03*
X163830000Y-119380000D03*
X166370000Y-119380000D03*
X168910000Y-119380000D03*
X171450000Y-119380000D03*
X173990000Y-119380000D03*
X176530000Y-119380000D03*
X179070000Y-119380000D03*
X181610000Y-119380000D03*
X184150000Y-119380000D03*
X186690000Y-119380000D03*
X189230000Y-119380000D03*
X191770000Y-119380000D03*
X194310000Y-119380000D03*
D15*
X175725000Y-106875000D03*
X179875000Y-106875000D03*
X179875000Y-109025000D03*
X175725000Y-109025000D03*
X175725000Y-110685000D03*
X179875000Y-110685000D03*
X179875000Y-112835000D03*
X175725000Y-112835000D03*
D11*
X166480000Y-95080000D03*
X166480000Y-96350000D03*
X166480000Y-97620000D03*
X166480000Y-98890000D03*
X166480000Y-100160000D03*
X166480000Y-101430000D03*
X166480000Y-102700000D03*
X166480000Y-103970000D03*
X166480000Y-105240000D03*
X166480000Y-106510000D03*
X166480000Y-107780000D03*
X166480000Y-109050000D03*
X166480000Y-110320000D03*
X166480000Y-111590000D03*
D12*
X163195000Y-113080000D03*
X161925000Y-113080000D03*
X160655000Y-113080000D03*
X159385000Y-113080000D03*
X158115000Y-113080000D03*
X156845000Y-113080000D03*
X155575000Y-113080000D03*
X154305000Y-113080000D03*
X153035000Y-113080000D03*
X151765000Y-113080000D03*
D11*
X148480000Y-111590000D03*
X148480000Y-110320000D03*
X148480000Y-109050000D03*
X148480000Y-107780000D03*
X148480000Y-106510000D03*
X148480000Y-105240000D03*
X148480000Y-103970000D03*
X148480000Y-102700000D03*
X148480000Y-101430000D03*
X148480000Y-100160000D03*
X148480000Y-98890000D03*
X148480000Y-97620000D03*
X148480000Y-96350000D03*
X148480000Y-95080000D03*
D13*
X157180000Y-102780000D03*
D14*
X157180000Y-102780000D03*
D33*
X163195000Y-41417800D03*
X132567300Y-44799300D03*
X127349300Y-99842700D03*
X123967800Y-69215000D03*
X190992200Y-80645000D03*
X187610700Y-50017300D03*
X182392700Y-105060700D03*
X151765000Y-108442200D03*
X149811900Y-31932700D03*
X114482700Y-82598100D03*
X200477300Y-67261900D03*
X165148100Y-117927300D03*
D34*
X171692800Y-46714300D03*
X129264300Y-60717200D03*
X185695700Y-89142800D03*
X143267200Y-103145700D03*
X158963500Y-42186200D03*
X124736200Y-73446500D03*
X190223800Y-76413500D03*
X155996500Y-107673800D03*
X156773200Y-40017800D03*
X122567800Y-75636800D03*
X192392200Y-74223200D03*
X158186800Y-109842200D03*
X146726400Y-38264100D03*
X120814100Y-85683600D03*
X194145900Y-64176400D03*
X168233600Y-111595900D03*
X145949400Y-37416200D03*
X119966200Y-86460600D03*
X194993800Y-63399400D03*
X169010600Y-112443800D03*
X144679300Y-44891600D03*
X127441600Y-87730700D03*
X187518400Y-62129300D03*
X170280700Y-104968400D03*
X143343500Y-46641200D03*
X129191200Y-89066500D03*
X185768800Y-60793500D03*
X171616500Y-103218800D03*
X142513700Y-47473100D03*
X130023100Y-89896300D03*
X184936900Y-59963700D03*
X172446300Y-102386900D03*
X154101300Y-48879400D03*
X131429400Y-78308700D03*
X183530600Y-71551300D03*
X160858700Y-100980600D03*
X150613400Y-39029300D03*
X121579300Y-81796600D03*
X193380700Y-68063400D03*
X164346600Y-110830700D03*
X146799800Y-46330500D03*
X128880500Y-85610200D03*
X186079500Y-64249800D03*
X168160200Y-103529500D03*
X164774200Y-44945900D03*
X127495900Y-67635800D03*
X187464100Y-82224200D03*
X150185800Y-104914100D03*
X164566800Y-47160000D03*
X129710000Y-67843200D03*
X185250000Y-82016800D03*
X150393200Y-102700000D03*
X162169200Y-48595300D03*
X131145300Y-70240800D03*
X183814700Y-79619200D03*
X152790800Y-101264700D03*
X164259500Y-51323700D03*
X133873700Y-68150500D03*
X181086300Y-81709500D03*
X150700500Y-98536300D03*
X165014600Y-51580300D03*
X134130300Y-67395400D03*
X180829700Y-82464600D03*
X149945400Y-98279700D03*
X150633700Y-36780000D03*
X119330000Y-81776300D03*
X195630000Y-68083700D03*
X164326300Y-113080000D03*
X149985400Y-40191900D03*
X122741900Y-82424600D03*
X192218100Y-67435400D03*
X164974600Y-109668100D03*
X164511700Y-34915100D03*
X143214900Y-34746700D03*
X117296700Y-89195100D03*
X117465100Y-67898300D03*
X197494900Y-81961700D03*
X197663300Y-60664900D03*
X171745100Y-115113300D03*
X150448300Y-114944900D03*
X163312700Y-35064600D03*
X145557200Y-34620700D03*
X117170700Y-86852800D03*
X117614600Y-69097300D03*
X197345400Y-80762700D03*
X197789300Y-63007200D03*
X169402800Y-115239300D03*
X151647300Y-114795400D03*
X149819700Y-34310800D03*
X163335400Y-34304900D03*
X116854900Y-69074600D03*
X116860800Y-82590300D03*
X198099200Y-67269700D03*
X198105100Y-80785400D03*
X151624600Y-115555100D03*
X165140300Y-115549200D03*
X154987900Y-35282300D03*
X144238300Y-35678800D03*
X118228800Y-88171700D03*
X117832300Y-77422100D03*
X197127700Y-72437900D03*
X196731200Y-61688300D03*
X170721700Y-114181200D03*
X159972100Y-114577700D03*
X150546300Y-39740600D03*
X122290600Y-81863700D03*
X192669400Y-67996300D03*
X164413700Y-110119400D03*
D35*
X179132800Y-42660000D02*
X178031100Y-43761700D01*
X181610000Y-42660000D02*
X179132800Y-42660000D01*
X178031100Y-40058300D02*
X179132800Y-41160000D01*
X179132800Y-41160000D02*
X179132800Y-42660000D01*
X194310000Y-30480000D02*
X194310000Y-34145800D01*
X194310000Y-34145800D02*
X185795800Y-42660000D01*
X185795800Y-42660000D02*
X181610000Y-42660000D01*
X125210000Y-46614200D02*
X125210000Y-50800000D01*
X116695800Y-38100000D02*
X125210000Y-46614200D01*
X113030000Y-38100000D02*
X116695800Y-38100000D01*
X123710000Y-53277200D02*
X125210000Y-53277200D01*
X122608300Y-54378900D02*
X123710000Y-53277200D01*
X125210000Y-50800000D02*
X125210000Y-53277200D01*
X125210000Y-53277200D02*
X126311700Y-54378900D01*
X189750000Y-96582800D02*
X188648300Y-95481100D01*
X189750000Y-99060000D02*
X189750000Y-96582800D01*
X192351700Y-95481100D02*
X191250000Y-96582800D01*
X191250000Y-96582800D02*
X189750000Y-96582800D01*
X201930000Y-111760000D02*
X198264200Y-111760000D01*
X198264200Y-111760000D02*
X189750000Y-103245800D01*
X189750000Y-103245800D02*
X189750000Y-99060000D01*
X129164200Y-107200000D02*
X133350000Y-107200000D01*
X120650000Y-115714200D02*
X129164200Y-107200000D01*
X120650000Y-119380000D02*
X120650000Y-115714200D01*
X135827200Y-108700000D02*
X135827200Y-107200000D01*
X136928900Y-109801700D02*
X135827200Y-108700000D01*
X133350000Y-107200000D02*
X135827200Y-107200000D01*
X135827200Y-107200000D02*
X136928900Y-106098300D01*
X135085000Y-39175000D02*
X139235000Y-39175000D01*
X134155900Y-42985000D02*
X134155900Y-40104100D01*
X134155900Y-40104100D02*
X135085000Y-39175000D01*
X163195000Y-41417800D02*
X163195000Y-36780000D01*
X157780000Y-47080000D02*
X165480000Y-54780000D01*
X165480000Y-54780000D02*
X166480000Y-54780000D01*
X134155900Y-42985000D02*
X135085000Y-42985000D01*
X132567300Y-44799300D02*
X134155800Y-43210800D01*
X134155800Y-43210800D02*
X134155800Y-42985000D01*
X134155800Y-42985000D02*
X134155900Y-42985000D01*
X157780000Y-47080000D02*
X150080000Y-54780000D01*
X150080000Y-54780000D02*
X148480000Y-54780000D01*
X139235000Y-42985000D02*
X135085000Y-42985000D01*
X148480000Y-54780000D02*
X147649700Y-54780000D01*
X147649700Y-54780000D02*
X139235000Y-46365300D01*
X139235000Y-46365300D02*
X139235000Y-42985000D01*
X181610000Y-40640000D02*
X181610000Y-41160000D01*
X191770000Y-30480000D02*
X181610000Y-40640000D01*
X176530000Y-40058300D02*
X176530000Y-39842400D01*
X176530000Y-39842400D02*
X177465100Y-38907300D01*
X177465100Y-38907300D02*
X179877300Y-38907300D01*
X179877300Y-38907300D02*
X181610000Y-40640000D01*
X176530000Y-41183600D02*
X176530000Y-40058300D01*
X166480000Y-54780000D02*
X167235800Y-54780000D01*
X167235800Y-54780000D02*
X172452800Y-49563000D01*
X172452800Y-49563000D02*
X176727000Y-49563000D01*
X176727000Y-49563000D02*
X178030000Y-48260000D01*
X178030000Y-48260000D02*
X176530000Y-46760000D01*
X176530000Y-46760000D02*
X176530000Y-43761700D01*
X176530000Y-41274400D02*
X176530000Y-41910000D01*
X176530000Y-41183600D02*
X176530000Y-41274400D01*
X176530000Y-41274400D02*
X171564400Y-41274400D01*
X171564400Y-41274400D02*
X171450000Y-41160000D01*
X176530000Y-43761700D02*
X176530000Y-42636400D01*
X176530000Y-41910000D02*
X176530000Y-42636400D01*
X124460000Y-55880000D02*
X125186400Y-55880000D01*
X126311700Y-55880000D02*
X125186400Y-55880000D01*
X123824400Y-60845600D02*
X123710000Y-60960000D01*
X123824400Y-55880000D02*
X123824400Y-60845600D01*
X123733600Y-55880000D02*
X123824400Y-55880000D01*
X123824400Y-55880000D02*
X124460000Y-55880000D01*
X129310000Y-55880000D02*
X126311700Y-55880000D01*
X130810000Y-54380000D02*
X129310000Y-55880000D01*
X132113000Y-55683000D02*
X130810000Y-54380000D01*
X132113000Y-59957200D02*
X132113000Y-55683000D01*
X137330000Y-65174200D02*
X132113000Y-59957200D01*
X137330000Y-65930000D02*
X137330000Y-65174200D01*
X123733600Y-55880000D02*
X122608300Y-55880000D01*
X121457300Y-52532700D02*
X123190000Y-50800000D01*
X121457300Y-54944900D02*
X121457300Y-52532700D01*
X122392400Y-55880000D02*
X121457300Y-54944900D01*
X122608300Y-55880000D02*
X122392400Y-55880000D01*
X113030000Y-40640000D02*
X123190000Y-50800000D01*
X123190000Y-50800000D02*
X123710000Y-50800000D01*
X128915300Y-93175000D02*
X125535000Y-93175000D01*
X137330000Y-84760300D02*
X128915300Y-93175000D01*
X137330000Y-83930000D02*
X137330000Y-84760300D01*
X125535000Y-93175000D02*
X125535000Y-97325000D01*
X137330000Y-82330000D02*
X137330000Y-83930000D01*
X129630000Y-74630000D02*
X137330000Y-82330000D01*
X125535000Y-98254200D02*
X125535000Y-98254100D01*
X125760800Y-98254200D02*
X125535000Y-98254200D01*
X127349300Y-99842700D02*
X125760800Y-98254200D01*
X125535000Y-98254100D02*
X125535000Y-97325000D01*
X137330000Y-66930000D02*
X137330000Y-65930000D01*
X129630000Y-74630000D02*
X137330000Y-66930000D01*
X123967800Y-69215000D02*
X119330000Y-69215000D01*
X122654100Y-98254100D02*
X121725000Y-97325000D01*
X125535000Y-98254100D02*
X122654100Y-98254100D01*
X121725000Y-97325000D02*
X121725000Y-93175000D01*
X193235000Y-52535000D02*
X193235000Y-56685000D01*
X189425000Y-51605900D02*
X192305900Y-51605900D01*
X192305900Y-51605900D02*
X193235000Y-52535000D01*
X190992200Y-80645000D02*
X195630000Y-80645000D01*
X185330000Y-75230000D02*
X177630000Y-82930000D01*
X177630000Y-82930000D02*
X177630000Y-83930000D01*
X189425000Y-51605900D02*
X189425000Y-52535000D01*
X187610700Y-50017300D02*
X189199200Y-51605800D01*
X189199200Y-51605800D02*
X189425000Y-51605800D01*
X189425000Y-51605800D02*
X189425000Y-51605900D01*
X185330000Y-75230000D02*
X177630000Y-67530000D01*
X177630000Y-67530000D02*
X177630000Y-65930000D01*
X189425000Y-56685000D02*
X189425000Y-52535000D01*
X177630000Y-65930000D02*
X177630000Y-65099700D01*
X177630000Y-65099700D02*
X186044700Y-56685000D01*
X186044700Y-56685000D02*
X189425000Y-56685000D01*
X191770000Y-99060000D02*
X191250000Y-99060000D01*
X201930000Y-109220000D02*
X191770000Y-99060000D01*
X192351700Y-93980000D02*
X192567600Y-93980000D01*
X192567600Y-93980000D02*
X193502700Y-94915100D01*
X193502700Y-94915100D02*
X193502700Y-97327300D01*
X193502700Y-97327300D02*
X191770000Y-99060000D01*
X191226400Y-93980000D02*
X192351700Y-93980000D01*
X177630000Y-83930000D02*
X177630000Y-84685800D01*
X177630000Y-84685800D02*
X182847000Y-89902800D01*
X182847000Y-89902800D02*
X182847000Y-94177000D01*
X182847000Y-94177000D02*
X184150000Y-95480000D01*
X184150000Y-95480000D02*
X185650000Y-93980000D01*
X185650000Y-93980000D02*
X188648300Y-93980000D01*
X191135600Y-93980000D02*
X190500000Y-93980000D01*
X191226400Y-93980000D02*
X191135600Y-93980000D01*
X191135600Y-93980000D02*
X191135600Y-89014400D01*
X191135600Y-89014400D02*
X191250000Y-88900000D01*
X188648300Y-93980000D02*
X189773600Y-93980000D01*
X190500000Y-93980000D02*
X189773600Y-93980000D01*
X138430000Y-107950000D02*
X138430000Y-107223600D01*
X138430000Y-106098300D02*
X138430000Y-107223600D01*
X143395600Y-108585600D02*
X143510000Y-108700000D01*
X138430000Y-108585600D02*
X143395600Y-108585600D01*
X138430000Y-108676400D02*
X138430000Y-108585600D01*
X138430000Y-108585600D02*
X138430000Y-107950000D01*
X138430000Y-103100000D02*
X138430000Y-106098300D01*
X136930000Y-101600000D02*
X138430000Y-103100000D01*
X138233000Y-100297000D02*
X136930000Y-101600000D01*
X142507200Y-100297000D02*
X138233000Y-100297000D01*
X147724200Y-95080000D02*
X142507200Y-100297000D01*
X148480000Y-95080000D02*
X147724200Y-95080000D01*
X138430000Y-108676400D02*
X138430000Y-109801700D01*
X135082700Y-110952700D02*
X133350000Y-109220000D01*
X137494900Y-110952700D02*
X135082700Y-110952700D01*
X138430000Y-110017600D02*
X137494900Y-110952700D01*
X138430000Y-109801700D02*
X138430000Y-110017600D01*
X123190000Y-119380000D02*
X133350000Y-109220000D01*
X133350000Y-109220000D02*
X133350000Y-108700000D01*
X175725000Y-103494700D02*
X175725000Y-106875000D01*
X167310300Y-95080000D02*
X175725000Y-103494700D01*
X166480000Y-95080000D02*
X167310300Y-95080000D01*
X175725000Y-106875000D02*
X179875000Y-106875000D01*
X164880000Y-95080000D02*
X166480000Y-95080000D01*
X157180000Y-102780000D02*
X164880000Y-95080000D01*
X180804200Y-106875000D02*
X180804100Y-106875000D01*
X180804200Y-106649200D02*
X180804200Y-106875000D01*
X182392700Y-105060700D02*
X180804200Y-106649200D01*
X180804100Y-106875000D02*
X179875000Y-106875000D01*
X149480000Y-95080000D02*
X148480000Y-95080000D01*
X157180000Y-102780000D02*
X149480000Y-95080000D01*
X151765000Y-108442200D02*
X151765000Y-113080000D01*
X180804100Y-109755900D02*
X179875000Y-110685000D01*
X180804100Y-106875000D02*
X180804100Y-109755900D01*
X179875000Y-110685000D02*
X175725000Y-110685000D01*
X170674700Y-38459800D02*
X176058300Y-33076200D01*
X176058300Y-33076200D02*
X186633800Y-33076200D01*
X186633800Y-33076200D02*
X189230000Y-30480000D01*
X149811900Y-31932700D02*
X164147600Y-31932700D01*
X164147600Y-31932700D02*
X170674700Y-38459800D01*
X171450000Y-42660000D02*
X170674700Y-41884700D01*
X170674700Y-41884700D02*
X170674700Y-38459800D01*
X174678300Y-44112300D02*
X172902300Y-44112300D01*
X172902300Y-44112300D02*
X171450000Y-42660000D01*
X174678300Y-44112300D02*
X174678300Y-47908300D01*
X175028900Y-43761700D02*
X174678300Y-44112300D01*
X174678300Y-47908300D02*
X172551700Y-47908300D01*
X172551700Y-47908300D02*
X172200000Y-48260000D01*
X175030000Y-48260000D02*
X174678300Y-47908300D01*
X172200000Y-48260000D02*
X172200000Y-48525000D01*
X172200000Y-48525000D02*
X167215000Y-53510000D01*
X167215000Y-53510000D02*
X166480000Y-53510000D01*
X136060000Y-65195000D02*
X136060000Y-65930000D01*
X131075000Y-60210000D02*
X136060000Y-65195000D01*
X130810000Y-60210000D02*
X131075000Y-60210000D01*
X130810000Y-57380000D02*
X130458300Y-57731700D01*
X130458300Y-59858300D02*
X130810000Y-60210000D01*
X130458300Y-57731700D02*
X130458300Y-59858300D01*
X126311700Y-57381100D02*
X126662300Y-57731700D01*
X126662300Y-57731700D02*
X130458300Y-57731700D01*
X126662300Y-59507700D02*
X125210000Y-60960000D01*
X126662300Y-57731700D02*
X126662300Y-59507700D01*
X124434700Y-61735300D02*
X121009800Y-61735300D01*
X125210000Y-60960000D02*
X124434700Y-61735300D01*
X114482700Y-68262400D02*
X121009800Y-61735300D01*
X114482700Y-82598100D02*
X114482700Y-68262400D01*
X115626200Y-45776200D02*
X113030000Y-43180000D01*
X115626200Y-56351700D02*
X115626200Y-45776200D01*
X121009800Y-61735300D02*
X115626200Y-56351700D01*
X193950200Y-88124700D02*
X199333800Y-93508300D01*
X199333800Y-93508300D02*
X199333800Y-104083800D01*
X199333800Y-104083800D02*
X201930000Y-106680000D01*
X200477300Y-67261900D02*
X200477300Y-81597600D01*
X200477300Y-81597600D02*
X193950200Y-88124700D01*
X189750000Y-88900000D02*
X190525300Y-88124700D01*
X190525300Y-88124700D02*
X193950200Y-88124700D01*
X188297700Y-92128300D02*
X188297700Y-90352300D01*
X188297700Y-90352300D02*
X189750000Y-88900000D01*
X188297700Y-92128300D02*
X184501700Y-92128300D01*
X188648300Y-92478900D02*
X188297700Y-92128300D01*
X184501700Y-92128300D02*
X184501700Y-90001700D01*
X184501700Y-90001700D02*
X184150000Y-89650000D01*
X184150000Y-92480000D02*
X184501700Y-92128300D01*
X184150000Y-89650000D02*
X183885000Y-89650000D01*
X183885000Y-89650000D02*
X178900000Y-84665000D01*
X178900000Y-84665000D02*
X178900000Y-83930000D01*
X147745000Y-96350000D02*
X148480000Y-96350000D01*
X142760000Y-101335000D02*
X147745000Y-96350000D01*
X142760000Y-101600000D02*
X142760000Y-101335000D01*
X139930000Y-101600000D02*
X140281700Y-101951700D01*
X142408300Y-101951700D02*
X142760000Y-101600000D01*
X140281700Y-101951700D02*
X142408300Y-101951700D01*
X139931100Y-106098300D02*
X140281700Y-105747700D01*
X140281700Y-105747700D02*
X140281700Y-101951700D01*
X142057700Y-105747700D02*
X143510000Y-107200000D01*
X140281700Y-105747700D02*
X142057700Y-105747700D01*
X144285300Y-107975300D02*
X144285300Y-111400200D01*
X143510000Y-107200000D02*
X144285300Y-107975300D01*
X150812400Y-117927300D02*
X144285300Y-111400200D01*
X165148100Y-117927300D02*
X150812400Y-117927300D01*
X128326200Y-116783800D02*
X125730000Y-119380000D01*
X138901700Y-116783800D02*
X128326200Y-116783800D01*
X144285300Y-111400200D02*
X138901700Y-116783800D01*
D36*
X139235000Y-37025000D02*
X144437000Y-37025000D01*
X144437000Y-37025000D02*
X145023700Y-36438300D01*
X145023700Y-36438300D02*
X148926400Y-36438300D01*
X148926400Y-36438300D02*
X151955500Y-39467400D01*
X151955500Y-39467400D02*
X157030900Y-39467400D01*
X157030900Y-39467400D02*
X161597200Y-44033700D01*
X161597200Y-44033700D02*
X161597200Y-49461100D01*
X161597200Y-49461100D02*
X164376100Y-52240000D01*
X164376100Y-52240000D02*
X166480000Y-52240000D01*
X170700000Y-48260000D02*
X170700000Y-48651800D01*
X170700000Y-48651800D02*
X167111800Y-52240000D01*
X167111800Y-52240000D02*
X166480000Y-52240000D01*
X135085000Y-37025000D02*
X139235000Y-37025000D01*
X171692800Y-46714300D02*
X170700000Y-47707100D01*
X170700000Y-47707100D02*
X170700000Y-48260000D01*
X130257100Y-61710000D02*
X130810000Y-61710000D01*
X129264300Y-60717200D02*
X130257100Y-61710000D01*
X119575000Y-97325000D02*
X119575000Y-93175000D01*
X134790000Y-65298200D02*
X134790000Y-65930000D01*
X131201800Y-61710000D02*
X134790000Y-65298200D01*
X130810000Y-61710000D02*
X131201800Y-61710000D01*
X134790000Y-68033900D02*
X134790000Y-65930000D01*
X132011100Y-70812800D02*
X134790000Y-68033900D01*
X126583700Y-70812800D02*
X132011100Y-70812800D01*
X122017400Y-75379100D02*
X126583700Y-70812800D01*
X122017400Y-80454500D02*
X122017400Y-75379100D01*
X118988300Y-83483600D02*
X122017400Y-80454500D01*
X118988300Y-87386300D02*
X118988300Y-83483600D01*
X119575000Y-87973000D02*
X118988300Y-87386300D01*
X119575000Y-93175000D02*
X119575000Y-87973000D01*
X195385000Y-56685000D02*
X195385000Y-61887000D01*
X195385000Y-61887000D02*
X195971700Y-62473700D01*
X195971700Y-62473700D02*
X195971700Y-66376400D01*
X195971700Y-66376400D02*
X192942600Y-69405500D01*
X192942600Y-69405500D02*
X192942600Y-74480900D01*
X192942600Y-74480900D02*
X188376300Y-79047200D01*
X188376300Y-79047200D02*
X182948900Y-79047200D01*
X182948900Y-79047200D02*
X180170000Y-81826100D01*
X180170000Y-81826100D02*
X180170000Y-83930000D01*
X184150000Y-88150000D02*
X183758200Y-88150000D01*
X183758200Y-88150000D02*
X180170000Y-84561800D01*
X180170000Y-84561800D02*
X180170000Y-83930000D01*
X195385000Y-52535000D02*
X195385000Y-56685000D01*
X185695700Y-89142800D02*
X184702900Y-88150000D01*
X184702900Y-88150000D02*
X184150000Y-88150000D01*
X144260000Y-102152900D02*
X144260000Y-101600000D01*
X143267200Y-103145700D02*
X144260000Y-102152900D01*
X179875000Y-112835000D02*
X175725000Y-112835000D01*
X147848200Y-97620000D02*
X148480000Y-97620000D01*
X144260000Y-101208200D02*
X147848200Y-97620000D01*
X144260000Y-101600000D02*
X144260000Y-101208200D01*
X150583900Y-97620000D02*
X148480000Y-97620000D01*
X153362800Y-100398900D02*
X150583900Y-97620000D01*
X153362800Y-105826300D02*
X153362800Y-100398900D01*
X157929100Y-110392600D02*
X153362800Y-105826300D01*
X163004500Y-110392600D02*
X157929100Y-110392600D01*
X166033600Y-113421700D02*
X163004500Y-110392600D01*
X169936300Y-113421700D02*
X166033600Y-113421700D01*
X170523000Y-112835000D02*
X169936300Y-113421700D01*
X175725000Y-112835000D02*
X170523000Y-112835000D01*
X148480000Y-49700000D02*
X149073500Y-49700000D01*
X149073500Y-49700000D02*
X153759500Y-45014000D01*
X153759500Y-45014000D02*
X153759500Y-44628200D01*
X153759500Y-44628200D02*
X156201500Y-42186200D01*
X156201500Y-42186200D02*
X158963500Y-42186200D01*
X124736200Y-76208500D02*
X124736200Y-73446500D01*
X127178200Y-78650500D02*
X124736200Y-76208500D01*
X127564000Y-78650500D02*
X127178200Y-78650500D01*
X132250000Y-83336500D02*
X127564000Y-78650500D01*
X132250000Y-83930000D02*
X132250000Y-83336500D01*
X182710000Y-65930000D02*
X182710000Y-66523500D01*
X182710000Y-66523500D02*
X187396000Y-71209500D01*
X187396000Y-71209500D02*
X187781800Y-71209500D01*
X187781800Y-71209500D02*
X190223800Y-73651500D01*
X190223800Y-73651500D02*
X190223800Y-76413500D01*
X158758500Y-107673800D02*
X155996500Y-107673800D01*
X161200500Y-105231800D02*
X158758500Y-107673800D01*
X161200500Y-104846000D02*
X161200500Y-105231800D01*
X165886500Y-100160000D02*
X161200500Y-104846000D01*
X166480000Y-100160000D02*
X165886500Y-100160000D01*
X148480000Y-43350000D02*
X153441000Y-43350000D01*
X153441000Y-43350000D02*
X156773200Y-40017800D01*
X125900000Y-78969000D02*
X122567800Y-75636800D01*
X125900000Y-83930000D02*
X125900000Y-78969000D01*
X189060000Y-65930000D02*
X189060000Y-70891000D01*
X189060000Y-70891000D02*
X192392200Y-74223200D01*
X161519000Y-106510000D02*
X158186800Y-109842200D01*
X166480000Y-106510000D02*
X161519000Y-106510000D01*
X148480000Y-44620000D02*
X147887800Y-44620000D01*
X147887800Y-44620000D02*
X146726400Y-43458600D01*
X146726400Y-43458600D02*
X146726400Y-38264100D01*
X126008600Y-85683600D02*
X120814100Y-85683600D01*
X127170000Y-84522200D02*
X126008600Y-85683600D01*
X127170000Y-83930000D02*
X127170000Y-84522200D01*
X187790000Y-65930000D02*
X187790000Y-65337800D01*
X187790000Y-65337800D02*
X188951400Y-64176400D01*
X188951400Y-64176400D02*
X194145900Y-64176400D01*
X168233600Y-106401400D02*
X168233600Y-111595900D01*
X167072200Y-105240000D02*
X168233600Y-106401400D01*
X166480000Y-105240000D02*
X167072200Y-105240000D01*
X148480000Y-45890000D02*
X147832100Y-45890000D01*
X147832100Y-45890000D02*
X145949400Y-44007300D01*
X145949400Y-44007300D02*
X145949400Y-37416200D01*
X126557300Y-86460600D02*
X119966200Y-86460600D01*
X128440000Y-84577900D02*
X126557300Y-86460600D01*
X128440000Y-83930000D02*
X128440000Y-84577900D01*
X186520000Y-65930000D02*
X186520000Y-65282100D01*
X186520000Y-65282100D02*
X188402700Y-63399400D01*
X188402700Y-63399400D02*
X194993800Y-63399400D01*
X169010600Y-105852700D02*
X169010600Y-112443800D01*
X167127900Y-103970000D02*
X169010600Y-105852700D01*
X166480000Y-103970000D02*
X167127900Y-103970000D01*
X144679300Y-44891600D02*
X144679300Y-45224300D01*
X144679300Y-45224300D02*
X147885000Y-48430000D01*
X147885000Y-48430000D02*
X148480000Y-48430000D01*
X130980000Y-84525000D02*
X130980000Y-83930000D01*
X127774300Y-87730700D02*
X130980000Y-84525000D01*
X127441600Y-87730700D02*
X127774300Y-87730700D01*
X187518400Y-62129300D02*
X187185700Y-62129300D01*
X187185700Y-62129300D02*
X183980000Y-65335000D01*
X183980000Y-65335000D02*
X183980000Y-65930000D01*
X167075000Y-101430000D02*
X166480000Y-101430000D01*
X170280700Y-104635700D02*
X167075000Y-101430000D01*
X170280700Y-104968400D02*
X170280700Y-104635700D01*
X148480000Y-52240000D02*
X147817400Y-52240000D01*
X147817400Y-52240000D02*
X143343500Y-47766100D01*
X143343500Y-47766100D02*
X143343500Y-46641200D01*
X130316100Y-89066500D02*
X129191200Y-89066500D01*
X134790000Y-84592600D02*
X130316100Y-89066500D01*
X134790000Y-83930000D02*
X134790000Y-84592600D01*
X180170000Y-65930000D02*
X180170000Y-65267400D01*
X180170000Y-65267400D02*
X184643900Y-60793500D01*
X184643900Y-60793500D02*
X185768800Y-60793500D01*
X171616500Y-102093900D02*
X171616500Y-103218800D01*
X167142600Y-97620000D02*
X171616500Y-102093900D01*
X166480000Y-97620000D02*
X167142600Y-97620000D01*
X148480000Y-53510000D02*
X147819600Y-53510000D01*
X147819600Y-53510000D02*
X142513700Y-48204100D01*
X142513700Y-48204100D02*
X142513700Y-47473100D01*
X130754100Y-89896300D02*
X130023100Y-89896300D01*
X136060000Y-84590400D02*
X130754100Y-89896300D01*
X136060000Y-83930000D02*
X136060000Y-84590400D01*
X178900000Y-65930000D02*
X178900000Y-65269600D01*
X178900000Y-65269600D02*
X184205900Y-59963700D01*
X184205900Y-59963700D02*
X184936900Y-59963700D01*
X172446300Y-101655900D02*
X172446300Y-102386900D01*
X167140400Y-96350000D02*
X172446300Y-101655900D01*
X166480000Y-96350000D02*
X167140400Y-96350000D01*
X148480000Y-50970000D02*
X152010700Y-50970000D01*
X152010700Y-50970000D02*
X154101300Y-48879400D01*
X133520000Y-80399300D02*
X131429400Y-78308700D01*
X133520000Y-83930000D02*
X133520000Y-80399300D01*
X181440000Y-65930000D02*
X181440000Y-69460700D01*
X181440000Y-69460700D02*
X183530600Y-71551300D01*
X162949300Y-98890000D02*
X160858700Y-100980600D01*
X166480000Y-98890000D02*
X162949300Y-98890000D01*
X148480000Y-42080000D02*
X149561600Y-42080000D01*
X149561600Y-42080000D02*
X151096700Y-40544900D01*
X151096700Y-40544900D02*
X151096700Y-39512600D01*
X151096700Y-39512600D02*
X150613400Y-39029300D01*
X122062600Y-81313300D02*
X121579300Y-81796600D01*
X123094900Y-81313300D02*
X122062600Y-81313300D01*
X124630000Y-82848400D02*
X123094900Y-81313300D01*
X124630000Y-83930000D02*
X124630000Y-82848400D01*
X190330000Y-65930000D02*
X190330000Y-67011600D01*
X190330000Y-67011600D02*
X191865100Y-68546700D01*
X191865100Y-68546700D02*
X192897400Y-68546700D01*
X192897400Y-68546700D02*
X193380700Y-68063400D01*
X163863300Y-110347400D02*
X164346600Y-110830700D01*
X163863300Y-109315100D02*
X163863300Y-110347400D01*
X165398400Y-107780000D02*
X163863300Y-109315100D01*
X166480000Y-107780000D02*
X165398400Y-107780000D01*
X141577600Y-40992700D02*
X146799800Y-46214800D01*
X146799800Y-46214800D02*
X146799800Y-46330500D01*
X139235000Y-40835000D02*
X141420000Y-40835000D01*
X141420000Y-40835000D02*
X141577600Y-40992700D01*
X148480000Y-38270000D02*
X147073400Y-36863400D01*
X147073400Y-36863400D02*
X145706900Y-36863400D01*
X145706900Y-36863400D02*
X141577600Y-40992700D01*
X139235000Y-40835000D02*
X135085000Y-40835000D01*
X123385000Y-93175000D02*
X123385000Y-97325000D01*
X119413400Y-86703100D02*
X123542700Y-90832400D01*
X119413400Y-85336600D02*
X119413400Y-86703100D01*
X120820000Y-83930000D02*
X119413400Y-85336600D01*
X123385000Y-90990000D02*
X123542700Y-90832400D01*
X123385000Y-93175000D02*
X123385000Y-90990000D01*
X128764800Y-85610200D02*
X128880500Y-85610200D01*
X123542700Y-90832400D02*
X128764800Y-85610200D01*
X191417300Y-59027600D02*
X186195200Y-64249800D01*
X186195200Y-64249800D02*
X186079500Y-64249800D01*
X191575000Y-56685000D02*
X191575000Y-58870000D01*
X191575000Y-58870000D02*
X191417300Y-59027600D01*
X194140000Y-65930000D02*
X195546600Y-64523400D01*
X195546600Y-64523400D02*
X195546600Y-63156900D01*
X195546600Y-63156900D02*
X191417300Y-59027600D01*
X191575000Y-56685000D02*
X191575000Y-52535000D01*
X175725000Y-109025000D02*
X179875000Y-109025000D01*
X169253100Y-112996600D02*
X173382400Y-108867300D01*
X167886600Y-112996600D02*
X169253100Y-112996600D01*
X166480000Y-111590000D02*
X167886600Y-112996600D01*
X173540000Y-109025000D02*
X173382400Y-108867300D01*
X175725000Y-109025000D02*
X173540000Y-109025000D01*
X168160200Y-103645200D02*
X168160200Y-103529500D01*
X173382400Y-108867300D02*
X168160200Y-103645200D01*
X166480000Y-40810000D02*
X167090300Y-40810000D01*
X167090300Y-40810000D02*
X168030400Y-39869900D01*
X168030400Y-39869900D02*
X168030400Y-37655400D01*
X168030400Y-37655400D02*
X163708600Y-33333600D01*
X163708600Y-33333600D02*
X138743600Y-33333600D01*
X138743600Y-33333600D02*
X135890000Y-30480000D01*
X115883600Y-93666400D02*
X113030000Y-96520000D01*
X115883600Y-68701400D02*
X115883600Y-93666400D01*
X120205400Y-64379600D02*
X115883600Y-68701400D01*
X122419900Y-64379600D02*
X120205400Y-64379600D01*
X123360000Y-65319700D02*
X122419900Y-64379600D01*
X123360000Y-65930000D02*
X123360000Y-65319700D01*
X191600000Y-83930000D02*
X191600000Y-84540300D01*
X191600000Y-84540300D02*
X192540100Y-85480400D01*
X192540100Y-85480400D02*
X194754600Y-85480400D01*
X194754600Y-85480400D02*
X199076400Y-81158600D01*
X199076400Y-81158600D02*
X199076400Y-56193600D01*
X199076400Y-56193600D02*
X201930000Y-53340000D01*
X176216400Y-116526400D02*
X179070000Y-119380000D01*
X151251400Y-116526400D02*
X176216400Y-116526400D01*
X146929600Y-112204600D02*
X151251400Y-116526400D01*
X146929600Y-109990100D02*
X146929600Y-112204600D01*
X147869700Y-109050000D02*
X146929600Y-109990100D01*
X148480000Y-109050000D02*
X147869700Y-109050000D01*
X166480000Y-42080000D02*
X167080200Y-42080000D01*
X167080200Y-42080000D02*
X168479000Y-40681200D01*
X168479000Y-40681200D02*
X168479000Y-37537900D01*
X168479000Y-37537900D02*
X163874400Y-32933300D01*
X163874400Y-32933300D02*
X140883300Y-32933300D01*
X140883300Y-32933300D02*
X138430000Y-30480000D01*
X115483300Y-91526700D02*
X113030000Y-93980000D01*
X115483300Y-68535600D02*
X115483300Y-91526700D01*
X120087900Y-63931000D02*
X115483300Y-68535600D01*
X123231200Y-63931000D02*
X120087900Y-63931000D01*
X124630000Y-65329800D02*
X123231200Y-63931000D01*
X124630000Y-65930000D02*
X124630000Y-65329800D01*
X190330000Y-83930000D02*
X190330000Y-84530200D01*
X190330000Y-84530200D02*
X191728800Y-85929000D01*
X191728800Y-85929000D02*
X194872100Y-85929000D01*
X194872100Y-85929000D02*
X199476700Y-81324400D01*
X199476700Y-81324400D02*
X199476700Y-58333300D01*
X199476700Y-58333300D02*
X201930000Y-55880000D01*
X174076700Y-116926700D02*
X176530000Y-119380000D01*
X151085600Y-116926700D02*
X174076700Y-116926700D01*
X146481000Y-112322100D02*
X151085600Y-116926700D01*
X146481000Y-109178800D02*
X146481000Y-112322100D01*
X147879800Y-107780000D02*
X146481000Y-109178800D01*
X148480000Y-107780000D02*
X147879800Y-107780000D01*
X166480000Y-43350000D02*
X167152300Y-43350000D01*
X167152300Y-43350000D02*
X168880700Y-41621600D01*
X168880700Y-41621600D02*
X168880700Y-37373400D01*
X168880700Y-37373400D02*
X164040300Y-32533000D01*
X164040300Y-32533000D02*
X143023000Y-32533000D01*
X143023000Y-32533000D02*
X140970000Y-30480000D01*
X115083000Y-89387000D02*
X113030000Y-91440000D01*
X115083000Y-68369700D02*
X115083000Y-89387000D01*
X119923400Y-63529300D02*
X115083000Y-68369700D01*
X124171600Y-63529300D02*
X119923400Y-63529300D01*
X125900000Y-65257700D02*
X124171600Y-63529300D01*
X125900000Y-65930000D02*
X125900000Y-65257700D01*
X189060000Y-83930000D02*
X189060000Y-84602300D01*
X189060000Y-84602300D02*
X190788400Y-86330700D01*
X190788400Y-86330700D02*
X195036600Y-86330700D01*
X195036600Y-86330700D02*
X199877000Y-81490300D01*
X199877000Y-81490300D02*
X199877000Y-60473000D01*
X199877000Y-60473000D02*
X201930000Y-58420000D01*
X171937000Y-117327000D02*
X173990000Y-119380000D01*
X150919700Y-117327000D02*
X171937000Y-117327000D01*
X146079300Y-112486600D02*
X150919700Y-117327000D01*
X146079300Y-108238400D02*
X146079300Y-112486600D01*
X147807700Y-106510000D02*
X146079300Y-108238400D01*
X148480000Y-106510000D02*
X147807700Y-106510000D01*
X166480000Y-44620000D02*
X165100100Y-44620000D01*
X165100100Y-44620000D02*
X164774200Y-44945900D01*
X127170000Y-67309900D02*
X127495900Y-67635800D01*
X127170000Y-65930000D02*
X127170000Y-67309900D01*
X187790000Y-83930000D02*
X187790000Y-82550100D01*
X187790000Y-82550100D02*
X187464100Y-82224200D01*
X149859900Y-105240000D02*
X150185800Y-104914100D01*
X148480000Y-105240000D02*
X149859900Y-105240000D01*
X166480000Y-45890000D02*
X164842400Y-45890000D01*
X164842400Y-45890000D02*
X157402200Y-38449800D01*
X157402200Y-38449800D02*
X151520500Y-38449800D01*
X151520500Y-38449800D02*
X149108700Y-36038000D01*
X149108700Y-36038000D02*
X144657600Y-36038000D01*
X144657600Y-36038000D02*
X144407400Y-36288200D01*
X144407400Y-36288200D02*
X139158200Y-36288200D01*
X139158200Y-36288200D02*
X133350000Y-30480000D01*
X118838200Y-93251800D02*
X113030000Y-99060000D01*
X118838200Y-88002600D02*
X118838200Y-93251800D01*
X118588000Y-87752400D02*
X118838200Y-88002600D01*
X118588000Y-83301300D02*
X118588000Y-87752400D01*
X120999800Y-80889500D02*
X118588000Y-83301300D01*
X120999800Y-75007800D02*
X120999800Y-80889500D01*
X128440000Y-67567600D02*
X120999800Y-75007800D01*
X128440000Y-65930000D02*
X128440000Y-67567600D01*
X186520000Y-83930000D02*
X186520000Y-82292400D01*
X186520000Y-82292400D02*
X193960200Y-74852200D01*
X193960200Y-74852200D02*
X193960200Y-68970500D01*
X193960200Y-68970500D02*
X196372000Y-66558700D01*
X196372000Y-66558700D02*
X196372000Y-62107600D01*
X196372000Y-62107600D02*
X196121800Y-61857400D01*
X196121800Y-61857400D02*
X196121800Y-56608200D01*
X196121800Y-56608200D02*
X201930000Y-50800000D01*
X175801800Y-113571800D02*
X181610000Y-119380000D01*
X170552600Y-113571800D02*
X175801800Y-113571800D01*
X170302400Y-113822000D02*
X170552600Y-113571800D01*
X165851300Y-113822000D02*
X170302400Y-113822000D01*
X163439500Y-111410200D02*
X165851300Y-113822000D01*
X157557800Y-111410200D02*
X163439500Y-111410200D01*
X150117600Y-103970000D02*
X157557800Y-111410200D01*
X148480000Y-103970000D02*
X150117600Y-103970000D01*
X166480000Y-47160000D02*
X164566800Y-47160000D01*
X129710000Y-65930000D02*
X129710000Y-67843200D01*
X185250000Y-83930000D02*
X185250000Y-82016800D01*
X148480000Y-102700000D02*
X150393200Y-102700000D01*
X166480000Y-48430000D02*
X166314700Y-48595300D01*
X166314700Y-48595300D02*
X162169200Y-48595300D01*
X131145300Y-66095300D02*
X131145300Y-70240800D01*
X130980000Y-65930000D02*
X131145300Y-66095300D01*
X183980000Y-83930000D02*
X183814700Y-83764700D01*
X183814700Y-83764700D02*
X183814700Y-79619200D01*
X148645300Y-101264700D02*
X152790800Y-101264700D01*
X148480000Y-101430000D02*
X148645300Y-101264700D01*
X166480000Y-49700000D02*
X165883200Y-49700000D01*
X165883200Y-49700000D02*
X164259500Y-51323700D01*
X132250000Y-66526800D02*
X133873700Y-68150500D01*
X132250000Y-65930000D02*
X132250000Y-66526800D01*
X182710000Y-83930000D02*
X182710000Y-83333200D01*
X182710000Y-83333200D02*
X181086300Y-81709500D01*
X149076800Y-100160000D02*
X150700500Y-98536300D01*
X148480000Y-100160000D02*
X149076800Y-100160000D01*
X166480000Y-50970000D02*
X165624900Y-50970000D01*
X165624900Y-50970000D02*
X165014600Y-51580300D01*
X133520000Y-66785100D02*
X134130300Y-67395400D01*
X133520000Y-65930000D02*
X133520000Y-66785100D01*
X181440000Y-83930000D02*
X181440000Y-83074900D01*
X181440000Y-83074900D02*
X180829700Y-82464600D01*
X149335100Y-98890000D02*
X149945400Y-98279700D01*
X148480000Y-98890000D02*
X149335100Y-98890000D01*
X151765000Y-36780000D02*
X150633700Y-36780000D01*
X119330000Y-80645000D02*
X119330000Y-81776300D01*
X195630000Y-69215000D02*
X195630000Y-68083700D01*
X163195000Y-113080000D02*
X164326300Y-113080000D01*
X148480000Y-39540000D02*
X149333500Y-39540000D01*
X149333500Y-39540000D02*
X149985400Y-40191900D01*
X122090000Y-83076500D02*
X122741900Y-82424600D01*
X122090000Y-83930000D02*
X122090000Y-83076500D01*
X192870000Y-65930000D02*
X192870000Y-66783500D01*
X192870000Y-66783500D02*
X192218100Y-67435400D01*
X165626500Y-110320000D02*
X164974600Y-109668100D01*
X166480000Y-110320000D02*
X165626500Y-110320000D01*
X143214900Y-34746700D02*
X144227700Y-33733900D01*
X144227700Y-33733900D02*
X163542800Y-33733900D01*
X163542800Y-33733900D02*
X164511700Y-34702800D01*
X164511700Y-34702800D02*
X164511700Y-34915100D01*
X166480000Y-38270000D02*
X166480000Y-36883400D01*
X166480000Y-36883400D02*
X164511700Y-34915100D01*
X119433400Y-65930000D02*
X117465100Y-67898300D01*
X120820000Y-65930000D02*
X119433400Y-65930000D01*
X117252800Y-67898300D02*
X117465100Y-67898300D01*
X116283900Y-68867200D02*
X117252800Y-67898300D01*
X116283900Y-88182300D02*
X116283900Y-68867200D01*
X117296700Y-89195100D02*
X116283900Y-88182300D01*
X197663300Y-60664900D02*
X198676100Y-61677700D01*
X198676100Y-61677700D02*
X198676100Y-80992800D01*
X198676100Y-80992800D02*
X197707200Y-81961700D01*
X197707200Y-81961700D02*
X197494900Y-81961700D01*
X194140000Y-83930000D02*
X195526600Y-83930000D01*
X195526600Y-83930000D02*
X197494900Y-81961700D01*
X148480000Y-112976600D02*
X150448300Y-114944900D01*
X148480000Y-111590000D02*
X148480000Y-112976600D01*
X150448300Y-115157200D02*
X150448300Y-114944900D01*
X151417200Y-116126100D02*
X150448300Y-115157200D01*
X170732300Y-116126100D02*
X151417200Y-116126100D01*
X171745100Y-115113300D02*
X170732300Y-116126100D01*
X145557200Y-34620700D02*
X145797600Y-34861100D01*
X145797600Y-34861100D02*
X150047600Y-34861100D01*
X150047600Y-34861100D02*
X150176700Y-34732000D01*
X150176700Y-34732000D02*
X161437800Y-34732000D01*
X161437800Y-34732000D02*
X161925000Y-35219200D01*
X161925000Y-35219200D02*
X163158100Y-35219200D01*
X163158100Y-35219200D02*
X163312700Y-35064600D01*
X161925000Y-35219200D02*
X161925000Y-36780000D01*
X117769200Y-70485000D02*
X119330000Y-70485000D01*
X117769200Y-69251900D02*
X117614600Y-69097300D01*
X117769200Y-70485000D02*
X117769200Y-69251900D01*
X117282000Y-70972200D02*
X117769200Y-70485000D01*
X117282000Y-82233300D02*
X117282000Y-70972200D01*
X117411100Y-82362400D02*
X117282000Y-82233300D01*
X117411100Y-86612400D02*
X117411100Y-82362400D01*
X117170700Y-86852800D02*
X117411100Y-86612400D01*
X197789300Y-63007200D02*
X197548900Y-63247600D01*
X197548900Y-63247600D02*
X197548900Y-67497600D01*
X197548900Y-67497600D02*
X197678000Y-67626700D01*
X197678000Y-67626700D02*
X197678000Y-78887800D01*
X197678000Y-78887800D02*
X197190800Y-79375000D01*
X197190800Y-79375000D02*
X197190800Y-80608100D01*
X197190800Y-80608100D02*
X197345400Y-80762700D01*
X197190800Y-79375000D02*
X195630000Y-79375000D01*
X153035000Y-114640800D02*
X153035000Y-113080000D01*
X151801900Y-114640800D02*
X151647300Y-114795400D01*
X153035000Y-114640800D02*
X151801900Y-114640800D01*
X153522200Y-115128000D02*
X153035000Y-114640800D01*
X164783300Y-115128000D02*
X153522200Y-115128000D01*
X164912400Y-114998900D02*
X164783300Y-115128000D01*
X169162400Y-114998900D02*
X164912400Y-114998900D01*
X169402800Y-115239300D02*
X169162400Y-114998900D01*
X163335400Y-34304900D02*
X163329500Y-34310800D01*
X163329500Y-34310800D02*
X149819700Y-34310800D01*
X166480000Y-39540000D02*
X165808700Y-39540000D01*
X165808700Y-39540000D02*
X163961400Y-37692700D01*
X163961400Y-37692700D02*
X163961400Y-34930900D01*
X163961400Y-34930900D02*
X163335400Y-34304900D01*
X117480900Y-68448600D02*
X116854900Y-69074600D01*
X120242700Y-68448600D02*
X117480900Y-68448600D01*
X122090000Y-66601300D02*
X120242700Y-68448600D01*
X122090000Y-65930000D02*
X122090000Y-66601300D01*
X116860800Y-69080500D02*
X116860800Y-82590300D01*
X116854900Y-69074600D02*
X116860800Y-69080500D01*
X198105100Y-80785400D02*
X198099200Y-80779500D01*
X198099200Y-80779500D02*
X198099200Y-67269700D01*
X192870000Y-83930000D02*
X192870000Y-83258700D01*
X192870000Y-83258700D02*
X194717300Y-81411400D01*
X194717300Y-81411400D02*
X197479100Y-81411400D01*
X197479100Y-81411400D02*
X198105100Y-80785400D01*
X150998600Y-114929100D02*
X151624600Y-115555100D01*
X150998600Y-112167300D02*
X150998600Y-114929100D01*
X149151300Y-110320000D02*
X150998600Y-112167300D01*
X148480000Y-110320000D02*
X149151300Y-110320000D01*
X151630500Y-115549200D02*
X165140300Y-115549200D01*
X151624600Y-115555100D02*
X151630500Y-115549200D01*
X153035000Y-36119200D02*
X152119000Y-35203200D01*
X152119000Y-35203200D02*
X150271600Y-35203200D01*
X150271600Y-35203200D02*
X149837100Y-35637700D01*
X149837100Y-35637700D02*
X144279400Y-35637700D01*
X144279400Y-35637700D02*
X144238300Y-35678800D01*
X153035000Y-36119200D02*
X153951100Y-35203100D01*
X153951100Y-35203100D02*
X154908700Y-35203100D01*
X154908700Y-35203100D02*
X154987900Y-35282300D01*
X153035000Y-36119200D02*
X153035000Y-36780000D01*
X118669200Y-79375000D02*
X119330000Y-79375000D01*
X117753100Y-77501300D02*
X117832300Y-77422100D01*
X117753100Y-78458900D02*
X117753100Y-77501300D01*
X118669200Y-79375000D02*
X117753100Y-78458900D01*
X118187700Y-88130600D02*
X118228800Y-88171700D01*
X118187700Y-82572900D02*
X118187700Y-88130600D01*
X117753200Y-82138400D02*
X118187700Y-82572900D01*
X117753200Y-80291000D02*
X117753200Y-82138400D01*
X118669200Y-79375000D02*
X117753200Y-80291000D01*
X196290800Y-70485000D02*
X197206800Y-69569000D01*
X197206800Y-69569000D02*
X197206800Y-67721600D01*
X197206800Y-67721600D02*
X196772300Y-67287100D01*
X196772300Y-67287100D02*
X196772300Y-61729400D01*
X196772300Y-61729400D02*
X196731200Y-61688300D01*
X196290800Y-70485000D02*
X197206900Y-71401100D01*
X197206900Y-71401100D02*
X197206900Y-72358700D01*
X197206900Y-72358700D02*
X197127700Y-72437900D01*
X196290800Y-70485000D02*
X195630000Y-70485000D01*
X161925000Y-113740800D02*
X161925000Y-113080000D01*
X160051300Y-114656900D02*
X159972100Y-114577700D01*
X161008900Y-114656900D02*
X160051300Y-114656900D01*
X161925000Y-113740800D02*
X161008900Y-114656900D01*
X170680600Y-114222300D02*
X170721700Y-114181200D01*
X165122900Y-114222300D02*
X170680600Y-114222300D01*
X164688400Y-114656800D02*
X165122900Y-114222300D01*
X162841000Y-114656800D02*
X164688400Y-114656800D01*
X161925000Y-113740800D02*
X162841000Y-114656800D01*
X148480000Y-40810000D02*
X150219200Y-40810000D01*
X150219200Y-40810000D02*
X150546300Y-40482900D01*
X150546300Y-40482900D02*
X150546300Y-39740600D01*
X123032900Y-81863700D02*
X122290600Y-81863700D01*
X123360000Y-82190800D02*
X123032900Y-81863700D01*
X123360000Y-83930000D02*
X123360000Y-82190800D01*
X191600000Y-65930000D02*
X191600000Y-67669200D01*
X191600000Y-67669200D02*
X191927100Y-67996300D01*
X191927100Y-67996300D02*
X192669400Y-67996300D01*
X164413700Y-109377100D02*
X164413700Y-110119400D01*
X164740800Y-109050000D02*
X164413700Y-109377100D01*
X166480000Y-109050000D02*
X164740800Y-109050000D01*
M02*
