G04 #@! TF.FileFunction,Soldermask,Top*
%FSLAX46Y46*%
G04 Gerber Fmt 4.6, Leading zero omitted, Abs format (unit mm)*
G04 Created by KiCad (PCBNEW 4.0.1-stable) date 2017/04/12 16:11:32*
%MOMM*%
G01*
G04 APERTURE LIST*
%ADD10C,0.100000*%
%ADD11O,2.900000X1.300000*%
%ADD12O,1.300000X2.900000*%
%ADD13R,6.400000X6.400000*%
%ADD14R,3.400000X3.400000*%
%ADD15R,1.450000X1.050000*%
%ADD16R,2.127200X2.432000*%
%ADD17O,2.127200X2.432000*%
%ADD18R,1.101040X1.901140*%
%ADD19R,1.400760X1.901140*%
%ADD20R,2.398980X1.200100*%
%ADD21R,0.900000X1.300000*%
%ADD22R,1.400000X2.000000*%
%ADD23R,1.150000X1.200000*%
%ADD24R,1.200000X1.150000*%
%ADD25R,2.000000X1.400000*%
%ADD26R,1.300000X0.900000*%
%ADD27R,1.901140X1.101040*%
%ADD28R,1.901140X1.400760*%
%ADD29R,1.200100X2.398980*%
%ADD30R,2.432000X2.127200*%
%ADD31O,2.432000X2.127200*%
%ADD32R,1.050000X1.450000*%
G04 APERTURE END LIST*
D10*
D11*
X148480000Y-54780000D03*
X148480000Y-53510000D03*
X148480000Y-52240000D03*
X148480000Y-50970000D03*
X148480000Y-49700000D03*
X148480000Y-48430000D03*
X148480000Y-47160000D03*
X148480000Y-45890000D03*
X148480000Y-44620000D03*
X148480000Y-43350000D03*
X148480000Y-42080000D03*
X148480000Y-40810000D03*
X148480000Y-39540000D03*
X148480000Y-38270000D03*
D12*
X151765000Y-36780000D03*
X153035000Y-36780000D03*
X154305000Y-36780000D03*
X155575000Y-36780000D03*
X156845000Y-36780000D03*
X158115000Y-36780000D03*
X159385000Y-36780000D03*
X160655000Y-36780000D03*
X161925000Y-36780000D03*
X163195000Y-36780000D03*
D11*
X166480000Y-38270000D03*
X166480000Y-39540000D03*
X166480000Y-40810000D03*
X166480000Y-42080000D03*
X166480000Y-43350000D03*
X166480000Y-44620000D03*
X166480000Y-45890000D03*
X166480000Y-47160000D03*
X166480000Y-48430000D03*
X166480000Y-49700000D03*
X166480000Y-50970000D03*
X166480000Y-52240000D03*
X166480000Y-53510000D03*
X166480000Y-54780000D03*
D13*
X157780000Y-47080000D03*
D14*
X157780000Y-47080000D03*
D15*
X139235000Y-39175000D03*
X135085000Y-39175000D03*
X135085000Y-37025000D03*
X139235000Y-37025000D03*
X139235000Y-42985000D03*
X135085000Y-42985000D03*
X135085000Y-40835000D03*
X139235000Y-40835000D03*
D16*
X194310000Y-30480000D03*
D17*
X191770000Y-30480000D03*
X189230000Y-30480000D03*
X186690000Y-30480000D03*
X184150000Y-30480000D03*
X181610000Y-30480000D03*
X179070000Y-30480000D03*
X176530000Y-30480000D03*
X173990000Y-30480000D03*
X171450000Y-30480000D03*
X168910000Y-30480000D03*
X166370000Y-30480000D03*
X163830000Y-30480000D03*
X161290000Y-30480000D03*
X158750000Y-30480000D03*
X156210000Y-30480000D03*
X153670000Y-30480000D03*
X151130000Y-30480000D03*
X148590000Y-30480000D03*
X146050000Y-30480000D03*
X143510000Y-30480000D03*
X140970000Y-30480000D03*
X138430000Y-30480000D03*
X135890000Y-30480000D03*
X133350000Y-30480000D03*
X130810000Y-30480000D03*
X128270000Y-30480000D03*
X125730000Y-30480000D03*
X123190000Y-30480000D03*
X120650000Y-30480000D03*
D10*
G36*
X177730760Y-42061790D02*
X177230380Y-43211090D01*
X175829620Y-43211090D01*
X175329240Y-42061790D01*
X177730760Y-42061790D01*
X177730760Y-42061790D01*
G37*
D18*
X178031140Y-43761660D03*
X175028860Y-43761660D03*
X178031140Y-40058340D03*
D19*
X176530000Y-40058340D03*
D18*
X175028860Y-40058340D03*
D19*
X176530000Y-43761660D03*
D10*
G36*
X175329240Y-41758210D02*
X175829620Y-40608910D01*
X177230380Y-40608910D01*
X177730760Y-41758210D01*
X175329240Y-41758210D01*
X175329240Y-41758210D01*
G37*
D20*
X176530000Y-41910000D03*
D21*
X172200000Y-48260000D03*
X170700000Y-48260000D03*
D22*
X175030000Y-48260000D03*
X178030000Y-48260000D03*
D23*
X171450000Y-42660000D03*
X171450000Y-41160000D03*
X181610000Y-42660000D03*
X181610000Y-41160000D03*
D24*
X125210000Y-50800000D03*
X123710000Y-50800000D03*
X125210000Y-60960000D03*
X123710000Y-60960000D03*
D25*
X130810000Y-57380000D03*
X130810000Y-54380000D03*
D26*
X130810000Y-60210000D03*
X130810000Y-61710000D03*
D10*
G36*
X124611790Y-54679240D02*
X125761090Y-55179620D01*
X125761090Y-56580380D01*
X124611790Y-57080760D01*
X124611790Y-54679240D01*
X124611790Y-54679240D01*
G37*
D27*
X126311660Y-54378860D03*
X126311660Y-57381140D03*
X122608340Y-54378860D03*
D28*
X122608340Y-55880000D03*
D27*
X122608340Y-57381140D03*
D28*
X126311660Y-55880000D03*
D10*
G36*
X124308210Y-57080760D02*
X123158910Y-56580380D01*
X123158910Y-55179620D01*
X124308210Y-54679240D01*
X124308210Y-57080760D01*
X124308210Y-57080760D01*
G37*
D29*
X124460000Y-55880000D03*
D30*
X113030000Y-38100000D03*
D31*
X113030000Y-40640000D03*
X113030000Y-43180000D03*
X113030000Y-45720000D03*
X113030000Y-48260000D03*
X113030000Y-50800000D03*
X113030000Y-53340000D03*
X113030000Y-55880000D03*
X113030000Y-58420000D03*
X113030000Y-60960000D03*
X113030000Y-63500000D03*
X113030000Y-66040000D03*
X113030000Y-68580000D03*
X113030000Y-71120000D03*
X113030000Y-73660000D03*
X113030000Y-76200000D03*
X113030000Y-78740000D03*
X113030000Y-81280000D03*
X113030000Y-83820000D03*
X113030000Y-86360000D03*
X113030000Y-88900000D03*
X113030000Y-91440000D03*
X113030000Y-93980000D03*
X113030000Y-96520000D03*
X113030000Y-99060000D03*
X113030000Y-101600000D03*
X113030000Y-104140000D03*
X113030000Y-106680000D03*
X113030000Y-109220000D03*
X113030000Y-111760000D03*
D32*
X125535000Y-93175000D03*
X125535000Y-97325000D03*
X123385000Y-97325000D03*
X123385000Y-93175000D03*
X121725000Y-93175000D03*
X121725000Y-97325000D03*
X119575000Y-97325000D03*
X119575000Y-93175000D03*
D12*
X137330000Y-83930000D03*
X136060000Y-83930000D03*
X134790000Y-83930000D03*
X133520000Y-83930000D03*
X132250000Y-83930000D03*
X130980000Y-83930000D03*
X129710000Y-83930000D03*
X128440000Y-83930000D03*
X127170000Y-83930000D03*
X125900000Y-83930000D03*
X124630000Y-83930000D03*
X123360000Y-83930000D03*
X122090000Y-83930000D03*
X120820000Y-83930000D03*
D11*
X119330000Y-80645000D03*
X119330000Y-79375000D03*
X119330000Y-78105000D03*
X119330000Y-76835000D03*
X119330000Y-75565000D03*
X119330000Y-74295000D03*
X119330000Y-73025000D03*
X119330000Y-71755000D03*
X119330000Y-70485000D03*
X119330000Y-69215000D03*
D12*
X120820000Y-65930000D03*
X122090000Y-65930000D03*
X123360000Y-65930000D03*
X124630000Y-65930000D03*
X125900000Y-65930000D03*
X127170000Y-65930000D03*
X128440000Y-65930000D03*
X129710000Y-65930000D03*
X130980000Y-65930000D03*
X132250000Y-65930000D03*
X133520000Y-65930000D03*
X134790000Y-65930000D03*
X136060000Y-65930000D03*
X137330000Y-65930000D03*
D13*
X129630000Y-74630000D03*
D14*
X129630000Y-74630000D03*
D12*
X177630000Y-65930000D03*
X178900000Y-65930000D03*
X180170000Y-65930000D03*
X181440000Y-65930000D03*
X182710000Y-65930000D03*
X183980000Y-65930000D03*
X185250000Y-65930000D03*
X186520000Y-65930000D03*
X187790000Y-65930000D03*
X189060000Y-65930000D03*
X190330000Y-65930000D03*
X191600000Y-65930000D03*
X192870000Y-65930000D03*
X194140000Y-65930000D03*
D11*
X195630000Y-69215000D03*
X195630000Y-70485000D03*
X195630000Y-71755000D03*
X195630000Y-73025000D03*
X195630000Y-74295000D03*
X195630000Y-75565000D03*
X195630000Y-76835000D03*
X195630000Y-78105000D03*
X195630000Y-79375000D03*
X195630000Y-80645000D03*
D12*
X194140000Y-83930000D03*
X192870000Y-83930000D03*
X191600000Y-83930000D03*
X190330000Y-83930000D03*
X189060000Y-83930000D03*
X187790000Y-83930000D03*
X186520000Y-83930000D03*
X185250000Y-83930000D03*
X183980000Y-83930000D03*
X182710000Y-83930000D03*
X181440000Y-83930000D03*
X180170000Y-83930000D03*
X178900000Y-83930000D03*
X177630000Y-83930000D03*
D13*
X185330000Y-75230000D03*
D14*
X185330000Y-75230000D03*
D32*
X193235000Y-56685000D03*
X193235000Y-52535000D03*
X195385000Y-52535000D03*
X195385000Y-56685000D03*
X189425000Y-56685000D03*
X189425000Y-52535000D03*
X191575000Y-52535000D03*
X191575000Y-56685000D03*
D30*
X201930000Y-111760000D03*
D31*
X201930000Y-109220000D03*
X201930000Y-106680000D03*
X201930000Y-104140000D03*
X201930000Y-101600000D03*
X201930000Y-99060000D03*
X201930000Y-96520000D03*
X201930000Y-93980000D03*
X201930000Y-91440000D03*
X201930000Y-88900000D03*
X201930000Y-86360000D03*
X201930000Y-83820000D03*
X201930000Y-81280000D03*
X201930000Y-78740000D03*
X201930000Y-76200000D03*
X201930000Y-73660000D03*
X201930000Y-71120000D03*
X201930000Y-68580000D03*
X201930000Y-66040000D03*
X201930000Y-63500000D03*
X201930000Y-60960000D03*
X201930000Y-58420000D03*
X201930000Y-55880000D03*
X201930000Y-53340000D03*
X201930000Y-50800000D03*
X201930000Y-48260000D03*
X201930000Y-45720000D03*
X201930000Y-43180000D03*
X201930000Y-40640000D03*
X201930000Y-38100000D03*
D10*
G36*
X190348210Y-95180760D02*
X189198910Y-94680380D01*
X189198910Y-93279620D01*
X190348210Y-92779240D01*
X190348210Y-95180760D01*
X190348210Y-95180760D01*
G37*
D27*
X188648340Y-95481140D03*
X188648340Y-92478860D03*
X192351660Y-95481140D03*
D28*
X192351660Y-93980000D03*
D27*
X192351660Y-92478860D03*
D28*
X188648340Y-93980000D03*
D10*
G36*
X190651790Y-92779240D02*
X191801090Y-93279620D01*
X191801090Y-94680380D01*
X190651790Y-95180760D01*
X190651790Y-92779240D01*
X190651790Y-92779240D01*
G37*
D29*
X190500000Y-93980000D03*
D26*
X184150000Y-89650000D03*
X184150000Y-88150000D03*
D25*
X184150000Y-92480000D03*
X184150000Y-95480000D03*
D24*
X189750000Y-88900000D03*
X191250000Y-88900000D03*
X189750000Y-99060000D03*
X191250000Y-99060000D03*
D23*
X133350000Y-107200000D03*
X133350000Y-108700000D03*
X143510000Y-107200000D03*
X143510000Y-108700000D03*
D22*
X139930000Y-101600000D03*
X136930000Y-101600000D03*
D21*
X142760000Y-101600000D03*
X144260000Y-101600000D03*
D10*
G36*
X137229240Y-107798210D02*
X137729620Y-106648910D01*
X139130380Y-106648910D01*
X139630760Y-107798210D01*
X137229240Y-107798210D01*
X137229240Y-107798210D01*
G37*
D18*
X136928860Y-106098340D03*
X139931140Y-106098340D03*
X136928860Y-109801660D03*
D19*
X138430000Y-109801660D03*
D18*
X139931140Y-109801660D03*
D19*
X138430000Y-106098340D03*
D10*
G36*
X139630760Y-108101790D02*
X139130380Y-109251090D01*
X137729620Y-109251090D01*
X137229240Y-108101790D01*
X139630760Y-108101790D01*
X139630760Y-108101790D01*
G37*
D20*
X138430000Y-107950000D03*
D16*
X120650000Y-119380000D03*
D17*
X123190000Y-119380000D03*
X125730000Y-119380000D03*
X128270000Y-119380000D03*
X130810000Y-119380000D03*
X133350000Y-119380000D03*
X135890000Y-119380000D03*
X138430000Y-119380000D03*
X140970000Y-119380000D03*
X143510000Y-119380000D03*
X146050000Y-119380000D03*
X148590000Y-119380000D03*
X151130000Y-119380000D03*
X153670000Y-119380000D03*
X156210000Y-119380000D03*
X158750000Y-119380000D03*
X161290000Y-119380000D03*
X163830000Y-119380000D03*
X166370000Y-119380000D03*
X168910000Y-119380000D03*
X171450000Y-119380000D03*
X173990000Y-119380000D03*
X176530000Y-119380000D03*
X179070000Y-119380000D03*
X181610000Y-119380000D03*
X184150000Y-119380000D03*
X186690000Y-119380000D03*
X189230000Y-119380000D03*
X191770000Y-119380000D03*
X194310000Y-119380000D03*
D15*
X175725000Y-106875000D03*
X179875000Y-106875000D03*
X179875000Y-109025000D03*
X175725000Y-109025000D03*
X175725000Y-110685000D03*
X179875000Y-110685000D03*
X179875000Y-112835000D03*
X175725000Y-112835000D03*
D11*
X166480000Y-95080000D03*
X166480000Y-96350000D03*
X166480000Y-97620000D03*
X166480000Y-98890000D03*
X166480000Y-100160000D03*
X166480000Y-101430000D03*
X166480000Y-102700000D03*
X166480000Y-103970000D03*
X166480000Y-105240000D03*
X166480000Y-106510000D03*
X166480000Y-107780000D03*
X166480000Y-109050000D03*
X166480000Y-110320000D03*
X166480000Y-111590000D03*
D12*
X163195000Y-113080000D03*
X161925000Y-113080000D03*
X160655000Y-113080000D03*
X159385000Y-113080000D03*
X158115000Y-113080000D03*
X156845000Y-113080000D03*
X155575000Y-113080000D03*
X154305000Y-113080000D03*
X153035000Y-113080000D03*
X151765000Y-113080000D03*
D11*
X148480000Y-111590000D03*
X148480000Y-110320000D03*
X148480000Y-109050000D03*
X148480000Y-107780000D03*
X148480000Y-106510000D03*
X148480000Y-105240000D03*
X148480000Y-103970000D03*
X148480000Y-102700000D03*
X148480000Y-101430000D03*
X148480000Y-100160000D03*
X148480000Y-98890000D03*
X148480000Y-97620000D03*
X148480000Y-96350000D03*
X148480000Y-95080000D03*
D13*
X157180000Y-102780000D03*
D14*
X157180000Y-102780000D03*
M02*
