G04 #@! TF.FileFunction,Soldermask,Bot*
%FSLAX46Y46*%
G04 Gerber Fmt 4.6, Leading zero omitted, Abs format (unit mm)*
G04 Created by KiCad (PCBNEW 4.0.1-stable) date 2017/04/09 10:59:51*
%MOMM*%
G01*
G04 APERTURE LIST*
%ADD10C,0.100000*%
%ADD11R,2.127200X2.432000*%
%ADD12O,2.127200X2.432000*%
%ADD13R,2.432000X2.127200*%
%ADD14O,2.432000X2.127200*%
G04 APERTURE END LIST*
D10*
D11*
X194310000Y-30480000D03*
D12*
X191770000Y-30480000D03*
X189230000Y-30480000D03*
X186690000Y-30480000D03*
X184150000Y-30480000D03*
X181610000Y-30480000D03*
X179070000Y-30480000D03*
X176530000Y-30480000D03*
X173990000Y-30480000D03*
X171450000Y-30480000D03*
X168910000Y-30480000D03*
X166370000Y-30480000D03*
X163830000Y-30480000D03*
X161290000Y-30480000D03*
X158750000Y-30480000D03*
X156210000Y-30480000D03*
X153670000Y-30480000D03*
X151130000Y-30480000D03*
X148590000Y-30480000D03*
X146050000Y-30480000D03*
X143510000Y-30480000D03*
X140970000Y-30480000D03*
X138430000Y-30480000D03*
X135890000Y-30480000D03*
X133350000Y-30480000D03*
X130810000Y-30480000D03*
X128270000Y-30480000D03*
X125730000Y-30480000D03*
X123190000Y-30480000D03*
X120650000Y-30480000D03*
D13*
X113030000Y-38100000D03*
D14*
X113030000Y-40640000D03*
X113030000Y-43180000D03*
X113030000Y-45720000D03*
X113030000Y-48260000D03*
X113030000Y-50800000D03*
X113030000Y-53340000D03*
X113030000Y-55880000D03*
X113030000Y-58420000D03*
X113030000Y-60960000D03*
X113030000Y-63500000D03*
X113030000Y-66040000D03*
X113030000Y-68580000D03*
X113030000Y-71120000D03*
X113030000Y-73660000D03*
X113030000Y-76200000D03*
X113030000Y-78740000D03*
X113030000Y-81280000D03*
X113030000Y-83820000D03*
X113030000Y-86360000D03*
X113030000Y-88900000D03*
X113030000Y-91440000D03*
X113030000Y-93980000D03*
X113030000Y-96520000D03*
X113030000Y-99060000D03*
X113030000Y-101600000D03*
X113030000Y-104140000D03*
X113030000Y-106680000D03*
X113030000Y-109220000D03*
X113030000Y-111760000D03*
D13*
X201930000Y-111760000D03*
D14*
X201930000Y-109220000D03*
X201930000Y-106680000D03*
X201930000Y-104140000D03*
X201930000Y-101600000D03*
X201930000Y-99060000D03*
X201930000Y-96520000D03*
X201930000Y-93980000D03*
X201930000Y-91440000D03*
X201930000Y-88900000D03*
X201930000Y-86360000D03*
X201930000Y-83820000D03*
X201930000Y-81280000D03*
X201930000Y-78740000D03*
X201930000Y-76200000D03*
X201930000Y-73660000D03*
X201930000Y-71120000D03*
X201930000Y-68580000D03*
X201930000Y-66040000D03*
X201930000Y-63500000D03*
X201930000Y-60960000D03*
X201930000Y-58420000D03*
X201930000Y-55880000D03*
X201930000Y-53340000D03*
X201930000Y-50800000D03*
X201930000Y-48260000D03*
X201930000Y-45720000D03*
X201930000Y-43180000D03*
X201930000Y-40640000D03*
X201930000Y-38100000D03*
D11*
X120650000Y-119380000D03*
D12*
X123190000Y-119380000D03*
X125730000Y-119380000D03*
X128270000Y-119380000D03*
X130810000Y-119380000D03*
X133350000Y-119380000D03*
X135890000Y-119380000D03*
X138430000Y-119380000D03*
X140970000Y-119380000D03*
X143510000Y-119380000D03*
X146050000Y-119380000D03*
X148590000Y-119380000D03*
X151130000Y-119380000D03*
X153670000Y-119380000D03*
X156210000Y-119380000D03*
X158750000Y-119380000D03*
X161290000Y-119380000D03*
X163830000Y-119380000D03*
X166370000Y-119380000D03*
X168910000Y-119380000D03*
X171450000Y-119380000D03*
X173990000Y-119380000D03*
X176530000Y-119380000D03*
X179070000Y-119380000D03*
X181610000Y-119380000D03*
X184150000Y-119380000D03*
X186690000Y-119380000D03*
X189230000Y-119380000D03*
X191770000Y-119380000D03*
X194310000Y-119380000D03*
M02*
