G04 #@! TF.FileFunction,Copper,L1,Top,Signal*
%FSLAX46Y46*%
G04 Gerber Fmt 4.6, Leading zero omitted, Abs format (unit mm)*
G04 Created by KiCad (PCBNEW 4.0.1-stable) date 2017/02/23 14:55:37*
%MOMM*%
G01*
G04 APERTURE LIST*
%ADD10C,0.100000*%
%ADD11O,2.500000X0.900000*%
%ADD12O,0.900000X2.500000*%
%ADD13R,0.450000X1.750000*%
%ADD14R,0.900000X0.500000*%
%ADD15R,0.797560X0.797560*%
%ADD16R,0.750000X0.800000*%
%ADD17R,1.651000X3.048000*%
%ADD18R,6.096000X6.096000*%
%ADD19R,1.727200X2.032000*%
%ADD20O,1.727200X2.032000*%
%ADD21R,2.235200X2.235200*%
%ADD22R,1.727200X1.727200*%
%ADD23O,1.727200X1.727200*%
%ADD24R,0.800000X0.750000*%
%ADD25R,1.000000X0.900000*%
%ADD26R,0.500000X0.900000*%
%ADD27R,1.000000X1.600000*%
%ADD28R,1.300000X1.900000*%
%ADD29R,1.000000X2.800000*%
%ADD30R,0.700000X1.200000*%
%ADD31R,1.000000X1.200000*%
%ADD32R,0.650000X1.200000*%
%ADD33R,1.000000X0.800000*%
%ADD34R,1.897380X1.897380*%
%ADD35R,0.398780X1.348740*%
%ADD36R,0.398780X1.346200*%
%ADD37C,0.600000*%
%ADD38C,0.500000*%
%ADD39C,0.400000*%
%ADD40C,0.200000*%
G04 APERTURE END LIST*
D10*
D11*
X165210000Y-41500000D03*
X165210000Y-42770000D03*
X165210000Y-44040000D03*
X165210000Y-45310000D03*
X165210000Y-46580000D03*
X165210000Y-47850000D03*
X165210000Y-49120000D03*
X165210000Y-50390000D03*
X165210000Y-51660000D03*
X165210000Y-52930000D03*
X165210000Y-54200000D03*
X165210000Y-55470000D03*
X165210000Y-56740000D03*
X165210000Y-58010000D03*
D12*
X161925000Y-59500000D03*
X160655000Y-59500000D03*
X159385000Y-59500000D03*
X158115000Y-59500000D03*
X156845000Y-59500000D03*
X155575000Y-59500000D03*
X154305000Y-59500000D03*
X153035000Y-59500000D03*
X151765000Y-59500000D03*
X150495000Y-59500000D03*
D11*
X147210000Y-58010000D03*
X147210000Y-56740000D03*
X147210000Y-55470000D03*
X147210000Y-54200000D03*
X147210000Y-52930000D03*
X147210000Y-51660000D03*
X147210000Y-50390000D03*
X147210000Y-49120000D03*
X147210000Y-47850000D03*
X147210000Y-46580000D03*
X147210000Y-45310000D03*
X147210000Y-44040000D03*
X147210000Y-42770000D03*
X147210000Y-41500000D03*
D13*
X171035000Y-47810000D03*
X171685000Y-47810000D03*
X172335000Y-47810000D03*
X172985000Y-47810000D03*
X173635000Y-47810000D03*
X174285000Y-47810000D03*
X174935000Y-47810000D03*
X175585000Y-47810000D03*
X176235000Y-47810000D03*
X176885000Y-47810000D03*
X177535000Y-47810000D03*
X178185000Y-47810000D03*
X178835000Y-47810000D03*
X179485000Y-47810000D03*
X179485000Y-40610000D03*
X178835000Y-40610000D03*
X178185000Y-40610000D03*
X177535000Y-40610000D03*
X176885000Y-40610000D03*
X176235000Y-40610000D03*
X175585000Y-40610000D03*
X174935000Y-40610000D03*
X174285000Y-40610000D03*
X173635000Y-40610000D03*
X172985000Y-40610000D03*
X172335000Y-40610000D03*
X171685000Y-40610000D03*
X171035000Y-40610000D03*
D14*
X177800000Y-62510000D03*
X177800000Y-64010000D03*
X177800000Y-57430000D03*
X177800000Y-58930000D03*
X177800000Y-52350000D03*
X177800000Y-53850000D03*
D15*
X180340000Y-62510700D03*
X180340000Y-64009300D03*
X180340000Y-52350700D03*
X180340000Y-53849300D03*
X172720000Y-34799300D03*
X172720000Y-33300700D03*
D16*
X179070000Y-71630000D03*
X179070000Y-70130000D03*
D17*
X184404000Y-50560000D03*
D18*
X186690000Y-44210000D03*
D17*
X188976000Y-50560000D03*
D19*
X167640000Y-63260000D03*
D20*
X170180000Y-63260000D03*
X172720000Y-63260000D03*
X175260000Y-63260000D03*
D21*
X127000000Y-48020000D03*
D22*
X172720000Y-58180000D03*
D23*
X175260000Y-58180000D03*
D22*
X172720000Y-53100000D03*
D23*
X175260000Y-53100000D03*
D24*
X137045000Y-51830000D03*
X138545000Y-51830000D03*
D25*
X188740000Y-58980000D03*
X188740000Y-57380000D03*
X184640000Y-58980000D03*
X184640000Y-57380000D03*
X188740000Y-64060000D03*
X188740000Y-62460000D03*
X184640000Y-64060000D03*
X184640000Y-62460000D03*
D14*
X172720000Y-38610000D03*
X172720000Y-37110000D03*
X143002000Y-56390000D03*
X143002000Y-54890000D03*
D19*
X182880000Y-70880000D03*
D20*
X185420000Y-70880000D03*
X187960000Y-70880000D03*
D19*
X127000000Y-55640000D03*
D20*
X129540000Y-55640000D03*
X132080000Y-55640000D03*
X134620000Y-55640000D03*
X137160000Y-55640000D03*
X139700000Y-55640000D03*
D19*
X127000000Y-63260000D03*
D20*
X129540000Y-63260000D03*
X132080000Y-63260000D03*
X134620000Y-63260000D03*
X137160000Y-63260000D03*
X139700000Y-63260000D03*
D19*
X127000000Y-70880000D03*
D20*
X129540000Y-70880000D03*
X132080000Y-70880000D03*
X134620000Y-70880000D03*
X137160000Y-70880000D03*
X139700000Y-70880000D03*
X142240000Y-70880000D03*
X144780000Y-70880000D03*
X147320000Y-70880000D03*
X149860000Y-70880000D03*
X152400000Y-70880000D03*
X154940000Y-70880000D03*
X157480000Y-70880000D03*
X160020000Y-70880000D03*
X162560000Y-70880000D03*
X165100000Y-70880000D03*
X167640000Y-70880000D03*
X170180000Y-70880000D03*
X172720000Y-70880000D03*
X175260000Y-70880000D03*
D26*
X186805000Y-38495000D03*
X185305000Y-38495000D03*
D15*
X180340000Y-57430700D03*
X180340000Y-58929300D03*
D27*
X188190000Y-53735000D03*
X185190000Y-53735000D03*
D24*
X184670000Y-66435000D03*
X186170000Y-66435000D03*
D16*
X168910000Y-52350000D03*
X168910000Y-53850000D03*
D28*
X129380000Y-33990000D03*
D29*
X142880000Y-34440000D03*
D30*
X133280000Y-49090000D03*
X134380000Y-49090000D03*
X135480000Y-49090000D03*
X136580000Y-49090000D03*
X137680000Y-49090000D03*
X138780000Y-49090000D03*
X139880000Y-49090000D03*
X140980000Y-49090000D03*
D31*
X131730000Y-49090000D03*
D32*
X141930000Y-49090000D03*
D33*
X142880000Y-38590000D03*
D31*
X142880000Y-44790000D03*
D34*
X176390300Y-34050000D03*
X184289700Y-34050000D03*
D35*
X181640480Y-36724620D03*
D36*
X180987700Y-36724620D03*
X180340000Y-36724620D03*
X179692300Y-36724620D03*
X179039520Y-36724620D03*
D34*
X176390300Y-82550000D03*
X184289700Y-82550000D03*
D35*
X181640480Y-85224620D03*
D36*
X180987700Y-85224620D03*
X180340000Y-85224620D03*
X179692300Y-85224620D03*
X179039520Y-85224620D03*
D28*
X129380000Y-82490000D03*
D29*
X142880000Y-82940000D03*
D30*
X133280000Y-97590000D03*
X134380000Y-97590000D03*
X135480000Y-97590000D03*
X136580000Y-97590000D03*
X137680000Y-97590000D03*
X138780000Y-97590000D03*
X139880000Y-97590000D03*
X140980000Y-97590000D03*
D31*
X131730000Y-97590000D03*
D32*
X141930000Y-97590000D03*
D33*
X142880000Y-87090000D03*
D31*
X142880000Y-93290000D03*
D16*
X168910000Y-100850000D03*
X168910000Y-102350000D03*
D24*
X184670000Y-114935000D03*
X186170000Y-114935000D03*
D27*
X188190000Y-102235000D03*
X185190000Y-102235000D03*
D15*
X180340000Y-105930700D03*
X180340000Y-107429300D03*
D26*
X186805000Y-86995000D03*
X185305000Y-86995000D03*
D19*
X127000000Y-119380000D03*
D20*
X129540000Y-119380000D03*
X132080000Y-119380000D03*
X134620000Y-119380000D03*
X137160000Y-119380000D03*
X139700000Y-119380000D03*
X142240000Y-119380000D03*
X144780000Y-119380000D03*
X147320000Y-119380000D03*
X149860000Y-119380000D03*
X152400000Y-119380000D03*
X154940000Y-119380000D03*
X157480000Y-119380000D03*
X160020000Y-119380000D03*
X162560000Y-119380000D03*
X165100000Y-119380000D03*
X167640000Y-119380000D03*
X170180000Y-119380000D03*
X172720000Y-119380000D03*
X175260000Y-119380000D03*
D19*
X127000000Y-111760000D03*
D20*
X129540000Y-111760000D03*
X132080000Y-111760000D03*
X134620000Y-111760000D03*
X137160000Y-111760000D03*
X139700000Y-111760000D03*
D19*
X127000000Y-104140000D03*
D20*
X129540000Y-104140000D03*
X132080000Y-104140000D03*
X134620000Y-104140000D03*
X137160000Y-104140000D03*
X139700000Y-104140000D03*
D19*
X182880000Y-119380000D03*
D20*
X185420000Y-119380000D03*
X187960000Y-119380000D03*
D14*
X143002000Y-104890000D03*
X143002000Y-103390000D03*
X172720000Y-87110000D03*
X172720000Y-85610000D03*
D25*
X188740000Y-112560000D03*
X188740000Y-110960000D03*
X184640000Y-112560000D03*
X184640000Y-110960000D03*
X188740000Y-107480000D03*
X188740000Y-105880000D03*
X184640000Y-107480000D03*
X184640000Y-105880000D03*
D24*
X137045000Y-100330000D03*
X138545000Y-100330000D03*
D22*
X172720000Y-101600000D03*
D23*
X175260000Y-101600000D03*
D22*
X172720000Y-106680000D03*
D23*
X175260000Y-106680000D03*
D21*
X127000000Y-96520000D03*
D19*
X167640000Y-111760000D03*
D20*
X170180000Y-111760000D03*
X172720000Y-111760000D03*
X175260000Y-111760000D03*
D17*
X184404000Y-99060000D03*
D18*
X186690000Y-92710000D03*
D17*
X188976000Y-99060000D03*
D16*
X179070000Y-120130000D03*
X179070000Y-118630000D03*
D15*
X172720000Y-83299300D03*
X172720000Y-81800700D03*
X180340000Y-100850700D03*
X180340000Y-102349300D03*
X180340000Y-111010700D03*
X180340000Y-112509300D03*
D14*
X177800000Y-100850000D03*
X177800000Y-102350000D03*
X177800000Y-105930000D03*
X177800000Y-107430000D03*
X177800000Y-111010000D03*
X177800000Y-112510000D03*
D13*
X171035000Y-96310000D03*
X171685000Y-96310000D03*
X172335000Y-96310000D03*
X172985000Y-96310000D03*
X173635000Y-96310000D03*
X174285000Y-96310000D03*
X174935000Y-96310000D03*
X175585000Y-96310000D03*
X176235000Y-96310000D03*
X176885000Y-96310000D03*
X177535000Y-96310000D03*
X178185000Y-96310000D03*
X178835000Y-96310000D03*
X179485000Y-96310000D03*
X179485000Y-89110000D03*
X178835000Y-89110000D03*
X178185000Y-89110000D03*
X177535000Y-89110000D03*
X176885000Y-89110000D03*
X176235000Y-89110000D03*
X175585000Y-89110000D03*
X174935000Y-89110000D03*
X174285000Y-89110000D03*
X173635000Y-89110000D03*
X172985000Y-89110000D03*
X172335000Y-89110000D03*
X171685000Y-89110000D03*
X171035000Y-89110000D03*
D11*
X165210000Y-90000000D03*
X165210000Y-91270000D03*
X165210000Y-92540000D03*
X165210000Y-93810000D03*
X165210000Y-95080000D03*
X165210000Y-96350000D03*
X165210000Y-97620000D03*
X165210000Y-98890000D03*
X165210000Y-100160000D03*
X165210000Y-101430000D03*
X165210000Y-102700000D03*
X165210000Y-103970000D03*
X165210000Y-105240000D03*
X165210000Y-106510000D03*
D12*
X161925000Y-108000000D03*
X160655000Y-108000000D03*
X159385000Y-108000000D03*
X158115000Y-108000000D03*
X156845000Y-108000000D03*
X155575000Y-108000000D03*
X154305000Y-108000000D03*
X153035000Y-108000000D03*
X151765000Y-108000000D03*
X150495000Y-108000000D03*
D11*
X147210000Y-106510000D03*
X147210000Y-105240000D03*
X147210000Y-103970000D03*
X147210000Y-102700000D03*
X147210000Y-101430000D03*
X147210000Y-100160000D03*
X147210000Y-98890000D03*
X147210000Y-97620000D03*
X147210000Y-96350000D03*
X147210000Y-95080000D03*
X147210000Y-93810000D03*
X147210000Y-92540000D03*
X147210000Y-91270000D03*
X147210000Y-90000000D03*
D37*
X176751700Y-59004800D03*
X176751700Y-107504800D03*
X141895300Y-56258900D03*
X138317800Y-53421700D03*
X170899400Y-38610000D03*
X137299400Y-47258900D03*
X149949000Y-42770000D03*
X149949000Y-91270000D03*
X137299400Y-95758900D03*
X170899400Y-87110000D03*
X138317800Y-101921700D03*
X141895300Y-104758900D03*
D38*
X147521900Y-72872500D03*
X147521900Y-121372500D03*
X133480000Y-50640000D03*
X133480000Y-99140000D03*
X160655000Y-61218200D03*
X160655000Y-109718200D03*
X138172300Y-48028700D03*
X138172300Y-96528700D03*
X151068100Y-56740000D03*
X151068100Y-105240000D03*
X163566000Y-57545800D03*
X163566000Y-106045800D03*
X162086700Y-50567800D03*
X162086700Y-99067800D03*
X139574300Y-52971300D03*
X148927000Y-56542000D03*
X148927000Y-105042000D03*
X139574300Y-101471300D03*
X145507700Y-50390000D03*
X145507700Y-98890000D03*
X144322600Y-51360800D03*
X144322600Y-99860800D03*
X142650500Y-51620500D03*
X142650500Y-100120500D03*
X183612400Y-59006900D03*
X144873000Y-51911100D03*
X149622700Y-44040000D03*
X149622700Y-92540000D03*
X144873000Y-100411100D03*
X183612400Y-107506900D03*
X140519700Y-47564900D03*
X140519700Y-96064900D03*
X173635000Y-49738300D03*
X173635000Y-98238300D03*
X157422100Y-52930000D03*
X157422100Y-101430000D03*
X156199700Y-58022300D03*
X156199700Y-106522300D03*
X157584200Y-61076300D03*
X157584200Y-109576300D03*
X153387200Y-62343700D03*
X153387200Y-110843700D03*
X153488900Y-61642400D03*
X153488900Y-110142400D03*
X154433600Y-61583100D03*
X154433600Y-110083100D03*
X155575000Y-61608200D03*
X155575000Y-110108200D03*
X166695200Y-56068600D03*
X166695200Y-104568600D03*
X166702900Y-54835700D03*
X166702900Y-103335700D03*
X167326300Y-53876700D03*
X167326300Y-102376700D03*
X167465800Y-52800100D03*
X167465800Y-101300100D03*
X150755400Y-49354600D03*
X150755400Y-97854600D03*
X156365200Y-44546700D03*
X156365200Y-93046700D03*
X162312300Y-43996400D03*
X162312300Y-92496400D03*
X173568500Y-46386300D03*
X178019100Y-41935700D03*
X178019100Y-90435700D03*
X173568500Y-94886300D03*
D39*
X182880000Y-70880000D02*
X182130000Y-71630000D01*
X182130000Y-71630000D02*
X179070000Y-71630000D01*
X189439000Y-60184700D02*
X190063400Y-60809100D01*
X190063400Y-60809100D02*
X190063400Y-64270700D01*
X190063400Y-64270700D02*
X189403100Y-64931000D01*
X189403100Y-64931000D02*
X184774200Y-64931000D01*
X184774200Y-64931000D02*
X182880000Y-66825200D01*
X182880000Y-66825200D02*
X182880000Y-70880000D01*
X189439000Y-60184700D02*
X189640400Y-59983300D01*
X189640400Y-59983300D02*
X189640400Y-56717100D01*
X189640400Y-56717100D02*
X189452900Y-56529600D01*
X189452900Y-56529600D02*
X189047200Y-56529600D01*
X189047200Y-56529600D02*
X186378600Y-53861000D01*
X186378600Y-53861000D02*
X186378600Y-52534600D01*
X186378600Y-52534600D02*
X184404000Y-50560000D01*
X168910000Y-52350000D02*
X168134600Y-53125400D01*
X168134600Y-53125400D02*
X168134600Y-54461100D01*
X168134600Y-54461100D02*
X169853600Y-56180100D01*
X169853600Y-56180100D02*
X173019900Y-56180100D01*
X173019900Y-56180100D02*
X173984000Y-57144200D01*
X173984000Y-57144200D02*
X173984000Y-58741500D01*
X173984000Y-58741500D02*
X175427200Y-60184700D01*
X175427200Y-60184700D02*
X189439000Y-60184700D01*
X181473100Y-42596400D02*
X181473100Y-47629100D01*
X181473100Y-47629100D02*
X184404000Y-50560000D01*
X186805000Y-38495000D02*
X184538400Y-40761600D01*
X184538400Y-40761600D02*
X183307900Y-40761600D01*
X183307900Y-40761600D02*
X181473100Y-42596400D01*
X176235000Y-40610000D02*
X176235000Y-41665000D01*
X176235000Y-41665000D02*
X177166400Y-42596400D01*
X177166400Y-42596400D02*
X181473100Y-42596400D01*
X177166400Y-91096400D02*
X181473100Y-91096400D01*
X176235000Y-90165000D02*
X177166400Y-91096400D01*
X176235000Y-89110000D02*
X176235000Y-90165000D01*
X183307900Y-89261600D02*
X181473100Y-91096400D01*
X184538400Y-89261600D02*
X183307900Y-89261600D01*
X186805000Y-86995000D02*
X184538400Y-89261600D01*
X181473100Y-96129100D02*
X184404000Y-99060000D01*
X181473100Y-91096400D02*
X181473100Y-96129100D01*
X175427200Y-108684700D02*
X189439000Y-108684700D01*
X173984000Y-107241500D02*
X175427200Y-108684700D01*
X173984000Y-105644200D02*
X173984000Y-107241500D01*
X173019900Y-104680100D02*
X173984000Y-105644200D01*
X169853600Y-104680100D02*
X173019900Y-104680100D01*
X168134600Y-102961100D02*
X169853600Y-104680100D01*
X168134600Y-101625400D02*
X168134600Y-102961100D01*
X168910000Y-100850000D02*
X168134600Y-101625400D01*
X186378600Y-101034600D02*
X184404000Y-99060000D01*
X186378600Y-102361000D02*
X186378600Y-101034600D01*
X189047200Y-105029600D02*
X186378600Y-102361000D01*
X189452900Y-105029600D02*
X189047200Y-105029600D01*
X189640400Y-105217100D02*
X189452900Y-105029600D01*
X189640400Y-108483300D02*
X189640400Y-105217100D01*
X189439000Y-108684700D02*
X189640400Y-108483300D01*
X182880000Y-115325200D02*
X182880000Y-119380000D01*
X184774200Y-113431000D02*
X182880000Y-115325200D01*
X189403100Y-113431000D02*
X184774200Y-113431000D01*
X190063400Y-112770700D02*
X189403100Y-113431000D01*
X190063400Y-109309100D02*
X190063400Y-112770700D01*
X189439000Y-108684700D02*
X190063400Y-109309100D01*
X182130000Y-120130000D02*
X179070000Y-120130000D01*
X182880000Y-119380000D02*
X182130000Y-120130000D01*
X147210000Y-41500000D02*
X165210000Y-41500000D01*
X143994000Y-41500000D02*
X147210000Y-41500000D01*
X142880000Y-34440000D02*
X129830000Y-34440000D01*
X129830000Y-34440000D02*
X129380000Y-33990000D01*
X142880000Y-34440000D02*
X142880000Y-38590000D01*
X176390300Y-34050000D02*
X173469300Y-34050000D01*
X173469300Y-34050000D02*
X172720000Y-33300700D01*
X179039500Y-35000000D02*
X177340300Y-35000000D01*
X177340300Y-35000000D02*
X176390300Y-34050000D01*
X184289700Y-35000000D02*
X179039500Y-35000000D01*
X186690000Y-44210000D02*
X187461800Y-43438200D01*
X187461800Y-43438200D02*
X187461800Y-37884000D01*
X187461800Y-37884000D02*
X184577800Y-35000000D01*
X184577800Y-35000000D02*
X184289700Y-35000000D01*
X184289700Y-35000000D02*
X184289700Y-34050000D01*
X179039500Y-36724600D02*
X179039500Y-35000000D01*
X177275700Y-39334600D02*
X177275700Y-38488400D01*
X177275700Y-38488400D02*
X179039500Y-36724600D01*
X175845100Y-54364000D02*
X169424000Y-54364000D01*
X169424000Y-54364000D02*
X168910000Y-53850000D01*
X174935000Y-47810000D02*
X174935000Y-49153900D01*
X174935000Y-49153900D02*
X176524000Y-50742900D01*
X176524000Y-50742900D02*
X176524000Y-53685100D01*
X176524000Y-53685100D02*
X175845100Y-54364000D01*
X176751700Y-59004800D02*
X176751700Y-57744300D01*
X176751700Y-57744300D02*
X175845100Y-56837700D01*
X175845100Y-56837700D02*
X175845100Y-54364000D01*
X180340000Y-58929300D02*
X179688900Y-59580400D01*
X179688900Y-59580400D02*
X177184300Y-59580400D01*
X177184300Y-59580400D02*
X176751700Y-59147800D01*
X176751700Y-59147800D02*
X176751700Y-59004800D01*
X172985000Y-41885400D02*
X174935000Y-43835400D01*
X174935000Y-43835400D02*
X174935000Y-47810000D01*
X181889300Y-57380000D02*
X184640000Y-57380000D01*
X180340000Y-58929300D02*
X181889300Y-57380000D01*
X180340000Y-53849300D02*
X180340000Y-55830700D01*
X180340000Y-55830700D02*
X181889300Y-57380000D01*
X185190000Y-57380000D02*
X184640000Y-57380000D01*
X188740000Y-57380000D02*
X185190000Y-57380000D01*
X185190000Y-57380000D02*
X185190000Y-53735000D01*
X184640000Y-62460000D02*
X188740000Y-62460000D01*
X180340000Y-64009300D02*
X181889300Y-62460000D01*
X181889300Y-62460000D02*
X184640000Y-62460000D01*
X175260000Y-63260000D02*
X172720000Y-63260000D01*
X179070000Y-64688600D02*
X176688600Y-64688600D01*
X176688600Y-64688600D02*
X175260000Y-63260000D01*
X179070000Y-70130000D02*
X178267300Y-70932700D01*
X178267300Y-70932700D02*
X178267300Y-72200200D01*
X178267300Y-72200200D02*
X178514500Y-72447400D01*
X178514500Y-72447400D02*
X186392600Y-72447400D01*
X186392600Y-72447400D02*
X187960000Y-70880000D01*
X179070000Y-70130000D02*
X179070000Y-64688600D01*
X177275700Y-39334600D02*
X177535000Y-39593900D01*
X177535000Y-39593900D02*
X177535000Y-40610000D01*
X175585000Y-39567600D02*
X175818000Y-39334600D01*
X175818000Y-39334600D02*
X177275700Y-39334600D01*
X175585000Y-40610000D02*
X175585000Y-39567600D01*
X172985000Y-40610000D02*
X172985000Y-39593900D01*
X172985000Y-39593900D02*
X173251800Y-39327100D01*
X173251800Y-39327100D02*
X175344500Y-39327100D01*
X175344500Y-39327100D02*
X175585000Y-39567600D01*
X172985000Y-41885400D02*
X172985000Y-40610000D01*
X138780000Y-49090000D02*
X138780000Y-51595000D01*
X138780000Y-51595000D02*
X138545000Y-51830000D01*
X139101000Y-48019900D02*
X138780000Y-48340900D01*
X138780000Y-48340900D02*
X138780000Y-49090000D01*
X165210000Y-41500000D02*
X165595400Y-41885400D01*
X165595400Y-41885400D02*
X172985000Y-41885400D01*
X150495000Y-59500000D02*
X150495000Y-60371100D01*
X150495000Y-60371100D02*
X153383900Y-63260000D01*
X153383900Y-63260000D02*
X167640000Y-63260000D01*
X170180000Y-63260000D02*
X167640000Y-63260000D01*
X172720000Y-63260000D02*
X170180000Y-63260000D01*
X142880000Y-44790000D02*
X142330900Y-44790000D01*
X142330900Y-44790000D02*
X139101000Y-48019900D01*
X139101000Y-48019900D02*
X137615100Y-46534100D01*
X137615100Y-46534100D02*
X134980000Y-46534100D01*
X143994000Y-41500000D02*
X143994000Y-43676000D01*
X143994000Y-43676000D02*
X142880000Y-44790000D01*
X179070000Y-64688600D02*
X179660700Y-64688600D01*
X179660700Y-64688600D02*
X180340000Y-64009300D01*
X142880000Y-38590000D02*
X142880000Y-40386000D01*
X142880000Y-40386000D02*
X143994000Y-41500000D01*
X187960000Y-70880000D02*
X187960000Y-68225000D01*
X187960000Y-68225000D02*
X186170000Y-66435000D01*
X131730000Y-48890000D02*
X131730000Y-49090000D01*
X134085900Y-46534100D02*
X131730000Y-48890000D01*
X134980000Y-46534100D02*
X134085900Y-46534100D01*
X134980000Y-95034100D02*
X134085900Y-95034100D01*
X134085900Y-95034100D02*
X131730000Y-97390000D01*
X131730000Y-97390000D02*
X131730000Y-97590000D01*
X187960000Y-116725000D02*
X186170000Y-114935000D01*
X187960000Y-119380000D02*
X187960000Y-116725000D01*
X142880000Y-88886000D02*
X143994000Y-90000000D01*
X142880000Y-87090000D02*
X142880000Y-88886000D01*
X179660700Y-113188600D02*
X180340000Y-112509300D01*
X179070000Y-113188600D02*
X179660700Y-113188600D01*
X143994000Y-92176000D02*
X142880000Y-93290000D01*
X143994000Y-90000000D02*
X143994000Y-92176000D01*
X137615100Y-95034100D02*
X134980000Y-95034100D01*
X139101000Y-96519900D02*
X137615100Y-95034100D01*
X142330900Y-93290000D02*
X139101000Y-96519900D01*
X142880000Y-93290000D02*
X142330900Y-93290000D01*
X172720000Y-111760000D02*
X170180000Y-111760000D01*
X170180000Y-111760000D02*
X167640000Y-111760000D01*
X153383900Y-111760000D02*
X167640000Y-111760000D01*
X150495000Y-108871100D02*
X153383900Y-111760000D01*
X150495000Y-108000000D02*
X150495000Y-108871100D01*
X165595400Y-90385400D02*
X172985000Y-90385400D01*
X165210000Y-90000000D02*
X165595400Y-90385400D01*
X138780000Y-96840900D02*
X138780000Y-97590000D01*
X139101000Y-96519900D02*
X138780000Y-96840900D01*
X138780000Y-100095000D02*
X138545000Y-100330000D01*
X138780000Y-97590000D02*
X138780000Y-100095000D01*
X172985000Y-90385400D02*
X172985000Y-89110000D01*
X175344500Y-87827100D02*
X175585000Y-88067600D01*
X173251800Y-87827100D02*
X175344500Y-87827100D01*
X172985000Y-88093900D02*
X173251800Y-87827100D01*
X172985000Y-89110000D02*
X172985000Y-88093900D01*
X175585000Y-89110000D02*
X175585000Y-88067600D01*
X175818000Y-87834600D02*
X177275700Y-87834600D01*
X175585000Y-88067600D02*
X175818000Y-87834600D01*
X177535000Y-88093900D02*
X177535000Y-89110000D01*
X177275700Y-87834600D02*
X177535000Y-88093900D01*
X179070000Y-118630000D02*
X179070000Y-113188600D01*
X186392600Y-120947400D02*
X187960000Y-119380000D01*
X178514500Y-120947400D02*
X186392600Y-120947400D01*
X178267300Y-120700200D02*
X178514500Y-120947400D01*
X178267300Y-119432700D02*
X178267300Y-120700200D01*
X179070000Y-118630000D02*
X178267300Y-119432700D01*
X176688600Y-113188600D02*
X175260000Y-111760000D01*
X179070000Y-113188600D02*
X176688600Y-113188600D01*
X175260000Y-111760000D02*
X172720000Y-111760000D01*
X181889300Y-110960000D02*
X184640000Y-110960000D01*
X180340000Y-112509300D02*
X181889300Y-110960000D01*
X184640000Y-110960000D02*
X188740000Y-110960000D01*
X185190000Y-105880000D02*
X185190000Y-102235000D01*
X188740000Y-105880000D02*
X185190000Y-105880000D01*
X185190000Y-105880000D02*
X184640000Y-105880000D01*
X180340000Y-104330700D02*
X181889300Y-105880000D01*
X180340000Y-102349300D02*
X180340000Y-104330700D01*
X180340000Y-107429300D02*
X181889300Y-105880000D01*
X181889300Y-105880000D02*
X184640000Y-105880000D01*
X174935000Y-92335400D02*
X174935000Y-96310000D01*
X172985000Y-90385400D02*
X174935000Y-92335400D01*
X176751700Y-107647800D02*
X176751700Y-107504800D01*
X177184300Y-108080400D02*
X176751700Y-107647800D01*
X179688900Y-108080400D02*
X177184300Y-108080400D01*
X180340000Y-107429300D02*
X179688900Y-108080400D01*
X175845100Y-105337700D02*
X175845100Y-102864000D01*
X176751700Y-106244300D02*
X175845100Y-105337700D01*
X176751700Y-107504800D02*
X176751700Y-106244300D01*
X176524000Y-102185100D02*
X175845100Y-102864000D01*
X176524000Y-99242900D02*
X176524000Y-102185100D01*
X174935000Y-97653900D02*
X176524000Y-99242900D01*
X174935000Y-96310000D02*
X174935000Y-97653900D01*
X169424000Y-102864000D02*
X168910000Y-102350000D01*
X175845100Y-102864000D02*
X169424000Y-102864000D01*
X177275700Y-86988400D02*
X179039500Y-85224600D01*
X177275700Y-87834600D02*
X177275700Y-86988400D01*
X179039500Y-85224600D02*
X179039500Y-83500000D01*
X184289700Y-83500000D02*
X184289700Y-82550000D01*
X184577800Y-83500000D02*
X184289700Y-83500000D01*
X187461800Y-86384000D02*
X184577800Y-83500000D01*
X187461800Y-91938200D02*
X187461800Y-86384000D01*
X186690000Y-92710000D02*
X187461800Y-91938200D01*
X184289700Y-83500000D02*
X179039500Y-83500000D01*
X177340300Y-83500000D02*
X176390300Y-82550000D01*
X179039500Y-83500000D02*
X177340300Y-83500000D01*
X173469300Y-82550000D02*
X172720000Y-81800700D01*
X176390300Y-82550000D02*
X173469300Y-82550000D01*
X142880000Y-82940000D02*
X142880000Y-87090000D01*
X129830000Y-82940000D02*
X129380000Y-82490000D01*
X142880000Y-82940000D02*
X129830000Y-82940000D01*
X143994000Y-90000000D02*
X147210000Y-90000000D01*
X147210000Y-90000000D02*
X165210000Y-90000000D01*
X137045000Y-51830000D02*
X137045000Y-52148900D01*
X137045000Y-52148900D02*
X138317800Y-53421700D01*
X136580000Y-49090000D02*
X136580000Y-51365000D01*
X136580000Y-51365000D02*
X137045000Y-51830000D01*
X141895300Y-56258900D02*
X142870900Y-56258900D01*
X142870900Y-56258900D02*
X143002000Y-56390000D01*
X184670000Y-66435000D02*
X185498500Y-65606500D01*
X185498500Y-65606500D02*
X189576500Y-65606500D01*
X189576500Y-65606500D02*
X190663800Y-64519200D01*
X190663800Y-64519200D02*
X190663800Y-56208800D01*
X190663800Y-56208800D02*
X188190000Y-53735000D01*
X188976000Y-50560000D02*
X188190000Y-51346000D01*
X188190000Y-51346000D02*
X188190000Y-53735000D01*
X185420000Y-70880000D02*
X185420000Y-67185000D01*
X185420000Y-67185000D02*
X184670000Y-66435000D01*
X172720000Y-38610000D02*
X170899400Y-38610000D01*
X147210000Y-42770000D02*
X149949000Y-42770000D01*
X137299400Y-47258900D02*
X136580000Y-47978300D01*
X136580000Y-47978300D02*
X136580000Y-49090000D01*
X136580000Y-96478300D02*
X136580000Y-97590000D01*
X137299400Y-95758900D02*
X136580000Y-96478300D01*
X147210000Y-91270000D02*
X149949000Y-91270000D01*
X172720000Y-87110000D02*
X170899400Y-87110000D01*
X185420000Y-115685000D02*
X184670000Y-114935000D01*
X185420000Y-119380000D02*
X185420000Y-115685000D01*
X188190000Y-99846000D02*
X188190000Y-102235000D01*
X188976000Y-99060000D02*
X188190000Y-99846000D01*
X190663800Y-104708800D02*
X188190000Y-102235000D01*
X190663800Y-113019200D02*
X190663800Y-104708800D01*
X189576500Y-114106500D02*
X190663800Y-113019200D01*
X185498500Y-114106500D02*
X189576500Y-114106500D01*
X184670000Y-114935000D02*
X185498500Y-114106500D01*
X142870900Y-104758900D02*
X143002000Y-104890000D01*
X141895300Y-104758900D02*
X142870900Y-104758900D01*
X136580000Y-99865000D02*
X137045000Y-100330000D01*
X136580000Y-97590000D02*
X136580000Y-99865000D01*
X137045000Y-100648900D02*
X138317800Y-101921700D01*
X137045000Y-100330000D02*
X137045000Y-100648900D01*
D40*
X172720000Y-37110000D02*
X172720000Y-34799300D01*
X172720000Y-85610000D02*
X172720000Y-83299300D01*
X147210000Y-58010000D02*
X147210000Y-60610000D01*
X147210000Y-60610000D02*
X157480000Y-70880000D01*
X147521900Y-72872500D02*
X134808500Y-72872500D01*
X134808500Y-72872500D02*
X133350000Y-71414000D01*
X133350000Y-71414000D02*
X133350000Y-70314700D01*
X133350000Y-70314700D02*
X128374200Y-65338900D01*
X128374200Y-65338900D02*
X128374200Y-53995800D01*
X128374200Y-53995800D02*
X131855000Y-50515000D01*
X132605000Y-50515000D02*
X133280000Y-49840000D01*
X133280000Y-49840000D02*
X133280000Y-49090000D01*
X131855000Y-50515000D02*
X132605000Y-50515000D01*
X131855000Y-99015000D02*
X132605000Y-99015000D01*
X133280000Y-98340000D02*
X133280000Y-97590000D01*
X132605000Y-99015000D02*
X133280000Y-98340000D01*
X128374200Y-102495800D02*
X131855000Y-99015000D01*
X128374200Y-113838900D02*
X128374200Y-102495800D01*
X133350000Y-118814700D02*
X128374200Y-113838900D01*
X133350000Y-119914000D02*
X133350000Y-118814700D01*
X134808500Y-121372500D02*
X133350000Y-119914000D01*
X147521900Y-121372500D02*
X134808500Y-121372500D01*
X147210000Y-109110000D02*
X157480000Y-119380000D01*
X147210000Y-106510000D02*
X147210000Y-109110000D01*
X151765000Y-59500000D02*
X151765000Y-58908500D01*
X151765000Y-58908500D02*
X150793600Y-57937100D01*
X150793600Y-57937100D02*
X150176500Y-57937100D01*
X150176500Y-57937100D02*
X149744100Y-58369500D01*
X149744100Y-58369500D02*
X149744100Y-60647200D01*
X149744100Y-60647200D02*
X159976900Y-70880000D01*
X159976900Y-70880000D02*
X160020000Y-70880000D01*
X134380000Y-49090000D02*
X134380000Y-49382600D01*
X133480000Y-50640000D02*
X134380000Y-49740000D01*
X134380000Y-49740000D02*
X134380000Y-49090000D01*
X134380000Y-98240000D02*
X134380000Y-97590000D01*
X133480000Y-99140000D02*
X134380000Y-98240000D01*
X134380000Y-97590000D02*
X134380000Y-97882600D01*
X159976900Y-119380000D02*
X160020000Y-119380000D01*
X149744100Y-109147200D02*
X159976900Y-119380000D01*
X149744100Y-106869500D02*
X149744100Y-109147200D01*
X150176500Y-106437100D02*
X149744100Y-106869500D01*
X150793600Y-106437100D02*
X150176500Y-106437100D01*
X151765000Y-107408500D02*
X150793600Y-106437100D01*
X151765000Y-108000000D02*
X151765000Y-107408500D01*
X165100000Y-70880000D02*
X163335500Y-72644500D01*
X163335500Y-72644500D02*
X148072200Y-72644500D01*
X148072200Y-72644500D02*
X147749900Y-72322200D01*
X147749900Y-72322200D02*
X136798200Y-72322200D01*
X136798200Y-72322200D02*
X135890000Y-71414000D01*
X135890000Y-71414000D02*
X135890000Y-70308600D01*
X135890000Y-70308600D02*
X130889600Y-65308200D01*
X130889600Y-65308200D02*
X130889600Y-55021200D01*
X130889600Y-55021200D02*
X135480000Y-50430800D01*
X135480000Y-50430800D02*
X135480000Y-49090000D01*
X160655000Y-61218200D02*
X160655000Y-59500000D01*
X160655000Y-109718200D02*
X160655000Y-108000000D01*
X135480000Y-98930800D02*
X135480000Y-97590000D01*
X130889600Y-103521200D02*
X135480000Y-98930800D01*
X130889600Y-113808200D02*
X130889600Y-103521200D01*
X135890000Y-118808600D02*
X130889600Y-113808200D01*
X135890000Y-119914000D02*
X135890000Y-118808600D01*
X136798200Y-120822200D02*
X135890000Y-119914000D01*
X147749900Y-120822200D02*
X136798200Y-120822200D01*
X148072200Y-121144500D02*
X147749900Y-120822200D01*
X163335500Y-121144500D02*
X148072200Y-121144500D01*
X165100000Y-119380000D02*
X163335500Y-121144500D01*
X147210000Y-56740000D02*
X147822100Y-56740000D01*
X147822100Y-56740000D02*
X148953600Y-57871500D01*
X148953600Y-57871500D02*
X148953600Y-60423100D01*
X148953600Y-60423100D02*
X158750000Y-70219500D01*
X158750000Y-70219500D02*
X158750000Y-71485800D01*
X158750000Y-71485800D02*
X159508300Y-72244100D01*
X159508300Y-72244100D02*
X161195900Y-72244100D01*
X161195900Y-72244100D02*
X162560000Y-70880000D01*
X137680000Y-49090000D02*
X137680000Y-48521000D01*
X137680000Y-48521000D02*
X138172300Y-48028700D01*
X137680000Y-97021000D02*
X138172300Y-96528700D01*
X137680000Y-97590000D02*
X137680000Y-97021000D01*
X161195900Y-120744100D02*
X162560000Y-119380000D01*
X159508300Y-120744100D02*
X161195900Y-120744100D01*
X158750000Y-119985800D02*
X159508300Y-120744100D01*
X158750000Y-118719500D02*
X158750000Y-119985800D01*
X148953600Y-108923100D02*
X158750000Y-118719500D01*
X148953600Y-106371500D02*
X148953600Y-108923100D01*
X147822100Y-105240000D02*
X148953600Y-106371500D01*
X147210000Y-105240000D02*
X147822100Y-105240000D01*
X137160000Y-70880000D02*
X133411100Y-67131100D01*
X133411100Y-67131100D02*
X133411100Y-55046900D01*
X133411100Y-55046900D02*
X134235100Y-54222900D01*
X134235100Y-54222900D02*
X138693900Y-54222900D01*
X138693900Y-54222900D02*
X139395200Y-53521600D01*
X139395200Y-53521600D02*
X139802300Y-53521600D01*
X139802300Y-53521600D02*
X140775900Y-52548000D01*
X140775900Y-52548000D02*
X140775900Y-49294100D01*
X140775900Y-49294100D02*
X140980000Y-49090000D01*
X165210000Y-56740000D02*
X151068100Y-56740000D01*
X165210000Y-105240000D02*
X151068100Y-105240000D01*
X140775900Y-97794100D02*
X140980000Y-97590000D01*
X140775900Y-101048000D02*
X140775900Y-97794100D01*
X139802300Y-102021600D02*
X140775900Y-101048000D01*
X139395200Y-102021600D02*
X139802300Y-102021600D01*
X138693900Y-102722900D02*
X139395200Y-102021600D01*
X134235100Y-102722900D02*
X138693900Y-102722900D01*
X133411100Y-103546900D02*
X134235100Y-102722900D01*
X133411100Y-115631100D02*
X133411100Y-103546900D01*
X137160000Y-119380000D02*
X133411100Y-115631100D01*
X165210000Y-58010000D02*
X168768500Y-61568500D01*
X168768500Y-61568500D02*
X175367100Y-61568500D01*
X175367100Y-61568500D02*
X176859000Y-63060400D01*
X176859000Y-63060400D02*
X178384600Y-63060400D01*
X178384600Y-63060400D02*
X179748700Y-61696300D01*
X179748700Y-61696300D02*
X189370400Y-61696300D01*
X189370400Y-61696300D02*
X189540400Y-61866300D01*
X189540400Y-61866300D02*
X189540400Y-63259600D01*
X189540400Y-63259600D02*
X188740000Y-64060000D01*
X163566000Y-57545800D02*
X164030200Y-58010000D01*
X164030200Y-58010000D02*
X165210000Y-58010000D01*
X184640000Y-64060000D02*
X188740000Y-64060000D01*
X184640000Y-112560000D02*
X188740000Y-112560000D01*
X164030200Y-106510000D02*
X165210000Y-106510000D01*
X163566000Y-106045800D02*
X164030200Y-106510000D01*
X189540400Y-111759600D02*
X188740000Y-112560000D01*
X189540400Y-110366300D02*
X189540400Y-111759600D01*
X189370400Y-110196300D02*
X189540400Y-110366300D01*
X179748700Y-110196300D02*
X189370400Y-110196300D01*
X178384600Y-111560400D02*
X179748700Y-110196300D01*
X176859000Y-111560400D02*
X178384600Y-111560400D01*
X175367100Y-110068500D02*
X176859000Y-111560400D01*
X168768500Y-110068500D02*
X175367100Y-110068500D01*
X165210000Y-106510000D02*
X168768500Y-110068500D01*
X165210000Y-45310000D02*
X164554100Y-45310000D01*
X164554100Y-45310000D02*
X162086700Y-47777400D01*
X162086700Y-47777400D02*
X162086700Y-50567800D01*
X162086700Y-96277400D02*
X162086700Y-99067800D01*
X164554100Y-93810000D02*
X162086700Y-96277400D01*
X165210000Y-93810000D02*
X164554100Y-93810000D01*
X165210000Y-46580000D02*
X166200000Y-46580000D01*
X166200000Y-46580000D02*
X172720000Y-53100000D01*
X166200000Y-95080000D02*
X172720000Y-101600000D01*
X165210000Y-95080000D02*
X166200000Y-95080000D01*
X161925000Y-59500000D02*
X161925000Y-58908500D01*
X161925000Y-58908500D02*
X160405900Y-57389400D01*
X160405900Y-57389400D02*
X149774400Y-57389400D01*
X149774400Y-57389400D02*
X148927000Y-56542000D01*
X139574300Y-52971300D02*
X139574300Y-49395700D01*
X139574300Y-49395700D02*
X139880000Y-49090000D01*
X139574300Y-97895700D02*
X139880000Y-97590000D01*
X139574300Y-101471300D02*
X139574300Y-97895700D01*
X149774400Y-105889400D02*
X148927000Y-105042000D01*
X160405900Y-105889400D02*
X149774400Y-105889400D01*
X161925000Y-107408500D02*
X160405900Y-105889400D01*
X161925000Y-108000000D02*
X161925000Y-107408500D01*
X147210000Y-50390000D02*
X145507700Y-50390000D01*
X147210000Y-98890000D02*
X145507700Y-98890000D01*
X147210000Y-51660000D02*
X146910800Y-51360800D01*
X146910800Y-51360800D02*
X144322600Y-51360800D01*
X146910800Y-99860800D02*
X144322600Y-99860800D01*
X147210000Y-100160000D02*
X146910800Y-99860800D01*
X147210000Y-47850000D02*
X146421000Y-47850000D01*
X146421000Y-47850000D02*
X142650500Y-51620500D01*
X146421000Y-96350000D02*
X142650500Y-100120500D01*
X147210000Y-96350000D02*
X146421000Y-96350000D01*
X134620000Y-55640000D02*
X135951700Y-56971700D01*
X135951700Y-56971700D02*
X140168400Y-56971700D01*
X140168400Y-56971700D02*
X140886700Y-56253400D01*
X140886700Y-56253400D02*
X140886700Y-54162600D01*
X140886700Y-54162600D02*
X143200800Y-51848500D01*
X143200800Y-51848500D02*
X143200800Y-51699200D01*
X143200800Y-51699200D02*
X145780000Y-49120000D01*
X145780000Y-49120000D02*
X147210000Y-49120000D01*
X145780000Y-97620000D02*
X147210000Y-97620000D01*
X143200800Y-100199200D02*
X145780000Y-97620000D01*
X143200800Y-100348500D02*
X143200800Y-100199200D01*
X140886700Y-102662600D02*
X143200800Y-100348500D01*
X140886700Y-104753400D02*
X140886700Y-102662600D01*
X140168400Y-105471700D02*
X140886700Y-104753400D01*
X135951700Y-105471700D02*
X140168400Y-105471700D01*
X134620000Y-104140000D02*
X135951700Y-105471700D01*
X137160000Y-55640000D02*
X137842900Y-55640000D01*
X137842900Y-55640000D02*
X139561000Y-53921900D01*
X139561000Y-53921900D02*
X139968100Y-53921900D01*
X139968100Y-53921900D02*
X141339800Y-52550200D01*
X141339800Y-52550200D02*
X141339800Y-51390000D01*
X146618700Y-45310000D02*
X147210000Y-45310000D01*
X146060000Y-45310000D02*
X147210000Y-45310000D01*
X141339800Y-51280200D02*
X144730000Y-47890000D01*
X144730000Y-47890000D02*
X144730000Y-46640000D01*
X144730000Y-46640000D02*
X146060000Y-45310000D01*
X141339800Y-51390000D02*
X141339800Y-51280200D01*
X141339800Y-99890000D02*
X141339800Y-99780200D01*
X144730000Y-95140000D02*
X146060000Y-93810000D01*
X144730000Y-96390000D02*
X144730000Y-95140000D01*
X141339800Y-99780200D02*
X144730000Y-96390000D01*
X146060000Y-93810000D02*
X147210000Y-93810000D01*
X146618700Y-93810000D02*
X147210000Y-93810000D01*
X141339800Y-101050200D02*
X141339800Y-99890000D01*
X139968100Y-102421900D02*
X141339800Y-101050200D01*
X139561000Y-102421900D02*
X139968100Y-102421900D01*
X137842900Y-104140000D02*
X139561000Y-102421900D01*
X137160000Y-104140000D02*
X137842900Y-104140000D01*
X139700000Y-55640000D02*
X139700000Y-54756100D01*
X139700000Y-54756100D02*
X141740200Y-52715900D01*
X141740200Y-52715900D02*
X141740200Y-52140000D01*
X146602300Y-46580000D02*
X147210000Y-46580000D01*
X146040000Y-46580000D02*
X147210000Y-46580000D01*
X141740200Y-51629800D02*
X145230000Y-48140000D01*
X145230000Y-48140000D02*
X145230000Y-47390000D01*
X145230000Y-47390000D02*
X146040000Y-46580000D01*
X141740200Y-52140000D02*
X141740200Y-51629800D01*
X141740200Y-100640000D02*
X141740200Y-100129800D01*
X145230000Y-95890000D02*
X146040000Y-95080000D01*
X145230000Y-96640000D02*
X145230000Y-95890000D01*
X141740200Y-100129800D02*
X145230000Y-96640000D01*
X146040000Y-95080000D02*
X147210000Y-95080000D01*
X146602300Y-95080000D02*
X147210000Y-95080000D01*
X141740200Y-101215900D02*
X141740200Y-100640000D01*
X139700000Y-103256100D02*
X141740200Y-101215900D01*
X139700000Y-104140000D02*
X139700000Y-103256100D01*
X179485000Y-40610000D02*
X180340000Y-39755000D01*
X180340000Y-39755000D02*
X180340000Y-36724600D01*
X180340000Y-88255000D02*
X180340000Y-85224600D01*
X179485000Y-89110000D02*
X180340000Y-88255000D01*
X178835000Y-40610000D02*
X178835000Y-41541700D01*
X178835000Y-41541700D02*
X179078700Y-41785400D01*
X179078700Y-41785400D02*
X179834700Y-41785400D01*
X179834700Y-41785400D02*
X180987700Y-40632400D01*
X180987700Y-40632400D02*
X180987700Y-36724600D01*
X180987700Y-89132400D02*
X180987700Y-85224600D01*
X179834700Y-90285400D02*
X180987700Y-89132400D01*
X179078700Y-90285400D02*
X179834700Y-90285400D01*
X178835000Y-90041700D02*
X179078700Y-90285400D01*
X178835000Y-89110000D02*
X178835000Y-90041700D01*
X183612400Y-59006900D02*
X184613100Y-59006900D01*
X184613100Y-59006900D02*
X184640000Y-58980000D01*
X144873000Y-51911100D02*
X144873000Y-53019000D01*
X144873000Y-53019000D02*
X143002000Y-54890000D01*
X184640000Y-58980000D02*
X188740000Y-58980000D01*
X147210000Y-44040000D02*
X149622700Y-44040000D01*
X147210000Y-92540000D02*
X149622700Y-92540000D01*
X184640000Y-107480000D02*
X188740000Y-107480000D01*
X144873000Y-101519000D02*
X143002000Y-103390000D01*
X144873000Y-100411100D02*
X144873000Y-101519000D01*
X184613100Y-107506900D02*
X184640000Y-107480000D01*
X183612400Y-107506900D02*
X184613100Y-107506900D01*
D39*
X185305000Y-38495000D02*
X183534600Y-36724600D01*
X183534600Y-36724600D02*
X181640500Y-36724600D01*
X183534600Y-85224600D02*
X181640500Y-85224600D01*
X185305000Y-86995000D02*
X183534600Y-85224600D01*
D40*
X141930000Y-49090000D02*
X141930000Y-48650400D01*
X141404900Y-47564900D02*
X141930000Y-48090000D01*
X141930000Y-48090000D02*
X141930000Y-49090000D01*
X140519700Y-47564900D02*
X141404900Y-47564900D01*
X140519700Y-96064900D02*
X141404900Y-96064900D01*
X141930000Y-96590000D02*
X141930000Y-97590000D01*
X141404900Y-96064900D02*
X141930000Y-96590000D01*
X141930000Y-97590000D02*
X141930000Y-97150400D01*
X171035000Y-47810000D02*
X171035000Y-48875000D01*
X171035000Y-48875000D02*
X175260000Y-53100000D01*
X171035000Y-97375000D02*
X175260000Y-101600000D01*
X171035000Y-96310000D02*
X171035000Y-97375000D01*
X173635000Y-47810000D02*
X173635000Y-49738300D01*
X173635000Y-96310000D02*
X173635000Y-98238300D01*
X177800000Y-53850000D02*
X178840700Y-53850000D01*
X178840700Y-53850000D02*
X180340000Y-52350700D01*
X178840700Y-102350000D02*
X180340000Y-100850700D01*
X177800000Y-102350000D02*
X178840700Y-102350000D01*
X165210000Y-52930000D02*
X165812000Y-52930000D01*
X165812000Y-52930000D02*
X166776000Y-53894000D01*
X166776000Y-53894000D02*
X166776000Y-54112700D01*
X166776000Y-54112700D02*
X170433700Y-57770400D01*
X170433700Y-57770400D02*
X170433700Y-58104200D01*
X170433700Y-58104200D02*
X173405800Y-61076300D01*
X173405800Y-61076300D02*
X176366300Y-61076300D01*
X176366300Y-61076300D02*
X177800000Y-62510000D01*
X165210000Y-52930000D02*
X157422100Y-52930000D01*
X165210000Y-101430000D02*
X157422100Y-101430000D01*
X176366300Y-109576300D02*
X177800000Y-111010000D01*
X173405800Y-109576300D02*
X176366300Y-109576300D01*
X170433700Y-106604200D02*
X173405800Y-109576300D01*
X170433700Y-106270400D02*
X170433700Y-106604200D01*
X166776000Y-102612700D02*
X170433700Y-106270400D01*
X166776000Y-102394000D02*
X166776000Y-102612700D01*
X165812000Y-101430000D02*
X166776000Y-102394000D01*
X165210000Y-101430000D02*
X165812000Y-101430000D01*
X177800000Y-58930000D02*
X178840700Y-58930000D01*
X178840700Y-58930000D02*
X180340000Y-57430700D01*
X178840700Y-107430000D02*
X180340000Y-105930700D01*
X177800000Y-107430000D02*
X178840700Y-107430000D01*
X177800000Y-64010000D02*
X178840700Y-64010000D01*
X178840700Y-64010000D02*
X180340000Y-62510700D01*
X178840700Y-112510000D02*
X180340000Y-111010700D01*
X177800000Y-112510000D02*
X178840700Y-112510000D01*
X156845000Y-59500000D02*
X156845000Y-58667600D01*
X156845000Y-58667600D02*
X156199700Y-58022300D01*
X156845000Y-107167600D02*
X156199700Y-106522300D01*
X156845000Y-108000000D02*
X156845000Y-107167600D01*
X158115000Y-59500000D02*
X158115000Y-60545500D01*
X158115000Y-60545500D02*
X157584200Y-61076300D01*
X158115000Y-109045500D02*
X157584200Y-109576300D01*
X158115000Y-108000000D02*
X158115000Y-109045500D01*
X159385000Y-59500000D02*
X159385000Y-60095000D01*
X159385000Y-60095000D02*
X157136300Y-62343700D01*
X157136300Y-62343700D02*
X153387200Y-62343700D01*
X157136300Y-110843700D02*
X153387200Y-110843700D01*
X159385000Y-108595000D02*
X157136300Y-110843700D01*
X159385000Y-108000000D02*
X159385000Y-108595000D01*
X153035000Y-59500000D02*
X153488900Y-59953900D01*
X153488900Y-59953900D02*
X153488900Y-61642400D01*
X153488900Y-108453900D02*
X153488900Y-110142400D01*
X153035000Y-108000000D02*
X153488900Y-108453900D01*
X154305000Y-59500000D02*
X154305000Y-61454500D01*
X154305000Y-61454500D02*
X154433600Y-61583100D01*
X154305000Y-109954500D02*
X154433600Y-110083100D01*
X154305000Y-108000000D02*
X154305000Y-109954500D01*
X155575000Y-59500000D02*
X155575000Y-61608200D01*
X155575000Y-108000000D02*
X155575000Y-110108200D01*
X165210000Y-55470000D02*
X166096600Y-55470000D01*
X166096600Y-55470000D02*
X166695200Y-56068600D01*
X166096600Y-103970000D02*
X166695200Y-104568600D01*
X165210000Y-103970000D02*
X166096600Y-103970000D01*
X165210000Y-54200000D02*
X166067200Y-54200000D01*
X166067200Y-54200000D02*
X166702900Y-54835700D01*
X166067200Y-102700000D02*
X166702900Y-103335700D01*
X165210000Y-102700000D02*
X166067200Y-102700000D01*
X165210000Y-51660000D02*
X165824500Y-51660000D01*
X165824500Y-51660000D02*
X166809300Y-52644800D01*
X166809300Y-52644800D02*
X166809300Y-53359700D01*
X166809300Y-53359700D02*
X167326300Y-53876700D01*
X166809300Y-101859700D02*
X167326300Y-102376700D01*
X166809300Y-101144800D02*
X166809300Y-101859700D01*
X165824500Y-100160000D02*
X166809300Y-101144800D01*
X165210000Y-100160000D02*
X165824500Y-100160000D01*
X165210000Y-50390000D02*
X165813100Y-50390000D01*
X165813100Y-50390000D02*
X167465800Y-52042700D01*
X167465800Y-52042700D02*
X167465800Y-52800100D01*
X167465800Y-100542700D02*
X167465800Y-101300100D01*
X165813100Y-98890000D02*
X167465800Y-100542700D01*
X165210000Y-98890000D02*
X165813100Y-98890000D01*
X165210000Y-47850000D02*
X164616400Y-47850000D01*
X164616400Y-47850000D02*
X162680400Y-49786000D01*
X162680400Y-49786000D02*
X162680400Y-50819500D01*
X162680400Y-50819500D02*
X162328100Y-51171800D01*
X162328100Y-51171800D02*
X152572600Y-51171800D01*
X152572600Y-51171800D02*
X150755400Y-49354600D01*
X152572600Y-99671800D02*
X150755400Y-97854600D01*
X162328100Y-99671800D02*
X152572600Y-99671800D01*
X162680400Y-99319500D02*
X162328100Y-99671800D01*
X162680400Y-98286000D02*
X162680400Y-99319500D01*
X164616400Y-96350000D02*
X162680400Y-98286000D01*
X165210000Y-96350000D02*
X164616400Y-96350000D01*
X156365200Y-44546700D02*
X164703300Y-44546700D01*
X164703300Y-44546700D02*
X165210000Y-44040000D01*
X164703300Y-93046700D02*
X165210000Y-92540000D01*
X156365200Y-93046700D02*
X164703300Y-93046700D01*
X165210000Y-42770000D02*
X163538700Y-42770000D01*
X163538700Y-42770000D02*
X162312300Y-43996400D01*
X163538700Y-91270000D02*
X162312300Y-92496400D01*
X165210000Y-91270000D02*
X163538700Y-91270000D01*
X147210000Y-52930000D02*
X146591600Y-52930000D01*
X146591600Y-52930000D02*
X143863000Y-55658600D01*
X143863000Y-55658600D02*
X141646700Y-55658600D01*
X141646700Y-55658600D02*
X141295000Y-56010300D01*
X141295000Y-56010300D02*
X141295000Y-56585000D01*
X141295000Y-56585000D02*
X134620000Y-63260000D01*
X141295000Y-105085000D02*
X134620000Y-111760000D01*
X141295000Y-104510300D02*
X141295000Y-105085000D01*
X141646700Y-104158600D02*
X141295000Y-104510300D01*
X143863000Y-104158600D02*
X141646700Y-104158600D01*
X146591600Y-101430000D02*
X143863000Y-104158600D01*
X147210000Y-101430000D02*
X146591600Y-101430000D01*
X147210000Y-54200000D02*
X146606700Y-54200000D01*
X146606700Y-54200000D02*
X137546700Y-63260000D01*
X137546700Y-63260000D02*
X137160000Y-63260000D01*
X137546700Y-111760000D02*
X137160000Y-111760000D01*
X146606700Y-102700000D02*
X137546700Y-111760000D01*
X147210000Y-102700000D02*
X146606700Y-102700000D01*
X147210000Y-55470000D02*
X146616500Y-55470000D01*
X146616500Y-55470000D02*
X139700000Y-62386500D01*
X139700000Y-62386500D02*
X139700000Y-63260000D01*
X139700000Y-110886500D02*
X139700000Y-111760000D01*
X146616500Y-103970000D02*
X139700000Y-110886500D01*
X147210000Y-103970000D02*
X146616500Y-103970000D01*
X174935000Y-40610000D02*
X174935000Y-41502400D01*
X174935000Y-41502400D02*
X176814400Y-43381800D01*
X176814400Y-43381800D02*
X177244100Y-43381800D01*
X177244100Y-43381800D02*
X180416400Y-46554100D01*
X180416400Y-46554100D02*
X180416400Y-49733600D01*
X180416400Y-49733600D02*
X177800000Y-52350000D01*
X180416400Y-98233600D02*
X177800000Y-100850000D01*
X180416400Y-95054100D02*
X180416400Y-98233600D01*
X177244100Y-91881800D02*
X180416400Y-95054100D01*
X176814400Y-91881800D02*
X177244100Y-91881800D01*
X174935000Y-90002400D02*
X176814400Y-91881800D01*
X174935000Y-89110000D02*
X174935000Y-90002400D01*
X174285000Y-40610000D02*
X174285000Y-41492700D01*
X174285000Y-41492700D02*
X179325100Y-46532800D01*
X179325100Y-46532800D02*
X179828800Y-46532800D01*
X179828800Y-46532800D02*
X180010400Y-46714400D01*
X180010400Y-46714400D02*
X180010400Y-48816100D01*
X180010400Y-48816100D02*
X177049600Y-51776900D01*
X177049600Y-51776900D02*
X177049600Y-56679600D01*
X177049600Y-56679600D02*
X177800000Y-57430000D01*
X177049600Y-105179600D02*
X177800000Y-105930000D01*
X177049600Y-100276900D02*
X177049600Y-105179600D01*
X180010400Y-97316100D02*
X177049600Y-100276900D01*
X180010400Y-95214400D02*
X180010400Y-97316100D01*
X179828800Y-95032800D02*
X180010400Y-95214400D01*
X179325100Y-95032800D02*
X179828800Y-95032800D01*
X174285000Y-89992700D02*
X179325100Y-95032800D01*
X174285000Y-89110000D02*
X174285000Y-89992700D01*
X178185000Y-40610000D02*
X178185000Y-41769800D01*
X178185000Y-41769800D02*
X178019100Y-41935700D01*
X172985000Y-47810000D02*
X172985000Y-46830900D01*
X172985000Y-46830900D02*
X173429600Y-46386300D01*
X173429600Y-46386300D02*
X173568500Y-46386300D01*
X173429600Y-94886300D02*
X173568500Y-94886300D01*
X172985000Y-95330900D02*
X173429600Y-94886300D01*
X172985000Y-96310000D02*
X172985000Y-95330900D01*
X178185000Y-90269800D02*
X178019100Y-90435700D01*
X178185000Y-89110000D02*
X178185000Y-90269800D01*
M02*
