G04 #@! TF.FileFunction,Profile,NP*
%FSLAX46Y46*%
G04 Gerber Fmt 4.6, Leading zero omitted, Abs format (unit mm)*
G04 Created by KiCad (PCBNEW 4.0.1-stable) date 2017/02/23 14:55:37*
%MOMM*%
G01*
G04 APERTURE LIST*
%ADD10C,0.100000*%
%ADD11C,0.150000*%
G04 APERTURE END LIST*
D10*
D11*
X121480000Y-79390000D02*
X123730000Y-79390000D01*
X123730000Y-80390000D02*
X121480000Y-80390000D01*
X127480000Y-80390000D02*
X125230000Y-80390000D01*
X189730000Y-79390000D02*
X125230000Y-79390000D01*
X189730000Y-80390000D02*
X187480000Y-80390000D01*
X191230000Y-79390000D02*
X193480000Y-79390000D01*
X193480000Y-80390000D02*
X191230000Y-80390000D01*
X190730000Y-79890000D02*
G75*
G03X191230000Y-80390000I500000J0D01*
G01*
X191230000Y-79390000D02*
G75*
G03X190730000Y-79890000I0J-500000D01*
G01*
X190230000Y-79890000D02*
G75*
G03X189730000Y-79390000I-500000J0D01*
G01*
X189730000Y-80390000D02*
G75*
G03X190230000Y-79890000I0J500000D01*
G01*
X124730000Y-79890000D02*
G75*
G03X125230000Y-80390000I500000J0D01*
G01*
X125230000Y-79390000D02*
G75*
G03X124730000Y-79890000I0J-500000D01*
G01*
X124230000Y-79890000D02*
G75*
G03X123730000Y-79390000I-500000J0D01*
G01*
X123730000Y-80390000D02*
G75*
G03X124230000Y-79890000I0J500000D01*
G01*
X193480000Y-31890000D02*
X193480000Y-79390000D01*
X121480000Y-79390000D02*
X121480000Y-31890000D01*
X126080000Y-34890000D02*
G75*
G03X126080000Y-34890000I-1600000J0D01*
G01*
X126080000Y-76390000D02*
G75*
G03X126080000Y-76390000I-1600000J0D01*
G01*
X192080000Y-76390000D02*
G75*
G03X192080000Y-76390000I-1600000J0D01*
G01*
X192080000Y-34890000D02*
G75*
G03X192080000Y-34890000I-1600000J0D01*
G01*
X128480000Y-32890000D02*
X127480000Y-31890000D01*
X121480000Y-31890000D02*
X127480000Y-31890000D01*
X143730000Y-32890000D02*
X144730000Y-31890000D01*
X175230000Y-32890000D02*
X185480000Y-32890000D01*
X128480000Y-32890000D02*
X129980000Y-32890000D01*
X129980000Y-32890000D02*
X130480000Y-33390000D01*
X130480000Y-33390000D02*
X141980000Y-33390000D01*
X141980000Y-33390000D02*
X142480000Y-32890000D01*
X142480000Y-32890000D02*
X143730000Y-32890000D01*
X185480000Y-32890000D02*
X186480000Y-32890000D01*
X186480000Y-32890000D02*
X187480000Y-31890000D01*
X175230000Y-32890000D02*
X174230000Y-32890000D01*
X174230000Y-32890000D02*
X173230000Y-31890000D01*
X144730000Y-31890000D02*
X173230000Y-31890000D01*
X187480000Y-31890000D02*
X193480000Y-31890000D01*
X144730000Y-80390000D02*
X173230000Y-80390000D01*
X174230000Y-81390000D02*
X173230000Y-80390000D01*
X175230000Y-81390000D02*
X174230000Y-81390000D01*
X186480000Y-81390000D02*
X187480000Y-80390000D01*
X185480000Y-81390000D02*
X186480000Y-81390000D01*
X142480000Y-81390000D02*
X143730000Y-81390000D01*
X141980000Y-81890000D02*
X142480000Y-81390000D01*
X130480000Y-81890000D02*
X141980000Y-81890000D01*
X129980000Y-81390000D02*
X130480000Y-81890000D01*
X128480000Y-81390000D02*
X129980000Y-81390000D01*
X175230000Y-81390000D02*
X185480000Y-81390000D01*
X143730000Y-81390000D02*
X144730000Y-80390000D01*
X128480000Y-81390000D02*
X127480000Y-80390000D01*
X192080000Y-83390000D02*
G75*
G03X192080000Y-83390000I-1600000J0D01*
G01*
X192080000Y-124890000D02*
G75*
G03X192080000Y-124890000I-1600000J0D01*
G01*
X126080000Y-124890000D02*
G75*
G03X126080000Y-124890000I-1600000J0D01*
G01*
X126080000Y-83390000D02*
G75*
G03X126080000Y-83390000I-1600000J0D01*
G01*
X121480000Y-127890000D02*
X121480000Y-80390000D01*
X193480000Y-127890000D02*
X121480000Y-127890000D01*
X193480000Y-80390000D02*
X193480000Y-127890000D01*
M02*
