G04 #@! TF.FileFunction,Soldermask,Top*
%FSLAX46Y46*%
G04 Gerber Fmt 4.6, Leading zero omitted, Abs format (unit mm)*
G04 Created by KiCad (PCBNEW 4.0.1-stable) date 2017/02/23 14:55:37*
%MOMM*%
G01*
G04 APERTURE LIST*
%ADD10C,0.100000*%
%ADD11O,2.900000X1.300000*%
%ADD12O,1.300000X2.900000*%
%ADD13R,0.850000X2.150000*%
%ADD14R,1.300000X0.900000*%
%ADD15R,1.197560X1.197560*%
%ADD16R,1.150000X1.200000*%
%ADD17R,2.051000X3.448000*%
%ADD18R,6.496000X6.496000*%
%ADD19R,2.127200X2.432000*%
%ADD20O,2.127200X2.432000*%
%ADD21R,2.635200X2.635200*%
%ADD22R,2.127200X2.127200*%
%ADD23O,2.127200X2.127200*%
%ADD24R,1.200000X1.150000*%
%ADD25R,1.400000X1.300000*%
%ADD26R,0.900000X1.300000*%
%ADD27R,1.400000X2.000000*%
%ADD28R,1.700000X2.300000*%
%ADD29R,1.400000X3.200000*%
%ADD30R,1.100000X1.600000*%
%ADD31R,1.400000X1.600000*%
%ADD32R,1.050000X1.600000*%
%ADD33R,1.400000X1.200000*%
%ADD34R,2.297380X2.297380*%
%ADD35R,0.798780X1.748740*%
%ADD36R,0.798780X1.746200*%
G04 APERTURE END LIST*
D10*
D11*
X165210000Y-41500000D03*
X165210000Y-42770000D03*
X165210000Y-44040000D03*
X165210000Y-45310000D03*
X165210000Y-46580000D03*
X165210000Y-47850000D03*
X165210000Y-49120000D03*
X165210000Y-50390000D03*
X165210000Y-51660000D03*
X165210000Y-52930000D03*
X165210000Y-54200000D03*
X165210000Y-55470000D03*
X165210000Y-56740000D03*
X165210000Y-58010000D03*
D12*
X161925000Y-59500000D03*
X160655000Y-59500000D03*
X159385000Y-59500000D03*
X158115000Y-59500000D03*
X156845000Y-59500000D03*
X155575000Y-59500000D03*
X154305000Y-59500000D03*
X153035000Y-59500000D03*
X151765000Y-59500000D03*
X150495000Y-59500000D03*
D11*
X147210000Y-58010000D03*
X147210000Y-56740000D03*
X147210000Y-55470000D03*
X147210000Y-54200000D03*
X147210000Y-52930000D03*
X147210000Y-51660000D03*
X147210000Y-50390000D03*
X147210000Y-49120000D03*
X147210000Y-47850000D03*
X147210000Y-46580000D03*
X147210000Y-45310000D03*
X147210000Y-44040000D03*
X147210000Y-42770000D03*
X147210000Y-41500000D03*
D13*
X171035000Y-47810000D03*
X171685000Y-47810000D03*
X172335000Y-47810000D03*
X172985000Y-47810000D03*
X173635000Y-47810000D03*
X174285000Y-47810000D03*
X174935000Y-47810000D03*
X175585000Y-47810000D03*
X176235000Y-47810000D03*
X176885000Y-47810000D03*
X177535000Y-47810000D03*
X178185000Y-47810000D03*
X178835000Y-47810000D03*
X179485000Y-47810000D03*
X179485000Y-40610000D03*
X178835000Y-40610000D03*
X178185000Y-40610000D03*
X177535000Y-40610000D03*
X176885000Y-40610000D03*
X176235000Y-40610000D03*
X175585000Y-40610000D03*
X174935000Y-40610000D03*
X174285000Y-40610000D03*
X173635000Y-40610000D03*
X172985000Y-40610000D03*
X172335000Y-40610000D03*
X171685000Y-40610000D03*
X171035000Y-40610000D03*
D14*
X177800000Y-62510000D03*
X177800000Y-64010000D03*
X177800000Y-57430000D03*
X177800000Y-58930000D03*
X177800000Y-52350000D03*
X177800000Y-53850000D03*
D15*
X180340000Y-62510700D03*
X180340000Y-64009300D03*
X180340000Y-52350700D03*
X180340000Y-53849300D03*
X172720000Y-34799300D03*
X172720000Y-33300700D03*
D16*
X179070000Y-71630000D03*
X179070000Y-70130000D03*
D17*
X184404000Y-50560000D03*
D18*
X186690000Y-44210000D03*
D17*
X188976000Y-50560000D03*
D19*
X167640000Y-63260000D03*
D20*
X170180000Y-63260000D03*
X172720000Y-63260000D03*
X175260000Y-63260000D03*
D21*
X127000000Y-48020000D03*
D22*
X172720000Y-58180000D03*
D23*
X175260000Y-58180000D03*
D22*
X172720000Y-53100000D03*
D23*
X175260000Y-53100000D03*
D24*
X137045000Y-51830000D03*
X138545000Y-51830000D03*
D25*
X188740000Y-58980000D03*
X188740000Y-57380000D03*
X184640000Y-58980000D03*
X184640000Y-57380000D03*
X188740000Y-64060000D03*
X188740000Y-62460000D03*
X184640000Y-64060000D03*
X184640000Y-62460000D03*
D14*
X172720000Y-38610000D03*
X172720000Y-37110000D03*
X143002000Y-56390000D03*
X143002000Y-54890000D03*
D19*
X182880000Y-70880000D03*
D20*
X185420000Y-70880000D03*
X187960000Y-70880000D03*
D19*
X127000000Y-55640000D03*
D20*
X129540000Y-55640000D03*
X132080000Y-55640000D03*
X134620000Y-55640000D03*
X137160000Y-55640000D03*
X139700000Y-55640000D03*
D19*
X127000000Y-63260000D03*
D20*
X129540000Y-63260000D03*
X132080000Y-63260000D03*
X134620000Y-63260000D03*
X137160000Y-63260000D03*
X139700000Y-63260000D03*
D19*
X127000000Y-70880000D03*
D20*
X129540000Y-70880000D03*
X132080000Y-70880000D03*
X134620000Y-70880000D03*
X137160000Y-70880000D03*
X139700000Y-70880000D03*
X142240000Y-70880000D03*
X144780000Y-70880000D03*
X147320000Y-70880000D03*
X149860000Y-70880000D03*
X152400000Y-70880000D03*
X154940000Y-70880000D03*
X157480000Y-70880000D03*
X160020000Y-70880000D03*
X162560000Y-70880000D03*
X165100000Y-70880000D03*
X167640000Y-70880000D03*
X170180000Y-70880000D03*
X172720000Y-70880000D03*
X175260000Y-70880000D03*
D26*
X186805000Y-38495000D03*
X185305000Y-38495000D03*
D15*
X180340000Y-57430700D03*
X180340000Y-58929300D03*
D27*
X188190000Y-53735000D03*
X185190000Y-53735000D03*
D24*
X184670000Y-66435000D03*
X186170000Y-66435000D03*
D16*
X168910000Y-52350000D03*
X168910000Y-53850000D03*
D28*
X129380000Y-33990000D03*
D29*
X142880000Y-34440000D03*
D30*
X133280000Y-49090000D03*
X134380000Y-49090000D03*
X135480000Y-49090000D03*
X136580000Y-49090000D03*
X137680000Y-49090000D03*
X138780000Y-49090000D03*
X139880000Y-49090000D03*
X140980000Y-49090000D03*
D31*
X131730000Y-49090000D03*
D32*
X141930000Y-49090000D03*
D33*
X142880000Y-38590000D03*
D31*
X142880000Y-44790000D03*
D34*
X176390300Y-34050000D03*
X184289700Y-34050000D03*
D35*
X181640480Y-36724620D03*
D36*
X180987700Y-36724620D03*
X180340000Y-36724620D03*
X179692300Y-36724620D03*
X179039520Y-36724620D03*
D34*
X176390300Y-82550000D03*
X184289700Y-82550000D03*
D35*
X181640480Y-85224620D03*
D36*
X180987700Y-85224620D03*
X180340000Y-85224620D03*
X179692300Y-85224620D03*
X179039520Y-85224620D03*
D28*
X129380000Y-82490000D03*
D29*
X142880000Y-82940000D03*
D30*
X133280000Y-97590000D03*
X134380000Y-97590000D03*
X135480000Y-97590000D03*
X136580000Y-97590000D03*
X137680000Y-97590000D03*
X138780000Y-97590000D03*
X139880000Y-97590000D03*
X140980000Y-97590000D03*
D31*
X131730000Y-97590000D03*
D32*
X141930000Y-97590000D03*
D33*
X142880000Y-87090000D03*
D31*
X142880000Y-93290000D03*
D16*
X168910000Y-100850000D03*
X168910000Y-102350000D03*
D24*
X184670000Y-114935000D03*
X186170000Y-114935000D03*
D27*
X188190000Y-102235000D03*
X185190000Y-102235000D03*
D15*
X180340000Y-105930700D03*
X180340000Y-107429300D03*
D26*
X186805000Y-86995000D03*
X185305000Y-86995000D03*
D19*
X127000000Y-119380000D03*
D20*
X129540000Y-119380000D03*
X132080000Y-119380000D03*
X134620000Y-119380000D03*
X137160000Y-119380000D03*
X139700000Y-119380000D03*
X142240000Y-119380000D03*
X144780000Y-119380000D03*
X147320000Y-119380000D03*
X149860000Y-119380000D03*
X152400000Y-119380000D03*
X154940000Y-119380000D03*
X157480000Y-119380000D03*
X160020000Y-119380000D03*
X162560000Y-119380000D03*
X165100000Y-119380000D03*
X167640000Y-119380000D03*
X170180000Y-119380000D03*
X172720000Y-119380000D03*
X175260000Y-119380000D03*
D19*
X127000000Y-111760000D03*
D20*
X129540000Y-111760000D03*
X132080000Y-111760000D03*
X134620000Y-111760000D03*
X137160000Y-111760000D03*
X139700000Y-111760000D03*
D19*
X127000000Y-104140000D03*
D20*
X129540000Y-104140000D03*
X132080000Y-104140000D03*
X134620000Y-104140000D03*
X137160000Y-104140000D03*
X139700000Y-104140000D03*
D19*
X182880000Y-119380000D03*
D20*
X185420000Y-119380000D03*
X187960000Y-119380000D03*
D14*
X143002000Y-104890000D03*
X143002000Y-103390000D03*
X172720000Y-87110000D03*
X172720000Y-85610000D03*
D25*
X188740000Y-112560000D03*
X188740000Y-110960000D03*
X184640000Y-112560000D03*
X184640000Y-110960000D03*
X188740000Y-107480000D03*
X188740000Y-105880000D03*
X184640000Y-107480000D03*
X184640000Y-105880000D03*
D24*
X137045000Y-100330000D03*
X138545000Y-100330000D03*
D22*
X172720000Y-101600000D03*
D23*
X175260000Y-101600000D03*
D22*
X172720000Y-106680000D03*
D23*
X175260000Y-106680000D03*
D21*
X127000000Y-96520000D03*
D19*
X167640000Y-111760000D03*
D20*
X170180000Y-111760000D03*
X172720000Y-111760000D03*
X175260000Y-111760000D03*
D17*
X184404000Y-99060000D03*
D18*
X186690000Y-92710000D03*
D17*
X188976000Y-99060000D03*
D16*
X179070000Y-120130000D03*
X179070000Y-118630000D03*
D15*
X172720000Y-83299300D03*
X172720000Y-81800700D03*
X180340000Y-100850700D03*
X180340000Y-102349300D03*
X180340000Y-111010700D03*
X180340000Y-112509300D03*
D14*
X177800000Y-100850000D03*
X177800000Y-102350000D03*
X177800000Y-105930000D03*
X177800000Y-107430000D03*
X177800000Y-111010000D03*
X177800000Y-112510000D03*
D13*
X171035000Y-96310000D03*
X171685000Y-96310000D03*
X172335000Y-96310000D03*
X172985000Y-96310000D03*
X173635000Y-96310000D03*
X174285000Y-96310000D03*
X174935000Y-96310000D03*
X175585000Y-96310000D03*
X176235000Y-96310000D03*
X176885000Y-96310000D03*
X177535000Y-96310000D03*
X178185000Y-96310000D03*
X178835000Y-96310000D03*
X179485000Y-96310000D03*
X179485000Y-89110000D03*
X178835000Y-89110000D03*
X178185000Y-89110000D03*
X177535000Y-89110000D03*
X176885000Y-89110000D03*
X176235000Y-89110000D03*
X175585000Y-89110000D03*
X174935000Y-89110000D03*
X174285000Y-89110000D03*
X173635000Y-89110000D03*
X172985000Y-89110000D03*
X172335000Y-89110000D03*
X171685000Y-89110000D03*
X171035000Y-89110000D03*
D11*
X165210000Y-90000000D03*
X165210000Y-91270000D03*
X165210000Y-92540000D03*
X165210000Y-93810000D03*
X165210000Y-95080000D03*
X165210000Y-96350000D03*
X165210000Y-97620000D03*
X165210000Y-98890000D03*
X165210000Y-100160000D03*
X165210000Y-101430000D03*
X165210000Y-102700000D03*
X165210000Y-103970000D03*
X165210000Y-105240000D03*
X165210000Y-106510000D03*
D12*
X161925000Y-108000000D03*
X160655000Y-108000000D03*
X159385000Y-108000000D03*
X158115000Y-108000000D03*
X156845000Y-108000000D03*
X155575000Y-108000000D03*
X154305000Y-108000000D03*
X153035000Y-108000000D03*
X151765000Y-108000000D03*
X150495000Y-108000000D03*
D11*
X147210000Y-106510000D03*
X147210000Y-105240000D03*
X147210000Y-103970000D03*
X147210000Y-102700000D03*
X147210000Y-101430000D03*
X147210000Y-100160000D03*
X147210000Y-98890000D03*
X147210000Y-97620000D03*
X147210000Y-96350000D03*
X147210000Y-95080000D03*
X147210000Y-93810000D03*
X147210000Y-92540000D03*
X147210000Y-91270000D03*
X147210000Y-90000000D03*
M02*
