M48
;DRILL file {KiCad 4.0.1-stable} date 2017/04/12 16:11:35
;FORMAT={-:-/ absolute / metric / decimal}
FMAT,2
METRIC,TZ
T1C0.300
T2C0.400
T3C1.016
T4C2.000
%
G90
G05
M71
T1
X116.855Y-69.075
X116.861Y-82.59
X117.171Y-86.853
X117.297Y-89.195
X117.465Y-67.898
X117.615Y-69.097
X117.832Y-77.422
X118.229Y-88.172
X119.33Y-81.776
X119.966Y-86.461
X120.814Y-85.684
X121.579Y-81.797
X122.291Y-81.864
X122.568Y-75.637
X122.742Y-82.425
X124.736Y-73.447
X127.442Y-87.731
X127.496Y-67.636
X128.88Y-85.61
X129.191Y-89.066
X129.264Y-60.717
X129.71Y-67.843
X130.023Y-89.896
X131.145Y-70.241
X131.429Y-78.309
X133.874Y-68.15
X134.13Y-67.395
X142.514Y-47.473
X143.215Y-34.747
X143.267Y-103.146
X143.344Y-46.641
X144.238Y-35.679
X144.679Y-44.892
X145.557Y-34.621
X145.949Y-37.416
X146.726Y-38.264
X146.8Y-46.331
X149.82Y-34.311
X149.945Y-98.28
X149.985Y-40.192
X150.186Y-104.914
X150.393Y-102.7
X150.448Y-114.945
X150.546Y-39.741
X150.613Y-39.029
X150.634Y-36.78
X150.701Y-98.536
X151.625Y-115.555
X151.647Y-114.795
X152.791Y-101.265
X154.101Y-48.879
X154.988Y-35.282
X155.996Y-107.674
X156.773Y-40.018
X158.187Y-109.842
X158.963Y-42.186
X159.972Y-114.578
X160.859Y-100.981
X162.169Y-48.595
X163.313Y-35.065
X163.335Y-34.305
X164.26Y-51.324
X164.326Y-113.08
X164.347Y-110.831
X164.414Y-110.119
X164.512Y-34.915
X164.567Y-47.16
X164.774Y-44.946
X164.975Y-109.668
X165.015Y-51.58
X165.14Y-115.549
X168.16Y-103.529
X168.234Y-111.596
X169.011Y-112.444
X169.403Y-115.239
X170.281Y-104.968
X170.722Y-114.181
X171.617Y-103.219
X171.693Y-46.714
X171.745Y-115.113
X172.446Y-102.387
X180.83Y-82.465
X181.086Y-81.709
X183.531Y-71.551
X183.815Y-79.619
X184.937Y-59.964
X185.25Y-82.017
X185.696Y-89.143
X185.769Y-60.793
X186.079Y-64.25
X187.464Y-82.224
X187.518Y-62.129
X190.224Y-76.413
X192.218Y-67.435
X192.392Y-74.223
X192.669Y-67.996
X193.381Y-68.063
X194.146Y-64.176
X194.994Y-63.399
X195.63Y-68.084
X196.731Y-61.688
X197.128Y-72.438
X197.345Y-80.763
X197.495Y-81.962
X197.663Y-60.665
X197.789Y-63.007
X198.099Y-67.27
X198.105Y-80.785
T2
X114.483Y-82.598
X123.968Y-69.215
X127.349Y-99.843
X132.567Y-44.799
X149.812Y-31.933
X151.765Y-108.442
X163.195Y-41.418
X165.148Y-117.927
X182.393Y-105.061
X187.611Y-50.017
X190.992Y-80.645
X200.477Y-67.262
T3
X113.03Y-38.1
X113.03Y-40.64
X113.03Y-43.18
X113.03Y-45.72
X113.03Y-48.26
X113.03Y-50.8
X113.03Y-53.34
X113.03Y-55.88
X113.03Y-58.42
X113.03Y-60.96
X113.03Y-63.5
X113.03Y-66.04
X113.03Y-68.58
X113.03Y-71.12
X113.03Y-73.66
X113.03Y-76.2
X113.03Y-78.74
X113.03Y-81.28
X113.03Y-83.82
X113.03Y-86.36
X113.03Y-88.9
X113.03Y-91.44
X113.03Y-93.98
X113.03Y-96.52
X113.03Y-99.06
X113.03Y-101.6
X113.03Y-104.14
X113.03Y-106.68
X113.03Y-109.22
X113.03Y-111.76
X120.65Y-30.48
X120.65Y-119.38
X123.19Y-30.48
X123.19Y-119.38
X125.73Y-30.48
X125.73Y-119.38
X128.27Y-30.48
X128.27Y-119.38
X130.81Y-30.48
X130.81Y-119.38
X133.35Y-30.48
X133.35Y-119.38
X135.89Y-30.48
X135.89Y-119.38
X138.43Y-30.48
X138.43Y-119.38
X140.97Y-30.48
X140.97Y-119.38
X143.51Y-30.48
X143.51Y-119.38
X146.05Y-30.48
X146.05Y-119.38
X148.59Y-30.48
X148.59Y-119.38
X151.13Y-30.48
X151.13Y-119.38
X153.67Y-30.48
X153.67Y-119.38
X156.21Y-30.48
X156.21Y-119.38
X158.75Y-30.48
X158.75Y-119.38
X161.29Y-30.48
X161.29Y-119.38
X163.83Y-30.48
X163.83Y-119.38
X166.37Y-30.48
X166.37Y-119.38
X168.91Y-30.48
X168.91Y-119.38
X171.45Y-30.48
X171.45Y-119.38
X173.99Y-30.48
X173.99Y-119.38
X176.53Y-30.48
X176.53Y-119.38
X179.07Y-30.48
X179.07Y-119.38
X181.61Y-30.48
X181.61Y-119.38
X184.15Y-30.48
X184.15Y-119.38
X186.69Y-30.48
X186.69Y-119.38
X189.23Y-30.48
X189.23Y-119.38
X191.77Y-30.48
X191.77Y-119.38
X194.31Y-30.48
X194.31Y-119.38
X201.93Y-38.1
X201.93Y-40.64
X201.93Y-43.18
X201.93Y-45.72
X201.93Y-48.26
X201.93Y-50.8
X201.93Y-53.34
X201.93Y-55.88
X201.93Y-58.42
X201.93Y-60.96
X201.93Y-63.5
X201.93Y-66.04
X201.93Y-68.58
X201.93Y-71.12
X201.93Y-73.66
X201.93Y-76.2
X201.93Y-78.74
X201.93Y-81.28
X201.93Y-83.82
X201.93Y-86.36
X201.93Y-88.9
X201.93Y-91.44
X201.93Y-93.98
X201.93Y-96.52
X201.93Y-99.06
X201.93Y-101.6
X201.93Y-104.14
X201.93Y-106.68
X201.93Y-109.22
X201.93Y-111.76
T4
X129.63Y-74.63
X157.18Y-102.78
X157.78Y-47.08
X185.33Y-75.23
T0
M30
