G04 #@! TF.FileFunction,Soldermask,Bot*
%FSLAX46Y46*%
G04 Gerber Fmt 4.6, Leading zero omitted, Abs format (unit mm)*
G04 Created by KiCad (PCBNEW 4.0.1-stable) date 2017/04/12 16:11:32*
%MOMM*%
G01*
G04 APERTURE LIST*
%ADD10C,0.100000*%
%ADD11R,3.400000X3.400000*%
%ADD12R,2.127200X2.432000*%
%ADD13O,2.127200X2.432000*%
%ADD14R,2.432000X2.127200*%
%ADD15O,2.432000X2.127200*%
G04 APERTURE END LIST*
D10*
G36*
X130135457Y-42889709D02*
X128509111Y-44516055D01*
X127307029Y-43313973D01*
X128933375Y-41687627D01*
X130135457Y-42889709D01*
X130135457Y-42889709D01*
G37*
G36*
X140211728Y-51693188D02*
X137948986Y-53955930D01*
X136959036Y-52965980D01*
X139221778Y-50703238D01*
X140211728Y-51693188D01*
X140211728Y-51693188D01*
G37*
G36*
X143110866Y-35005468D02*
X141979495Y-36136839D01*
X141201678Y-35359022D01*
X142333049Y-34227651D01*
X143110866Y-35005468D01*
X143110866Y-35005468D01*
G37*
G36*
X143888683Y-35783285D02*
X142757312Y-36914656D01*
X141979495Y-36136839D01*
X143110866Y-35005468D01*
X143888683Y-35783285D01*
X143888683Y-35783285D01*
G37*
G36*
X144666501Y-36561103D02*
X143535130Y-37692474D01*
X142757313Y-36914657D01*
X143888684Y-35783286D01*
X144666501Y-36561103D01*
X144666501Y-36561103D01*
G37*
G36*
X145444318Y-37338920D02*
X144312947Y-38470291D01*
X143535130Y-37692474D01*
X144666501Y-36561103D01*
X145444318Y-37338920D01*
X145444318Y-37338920D01*
G37*
G36*
X146222135Y-38116738D02*
X145090764Y-39248109D01*
X144312947Y-38470292D01*
X145444318Y-37338921D01*
X146222135Y-38116738D01*
X146222135Y-38116738D01*
G37*
G36*
X146999953Y-38894555D02*
X145868582Y-40025926D01*
X145090765Y-39248109D01*
X146222136Y-38116738D01*
X146999953Y-38894555D01*
X146999953Y-38894555D01*
G37*
G36*
X147777770Y-39672373D02*
X146646399Y-40803744D01*
X145868582Y-40025927D01*
X146999953Y-38894556D01*
X147777770Y-39672373D01*
X147777770Y-39672373D01*
G37*
G36*
X148555588Y-40450190D02*
X147424217Y-41581561D01*
X146646400Y-40803744D01*
X147777771Y-39672373D01*
X148555588Y-40450190D01*
X148555588Y-40450190D01*
G37*
G36*
X142120916Y-34015518D02*
X140989545Y-35146889D01*
X139999596Y-34156940D01*
X141130967Y-33025569D01*
X142120916Y-34015518D01*
X142120916Y-34015518D01*
G37*
G36*
X149209661Y-41104265D02*
X148078291Y-42235635D01*
X147335829Y-41493173D01*
X148467199Y-40361803D01*
X149209661Y-41104265D01*
X149209661Y-41104265D01*
G37*
G36*
X142439115Y-49465802D02*
X141590587Y-50314330D01*
X140600637Y-49324380D01*
X141449165Y-48475852D01*
X142439115Y-49465802D01*
X142439115Y-49465802D01*
G37*
G36*
X146964598Y-44940318D02*
X145833227Y-46071689D01*
X144843278Y-45081740D01*
X145974649Y-43950369D01*
X146964598Y-44940318D01*
X146964598Y-44940318D01*
G37*
D11*
X157780000Y-47080000D03*
D10*
G36*
X145633180Y-35092008D02*
X144820008Y-35905180D01*
X143971480Y-35056652D01*
X144784652Y-34243480D01*
X145633180Y-35092008D01*
X145633180Y-35092008D01*
G37*
G36*
X144572520Y-34031348D02*
X143759348Y-34844520D01*
X142910820Y-33995992D01*
X143723992Y-33182820D01*
X144572520Y-34031348D01*
X144572520Y-34031348D01*
G37*
D12*
X194310000Y-30480000D03*
D13*
X191770000Y-30480000D03*
X189230000Y-30480000D03*
X186690000Y-30480000D03*
X184150000Y-30480000D03*
X181610000Y-30480000D03*
X179070000Y-30480000D03*
X176530000Y-30480000D03*
X173990000Y-30480000D03*
X171450000Y-30480000D03*
X168910000Y-30480000D03*
X166370000Y-30480000D03*
X163830000Y-30480000D03*
X161290000Y-30480000D03*
X158750000Y-30480000D03*
X156210000Y-30480000D03*
X153670000Y-30480000D03*
X151130000Y-30480000D03*
X148590000Y-30480000D03*
X146050000Y-30480000D03*
X143510000Y-30480000D03*
X140970000Y-30480000D03*
X138430000Y-30480000D03*
X135890000Y-30480000D03*
X133350000Y-30480000D03*
X130810000Y-30480000D03*
X128270000Y-30480000D03*
X125730000Y-30480000D03*
X123190000Y-30480000D03*
X120650000Y-30480000D03*
D14*
X113030000Y-38100000D03*
D15*
X113030000Y-40640000D03*
X113030000Y-43180000D03*
X113030000Y-45720000D03*
X113030000Y-48260000D03*
X113030000Y-50800000D03*
X113030000Y-53340000D03*
X113030000Y-55880000D03*
X113030000Y-58420000D03*
X113030000Y-60960000D03*
X113030000Y-63500000D03*
X113030000Y-66040000D03*
X113030000Y-68580000D03*
X113030000Y-71120000D03*
X113030000Y-73660000D03*
X113030000Y-76200000D03*
X113030000Y-78740000D03*
X113030000Y-81280000D03*
X113030000Y-83820000D03*
X113030000Y-86360000D03*
X113030000Y-88900000D03*
X113030000Y-91440000D03*
X113030000Y-93980000D03*
X113030000Y-96520000D03*
X113030000Y-99060000D03*
X113030000Y-101600000D03*
X113030000Y-104140000D03*
X113030000Y-106680000D03*
X113030000Y-109220000D03*
X113030000Y-111760000D03*
D10*
G36*
X117642008Y-86776820D02*
X118455180Y-87589992D01*
X117606652Y-88438520D01*
X116793480Y-87625348D01*
X117642008Y-86776820D01*
X117642008Y-86776820D01*
G37*
G36*
X116581348Y-87837480D02*
X117394520Y-88650652D01*
X116545992Y-89499180D01*
X115732820Y-88686008D01*
X116581348Y-87837480D01*
X116581348Y-87837480D01*
G37*
D11*
X129630000Y-74630000D03*
D10*
G36*
X125439709Y-102274543D02*
X127066055Y-103900889D01*
X125863973Y-105102971D01*
X124237627Y-103476625D01*
X125439709Y-102274543D01*
X125439709Y-102274543D01*
G37*
G36*
X134243188Y-92198272D02*
X136505930Y-94461014D01*
X135515980Y-95450964D01*
X133253238Y-93188222D01*
X134243188Y-92198272D01*
X134243188Y-92198272D01*
G37*
G36*
X117555468Y-89299134D02*
X118686839Y-90430505D01*
X117909022Y-91208322D01*
X116777651Y-90076951D01*
X117555468Y-89299134D01*
X117555468Y-89299134D01*
G37*
G36*
X118333285Y-88521317D02*
X119464656Y-89652688D01*
X118686839Y-90430505D01*
X117555468Y-89299134D01*
X118333285Y-88521317D01*
X118333285Y-88521317D01*
G37*
G36*
X119111103Y-87743499D02*
X120242474Y-88874870D01*
X119464657Y-89652687D01*
X118333286Y-88521316D01*
X119111103Y-87743499D01*
X119111103Y-87743499D01*
G37*
G36*
X119888920Y-86965682D02*
X121020291Y-88097053D01*
X120242474Y-88874870D01*
X119111103Y-87743499D01*
X119888920Y-86965682D01*
X119888920Y-86965682D01*
G37*
G36*
X120666738Y-86187865D02*
X121798109Y-87319236D01*
X121020292Y-88097053D01*
X119888921Y-86965682D01*
X120666738Y-86187865D01*
X120666738Y-86187865D01*
G37*
G36*
X121444555Y-85410047D02*
X122575926Y-86541418D01*
X121798109Y-87319235D01*
X120666738Y-86187864D01*
X121444555Y-85410047D01*
X121444555Y-85410047D01*
G37*
G36*
X122222373Y-84632230D02*
X123353744Y-85763601D01*
X122575927Y-86541418D01*
X121444556Y-85410047D01*
X122222373Y-84632230D01*
X122222373Y-84632230D01*
G37*
G36*
X123000190Y-83854412D02*
X124131561Y-84985783D01*
X123353744Y-85763600D01*
X122222373Y-84632229D01*
X123000190Y-83854412D01*
X123000190Y-83854412D01*
G37*
G36*
X116565518Y-90289084D02*
X117696889Y-91420455D01*
X116706940Y-92410404D01*
X115575569Y-91279033D01*
X116565518Y-90289084D01*
X116565518Y-90289084D01*
G37*
G36*
X123654265Y-83200339D02*
X124785635Y-84331709D01*
X124043173Y-85074171D01*
X122911803Y-83942801D01*
X123654265Y-83200339D01*
X123654265Y-83200339D01*
G37*
G36*
X132015802Y-89970885D02*
X132864330Y-90819413D01*
X131874380Y-91809363D01*
X131025852Y-90960835D01*
X132015802Y-89970885D01*
X132015802Y-89970885D01*
G37*
G36*
X127490318Y-85445402D02*
X128621689Y-86576773D01*
X127631740Y-87566722D01*
X126500369Y-86435351D01*
X127490318Y-85445402D01*
X127490318Y-85445402D01*
G37*
G36*
X189520291Y-47585457D02*
X187893945Y-45959111D01*
X189096027Y-44757029D01*
X190722373Y-46383375D01*
X189520291Y-47585457D01*
X189520291Y-47585457D01*
G37*
G36*
X180716812Y-57661728D02*
X178454070Y-55398986D01*
X179444020Y-54409036D01*
X181706762Y-56671778D01*
X180716812Y-57661728D01*
X180716812Y-57661728D01*
G37*
G36*
X197404532Y-60560866D02*
X196273161Y-59429495D01*
X197050978Y-58651678D01*
X198182349Y-59783049D01*
X197404532Y-60560866D01*
X197404532Y-60560866D01*
G37*
G36*
X196626715Y-61338683D02*
X195495344Y-60207312D01*
X196273161Y-59429495D01*
X197404532Y-60560866D01*
X196626715Y-61338683D01*
X196626715Y-61338683D01*
G37*
G36*
X195848897Y-62116501D02*
X194717526Y-60985130D01*
X195495343Y-60207313D01*
X196626714Y-61338684D01*
X195848897Y-62116501D01*
X195848897Y-62116501D01*
G37*
G36*
X195071080Y-62894318D02*
X193939709Y-61762947D01*
X194717526Y-60985130D01*
X195848897Y-62116501D01*
X195071080Y-62894318D01*
X195071080Y-62894318D01*
G37*
G36*
X194293262Y-63672135D02*
X193161891Y-62540764D01*
X193939708Y-61762947D01*
X195071079Y-62894318D01*
X194293262Y-63672135D01*
X194293262Y-63672135D01*
G37*
G36*
X193515445Y-64449953D02*
X192384074Y-63318582D01*
X193161891Y-62540765D01*
X194293262Y-63672136D01*
X193515445Y-64449953D01*
X193515445Y-64449953D01*
G37*
G36*
X192737627Y-65227770D02*
X191606256Y-64096399D01*
X192384073Y-63318582D01*
X193515444Y-64449953D01*
X192737627Y-65227770D01*
X192737627Y-65227770D01*
G37*
G36*
X191959810Y-66005588D02*
X190828439Y-64874217D01*
X191606256Y-64096400D01*
X192737627Y-65227771D01*
X191959810Y-66005588D01*
X191959810Y-66005588D01*
G37*
G36*
X198394482Y-59570916D02*
X197263111Y-58439545D01*
X198253060Y-57449596D01*
X199384431Y-58580967D01*
X198394482Y-59570916D01*
X198394482Y-59570916D01*
G37*
G36*
X191305735Y-66659661D02*
X190174365Y-65528291D01*
X190916827Y-64785829D01*
X192048197Y-65917199D01*
X191305735Y-66659661D01*
X191305735Y-66659661D01*
G37*
G36*
X182944198Y-59889115D02*
X182095670Y-59040587D01*
X183085620Y-58050637D01*
X183934148Y-58899165D01*
X182944198Y-59889115D01*
X182944198Y-59889115D01*
G37*
G36*
X187469682Y-64414598D02*
X186338311Y-63283227D01*
X187328260Y-62293278D01*
X188459631Y-63424649D01*
X187469682Y-64414598D01*
X187469682Y-64414598D01*
G37*
D11*
X185330000Y-75230000D03*
D10*
G36*
X197317992Y-63083180D02*
X196504820Y-62270008D01*
X197353348Y-61421480D01*
X198166520Y-62234652D01*
X197317992Y-63083180D01*
X197317992Y-63083180D01*
G37*
G36*
X198378652Y-62022520D02*
X197565480Y-61209348D01*
X198414008Y-60360820D01*
X199227180Y-61173992D01*
X198378652Y-62022520D01*
X198378652Y-62022520D01*
G37*
D14*
X201930000Y-111760000D03*
D15*
X201930000Y-109220000D03*
X201930000Y-106680000D03*
X201930000Y-104140000D03*
X201930000Y-101600000D03*
X201930000Y-99060000D03*
X201930000Y-96520000D03*
X201930000Y-93980000D03*
X201930000Y-91440000D03*
X201930000Y-88900000D03*
X201930000Y-86360000D03*
X201930000Y-83820000D03*
X201930000Y-81280000D03*
X201930000Y-78740000D03*
X201930000Y-76200000D03*
X201930000Y-73660000D03*
X201930000Y-71120000D03*
X201930000Y-68580000D03*
X201930000Y-66040000D03*
X201930000Y-63500000D03*
X201930000Y-60960000D03*
X201930000Y-58420000D03*
X201930000Y-55880000D03*
X201930000Y-53340000D03*
X201930000Y-50800000D03*
X201930000Y-48260000D03*
X201930000Y-45720000D03*
X201930000Y-43180000D03*
X201930000Y-40640000D03*
X201930000Y-38100000D03*
D12*
X120650000Y-119380000D03*
D13*
X123190000Y-119380000D03*
X125730000Y-119380000D03*
X128270000Y-119380000D03*
X130810000Y-119380000D03*
X133350000Y-119380000D03*
X135890000Y-119380000D03*
X138430000Y-119380000D03*
X140970000Y-119380000D03*
X143510000Y-119380000D03*
X146050000Y-119380000D03*
X148590000Y-119380000D03*
X151130000Y-119380000D03*
X153670000Y-119380000D03*
X156210000Y-119380000D03*
X158750000Y-119380000D03*
X161290000Y-119380000D03*
X163830000Y-119380000D03*
X166370000Y-119380000D03*
X168910000Y-119380000D03*
X171450000Y-119380000D03*
X173990000Y-119380000D03*
X176530000Y-119380000D03*
X179070000Y-119380000D03*
X181610000Y-119380000D03*
X184150000Y-119380000D03*
X186690000Y-119380000D03*
X189230000Y-119380000D03*
X191770000Y-119380000D03*
X194310000Y-119380000D03*
D10*
G36*
X169326820Y-114767992D02*
X170139992Y-113954820D01*
X170988520Y-114803348D01*
X170175348Y-115616520D01*
X169326820Y-114767992D01*
X169326820Y-114767992D01*
G37*
G36*
X170387480Y-115828652D02*
X171200652Y-115015480D01*
X172049180Y-115864008D01*
X171236008Y-116677180D01*
X170387480Y-115828652D01*
X170387480Y-115828652D01*
G37*
D11*
X157180000Y-102780000D03*
D10*
G36*
X184824543Y-106970291D02*
X186450889Y-105343945D01*
X187652971Y-106546027D01*
X186026625Y-108172373D01*
X184824543Y-106970291D01*
X184824543Y-106970291D01*
G37*
G36*
X174748272Y-98166812D02*
X177011014Y-95904070D01*
X178000964Y-96894020D01*
X175738222Y-99156762D01*
X174748272Y-98166812D01*
X174748272Y-98166812D01*
G37*
G36*
X171849134Y-114854532D02*
X172980505Y-113723161D01*
X173758322Y-114500978D01*
X172626951Y-115632349D01*
X171849134Y-114854532D01*
X171849134Y-114854532D01*
G37*
G36*
X171071317Y-114076715D02*
X172202688Y-112945344D01*
X172980505Y-113723161D01*
X171849134Y-114854532D01*
X171071317Y-114076715D01*
X171071317Y-114076715D01*
G37*
G36*
X170293499Y-113298897D02*
X171424870Y-112167526D01*
X172202687Y-112945343D01*
X171071316Y-114076714D01*
X170293499Y-113298897D01*
X170293499Y-113298897D01*
G37*
G36*
X169515682Y-112521080D02*
X170647053Y-111389709D01*
X171424870Y-112167526D01*
X170293499Y-113298897D01*
X169515682Y-112521080D01*
X169515682Y-112521080D01*
G37*
G36*
X168737865Y-111743262D02*
X169869236Y-110611891D01*
X170647053Y-111389708D01*
X169515682Y-112521079D01*
X168737865Y-111743262D01*
X168737865Y-111743262D01*
G37*
G36*
X167960047Y-110965445D02*
X169091418Y-109834074D01*
X169869235Y-110611891D01*
X168737864Y-111743262D01*
X167960047Y-110965445D01*
X167960047Y-110965445D01*
G37*
G36*
X167182230Y-110187627D02*
X168313601Y-109056256D01*
X169091418Y-109834073D01*
X167960047Y-110965444D01*
X167182230Y-110187627D01*
X167182230Y-110187627D01*
G37*
G36*
X166404412Y-109409810D02*
X167535783Y-108278439D01*
X168313600Y-109056256D01*
X167182229Y-110187627D01*
X166404412Y-109409810D01*
X166404412Y-109409810D01*
G37*
G36*
X172839084Y-115844482D02*
X173970455Y-114713111D01*
X174960404Y-115703060D01*
X173829033Y-116834431D01*
X172839084Y-115844482D01*
X172839084Y-115844482D01*
G37*
G36*
X165750339Y-108755735D02*
X166881709Y-107624365D01*
X167624171Y-108366827D01*
X166492801Y-109498197D01*
X165750339Y-108755735D01*
X165750339Y-108755735D01*
G37*
G36*
X172520885Y-100394198D02*
X173369413Y-99545670D01*
X174359363Y-100535620D01*
X173510835Y-101384148D01*
X172520885Y-100394198D01*
X172520885Y-100394198D01*
G37*
G36*
X167995402Y-104919682D02*
X169126773Y-103788311D01*
X170116722Y-104778260D01*
X168985351Y-105909631D01*
X167995402Y-104919682D01*
X167995402Y-104919682D01*
G37*
M02*
