M48
;DRILL file {KiCad 4.0.1-stable} date 2017/02/23 14:55:39
;FORMAT={-:-/ absolute / metric / decimal}
FMAT,2
METRIC,TZ
T1C0.300
T2C0.400
T3C1.016
%
G90
G05
M71
T1
X133.48Y-50.64
X133.48Y-99.14
X138.172Y-48.029
X138.172Y-96.529
X139.574Y-52.971
X139.574Y-101.471
X140.52Y-47.565
X140.52Y-96.065
X142.65Y-51.62
X142.65Y-100.12
X144.323Y-51.361
X144.323Y-99.861
X144.873Y-51.911
X144.873Y-100.411
X145.508Y-50.39
X145.508Y-98.89
X147.522Y-72.873
X147.522Y-121.372
X148.927Y-56.542
X148.927Y-105.042
X149.623Y-44.04
X149.623Y-92.54
X150.755Y-49.355
X150.755Y-97.855
X151.068Y-56.74
X151.068Y-105.24
X153.387Y-62.344
X153.387Y-110.844
X153.489Y-61.642
X153.489Y-110.142
X154.434Y-61.583
X154.434Y-110.083
X155.575Y-61.608
X155.575Y-110.108
X156.2Y-58.022
X156.2Y-106.522
X156.365Y-44.547
X156.365Y-93.047
X157.422Y-52.93
X157.422Y-101.43
X157.584Y-61.076
X157.584Y-109.576
X160.655Y-61.218
X160.655Y-109.718
X162.087Y-50.568
X162.087Y-99.068
X162.312Y-43.996
X162.312Y-92.496
X163.566Y-57.546
X163.566Y-106.046
X166.695Y-56.069
X166.695Y-104.569
X166.703Y-54.836
X166.703Y-103.336
X167.326Y-53.877
X167.326Y-102.377
X167.466Y-52.8
X167.466Y-101.3
X173.569Y-46.386
X173.569Y-94.886
X173.635Y-49.738
X173.635Y-98.238
X178.019Y-41.936
X178.019Y-90.436
X183.612Y-59.007
X183.612Y-107.507
T2
X137.299Y-47.259
X137.299Y-95.759
X138.318Y-53.422
X138.318Y-101.922
X141.895Y-56.259
X141.895Y-104.759
X149.949Y-42.77
X149.949Y-91.27
X170.899Y-38.61
X170.899Y-87.11
X176.752Y-59.005
X176.752Y-107.505
T3
X127.Y-48.02
X127.Y-55.64
X127.Y-63.26
X127.Y-70.88
X127.Y-96.52
X127.Y-104.14
X127.Y-111.76
X127.Y-119.38
X129.54Y-55.64
X129.54Y-63.26
X129.54Y-70.88
X129.54Y-104.14
X129.54Y-111.76
X129.54Y-119.38
X132.08Y-55.64
X132.08Y-63.26
X132.08Y-70.88
X132.08Y-104.14
X132.08Y-111.76
X132.08Y-119.38
X134.62Y-55.64
X134.62Y-63.26
X134.62Y-70.88
X134.62Y-104.14
X134.62Y-111.76
X134.62Y-119.38
X137.16Y-55.64
X137.16Y-63.26
X137.16Y-70.88
X137.16Y-104.14
X137.16Y-111.76
X137.16Y-119.38
X139.7Y-55.64
X139.7Y-63.26
X139.7Y-70.88
X139.7Y-104.14
X139.7Y-111.76
X139.7Y-119.38
X142.24Y-70.88
X142.24Y-119.38
X144.78Y-70.88
X144.78Y-119.38
X147.32Y-70.88
X147.32Y-119.38
X149.86Y-70.88
X149.86Y-119.38
X152.4Y-70.88
X152.4Y-119.38
X154.94Y-70.88
X154.94Y-119.38
X157.48Y-70.88
X157.48Y-119.38
X160.02Y-70.88
X160.02Y-119.38
X162.56Y-70.88
X162.56Y-119.38
X165.1Y-70.88
X165.1Y-119.38
X167.64Y-63.26
X167.64Y-70.88
X167.64Y-111.76
X167.64Y-119.38
X170.18Y-63.26
X170.18Y-70.88
X170.18Y-111.76
X170.18Y-119.38
X172.72Y-53.1
X172.72Y-58.18
X172.72Y-63.26
X172.72Y-70.88
X172.72Y-101.6
X172.72Y-106.68
X172.72Y-111.76
X172.72Y-119.38
X175.26Y-53.1
X175.26Y-58.18
X175.26Y-63.26
X175.26Y-70.88
X175.26Y-101.6
X175.26Y-106.68
X175.26Y-111.76
X175.26Y-119.38
X182.88Y-70.88
X182.88Y-119.38
X185.42Y-70.88
X185.42Y-119.38
X187.96Y-70.88
X187.96Y-119.38
T0
M30
