G04 #@! TF.FileFunction,Legend,Top*
%FSLAX46Y46*%
G04 Gerber Fmt 4.6, Leading zero omitted, Abs format (unit mm)*
G04 Created by KiCad (PCBNEW 4.0.1-stable) date 2017/04/12 16:11:32*
%MOMM*%
G01*
G04 APERTURE LIST*
%ADD10C,0.100000*%
%ADD11C,0.200000*%
%ADD12C,0.500000*%
%ADD13C,0.150000*%
G04 APERTURE END LIST*
D10*
D11*
X194967143Y-33061429D02*
X193767143Y-33461429D01*
X194967143Y-33861429D01*
X193767143Y-34261428D02*
X194567143Y-34261428D01*
X194967143Y-34261428D02*
X194910000Y-34204285D01*
X194852857Y-34261428D01*
X194910000Y-34318571D01*
X194967143Y-34261428D01*
X194852857Y-34261428D01*
X194567143Y-34832857D02*
X193767143Y-34832857D01*
X194452857Y-34832857D02*
X194510000Y-34890000D01*
X194567143Y-35004286D01*
X194567143Y-35175714D01*
X194510000Y-35290000D01*
X194395714Y-35347143D01*
X193767143Y-35347143D01*
X192370000Y-33375715D02*
X192427143Y-33261429D01*
X192427143Y-33090000D01*
X192370000Y-32918572D01*
X192255714Y-32804286D01*
X192141429Y-32747143D01*
X191912857Y-32690000D01*
X191741429Y-32690000D01*
X191512857Y-32747143D01*
X191398571Y-32804286D01*
X191284286Y-32918572D01*
X191227143Y-33090000D01*
X191227143Y-33204286D01*
X191284286Y-33375715D01*
X191341429Y-33432858D01*
X191741429Y-33432858D01*
X191741429Y-33204286D01*
X191227143Y-33947143D02*
X192427143Y-33947143D01*
X191227143Y-34632858D01*
X192427143Y-34632858D01*
X191227143Y-35204286D02*
X192427143Y-35204286D01*
X192427143Y-35490001D01*
X192370000Y-35661429D01*
X192255714Y-35775715D01*
X192141429Y-35832858D01*
X191912857Y-35890001D01*
X191741429Y-35890001D01*
X191512857Y-35832858D01*
X191398571Y-35775715D01*
X191284286Y-35661429D01*
X191227143Y-35490001D01*
X191227143Y-35204286D01*
X189887143Y-32518572D02*
X189887143Y-33261429D01*
X189430000Y-32861429D01*
X189430000Y-33032857D01*
X189372857Y-33147143D01*
X189315714Y-33204286D01*
X189201429Y-33261429D01*
X188915714Y-33261429D01*
X188801429Y-33204286D01*
X188744286Y-33147143D01*
X188687143Y-33032857D01*
X188687143Y-32690000D01*
X188744286Y-32575714D01*
X188801429Y-32518572D01*
X188801429Y-33775714D02*
X188744286Y-33832857D01*
X188687143Y-33775714D01*
X188744286Y-33718571D01*
X188801429Y-33775714D01*
X188687143Y-33775714D01*
X189887143Y-34232858D02*
X189887143Y-34975715D01*
X189430000Y-34575715D01*
X189430000Y-34747143D01*
X189372857Y-34861429D01*
X189315714Y-34918572D01*
X189201429Y-34975715D01*
X188915714Y-34975715D01*
X188801429Y-34918572D01*
X188744286Y-34861429D01*
X188687143Y-34747143D01*
X188687143Y-34404286D01*
X188744286Y-34290000D01*
X188801429Y-34232858D01*
X189887143Y-35318572D02*
X188687143Y-35718572D01*
X189887143Y-36118572D01*
X186775714Y-32769286D02*
X186775714Y-33169286D01*
X186147143Y-33340715D02*
X186147143Y-32769286D01*
X187347143Y-32769286D01*
X187347143Y-33340715D01*
X186147143Y-33855000D02*
X187347143Y-33855000D01*
X186147143Y-34540715D01*
X187347143Y-34540715D01*
X184807143Y-32962858D02*
X184807143Y-33077143D01*
X184750000Y-33191429D01*
X184692857Y-33248572D01*
X184578571Y-33305715D01*
X184350000Y-33362858D01*
X184064286Y-33362858D01*
X183835714Y-33305715D01*
X183721429Y-33248572D01*
X183664286Y-33191429D01*
X183607143Y-33077143D01*
X183607143Y-32962858D01*
X183664286Y-32848572D01*
X183721429Y-32791429D01*
X183835714Y-32734286D01*
X184064286Y-32677143D01*
X184350000Y-32677143D01*
X184578571Y-32734286D01*
X184692857Y-32791429D01*
X184750000Y-32848572D01*
X184807143Y-32962858D01*
X181067143Y-33362858D02*
X181067143Y-32677143D01*
X181067143Y-33020001D02*
X182267143Y-33020001D01*
X182095714Y-32905715D01*
X181981429Y-32791429D01*
X181924286Y-32677143D01*
X179612857Y-32677143D02*
X179670000Y-32734286D01*
X179727143Y-32848572D01*
X179727143Y-33134286D01*
X179670000Y-33248572D01*
X179612857Y-33305715D01*
X179498571Y-33362858D01*
X179384286Y-33362858D01*
X179212857Y-33305715D01*
X178527143Y-32620001D01*
X178527143Y-33362858D01*
X177187143Y-32620001D02*
X177187143Y-33362858D01*
X176730000Y-32962858D01*
X176730000Y-33134286D01*
X176672857Y-33248572D01*
X176615714Y-33305715D01*
X176501429Y-33362858D01*
X176215714Y-33362858D01*
X176101429Y-33305715D01*
X176044286Y-33248572D01*
X175987143Y-33134286D01*
X175987143Y-32791429D01*
X176044286Y-32677143D01*
X176101429Y-32620001D01*
X174247143Y-33248572D02*
X173447143Y-33248572D01*
X174704286Y-32962858D02*
X173847143Y-32677143D01*
X173847143Y-33420001D01*
X172107143Y-33305715D02*
X172107143Y-32734286D01*
X171535714Y-32677143D01*
X171592857Y-32734286D01*
X171650000Y-32848572D01*
X171650000Y-33134286D01*
X171592857Y-33248572D01*
X171535714Y-33305715D01*
X171421429Y-33362858D01*
X171135714Y-33362858D01*
X171021429Y-33305715D01*
X170964286Y-33248572D01*
X170907143Y-33134286D01*
X170907143Y-32848572D01*
X170964286Y-32734286D01*
X171021429Y-32677143D01*
X168367143Y-33426429D02*
X168367143Y-32740714D01*
X168367143Y-33083572D02*
X169567143Y-33083572D01*
X169395714Y-32969286D01*
X169281429Y-32855000D01*
X169224286Y-32740714D01*
X169452857Y-33883571D02*
X169510000Y-33940714D01*
X169567143Y-34055000D01*
X169567143Y-34340714D01*
X169510000Y-34455000D01*
X169452857Y-34512143D01*
X169338571Y-34569286D01*
X169224286Y-34569286D01*
X169052857Y-34512143D01*
X168367143Y-33826429D01*
X168367143Y-34569286D01*
X165827143Y-33426429D02*
X165827143Y-32740714D01*
X165827143Y-33083572D02*
X167027143Y-33083572D01*
X166855714Y-32969286D01*
X166741429Y-32855000D01*
X166684286Y-32740714D01*
X167027143Y-33826429D02*
X167027143Y-34569286D01*
X166570000Y-34169286D01*
X166570000Y-34340714D01*
X166512857Y-34455000D01*
X166455714Y-34512143D01*
X166341429Y-34569286D01*
X166055714Y-34569286D01*
X165941429Y-34512143D01*
X165884286Y-34455000D01*
X165827143Y-34340714D01*
X165827143Y-33997857D01*
X165884286Y-33883571D01*
X165941429Y-33826429D01*
X163287143Y-33426429D02*
X163287143Y-32740714D01*
X163287143Y-33083572D02*
X164487143Y-33083572D01*
X164315714Y-32969286D01*
X164201429Y-32855000D01*
X164144286Y-32740714D01*
X164087143Y-34455000D02*
X163287143Y-34455000D01*
X164544286Y-34169286D02*
X163687143Y-33883571D01*
X163687143Y-34626429D01*
X160747143Y-33426429D02*
X160747143Y-32740714D01*
X160747143Y-33083572D02*
X161947143Y-33083572D01*
X161775714Y-32969286D01*
X161661429Y-32855000D01*
X161604286Y-32740714D01*
X161947143Y-34512143D02*
X161947143Y-33940714D01*
X161375714Y-33883571D01*
X161432857Y-33940714D01*
X161490000Y-34055000D01*
X161490000Y-34340714D01*
X161432857Y-34455000D01*
X161375714Y-34512143D01*
X161261429Y-34569286D01*
X160975714Y-34569286D01*
X160861429Y-34512143D01*
X160804286Y-34455000D01*
X160747143Y-34340714D01*
X160747143Y-34055000D01*
X160804286Y-33940714D01*
X160861429Y-33883571D01*
X158207143Y-33426429D02*
X158207143Y-32740714D01*
X158207143Y-33083572D02*
X159407143Y-33083572D01*
X159235714Y-32969286D01*
X159121429Y-32855000D01*
X159064286Y-32740714D01*
X159407143Y-34455000D02*
X159407143Y-34226429D01*
X159350000Y-34112143D01*
X159292857Y-34055000D01*
X159121429Y-33940714D01*
X158892857Y-33883571D01*
X158435714Y-33883571D01*
X158321429Y-33940714D01*
X158264286Y-33997857D01*
X158207143Y-34112143D01*
X158207143Y-34340714D01*
X158264286Y-34455000D01*
X158321429Y-34512143D01*
X158435714Y-34569286D01*
X158721429Y-34569286D01*
X158835714Y-34512143D01*
X158892857Y-34455000D01*
X158950000Y-34340714D01*
X158950000Y-34112143D01*
X158892857Y-33997857D01*
X158835714Y-33940714D01*
X158721429Y-33883571D01*
X155667143Y-33426429D02*
X155667143Y-32740714D01*
X155667143Y-33083572D02*
X156867143Y-33083572D01*
X156695714Y-32969286D01*
X156581429Y-32855000D01*
X156524286Y-32740714D01*
X156867143Y-33826429D02*
X156867143Y-34626429D01*
X155667143Y-34112143D01*
X153127143Y-33426429D02*
X153127143Y-32740714D01*
X153127143Y-33083572D02*
X154327143Y-33083572D01*
X154155714Y-32969286D01*
X154041429Y-32855000D01*
X153984286Y-32740714D01*
X153812857Y-34112143D02*
X153870000Y-33997857D01*
X153927143Y-33940714D01*
X154041429Y-33883571D01*
X154098571Y-33883571D01*
X154212857Y-33940714D01*
X154270000Y-33997857D01*
X154327143Y-34112143D01*
X154327143Y-34340714D01*
X154270000Y-34455000D01*
X154212857Y-34512143D01*
X154098571Y-34569286D01*
X154041429Y-34569286D01*
X153927143Y-34512143D01*
X153870000Y-34455000D01*
X153812857Y-34340714D01*
X153812857Y-34112143D01*
X153755714Y-33997857D01*
X153698571Y-33940714D01*
X153584286Y-33883571D01*
X153355714Y-33883571D01*
X153241429Y-33940714D01*
X153184286Y-33997857D01*
X153127143Y-34112143D01*
X153127143Y-34340714D01*
X153184286Y-34455000D01*
X153241429Y-34512143D01*
X153355714Y-34569286D01*
X153584286Y-34569286D01*
X153698571Y-34512143D01*
X153755714Y-34455000D01*
X153812857Y-34340714D01*
X150587143Y-33426429D02*
X150587143Y-32740714D01*
X150587143Y-33083572D02*
X151787143Y-33083572D01*
X151615714Y-32969286D01*
X151501429Y-32855000D01*
X151444286Y-32740714D01*
X150587143Y-33997857D02*
X150587143Y-34226429D01*
X150644286Y-34340714D01*
X150701429Y-34397857D01*
X150872857Y-34512143D01*
X151101429Y-34569286D01*
X151558571Y-34569286D01*
X151672857Y-34512143D01*
X151730000Y-34455000D01*
X151787143Y-34340714D01*
X151787143Y-34112143D01*
X151730000Y-33997857D01*
X151672857Y-33940714D01*
X151558571Y-33883571D01*
X151272857Y-33883571D01*
X151158571Y-33940714D01*
X151101429Y-33997857D01*
X151044286Y-34112143D01*
X151044286Y-34340714D01*
X151101429Y-34455000D01*
X151158571Y-34512143D01*
X151272857Y-34569286D01*
X149132857Y-32740714D02*
X149190000Y-32797857D01*
X149247143Y-32912143D01*
X149247143Y-33197857D01*
X149190000Y-33312143D01*
X149132857Y-33369286D01*
X149018571Y-33426429D01*
X148904286Y-33426429D01*
X148732857Y-33369286D01*
X148047143Y-32683572D01*
X148047143Y-33426429D01*
X148047143Y-34569286D02*
X148047143Y-33883571D01*
X148047143Y-34226429D02*
X149247143Y-34226429D01*
X149075714Y-34112143D01*
X148961429Y-33997857D01*
X148904286Y-33883571D01*
X146592857Y-32740714D02*
X146650000Y-32797857D01*
X146707143Y-32912143D01*
X146707143Y-33197857D01*
X146650000Y-33312143D01*
X146592857Y-33369286D01*
X146478571Y-33426429D01*
X146364286Y-33426429D01*
X146192857Y-33369286D01*
X145507143Y-32683572D01*
X145507143Y-33426429D01*
X146592857Y-33883571D02*
X146650000Y-33940714D01*
X146707143Y-34055000D01*
X146707143Y-34340714D01*
X146650000Y-34455000D01*
X146592857Y-34512143D01*
X146478571Y-34569286D01*
X146364286Y-34569286D01*
X146192857Y-34512143D01*
X145507143Y-33826429D01*
X145507143Y-34569286D01*
X144052857Y-32740714D02*
X144110000Y-32797857D01*
X144167143Y-32912143D01*
X144167143Y-33197857D01*
X144110000Y-33312143D01*
X144052857Y-33369286D01*
X143938571Y-33426429D01*
X143824286Y-33426429D01*
X143652857Y-33369286D01*
X142967143Y-32683572D01*
X142967143Y-33426429D01*
X144167143Y-33826429D02*
X144167143Y-34569286D01*
X143710000Y-34169286D01*
X143710000Y-34340714D01*
X143652857Y-34455000D01*
X143595714Y-34512143D01*
X143481429Y-34569286D01*
X143195714Y-34569286D01*
X143081429Y-34512143D01*
X143024286Y-34455000D01*
X142967143Y-34340714D01*
X142967143Y-33997857D01*
X143024286Y-33883571D01*
X143081429Y-33826429D01*
X141512857Y-32740714D02*
X141570000Y-32797857D01*
X141627143Y-32912143D01*
X141627143Y-33197857D01*
X141570000Y-33312143D01*
X141512857Y-33369286D01*
X141398571Y-33426429D01*
X141284286Y-33426429D01*
X141112857Y-33369286D01*
X140427143Y-32683572D01*
X140427143Y-33426429D01*
X141627143Y-34512143D02*
X141627143Y-33940714D01*
X141055714Y-33883571D01*
X141112857Y-33940714D01*
X141170000Y-34055000D01*
X141170000Y-34340714D01*
X141112857Y-34455000D01*
X141055714Y-34512143D01*
X140941429Y-34569286D01*
X140655714Y-34569286D01*
X140541429Y-34512143D01*
X140484286Y-34455000D01*
X140427143Y-34340714D01*
X140427143Y-34055000D01*
X140484286Y-33940714D01*
X140541429Y-33883571D01*
X138972857Y-32740714D02*
X139030000Y-32797857D01*
X139087143Y-32912143D01*
X139087143Y-33197857D01*
X139030000Y-33312143D01*
X138972857Y-33369286D01*
X138858571Y-33426429D01*
X138744286Y-33426429D01*
X138572857Y-33369286D01*
X137887143Y-32683572D01*
X137887143Y-33426429D01*
X139087143Y-34455000D02*
X139087143Y-34226429D01*
X139030000Y-34112143D01*
X138972857Y-34055000D01*
X138801429Y-33940714D01*
X138572857Y-33883571D01*
X138115714Y-33883571D01*
X138001429Y-33940714D01*
X137944286Y-33997857D01*
X137887143Y-34112143D01*
X137887143Y-34340714D01*
X137944286Y-34455000D01*
X138001429Y-34512143D01*
X138115714Y-34569286D01*
X138401429Y-34569286D01*
X138515714Y-34512143D01*
X138572857Y-34455000D01*
X138630000Y-34340714D01*
X138630000Y-34112143D01*
X138572857Y-33997857D01*
X138515714Y-33940714D01*
X138401429Y-33883571D01*
X136432857Y-32740714D02*
X136490000Y-32797857D01*
X136547143Y-32912143D01*
X136547143Y-33197857D01*
X136490000Y-33312143D01*
X136432857Y-33369286D01*
X136318571Y-33426429D01*
X136204286Y-33426429D01*
X136032857Y-33369286D01*
X135347143Y-32683572D01*
X135347143Y-33426429D01*
X136547143Y-33826429D02*
X136547143Y-34626429D01*
X135347143Y-34112143D01*
X134007143Y-32683572D02*
X134007143Y-33426429D01*
X133550000Y-33026429D01*
X133550000Y-33197857D01*
X133492857Y-33312143D01*
X133435714Y-33369286D01*
X133321429Y-33426429D01*
X133035714Y-33426429D01*
X132921429Y-33369286D01*
X132864286Y-33312143D01*
X132807143Y-33197857D01*
X132807143Y-32855000D01*
X132864286Y-32740714D01*
X132921429Y-32683572D01*
X133892857Y-33883571D02*
X133950000Y-33940714D01*
X134007143Y-34055000D01*
X134007143Y-34340714D01*
X133950000Y-34455000D01*
X133892857Y-34512143D01*
X133778571Y-34569286D01*
X133664286Y-34569286D01*
X133492857Y-34512143D01*
X132807143Y-33826429D01*
X132807143Y-34569286D01*
X131467143Y-32683572D02*
X131467143Y-33426429D01*
X131010000Y-33026429D01*
X131010000Y-33197857D01*
X130952857Y-33312143D01*
X130895714Y-33369286D01*
X130781429Y-33426429D01*
X130495714Y-33426429D01*
X130381429Y-33369286D01*
X130324286Y-33312143D01*
X130267143Y-33197857D01*
X130267143Y-32855000D01*
X130324286Y-32740714D01*
X130381429Y-32683572D01*
X131467143Y-33826429D02*
X131467143Y-34569286D01*
X131010000Y-34169286D01*
X131010000Y-34340714D01*
X130952857Y-34455000D01*
X130895714Y-34512143D01*
X130781429Y-34569286D01*
X130495714Y-34569286D01*
X130381429Y-34512143D01*
X130324286Y-34455000D01*
X130267143Y-34340714D01*
X130267143Y-33997857D01*
X130324286Y-33883571D01*
X130381429Y-33826429D01*
X128927143Y-32683572D02*
X128927143Y-33426429D01*
X128470000Y-33026429D01*
X128470000Y-33197857D01*
X128412857Y-33312143D01*
X128355714Y-33369286D01*
X128241429Y-33426429D01*
X127955714Y-33426429D01*
X127841429Y-33369286D01*
X127784286Y-33312143D01*
X127727143Y-33197857D01*
X127727143Y-32855000D01*
X127784286Y-32740714D01*
X127841429Y-32683572D01*
X128527143Y-34455000D02*
X127727143Y-34455000D01*
X128984286Y-34169286D02*
X128127143Y-33883571D01*
X128127143Y-34626429D01*
X126387143Y-32683572D02*
X126387143Y-33426429D01*
X125930000Y-33026429D01*
X125930000Y-33197857D01*
X125872857Y-33312143D01*
X125815714Y-33369286D01*
X125701429Y-33426429D01*
X125415714Y-33426429D01*
X125301429Y-33369286D01*
X125244286Y-33312143D01*
X125187143Y-33197857D01*
X125187143Y-32855000D01*
X125244286Y-32740714D01*
X125301429Y-32683572D01*
X126387143Y-34512143D02*
X126387143Y-33940714D01*
X125815714Y-33883571D01*
X125872857Y-33940714D01*
X125930000Y-34055000D01*
X125930000Y-34340714D01*
X125872857Y-34455000D01*
X125815714Y-34512143D01*
X125701429Y-34569286D01*
X125415714Y-34569286D01*
X125301429Y-34512143D01*
X125244286Y-34455000D01*
X125187143Y-34340714D01*
X125187143Y-34055000D01*
X125244286Y-33940714D01*
X125301429Y-33883571D01*
X123847143Y-32683572D02*
X123847143Y-33426429D01*
X123390000Y-33026429D01*
X123390000Y-33197857D01*
X123332857Y-33312143D01*
X123275714Y-33369286D01*
X123161429Y-33426429D01*
X122875714Y-33426429D01*
X122761429Y-33369286D01*
X122704286Y-33312143D01*
X122647143Y-33197857D01*
X122647143Y-32855000D01*
X122704286Y-32740714D01*
X122761429Y-32683572D01*
X123847143Y-34455000D02*
X123847143Y-34226429D01*
X123790000Y-34112143D01*
X123732857Y-34055000D01*
X123561429Y-33940714D01*
X123332857Y-33883571D01*
X122875714Y-33883571D01*
X122761429Y-33940714D01*
X122704286Y-33997857D01*
X122647143Y-34112143D01*
X122647143Y-34340714D01*
X122704286Y-34455000D01*
X122761429Y-34512143D01*
X122875714Y-34569286D01*
X123161429Y-34569286D01*
X123275714Y-34512143D01*
X123332857Y-34455000D01*
X123390000Y-34340714D01*
X123390000Y-34112143D01*
X123332857Y-33997857D01*
X123275714Y-33940714D01*
X123161429Y-33883571D01*
X121307143Y-32683572D02*
X121307143Y-33426429D01*
X120850000Y-33026429D01*
X120850000Y-33197857D01*
X120792857Y-33312143D01*
X120735714Y-33369286D01*
X120621429Y-33426429D01*
X120335714Y-33426429D01*
X120221429Y-33369286D01*
X120164286Y-33312143D01*
X120107143Y-33197857D01*
X120107143Y-32855000D01*
X120164286Y-32740714D01*
X120221429Y-32683572D01*
X120107143Y-33997857D02*
X120107143Y-34226429D01*
X120164286Y-34340714D01*
X120221429Y-34397857D01*
X120392857Y-34512143D01*
X120621429Y-34569286D01*
X121078571Y-34569286D01*
X121192857Y-34512143D01*
X121250000Y-34455000D01*
X121307143Y-34340714D01*
X121307143Y-34112143D01*
X121250000Y-33997857D01*
X121192857Y-33940714D01*
X121078571Y-33883571D01*
X120792857Y-33883571D01*
X120678571Y-33940714D01*
X120621429Y-33997857D01*
X120564286Y-34112143D01*
X120564286Y-34340714D01*
X120621429Y-34455000D01*
X120678571Y-34512143D01*
X120792857Y-34569286D01*
X182267143Y-34645715D02*
X182267143Y-35331429D01*
X181067143Y-34988572D02*
X182267143Y-34988572D01*
X182267143Y-35617144D02*
X181067143Y-36417144D01*
X182267143Y-36417144D02*
X181067143Y-35617144D01*
X175987143Y-35360001D02*
X176558571Y-34960001D01*
X175987143Y-34674286D02*
X177187143Y-34674286D01*
X177187143Y-35131429D01*
X177130000Y-35245715D01*
X177072857Y-35302858D01*
X176958571Y-35360001D01*
X176787143Y-35360001D01*
X176672857Y-35302858D01*
X176615714Y-35245715D01*
X176558571Y-35131429D01*
X176558571Y-34674286D01*
X177187143Y-35760001D02*
X175987143Y-36560001D01*
X177187143Y-36560001D02*
X175987143Y-35760001D01*
X144494286Y-48327143D02*
X144494286Y-49527143D01*
X143808571Y-48327143D02*
X144322857Y-49012857D01*
X143808571Y-49527143D02*
X144494286Y-48841429D01*
X143294286Y-48955714D02*
X142894286Y-48955714D01*
X142722857Y-48327143D02*
X143294286Y-48327143D01*
X143294286Y-49527143D01*
X142722857Y-49527143D01*
X141522857Y-48327143D02*
X141922857Y-48898571D01*
X142208572Y-48327143D02*
X142208572Y-49527143D01*
X141751429Y-49527143D01*
X141637143Y-49470000D01*
X141580000Y-49412857D01*
X141522857Y-49298571D01*
X141522857Y-49127143D01*
X141580000Y-49012857D01*
X141637143Y-48955714D01*
X141751429Y-48898571D01*
X142208572Y-48898571D01*
X141008572Y-48327143D02*
X141008572Y-49527143D01*
X140437143Y-48955714D02*
X140037143Y-48955714D01*
X139865714Y-48327143D02*
X140437143Y-48327143D01*
X140437143Y-49527143D01*
X139865714Y-49527143D01*
X139408572Y-48384286D02*
X139237143Y-48327143D01*
X138951429Y-48327143D01*
X138837143Y-48384286D01*
X138780000Y-48441429D01*
X138722857Y-48555714D01*
X138722857Y-48670000D01*
X138780000Y-48784286D01*
X138837143Y-48841429D01*
X138951429Y-48898571D01*
X139180000Y-48955714D01*
X139294286Y-49012857D01*
X139351429Y-49070000D01*
X139408572Y-49184286D01*
X139408572Y-49298571D01*
X139351429Y-49412857D01*
X139294286Y-49470000D01*
X139180000Y-49527143D01*
X138894286Y-49527143D01*
X138722857Y-49470000D01*
X138208572Y-48327143D02*
X138208572Y-49527143D01*
X137751429Y-49527143D01*
X137637143Y-49470000D01*
X137580000Y-49412857D01*
X137522857Y-49298571D01*
X137522857Y-49127143D01*
X137580000Y-49012857D01*
X137637143Y-48955714D01*
X137751429Y-48898571D01*
X138208572Y-48898571D01*
X137122857Y-49527143D02*
X136380000Y-49527143D01*
X136780000Y-49070000D01*
X136608572Y-49070000D01*
X136494286Y-49012857D01*
X136437143Y-48955714D01*
X136380000Y-48841429D01*
X136380000Y-48555714D01*
X136437143Y-48441429D01*
X136494286Y-48384286D01*
X136608572Y-48327143D01*
X136951429Y-48327143D01*
X137065715Y-48384286D01*
X137122857Y-48441429D01*
X135922858Y-49412857D02*
X135865715Y-49470000D01*
X135751429Y-49527143D01*
X135465715Y-49527143D01*
X135351429Y-49470000D01*
X135294286Y-49412857D01*
X135237143Y-49298571D01*
X135237143Y-49184286D01*
X135294286Y-49012857D01*
X135980000Y-48327143D01*
X135237143Y-48327143D01*
X144665714Y-47647143D02*
X143980000Y-47647143D01*
X144322857Y-46447143D02*
X144322857Y-47647143D01*
X143580000Y-46447143D02*
X143580000Y-47247143D01*
X143580000Y-47018571D02*
X143522857Y-47132857D01*
X143465714Y-47190000D01*
X143351428Y-47247143D01*
X143237143Y-47247143D01*
X142322857Y-46447143D02*
X142322857Y-47075714D01*
X142380000Y-47190000D01*
X142494286Y-47247143D01*
X142722857Y-47247143D01*
X142837143Y-47190000D01*
X142322857Y-46504286D02*
X142437143Y-46447143D01*
X142722857Y-46447143D01*
X142837143Y-46504286D01*
X142894286Y-46618571D01*
X142894286Y-46732857D01*
X142837143Y-46847143D01*
X142722857Y-46904286D01*
X142437143Y-46904286D01*
X142322857Y-46961429D01*
X141751429Y-47247143D02*
X141751429Y-46047143D01*
X141751429Y-47190000D02*
X141637143Y-47247143D01*
X141408572Y-47247143D01*
X141294286Y-47190000D01*
X141237143Y-47132857D01*
X141180000Y-47018571D01*
X141180000Y-46675714D01*
X141237143Y-46561429D01*
X141294286Y-46504286D01*
X141408572Y-46447143D01*
X141637143Y-46447143D01*
X141751429Y-46504286D01*
X140208572Y-46504286D02*
X140322858Y-46447143D01*
X140551429Y-46447143D01*
X140665715Y-46504286D01*
X140722858Y-46618571D01*
X140722858Y-47075714D01*
X140665715Y-47190000D01*
X140551429Y-47247143D01*
X140322858Y-47247143D01*
X140208572Y-47190000D01*
X140151429Y-47075714D01*
X140151429Y-46961429D01*
X140722858Y-46847143D01*
X139751429Y-47247143D02*
X139122858Y-47247143D01*
X139751429Y-46447143D01*
X139122858Y-46447143D01*
X138494286Y-46447143D02*
X138608572Y-46504286D01*
X138665715Y-46561429D01*
X138722858Y-46675714D01*
X138722858Y-47018571D01*
X138665715Y-47132857D01*
X138608572Y-47190000D01*
X138494286Y-47247143D01*
X138322858Y-47247143D01*
X138208572Y-47190000D01*
X138151429Y-47132857D01*
X138094286Y-47018571D01*
X138094286Y-46675714D01*
X138151429Y-46561429D01*
X138208572Y-46504286D01*
X138322858Y-46447143D01*
X138494286Y-46447143D01*
X137580001Y-46447143D02*
X137580001Y-47247143D01*
X137580001Y-47647143D02*
X137637144Y-47590000D01*
X137580001Y-47532857D01*
X137522858Y-47590000D01*
X137580001Y-47647143D01*
X137580001Y-47532857D01*
X136494286Y-46447143D02*
X136494286Y-47647143D01*
X136494286Y-46504286D02*
X136608572Y-46447143D01*
X136837143Y-46447143D01*
X136951429Y-46504286D01*
X137008572Y-46561429D01*
X137065715Y-46675714D01*
X137065715Y-47018571D01*
X137008572Y-47132857D01*
X136951429Y-47190000D01*
X136837143Y-47247143D01*
X136608572Y-47247143D01*
X136494286Y-47190000D01*
X143751429Y-45138571D02*
X143808571Y-45195714D01*
X143922857Y-45252857D01*
X144037143Y-45252857D01*
X144151429Y-45195714D01*
X144208571Y-45138571D01*
X144265714Y-45024286D01*
X144265714Y-44910000D01*
X144208571Y-44795714D01*
X144151429Y-44738571D01*
X144037143Y-44681429D01*
X143922857Y-44681429D01*
X143808571Y-44738571D01*
X143751429Y-44795714D01*
X143751429Y-45252857D02*
X143751429Y-44795714D01*
X143694286Y-44738571D01*
X143637143Y-44738571D01*
X143522857Y-44795714D01*
X143465714Y-44910000D01*
X143465714Y-45195714D01*
X143580000Y-45367143D01*
X143751429Y-45481429D01*
X143980000Y-45538571D01*
X144208571Y-45481429D01*
X144380000Y-45367143D01*
X144494286Y-45195714D01*
X144551429Y-44967143D01*
X144494286Y-44738571D01*
X144380000Y-44567143D01*
X144208571Y-44452857D01*
X143980000Y-44395714D01*
X143751429Y-44452857D01*
X143580000Y-44567143D01*
X142265714Y-44567143D02*
X142665714Y-45138571D01*
X142951429Y-44567143D02*
X142951429Y-45767143D01*
X142494286Y-45767143D01*
X142380000Y-45710000D01*
X142322857Y-45652857D01*
X142265714Y-45538571D01*
X142265714Y-45367143D01*
X142322857Y-45252857D01*
X142380000Y-45195714D01*
X142494286Y-45138571D01*
X142951429Y-45138571D01*
X141865714Y-45367143D02*
X141580000Y-44567143D01*
X141294286Y-45367143D02*
X141580000Y-44567143D01*
X141694286Y-44281429D01*
X141751429Y-44224286D01*
X141865714Y-44167143D01*
X140665714Y-44567143D02*
X140780000Y-44624286D01*
X140837143Y-44681429D01*
X140894286Y-44795714D01*
X140894286Y-45138571D01*
X140837143Y-45252857D01*
X140780000Y-45310000D01*
X140665714Y-45367143D01*
X140494286Y-45367143D01*
X140380000Y-45310000D01*
X140322857Y-45252857D01*
X140265714Y-45138571D01*
X140265714Y-44795714D01*
X140322857Y-44681429D01*
X140380000Y-44624286D01*
X140494286Y-44567143D01*
X140665714Y-44567143D01*
X139751429Y-44567143D02*
X139751429Y-45767143D01*
X139637143Y-45024286D02*
X139294286Y-44567143D01*
X139294286Y-45367143D02*
X139751429Y-44910000D01*
X138322857Y-44624286D02*
X138437143Y-44567143D01*
X138665714Y-44567143D01*
X138780000Y-44624286D01*
X138837143Y-44738571D01*
X138837143Y-45195714D01*
X138780000Y-45310000D01*
X138665714Y-45367143D01*
X138437143Y-45367143D01*
X138322857Y-45310000D01*
X138265714Y-45195714D01*
X138265714Y-45081429D01*
X138837143Y-44967143D01*
X137751429Y-44567143D02*
X137751429Y-45367143D01*
X137751429Y-45138571D02*
X137694286Y-45252857D01*
X137637143Y-45310000D01*
X137522857Y-45367143D01*
X137408572Y-45367143D01*
X137008572Y-44567143D02*
X137008572Y-45367143D01*
X137008572Y-45767143D02*
X137065715Y-45710000D01*
X137008572Y-45652857D01*
X136951429Y-45710000D01*
X137008572Y-45767143D01*
X137008572Y-45652857D01*
X135808571Y-44567143D02*
X136494286Y-44567143D01*
X136151428Y-44567143D02*
X136151428Y-45767143D01*
X136265714Y-45595714D01*
X136380000Y-45481429D01*
X136494286Y-45424286D01*
X134780000Y-45367143D02*
X134780000Y-44567143D01*
X135065714Y-45824286D02*
X135351429Y-44967143D01*
X134608571Y-44967143D01*
X130877143Y-87915714D02*
X132077143Y-87915714D01*
X130877143Y-88601429D02*
X131562857Y-88087143D01*
X132077143Y-88601429D02*
X131391429Y-87915714D01*
X131505714Y-89115714D02*
X131505714Y-89515714D01*
X130877143Y-89687143D02*
X130877143Y-89115714D01*
X132077143Y-89115714D01*
X132077143Y-89687143D01*
X130877143Y-90887143D02*
X131448571Y-90487143D01*
X130877143Y-90201428D02*
X132077143Y-90201428D01*
X132077143Y-90658571D01*
X132020000Y-90772857D01*
X131962857Y-90830000D01*
X131848571Y-90887143D01*
X131677143Y-90887143D01*
X131562857Y-90830000D01*
X131505714Y-90772857D01*
X131448571Y-90658571D01*
X131448571Y-90201428D01*
X130877143Y-91401428D02*
X132077143Y-91401428D01*
X131505714Y-91972857D02*
X131505714Y-92372857D01*
X130877143Y-92544286D02*
X130877143Y-91972857D01*
X132077143Y-91972857D01*
X132077143Y-92544286D01*
X130934286Y-93001428D02*
X130877143Y-93172857D01*
X130877143Y-93458571D01*
X130934286Y-93572857D01*
X130991429Y-93630000D01*
X131105714Y-93687143D01*
X131220000Y-93687143D01*
X131334286Y-93630000D01*
X131391429Y-93572857D01*
X131448571Y-93458571D01*
X131505714Y-93230000D01*
X131562857Y-93115714D01*
X131620000Y-93058571D01*
X131734286Y-93001428D01*
X131848571Y-93001428D01*
X131962857Y-93058571D01*
X132020000Y-93115714D01*
X132077143Y-93230000D01*
X132077143Y-93515714D01*
X132020000Y-93687143D01*
X130877143Y-94201428D02*
X132077143Y-94201428D01*
X132077143Y-94658571D01*
X132020000Y-94772857D01*
X131962857Y-94830000D01*
X131848571Y-94887143D01*
X131677143Y-94887143D01*
X131562857Y-94830000D01*
X131505714Y-94772857D01*
X131448571Y-94658571D01*
X131448571Y-94201428D01*
X132077143Y-95287143D02*
X132077143Y-96030000D01*
X131620000Y-95630000D01*
X131620000Y-95801428D01*
X131562857Y-95915714D01*
X131505714Y-95972857D01*
X131391429Y-96030000D01*
X131105714Y-96030000D01*
X130991429Y-95972857D01*
X130934286Y-95915714D01*
X130877143Y-95801428D01*
X130877143Y-95458571D01*
X130934286Y-95344285D01*
X130991429Y-95287143D01*
X131962857Y-96487142D02*
X132020000Y-96544285D01*
X132077143Y-96658571D01*
X132077143Y-96944285D01*
X132020000Y-97058571D01*
X131962857Y-97115714D01*
X131848571Y-97172857D01*
X131734286Y-97172857D01*
X131562857Y-97115714D01*
X130877143Y-96430000D01*
X130877143Y-97172857D01*
X130197143Y-87744286D02*
X130197143Y-88430000D01*
X128997143Y-88087143D02*
X130197143Y-88087143D01*
X128997143Y-88830000D02*
X129797143Y-88830000D01*
X129568571Y-88830000D02*
X129682857Y-88887143D01*
X129740000Y-88944286D01*
X129797143Y-89058572D01*
X129797143Y-89172857D01*
X128997143Y-90087143D02*
X129625714Y-90087143D01*
X129740000Y-90030000D01*
X129797143Y-89915714D01*
X129797143Y-89687143D01*
X129740000Y-89572857D01*
X129054286Y-90087143D02*
X128997143Y-89972857D01*
X128997143Y-89687143D01*
X129054286Y-89572857D01*
X129168571Y-89515714D01*
X129282857Y-89515714D01*
X129397143Y-89572857D01*
X129454286Y-89687143D01*
X129454286Y-89972857D01*
X129511429Y-90087143D01*
X129797143Y-90658571D02*
X128597143Y-90658571D01*
X129740000Y-90658571D02*
X129797143Y-90772857D01*
X129797143Y-91001428D01*
X129740000Y-91115714D01*
X129682857Y-91172857D01*
X129568571Y-91230000D01*
X129225714Y-91230000D01*
X129111429Y-91172857D01*
X129054286Y-91115714D01*
X128997143Y-91001428D01*
X128997143Y-90772857D01*
X129054286Y-90658571D01*
X129054286Y-92201428D02*
X128997143Y-92087142D01*
X128997143Y-91858571D01*
X129054286Y-91744285D01*
X129168571Y-91687142D01*
X129625714Y-91687142D01*
X129740000Y-91744285D01*
X129797143Y-91858571D01*
X129797143Y-92087142D01*
X129740000Y-92201428D01*
X129625714Y-92258571D01*
X129511429Y-92258571D01*
X129397143Y-91687142D01*
X129797143Y-92658571D02*
X129797143Y-93287142D01*
X128997143Y-92658571D01*
X128997143Y-93287142D01*
X128997143Y-93915714D02*
X129054286Y-93801428D01*
X129111429Y-93744285D01*
X129225714Y-93687142D01*
X129568571Y-93687142D01*
X129682857Y-93744285D01*
X129740000Y-93801428D01*
X129797143Y-93915714D01*
X129797143Y-94087142D01*
X129740000Y-94201428D01*
X129682857Y-94258571D01*
X129568571Y-94315714D01*
X129225714Y-94315714D01*
X129111429Y-94258571D01*
X129054286Y-94201428D01*
X128997143Y-94087142D01*
X128997143Y-93915714D01*
X128997143Y-94829999D02*
X129797143Y-94829999D01*
X130197143Y-94829999D02*
X130140000Y-94772856D01*
X130082857Y-94829999D01*
X130140000Y-94887142D01*
X130197143Y-94829999D01*
X130082857Y-94829999D01*
X128997143Y-95915714D02*
X130197143Y-95915714D01*
X129054286Y-95915714D02*
X128997143Y-95801428D01*
X128997143Y-95572857D01*
X129054286Y-95458571D01*
X129111429Y-95401428D01*
X129225714Y-95344285D01*
X129568571Y-95344285D01*
X129682857Y-95401428D01*
X129740000Y-95458571D01*
X129797143Y-95572857D01*
X129797143Y-95801428D01*
X129740000Y-95915714D01*
X127688571Y-88658571D02*
X127745714Y-88601429D01*
X127802857Y-88487143D01*
X127802857Y-88372857D01*
X127745714Y-88258571D01*
X127688571Y-88201429D01*
X127574286Y-88144286D01*
X127460000Y-88144286D01*
X127345714Y-88201429D01*
X127288571Y-88258571D01*
X127231429Y-88372857D01*
X127231429Y-88487143D01*
X127288571Y-88601429D01*
X127345714Y-88658571D01*
X127802857Y-88658571D02*
X127345714Y-88658571D01*
X127288571Y-88715714D01*
X127288571Y-88772857D01*
X127345714Y-88887143D01*
X127460000Y-88944286D01*
X127745714Y-88944286D01*
X127917143Y-88830000D01*
X128031429Y-88658571D01*
X128088571Y-88430000D01*
X128031429Y-88201429D01*
X127917143Y-88030000D01*
X127745714Y-87915714D01*
X127517143Y-87858571D01*
X127288571Y-87915714D01*
X127117143Y-88030000D01*
X127002857Y-88201429D01*
X126945714Y-88430000D01*
X127002857Y-88658571D01*
X127117143Y-88830000D01*
X127117143Y-90144286D02*
X127688571Y-89744286D01*
X127117143Y-89458571D02*
X128317143Y-89458571D01*
X128317143Y-89915714D01*
X128260000Y-90030000D01*
X128202857Y-90087143D01*
X128088571Y-90144286D01*
X127917143Y-90144286D01*
X127802857Y-90087143D01*
X127745714Y-90030000D01*
X127688571Y-89915714D01*
X127688571Y-89458571D01*
X127917143Y-90544286D02*
X127117143Y-90830000D01*
X127917143Y-91115714D02*
X127117143Y-90830000D01*
X126831429Y-90715714D01*
X126774286Y-90658571D01*
X126717143Y-90544286D01*
X127117143Y-91744286D02*
X127174286Y-91630000D01*
X127231429Y-91572857D01*
X127345714Y-91515714D01*
X127688571Y-91515714D01*
X127802857Y-91572857D01*
X127860000Y-91630000D01*
X127917143Y-91744286D01*
X127917143Y-91915714D01*
X127860000Y-92030000D01*
X127802857Y-92087143D01*
X127688571Y-92144286D01*
X127345714Y-92144286D01*
X127231429Y-92087143D01*
X127174286Y-92030000D01*
X127117143Y-91915714D01*
X127117143Y-91744286D01*
X127117143Y-92658571D02*
X128317143Y-92658571D01*
X127574286Y-92772857D02*
X127117143Y-93115714D01*
X127917143Y-93115714D02*
X127460000Y-92658571D01*
X127174286Y-94087143D02*
X127117143Y-93972857D01*
X127117143Y-93744286D01*
X127174286Y-93630000D01*
X127288571Y-93572857D01*
X127745714Y-93572857D01*
X127860000Y-93630000D01*
X127917143Y-93744286D01*
X127917143Y-93972857D01*
X127860000Y-94087143D01*
X127745714Y-94144286D01*
X127631429Y-94144286D01*
X127517143Y-93572857D01*
X127117143Y-94658571D02*
X127917143Y-94658571D01*
X127688571Y-94658571D02*
X127802857Y-94715714D01*
X127860000Y-94772857D01*
X127917143Y-94887143D01*
X127917143Y-95001428D01*
X127117143Y-95401428D02*
X127917143Y-95401428D01*
X128317143Y-95401428D02*
X128260000Y-95344285D01*
X128202857Y-95401428D01*
X128260000Y-95458571D01*
X128317143Y-95401428D01*
X128202857Y-95401428D01*
X127117143Y-96601429D02*
X127117143Y-95915714D01*
X127117143Y-96258572D02*
X128317143Y-96258572D01*
X128145714Y-96144286D01*
X128031429Y-96030000D01*
X127974286Y-95915714D01*
X127917143Y-97630000D02*
X127117143Y-97630000D01*
X128374286Y-97344286D02*
X127517143Y-97058571D01*
X127517143Y-97801429D01*
X117910001Y-56422857D02*
X117510001Y-55851429D01*
X117224286Y-56422857D02*
X117224286Y-55222857D01*
X117681429Y-55222857D01*
X117795715Y-55280000D01*
X117852858Y-55337143D01*
X117910001Y-55451429D01*
X117910001Y-55622857D01*
X117852858Y-55737143D01*
X117795715Y-55794286D01*
X117681429Y-55851429D01*
X117224286Y-55851429D01*
X118310001Y-55222857D02*
X119110001Y-56422857D01*
X119110001Y-55222857D02*
X118310001Y-56422857D01*
X117195715Y-50142857D02*
X117881429Y-50142857D01*
X117538572Y-51342857D02*
X117538572Y-50142857D01*
X118167144Y-50142857D02*
X118967144Y-51342857D01*
X118967144Y-50142857D02*
X118167144Y-51342857D01*
X115233572Y-111102857D02*
X115976429Y-111102857D01*
X115576429Y-111560000D01*
X115747857Y-111560000D01*
X115862143Y-111617143D01*
X115919286Y-111674286D01*
X115976429Y-111788571D01*
X115976429Y-112074286D01*
X115919286Y-112188571D01*
X115862143Y-112245714D01*
X115747857Y-112302857D01*
X115405000Y-112302857D01*
X115290714Y-112245714D01*
X115233572Y-112188571D01*
X116547857Y-112302857D02*
X116776429Y-112302857D01*
X116890714Y-112245714D01*
X116947857Y-112188571D01*
X117062143Y-112017143D01*
X117119286Y-111788571D01*
X117119286Y-111331429D01*
X117062143Y-111217143D01*
X117005000Y-111160000D01*
X116890714Y-111102857D01*
X116662143Y-111102857D01*
X116547857Y-111160000D01*
X116490714Y-111217143D01*
X116433571Y-111331429D01*
X116433571Y-111617143D01*
X116490714Y-111731429D01*
X116547857Y-111788571D01*
X116662143Y-111845714D01*
X116890714Y-111845714D01*
X117005000Y-111788571D01*
X117062143Y-111731429D01*
X117119286Y-111617143D01*
X115233572Y-108562857D02*
X115976429Y-108562857D01*
X115576429Y-109020000D01*
X115747857Y-109020000D01*
X115862143Y-109077143D01*
X115919286Y-109134286D01*
X115976429Y-109248571D01*
X115976429Y-109534286D01*
X115919286Y-109648571D01*
X115862143Y-109705714D01*
X115747857Y-109762857D01*
X115405000Y-109762857D01*
X115290714Y-109705714D01*
X115233572Y-109648571D01*
X117005000Y-108562857D02*
X116776429Y-108562857D01*
X116662143Y-108620000D01*
X116605000Y-108677143D01*
X116490714Y-108848571D01*
X116433571Y-109077143D01*
X116433571Y-109534286D01*
X116490714Y-109648571D01*
X116547857Y-109705714D01*
X116662143Y-109762857D01*
X116890714Y-109762857D01*
X117005000Y-109705714D01*
X117062143Y-109648571D01*
X117119286Y-109534286D01*
X117119286Y-109248571D01*
X117062143Y-109134286D01*
X117005000Y-109077143D01*
X116890714Y-109020000D01*
X116662143Y-109020000D01*
X116547857Y-109077143D01*
X116490714Y-109134286D01*
X116433571Y-109248571D01*
X115233572Y-106022857D02*
X115976429Y-106022857D01*
X115576429Y-106480000D01*
X115747857Y-106480000D01*
X115862143Y-106537143D01*
X115919286Y-106594286D01*
X115976429Y-106708571D01*
X115976429Y-106994286D01*
X115919286Y-107108571D01*
X115862143Y-107165714D01*
X115747857Y-107222857D01*
X115405000Y-107222857D01*
X115290714Y-107165714D01*
X115233572Y-107108571D01*
X117062143Y-106022857D02*
X116490714Y-106022857D01*
X116433571Y-106594286D01*
X116490714Y-106537143D01*
X116605000Y-106480000D01*
X116890714Y-106480000D01*
X117005000Y-106537143D01*
X117062143Y-106594286D01*
X117119286Y-106708571D01*
X117119286Y-106994286D01*
X117062143Y-107108571D01*
X117005000Y-107165714D01*
X116890714Y-107222857D01*
X116605000Y-107222857D01*
X116490714Y-107165714D01*
X116433571Y-107108571D01*
X115233572Y-103482857D02*
X115976429Y-103482857D01*
X115576429Y-103940000D01*
X115747857Y-103940000D01*
X115862143Y-103997143D01*
X115919286Y-104054286D01*
X115976429Y-104168571D01*
X115976429Y-104454286D01*
X115919286Y-104568571D01*
X115862143Y-104625714D01*
X115747857Y-104682857D01*
X115405000Y-104682857D01*
X115290714Y-104625714D01*
X115233572Y-104568571D01*
X117005000Y-103882857D02*
X117005000Y-104682857D01*
X116719286Y-103425714D02*
X116433571Y-104282857D01*
X117176429Y-104282857D01*
X115233572Y-100942857D02*
X115976429Y-100942857D01*
X115576429Y-101400000D01*
X115747857Y-101400000D01*
X115862143Y-101457143D01*
X115919286Y-101514286D01*
X115976429Y-101628571D01*
X115976429Y-101914286D01*
X115919286Y-102028571D01*
X115862143Y-102085714D01*
X115747857Y-102142857D01*
X115405000Y-102142857D01*
X115290714Y-102085714D01*
X115233572Y-102028571D01*
X116376429Y-100942857D02*
X117119286Y-100942857D01*
X116719286Y-101400000D01*
X116890714Y-101400000D01*
X117005000Y-101457143D01*
X117062143Y-101514286D01*
X117119286Y-101628571D01*
X117119286Y-101914286D01*
X117062143Y-102028571D01*
X117005000Y-102085714D01*
X116890714Y-102142857D01*
X116547857Y-102142857D01*
X116433571Y-102085714D01*
X116376429Y-102028571D01*
X115233572Y-98402857D02*
X115976429Y-98402857D01*
X115576429Y-98860000D01*
X115747857Y-98860000D01*
X115862143Y-98917143D01*
X115919286Y-98974286D01*
X115976429Y-99088571D01*
X115976429Y-99374286D01*
X115919286Y-99488571D01*
X115862143Y-99545714D01*
X115747857Y-99602857D01*
X115405000Y-99602857D01*
X115290714Y-99545714D01*
X115233572Y-99488571D01*
X116433571Y-98517143D02*
X116490714Y-98460000D01*
X116605000Y-98402857D01*
X116890714Y-98402857D01*
X117005000Y-98460000D01*
X117062143Y-98517143D01*
X117119286Y-98631429D01*
X117119286Y-98745714D01*
X117062143Y-98917143D01*
X116376429Y-99602857D01*
X117119286Y-99602857D01*
X115290714Y-95977143D02*
X115347857Y-95920000D01*
X115462143Y-95862857D01*
X115747857Y-95862857D01*
X115862143Y-95920000D01*
X115919286Y-95977143D01*
X115976429Y-96091429D01*
X115976429Y-96205714D01*
X115919286Y-96377143D01*
X115233572Y-97062857D01*
X115976429Y-97062857D01*
X116376429Y-95862857D02*
X117176429Y-95862857D01*
X116662143Y-97062857D01*
X115290714Y-93437143D02*
X115347857Y-93380000D01*
X115462143Y-93322857D01*
X115747857Y-93322857D01*
X115862143Y-93380000D01*
X115919286Y-93437143D01*
X115976429Y-93551429D01*
X115976429Y-93665714D01*
X115919286Y-93837143D01*
X115233572Y-94522857D01*
X115976429Y-94522857D01*
X117005000Y-93322857D02*
X116776429Y-93322857D01*
X116662143Y-93380000D01*
X116605000Y-93437143D01*
X116490714Y-93608571D01*
X116433571Y-93837143D01*
X116433571Y-94294286D01*
X116490714Y-94408571D01*
X116547857Y-94465714D01*
X116662143Y-94522857D01*
X116890714Y-94522857D01*
X117005000Y-94465714D01*
X117062143Y-94408571D01*
X117119286Y-94294286D01*
X117119286Y-94008571D01*
X117062143Y-93894286D01*
X117005000Y-93837143D01*
X116890714Y-93780000D01*
X116662143Y-93780000D01*
X116547857Y-93837143D01*
X116490714Y-93894286D01*
X116433571Y-94008571D01*
X115290714Y-90897143D02*
X115347857Y-90840000D01*
X115462143Y-90782857D01*
X115747857Y-90782857D01*
X115862143Y-90840000D01*
X115919286Y-90897143D01*
X115976429Y-91011429D01*
X115976429Y-91125714D01*
X115919286Y-91297143D01*
X115233572Y-91982857D01*
X115976429Y-91982857D01*
X117062143Y-90782857D02*
X116490714Y-90782857D01*
X116433571Y-91354286D01*
X116490714Y-91297143D01*
X116605000Y-91240000D01*
X116890714Y-91240000D01*
X117005000Y-91297143D01*
X117062143Y-91354286D01*
X117119286Y-91468571D01*
X117119286Y-91754286D01*
X117062143Y-91868571D01*
X117005000Y-91925714D01*
X116890714Y-91982857D01*
X116605000Y-91982857D01*
X116490714Y-91925714D01*
X116433571Y-91868571D01*
X115290714Y-88357143D02*
X115347857Y-88300000D01*
X115462143Y-88242857D01*
X115747857Y-88242857D01*
X115862143Y-88300000D01*
X115919286Y-88357143D01*
X115976429Y-88471429D01*
X115976429Y-88585714D01*
X115919286Y-88757143D01*
X115233572Y-89442857D01*
X115976429Y-89442857D01*
X116376429Y-88242857D02*
X117119286Y-88242857D01*
X116719286Y-88700000D01*
X116890714Y-88700000D01*
X117005000Y-88757143D01*
X117062143Y-88814286D01*
X117119286Y-88928571D01*
X117119286Y-89214286D01*
X117062143Y-89328571D01*
X117005000Y-89385714D01*
X116890714Y-89442857D01*
X116547857Y-89442857D01*
X116433571Y-89385714D01*
X116376429Y-89328571D01*
X115290714Y-85817143D02*
X115347857Y-85760000D01*
X115462143Y-85702857D01*
X115747857Y-85702857D01*
X115862143Y-85760000D01*
X115919286Y-85817143D01*
X115976429Y-85931429D01*
X115976429Y-86045714D01*
X115919286Y-86217143D01*
X115233572Y-86902857D01*
X115976429Y-86902857D01*
X116433571Y-85817143D02*
X116490714Y-85760000D01*
X116605000Y-85702857D01*
X116890714Y-85702857D01*
X117005000Y-85760000D01*
X117062143Y-85817143D01*
X117119286Y-85931429D01*
X117119286Y-86045714D01*
X117062143Y-86217143D01*
X116376429Y-86902857D01*
X117119286Y-86902857D01*
X115290714Y-83277143D02*
X115347857Y-83220000D01*
X115462143Y-83162857D01*
X115747857Y-83162857D01*
X115862143Y-83220000D01*
X115919286Y-83277143D01*
X115976429Y-83391429D01*
X115976429Y-83505714D01*
X115919286Y-83677143D01*
X115233572Y-84362857D01*
X115976429Y-84362857D01*
X117119286Y-84362857D02*
X116433571Y-84362857D01*
X116776429Y-84362857D02*
X116776429Y-83162857D01*
X116662143Y-83334286D01*
X116547857Y-83448571D01*
X116433571Y-83505714D01*
X115976429Y-81822857D02*
X115290714Y-81822857D01*
X115633572Y-81822857D02*
X115633572Y-80622857D01*
X115519286Y-80794286D01*
X115405000Y-80908571D01*
X115290714Y-80965714D01*
X116547857Y-81822857D02*
X116776429Y-81822857D01*
X116890714Y-81765714D01*
X116947857Y-81708571D01*
X117062143Y-81537143D01*
X117119286Y-81308571D01*
X117119286Y-80851429D01*
X117062143Y-80737143D01*
X117005000Y-80680000D01*
X116890714Y-80622857D01*
X116662143Y-80622857D01*
X116547857Y-80680000D01*
X116490714Y-80737143D01*
X116433571Y-80851429D01*
X116433571Y-81137143D01*
X116490714Y-81251429D01*
X116547857Y-81308571D01*
X116662143Y-81365714D01*
X116890714Y-81365714D01*
X117005000Y-81308571D01*
X117062143Y-81251429D01*
X117119286Y-81137143D01*
X115976429Y-79282857D02*
X115290714Y-79282857D01*
X115633572Y-79282857D02*
X115633572Y-78082857D01*
X115519286Y-78254286D01*
X115405000Y-78368571D01*
X115290714Y-78425714D01*
X116662143Y-78597143D02*
X116547857Y-78540000D01*
X116490714Y-78482857D01*
X116433571Y-78368571D01*
X116433571Y-78311429D01*
X116490714Y-78197143D01*
X116547857Y-78140000D01*
X116662143Y-78082857D01*
X116890714Y-78082857D01*
X117005000Y-78140000D01*
X117062143Y-78197143D01*
X117119286Y-78311429D01*
X117119286Y-78368571D01*
X117062143Y-78482857D01*
X117005000Y-78540000D01*
X116890714Y-78597143D01*
X116662143Y-78597143D01*
X116547857Y-78654286D01*
X116490714Y-78711429D01*
X116433571Y-78825714D01*
X116433571Y-79054286D01*
X116490714Y-79168571D01*
X116547857Y-79225714D01*
X116662143Y-79282857D01*
X116890714Y-79282857D01*
X117005000Y-79225714D01*
X117062143Y-79168571D01*
X117119286Y-79054286D01*
X117119286Y-78825714D01*
X117062143Y-78711429D01*
X117005000Y-78654286D01*
X116890714Y-78597143D01*
X115976429Y-76742857D02*
X115290714Y-76742857D01*
X115633572Y-76742857D02*
X115633572Y-75542857D01*
X115519286Y-75714286D01*
X115405000Y-75828571D01*
X115290714Y-75885714D01*
X116376429Y-75542857D02*
X117176429Y-75542857D01*
X116662143Y-76742857D01*
X115976429Y-74202857D02*
X115290714Y-74202857D01*
X115633572Y-74202857D02*
X115633572Y-73002857D01*
X115519286Y-73174286D01*
X115405000Y-73288571D01*
X115290714Y-73345714D01*
X117005000Y-73002857D02*
X116776429Y-73002857D01*
X116662143Y-73060000D01*
X116605000Y-73117143D01*
X116490714Y-73288571D01*
X116433571Y-73517143D01*
X116433571Y-73974286D01*
X116490714Y-74088571D01*
X116547857Y-74145714D01*
X116662143Y-74202857D01*
X116890714Y-74202857D01*
X117005000Y-74145714D01*
X117062143Y-74088571D01*
X117119286Y-73974286D01*
X117119286Y-73688571D01*
X117062143Y-73574286D01*
X117005000Y-73517143D01*
X116890714Y-73460000D01*
X116662143Y-73460000D01*
X116547857Y-73517143D01*
X116490714Y-73574286D01*
X116433571Y-73688571D01*
X115976429Y-71662857D02*
X115290714Y-71662857D01*
X115633572Y-71662857D02*
X115633572Y-70462857D01*
X115519286Y-70634286D01*
X115405000Y-70748571D01*
X115290714Y-70805714D01*
X117062143Y-70462857D02*
X116490714Y-70462857D01*
X116433571Y-71034286D01*
X116490714Y-70977143D01*
X116605000Y-70920000D01*
X116890714Y-70920000D01*
X117005000Y-70977143D01*
X117062143Y-71034286D01*
X117119286Y-71148571D01*
X117119286Y-71434286D01*
X117062143Y-71548571D01*
X117005000Y-71605714D01*
X116890714Y-71662857D01*
X116605000Y-71662857D01*
X116490714Y-71605714D01*
X116433571Y-71548571D01*
X115976429Y-69122857D02*
X115290714Y-69122857D01*
X115633572Y-69122857D02*
X115633572Y-67922857D01*
X115519286Y-68094286D01*
X115405000Y-68208571D01*
X115290714Y-68265714D01*
X117005000Y-68322857D02*
X117005000Y-69122857D01*
X116719286Y-67865714D02*
X116433571Y-68722857D01*
X117176429Y-68722857D01*
X115976429Y-66582857D02*
X115290714Y-66582857D01*
X115633572Y-66582857D02*
X115633572Y-65382857D01*
X115519286Y-65554286D01*
X115405000Y-65668571D01*
X115290714Y-65725714D01*
X116376429Y-65382857D02*
X117119286Y-65382857D01*
X116719286Y-65840000D01*
X116890714Y-65840000D01*
X117005000Y-65897143D01*
X117062143Y-65954286D01*
X117119286Y-66068571D01*
X117119286Y-66354286D01*
X117062143Y-66468571D01*
X117005000Y-66525714D01*
X116890714Y-66582857D01*
X116547857Y-66582857D01*
X116433571Y-66525714D01*
X116376429Y-66468571D01*
X115976429Y-64042857D02*
X115290714Y-64042857D01*
X115633572Y-64042857D02*
X115633572Y-62842857D01*
X115519286Y-63014286D01*
X115405000Y-63128571D01*
X115290714Y-63185714D01*
X116433571Y-62957143D02*
X116490714Y-62900000D01*
X116605000Y-62842857D01*
X116890714Y-62842857D01*
X117005000Y-62900000D01*
X117062143Y-62957143D01*
X117119286Y-63071429D01*
X117119286Y-63185714D01*
X117062143Y-63357143D01*
X116376429Y-64042857D01*
X117119286Y-64042857D01*
X115855715Y-60302857D02*
X115284286Y-60302857D01*
X115227143Y-60874286D01*
X115284286Y-60817143D01*
X115398572Y-60760000D01*
X115684286Y-60760000D01*
X115798572Y-60817143D01*
X115855715Y-60874286D01*
X115912858Y-60988571D01*
X115912858Y-61274286D01*
X115855715Y-61388571D01*
X115798572Y-61445714D01*
X115684286Y-61502857D01*
X115398572Y-61502857D01*
X115284286Y-61445714D01*
X115227143Y-61388571D01*
X115798572Y-58162857D02*
X115798572Y-58962857D01*
X115512858Y-57705714D02*
X115227143Y-58562857D01*
X115970001Y-58562857D01*
X115170001Y-55222857D02*
X115912858Y-55222857D01*
X115512858Y-55680000D01*
X115684286Y-55680000D01*
X115798572Y-55737143D01*
X115855715Y-55794286D01*
X115912858Y-55908571D01*
X115912858Y-56194286D01*
X115855715Y-56308571D01*
X115798572Y-56365714D01*
X115684286Y-56422857D01*
X115341429Y-56422857D01*
X115227143Y-56365714D01*
X115170001Y-56308571D01*
X115227143Y-52797143D02*
X115284286Y-52740000D01*
X115398572Y-52682857D01*
X115684286Y-52682857D01*
X115798572Y-52740000D01*
X115855715Y-52797143D01*
X115912858Y-52911429D01*
X115912858Y-53025714D01*
X115855715Y-53197143D01*
X115170001Y-53882857D01*
X115912858Y-53882857D01*
X115912858Y-51342857D02*
X115227143Y-51342857D01*
X115570001Y-51342857D02*
X115570001Y-50142857D01*
X115455715Y-50314286D01*
X115341429Y-50428571D01*
X115227143Y-50485714D01*
X115512858Y-47602857D02*
X115627143Y-47602857D01*
X115741429Y-47660000D01*
X115798572Y-47717143D01*
X115855715Y-47831429D01*
X115912858Y-48060000D01*
X115912858Y-48345714D01*
X115855715Y-48574286D01*
X115798572Y-48688571D01*
X115741429Y-48745714D01*
X115627143Y-48802857D01*
X115512858Y-48802857D01*
X115398572Y-48745714D01*
X115341429Y-48688571D01*
X115284286Y-48574286D01*
X115227143Y-48345714D01*
X115227143Y-48060000D01*
X115284286Y-47831429D01*
X115341429Y-47717143D01*
X115398572Y-47660000D01*
X115512858Y-47602857D01*
X115319286Y-45634286D02*
X115719286Y-45634286D01*
X115890715Y-46262857D02*
X115319286Y-46262857D01*
X115319286Y-45062857D01*
X115890715Y-45062857D01*
X116405000Y-46262857D02*
X116405000Y-45062857D01*
X117090715Y-46262857D01*
X117090715Y-45062857D01*
X115068572Y-42522857D02*
X115811429Y-42522857D01*
X115411429Y-42980000D01*
X115582857Y-42980000D01*
X115697143Y-43037143D01*
X115754286Y-43094286D01*
X115811429Y-43208571D01*
X115811429Y-43494286D01*
X115754286Y-43608571D01*
X115697143Y-43665714D01*
X115582857Y-43722857D01*
X115240000Y-43722857D01*
X115125714Y-43665714D01*
X115068572Y-43608571D01*
X116325714Y-43608571D02*
X116382857Y-43665714D01*
X116325714Y-43722857D01*
X116268571Y-43665714D01*
X116325714Y-43608571D01*
X116325714Y-43722857D01*
X116782858Y-42522857D02*
X117525715Y-42522857D01*
X117125715Y-42980000D01*
X117297143Y-42980000D01*
X117411429Y-43037143D01*
X117468572Y-43094286D01*
X117525715Y-43208571D01*
X117525715Y-43494286D01*
X117468572Y-43608571D01*
X117411429Y-43665714D01*
X117297143Y-43722857D01*
X116954286Y-43722857D01*
X116840000Y-43665714D01*
X116782858Y-43608571D01*
X117868572Y-42522857D02*
X118268572Y-43722857D01*
X118668572Y-42522857D01*
X115925715Y-40040000D02*
X115811429Y-39982857D01*
X115640000Y-39982857D01*
X115468572Y-40040000D01*
X115354286Y-40154286D01*
X115297143Y-40268571D01*
X115240000Y-40497143D01*
X115240000Y-40668571D01*
X115297143Y-40897143D01*
X115354286Y-41011429D01*
X115468572Y-41125714D01*
X115640000Y-41182857D01*
X115754286Y-41182857D01*
X115925715Y-41125714D01*
X115982858Y-41068571D01*
X115982858Y-40668571D01*
X115754286Y-40668571D01*
X116497143Y-41182857D02*
X116497143Y-39982857D01*
X117182858Y-41182857D01*
X117182858Y-39982857D01*
X117754286Y-41182857D02*
X117754286Y-39982857D01*
X118040001Y-39982857D01*
X118211429Y-40040000D01*
X118325715Y-40154286D01*
X118382858Y-40268571D01*
X118440001Y-40497143D01*
X118440001Y-40668571D01*
X118382858Y-40897143D01*
X118325715Y-41011429D01*
X118211429Y-41125714D01*
X118040001Y-41182857D01*
X117754286Y-41182857D01*
X115611429Y-37442857D02*
X116011429Y-38642857D01*
X116411429Y-37442857D01*
X116811428Y-38642857D02*
X116811428Y-37842857D01*
X116811428Y-37442857D02*
X116754285Y-37500000D01*
X116811428Y-37557143D01*
X116868571Y-37500000D01*
X116811428Y-37442857D01*
X116811428Y-37557143D01*
X117382857Y-37842857D02*
X117382857Y-38642857D01*
X117382857Y-37957143D02*
X117440000Y-37900000D01*
X117554286Y-37842857D01*
X117725714Y-37842857D01*
X117840000Y-37900000D01*
X117897143Y-38014286D01*
X117897143Y-38642857D01*
X199348571Y-112417143D02*
X198948571Y-111217143D01*
X198548571Y-112417143D01*
X198148572Y-111217143D02*
X198148572Y-112017143D01*
X198148572Y-112417143D02*
X198205715Y-112360000D01*
X198148572Y-112302857D01*
X198091429Y-112360000D01*
X198148572Y-112417143D01*
X198148572Y-112302857D01*
X197577143Y-112017143D02*
X197577143Y-111217143D01*
X197577143Y-111902857D02*
X197520000Y-111960000D01*
X197405714Y-112017143D01*
X197234286Y-112017143D01*
X197120000Y-111960000D01*
X197062857Y-111845714D01*
X197062857Y-111217143D01*
X199034285Y-109820000D02*
X199148571Y-109877143D01*
X199320000Y-109877143D01*
X199491428Y-109820000D01*
X199605714Y-109705714D01*
X199662857Y-109591429D01*
X199720000Y-109362857D01*
X199720000Y-109191429D01*
X199662857Y-108962857D01*
X199605714Y-108848571D01*
X199491428Y-108734286D01*
X199320000Y-108677143D01*
X199205714Y-108677143D01*
X199034285Y-108734286D01*
X198977142Y-108791429D01*
X198977142Y-109191429D01*
X199205714Y-109191429D01*
X198462857Y-108677143D02*
X198462857Y-109877143D01*
X197777142Y-108677143D01*
X197777142Y-109877143D01*
X197205714Y-108677143D02*
X197205714Y-109877143D01*
X196919999Y-109877143D01*
X196748571Y-109820000D01*
X196634285Y-109705714D01*
X196577142Y-109591429D01*
X196519999Y-109362857D01*
X196519999Y-109191429D01*
X196577142Y-108962857D01*
X196634285Y-108848571D01*
X196748571Y-108734286D01*
X196919999Y-108677143D01*
X197205714Y-108677143D01*
X199891428Y-107337143D02*
X199148571Y-107337143D01*
X199548571Y-106880000D01*
X199377143Y-106880000D01*
X199262857Y-106822857D01*
X199205714Y-106765714D01*
X199148571Y-106651429D01*
X199148571Y-106365714D01*
X199205714Y-106251429D01*
X199262857Y-106194286D01*
X199377143Y-106137143D01*
X199720000Y-106137143D01*
X199834286Y-106194286D01*
X199891428Y-106251429D01*
X198634286Y-106251429D02*
X198577143Y-106194286D01*
X198634286Y-106137143D01*
X198691429Y-106194286D01*
X198634286Y-106251429D01*
X198634286Y-106137143D01*
X198177142Y-107337143D02*
X197434285Y-107337143D01*
X197834285Y-106880000D01*
X197662857Y-106880000D01*
X197548571Y-106822857D01*
X197491428Y-106765714D01*
X197434285Y-106651429D01*
X197434285Y-106365714D01*
X197491428Y-106251429D01*
X197548571Y-106194286D01*
X197662857Y-106137143D01*
X198005714Y-106137143D01*
X198120000Y-106194286D01*
X198177142Y-106251429D01*
X197091428Y-107337143D02*
X196691428Y-106137143D01*
X196291428Y-107337143D01*
X199640714Y-104225714D02*
X199240714Y-104225714D01*
X199069285Y-103597143D02*
X199640714Y-103597143D01*
X199640714Y-104797143D01*
X199069285Y-104797143D01*
X198555000Y-103597143D02*
X198555000Y-104797143D01*
X197869285Y-103597143D01*
X197869285Y-104797143D01*
X199447142Y-102257143D02*
X199332857Y-102257143D01*
X199218571Y-102200000D01*
X199161428Y-102142857D01*
X199104285Y-102028571D01*
X199047142Y-101800000D01*
X199047142Y-101514286D01*
X199104285Y-101285714D01*
X199161428Y-101171429D01*
X199218571Y-101114286D01*
X199332857Y-101057143D01*
X199447142Y-101057143D01*
X199561428Y-101114286D01*
X199618571Y-101171429D01*
X199675714Y-101285714D01*
X199732857Y-101514286D01*
X199732857Y-101800000D01*
X199675714Y-102028571D01*
X199618571Y-102142857D01*
X199561428Y-102200000D01*
X199447142Y-102257143D01*
X199047142Y-98517143D02*
X199732857Y-98517143D01*
X199389999Y-98517143D02*
X199389999Y-99717143D01*
X199504285Y-99545714D01*
X199618571Y-99431429D01*
X199732857Y-99374286D01*
X199732857Y-97062857D02*
X199675714Y-97120000D01*
X199561428Y-97177143D01*
X199275714Y-97177143D01*
X199161428Y-97120000D01*
X199104285Y-97062857D01*
X199047142Y-96948571D01*
X199047142Y-96834286D01*
X199104285Y-96662857D01*
X199789999Y-95977143D01*
X199047142Y-95977143D01*
X199789999Y-94637143D02*
X199047142Y-94637143D01*
X199447142Y-94180000D01*
X199275714Y-94180000D01*
X199161428Y-94122857D01*
X199104285Y-94065714D01*
X199047142Y-93951429D01*
X199047142Y-93665714D01*
X199104285Y-93551429D01*
X199161428Y-93494286D01*
X199275714Y-93437143D01*
X199618571Y-93437143D01*
X199732857Y-93494286D01*
X199789999Y-93551429D01*
X199161428Y-91697143D02*
X199161428Y-90897143D01*
X199447142Y-92154286D02*
X199732857Y-91297143D01*
X198989999Y-91297143D01*
X199104285Y-89557143D02*
X199675714Y-89557143D01*
X199732857Y-88985714D01*
X199675714Y-89042857D01*
X199561428Y-89100000D01*
X199275714Y-89100000D01*
X199161428Y-89042857D01*
X199104285Y-88985714D01*
X199047142Y-88871429D01*
X199047142Y-88585714D01*
X199104285Y-88471429D01*
X199161428Y-88414286D01*
X199275714Y-88357143D01*
X199561428Y-88357143D01*
X199675714Y-88414286D01*
X199732857Y-88471429D01*
X198983571Y-85817143D02*
X199669286Y-85817143D01*
X199326428Y-85817143D02*
X199326428Y-87017143D01*
X199440714Y-86845714D01*
X199555000Y-86731429D01*
X199669286Y-86674286D01*
X198526429Y-86902857D02*
X198469286Y-86960000D01*
X198355000Y-87017143D01*
X198069286Y-87017143D01*
X197955000Y-86960000D01*
X197897857Y-86902857D01*
X197840714Y-86788571D01*
X197840714Y-86674286D01*
X197897857Y-86502857D01*
X198583571Y-85817143D01*
X197840714Y-85817143D01*
X198983571Y-83277143D02*
X199669286Y-83277143D01*
X199326428Y-83277143D02*
X199326428Y-84477143D01*
X199440714Y-84305714D01*
X199555000Y-84191429D01*
X199669286Y-84134286D01*
X198583571Y-84477143D02*
X197840714Y-84477143D01*
X198240714Y-84020000D01*
X198069286Y-84020000D01*
X197955000Y-83962857D01*
X197897857Y-83905714D01*
X197840714Y-83791429D01*
X197840714Y-83505714D01*
X197897857Y-83391429D01*
X197955000Y-83334286D01*
X198069286Y-83277143D01*
X198412143Y-83277143D01*
X198526429Y-83334286D01*
X198583571Y-83391429D01*
X198983571Y-80737143D02*
X199669286Y-80737143D01*
X199326428Y-80737143D02*
X199326428Y-81937143D01*
X199440714Y-81765714D01*
X199555000Y-81651429D01*
X199669286Y-81594286D01*
X197955000Y-81537143D02*
X197955000Y-80737143D01*
X198240714Y-81994286D02*
X198526429Y-81137143D01*
X197783571Y-81137143D01*
X198983571Y-78197143D02*
X199669286Y-78197143D01*
X199326428Y-78197143D02*
X199326428Y-79397143D01*
X199440714Y-79225714D01*
X199555000Y-79111429D01*
X199669286Y-79054286D01*
X197897857Y-79397143D02*
X198469286Y-79397143D01*
X198526429Y-78825714D01*
X198469286Y-78882857D01*
X198355000Y-78940000D01*
X198069286Y-78940000D01*
X197955000Y-78882857D01*
X197897857Y-78825714D01*
X197840714Y-78711429D01*
X197840714Y-78425714D01*
X197897857Y-78311429D01*
X197955000Y-78254286D01*
X198069286Y-78197143D01*
X198355000Y-78197143D01*
X198469286Y-78254286D01*
X198526429Y-78311429D01*
X198983571Y-75657143D02*
X199669286Y-75657143D01*
X199326428Y-75657143D02*
X199326428Y-76857143D01*
X199440714Y-76685714D01*
X199555000Y-76571429D01*
X199669286Y-76514286D01*
X197955000Y-76857143D02*
X198183571Y-76857143D01*
X198297857Y-76800000D01*
X198355000Y-76742857D01*
X198469286Y-76571429D01*
X198526429Y-76342857D01*
X198526429Y-75885714D01*
X198469286Y-75771429D01*
X198412143Y-75714286D01*
X198297857Y-75657143D01*
X198069286Y-75657143D01*
X197955000Y-75714286D01*
X197897857Y-75771429D01*
X197840714Y-75885714D01*
X197840714Y-76171429D01*
X197897857Y-76285714D01*
X197955000Y-76342857D01*
X198069286Y-76400000D01*
X198297857Y-76400000D01*
X198412143Y-76342857D01*
X198469286Y-76285714D01*
X198526429Y-76171429D01*
X198983571Y-73117143D02*
X199669286Y-73117143D01*
X199326428Y-73117143D02*
X199326428Y-74317143D01*
X199440714Y-74145714D01*
X199555000Y-74031429D01*
X199669286Y-73974286D01*
X198583571Y-74317143D02*
X197783571Y-74317143D01*
X198297857Y-73117143D01*
X198983571Y-70577143D02*
X199669286Y-70577143D01*
X199326428Y-70577143D02*
X199326428Y-71777143D01*
X199440714Y-71605714D01*
X199555000Y-71491429D01*
X199669286Y-71434286D01*
X198297857Y-71262857D02*
X198412143Y-71320000D01*
X198469286Y-71377143D01*
X198526429Y-71491429D01*
X198526429Y-71548571D01*
X198469286Y-71662857D01*
X198412143Y-71720000D01*
X198297857Y-71777143D01*
X198069286Y-71777143D01*
X197955000Y-71720000D01*
X197897857Y-71662857D01*
X197840714Y-71548571D01*
X197840714Y-71491429D01*
X197897857Y-71377143D01*
X197955000Y-71320000D01*
X198069286Y-71262857D01*
X198297857Y-71262857D01*
X198412143Y-71205714D01*
X198469286Y-71148571D01*
X198526429Y-71034286D01*
X198526429Y-70805714D01*
X198469286Y-70691429D01*
X198412143Y-70634286D01*
X198297857Y-70577143D01*
X198069286Y-70577143D01*
X197955000Y-70634286D01*
X197897857Y-70691429D01*
X197840714Y-70805714D01*
X197840714Y-71034286D01*
X197897857Y-71148571D01*
X197955000Y-71205714D01*
X198069286Y-71262857D01*
X198983571Y-68037143D02*
X199669286Y-68037143D01*
X199326428Y-68037143D02*
X199326428Y-69237143D01*
X199440714Y-69065714D01*
X199555000Y-68951429D01*
X199669286Y-68894286D01*
X198412143Y-68037143D02*
X198183571Y-68037143D01*
X198069286Y-68094286D01*
X198012143Y-68151429D01*
X197897857Y-68322857D01*
X197840714Y-68551429D01*
X197840714Y-69008571D01*
X197897857Y-69122857D01*
X197955000Y-69180000D01*
X198069286Y-69237143D01*
X198297857Y-69237143D01*
X198412143Y-69180000D01*
X198469286Y-69122857D01*
X198526429Y-69008571D01*
X198526429Y-68722857D01*
X198469286Y-68608571D01*
X198412143Y-68551429D01*
X198297857Y-68494286D01*
X198069286Y-68494286D01*
X197955000Y-68551429D01*
X197897857Y-68608571D01*
X197840714Y-68722857D01*
X199669286Y-66582857D02*
X199612143Y-66640000D01*
X199497857Y-66697143D01*
X199212143Y-66697143D01*
X199097857Y-66640000D01*
X199040714Y-66582857D01*
X198983571Y-66468571D01*
X198983571Y-66354286D01*
X199040714Y-66182857D01*
X199726428Y-65497143D01*
X198983571Y-65497143D01*
X197840714Y-65497143D02*
X198526429Y-65497143D01*
X198183571Y-65497143D02*
X198183571Y-66697143D01*
X198297857Y-66525714D01*
X198412143Y-66411429D01*
X198526429Y-66354286D01*
X199669286Y-64042857D02*
X199612143Y-64100000D01*
X199497857Y-64157143D01*
X199212143Y-64157143D01*
X199097857Y-64100000D01*
X199040714Y-64042857D01*
X198983571Y-63928571D01*
X198983571Y-63814286D01*
X199040714Y-63642857D01*
X199726428Y-62957143D01*
X198983571Y-62957143D01*
X198526429Y-64042857D02*
X198469286Y-64100000D01*
X198355000Y-64157143D01*
X198069286Y-64157143D01*
X197955000Y-64100000D01*
X197897857Y-64042857D01*
X197840714Y-63928571D01*
X197840714Y-63814286D01*
X197897857Y-63642857D01*
X198583571Y-62957143D01*
X197840714Y-62957143D01*
X199669286Y-61502857D02*
X199612143Y-61560000D01*
X199497857Y-61617143D01*
X199212143Y-61617143D01*
X199097857Y-61560000D01*
X199040714Y-61502857D01*
X198983571Y-61388571D01*
X198983571Y-61274286D01*
X199040714Y-61102857D01*
X199726428Y-60417143D01*
X198983571Y-60417143D01*
X198583571Y-61617143D02*
X197840714Y-61617143D01*
X198240714Y-61160000D01*
X198069286Y-61160000D01*
X197955000Y-61102857D01*
X197897857Y-61045714D01*
X197840714Y-60931429D01*
X197840714Y-60645714D01*
X197897857Y-60531429D01*
X197955000Y-60474286D01*
X198069286Y-60417143D01*
X198412143Y-60417143D01*
X198526429Y-60474286D01*
X198583571Y-60531429D01*
X199669286Y-58962857D02*
X199612143Y-59020000D01*
X199497857Y-59077143D01*
X199212143Y-59077143D01*
X199097857Y-59020000D01*
X199040714Y-58962857D01*
X198983571Y-58848571D01*
X198983571Y-58734286D01*
X199040714Y-58562857D01*
X199726428Y-57877143D01*
X198983571Y-57877143D01*
X197897857Y-59077143D02*
X198469286Y-59077143D01*
X198526429Y-58505714D01*
X198469286Y-58562857D01*
X198355000Y-58620000D01*
X198069286Y-58620000D01*
X197955000Y-58562857D01*
X197897857Y-58505714D01*
X197840714Y-58391429D01*
X197840714Y-58105714D01*
X197897857Y-57991429D01*
X197955000Y-57934286D01*
X198069286Y-57877143D01*
X198355000Y-57877143D01*
X198469286Y-57934286D01*
X198526429Y-57991429D01*
X199669286Y-56422857D02*
X199612143Y-56480000D01*
X199497857Y-56537143D01*
X199212143Y-56537143D01*
X199097857Y-56480000D01*
X199040714Y-56422857D01*
X198983571Y-56308571D01*
X198983571Y-56194286D01*
X199040714Y-56022857D01*
X199726428Y-55337143D01*
X198983571Y-55337143D01*
X197955000Y-56537143D02*
X198183571Y-56537143D01*
X198297857Y-56480000D01*
X198355000Y-56422857D01*
X198469286Y-56251429D01*
X198526429Y-56022857D01*
X198526429Y-55565714D01*
X198469286Y-55451429D01*
X198412143Y-55394286D01*
X198297857Y-55337143D01*
X198069286Y-55337143D01*
X197955000Y-55394286D01*
X197897857Y-55451429D01*
X197840714Y-55565714D01*
X197840714Y-55851429D01*
X197897857Y-55965714D01*
X197955000Y-56022857D01*
X198069286Y-56080000D01*
X198297857Y-56080000D01*
X198412143Y-56022857D01*
X198469286Y-55965714D01*
X198526429Y-55851429D01*
X199669286Y-53882857D02*
X199612143Y-53940000D01*
X199497857Y-53997143D01*
X199212143Y-53997143D01*
X199097857Y-53940000D01*
X199040714Y-53882857D01*
X198983571Y-53768571D01*
X198983571Y-53654286D01*
X199040714Y-53482857D01*
X199726428Y-52797143D01*
X198983571Y-52797143D01*
X198583571Y-53997143D02*
X197783571Y-53997143D01*
X198297857Y-52797143D01*
X199726428Y-51457143D02*
X198983571Y-51457143D01*
X199383571Y-51000000D01*
X199212143Y-51000000D01*
X199097857Y-50942857D01*
X199040714Y-50885714D01*
X198983571Y-50771429D01*
X198983571Y-50485714D01*
X199040714Y-50371429D01*
X199097857Y-50314286D01*
X199212143Y-50257143D01*
X199555000Y-50257143D01*
X199669286Y-50314286D01*
X199726428Y-50371429D01*
X198526429Y-51342857D02*
X198469286Y-51400000D01*
X198355000Y-51457143D01*
X198069286Y-51457143D01*
X197955000Y-51400000D01*
X197897857Y-51342857D01*
X197840714Y-51228571D01*
X197840714Y-51114286D01*
X197897857Y-50942857D01*
X198583571Y-50257143D01*
X197840714Y-50257143D01*
X199726428Y-48917143D02*
X198983571Y-48917143D01*
X199383571Y-48460000D01*
X199212143Y-48460000D01*
X199097857Y-48402857D01*
X199040714Y-48345714D01*
X198983571Y-48231429D01*
X198983571Y-47945714D01*
X199040714Y-47831429D01*
X199097857Y-47774286D01*
X199212143Y-47717143D01*
X199555000Y-47717143D01*
X199669286Y-47774286D01*
X199726428Y-47831429D01*
X198583571Y-48917143D02*
X197840714Y-48917143D01*
X198240714Y-48460000D01*
X198069286Y-48460000D01*
X197955000Y-48402857D01*
X197897857Y-48345714D01*
X197840714Y-48231429D01*
X197840714Y-47945714D01*
X197897857Y-47831429D01*
X197955000Y-47774286D01*
X198069286Y-47717143D01*
X198412143Y-47717143D01*
X198526429Y-47774286D01*
X198583571Y-47831429D01*
X199726428Y-46377143D02*
X198983571Y-46377143D01*
X199383571Y-45920000D01*
X199212143Y-45920000D01*
X199097857Y-45862857D01*
X199040714Y-45805714D01*
X198983571Y-45691429D01*
X198983571Y-45405714D01*
X199040714Y-45291429D01*
X199097857Y-45234286D01*
X199212143Y-45177143D01*
X199555000Y-45177143D01*
X199669286Y-45234286D01*
X199726428Y-45291429D01*
X197955000Y-45977143D02*
X197955000Y-45177143D01*
X198240714Y-46434286D02*
X198526429Y-45577143D01*
X197783571Y-45577143D01*
X199726428Y-43837143D02*
X198983571Y-43837143D01*
X199383571Y-43380000D01*
X199212143Y-43380000D01*
X199097857Y-43322857D01*
X199040714Y-43265714D01*
X198983571Y-43151429D01*
X198983571Y-42865714D01*
X199040714Y-42751429D01*
X199097857Y-42694286D01*
X199212143Y-42637143D01*
X199555000Y-42637143D01*
X199669286Y-42694286D01*
X199726428Y-42751429D01*
X197897857Y-43837143D02*
X198469286Y-43837143D01*
X198526429Y-43265714D01*
X198469286Y-43322857D01*
X198355000Y-43380000D01*
X198069286Y-43380000D01*
X197955000Y-43322857D01*
X197897857Y-43265714D01*
X197840714Y-43151429D01*
X197840714Y-42865714D01*
X197897857Y-42751429D01*
X197955000Y-42694286D01*
X198069286Y-42637143D01*
X198355000Y-42637143D01*
X198469286Y-42694286D01*
X198526429Y-42751429D01*
X199726428Y-41297143D02*
X198983571Y-41297143D01*
X199383571Y-40840000D01*
X199212143Y-40840000D01*
X199097857Y-40782857D01*
X199040714Y-40725714D01*
X198983571Y-40611429D01*
X198983571Y-40325714D01*
X199040714Y-40211429D01*
X199097857Y-40154286D01*
X199212143Y-40097143D01*
X199555000Y-40097143D01*
X199669286Y-40154286D01*
X199726428Y-40211429D01*
X197955000Y-41297143D02*
X198183571Y-41297143D01*
X198297857Y-41240000D01*
X198355000Y-41182857D01*
X198469286Y-41011429D01*
X198526429Y-40782857D01*
X198526429Y-40325714D01*
X198469286Y-40211429D01*
X198412143Y-40154286D01*
X198297857Y-40097143D01*
X198069286Y-40097143D01*
X197955000Y-40154286D01*
X197897857Y-40211429D01*
X197840714Y-40325714D01*
X197840714Y-40611429D01*
X197897857Y-40725714D01*
X197955000Y-40782857D01*
X198069286Y-40840000D01*
X198297857Y-40840000D01*
X198412143Y-40782857D01*
X198469286Y-40725714D01*
X198526429Y-40611429D01*
X199726428Y-38757143D02*
X198983571Y-38757143D01*
X199383571Y-38300000D01*
X199212143Y-38300000D01*
X199097857Y-38242857D01*
X199040714Y-38185714D01*
X198983571Y-38071429D01*
X198983571Y-37785714D01*
X199040714Y-37671429D01*
X199097857Y-37614286D01*
X199212143Y-37557143D01*
X199555000Y-37557143D01*
X199669286Y-37614286D01*
X199726428Y-37671429D01*
X198412143Y-37557143D02*
X198183571Y-37557143D01*
X198069286Y-37614286D01*
X198012143Y-37671429D01*
X197897857Y-37842857D01*
X197840714Y-38071429D01*
X197840714Y-38528571D01*
X197897857Y-38642857D01*
X197955000Y-38700000D01*
X198069286Y-38757143D01*
X198297857Y-38757143D01*
X198412143Y-38700000D01*
X198469286Y-38642857D01*
X198526429Y-38528571D01*
X198526429Y-38242857D01*
X198469286Y-38128571D01*
X198412143Y-38071429D01*
X198297857Y-38014286D01*
X198069286Y-38014286D01*
X197955000Y-38071429D01*
X197897857Y-38128571D01*
X197840714Y-38242857D01*
X197764285Y-99717143D02*
X197078571Y-99717143D01*
X197421428Y-98517143D02*
X197421428Y-99717143D01*
X196792856Y-99717143D02*
X195992856Y-98517143D01*
X195992856Y-99717143D02*
X196792856Y-98517143D01*
X197049999Y-93437143D02*
X197449999Y-94008571D01*
X197735714Y-93437143D02*
X197735714Y-94637143D01*
X197278571Y-94637143D01*
X197164285Y-94580000D01*
X197107142Y-94522857D01*
X197049999Y-94408571D01*
X197049999Y-94237143D01*
X197107142Y-94122857D01*
X197164285Y-94065714D01*
X197278571Y-94008571D01*
X197735714Y-94008571D01*
X196649999Y-94637143D02*
X195849999Y-93437143D01*
X195849999Y-94637143D02*
X196649999Y-93437143D01*
X184082857Y-61944286D02*
X182882857Y-61944286D01*
X184082857Y-61258571D02*
X183397143Y-61772857D01*
X182882857Y-61258571D02*
X183568571Y-61944286D01*
X183454286Y-60744286D02*
X183454286Y-60344286D01*
X184082857Y-60172857D02*
X184082857Y-60744286D01*
X182882857Y-60744286D01*
X182882857Y-60172857D01*
X184082857Y-58972857D02*
X183511429Y-59372857D01*
X184082857Y-59658572D02*
X182882857Y-59658572D01*
X182882857Y-59201429D01*
X182940000Y-59087143D01*
X182997143Y-59030000D01*
X183111429Y-58972857D01*
X183282857Y-58972857D01*
X183397143Y-59030000D01*
X183454286Y-59087143D01*
X183511429Y-59201429D01*
X183511429Y-59658572D01*
X184082857Y-58458572D02*
X182882857Y-58458572D01*
X183454286Y-57887143D02*
X183454286Y-57487143D01*
X184082857Y-57315714D02*
X184082857Y-57887143D01*
X182882857Y-57887143D01*
X182882857Y-57315714D01*
X184025714Y-56858572D02*
X184082857Y-56687143D01*
X184082857Y-56401429D01*
X184025714Y-56287143D01*
X183968571Y-56230000D01*
X183854286Y-56172857D01*
X183740000Y-56172857D01*
X183625714Y-56230000D01*
X183568571Y-56287143D01*
X183511429Y-56401429D01*
X183454286Y-56630000D01*
X183397143Y-56744286D01*
X183340000Y-56801429D01*
X183225714Y-56858572D01*
X183111429Y-56858572D01*
X182997143Y-56801429D01*
X182940000Y-56744286D01*
X182882857Y-56630000D01*
X182882857Y-56344286D01*
X182940000Y-56172857D01*
X184082857Y-55658572D02*
X182882857Y-55658572D01*
X182882857Y-55201429D01*
X182940000Y-55087143D01*
X182997143Y-55030000D01*
X183111429Y-54972857D01*
X183282857Y-54972857D01*
X183397143Y-55030000D01*
X183454286Y-55087143D01*
X183511429Y-55201429D01*
X183511429Y-55658572D01*
X182882857Y-54572857D02*
X182882857Y-53830000D01*
X183340000Y-54230000D01*
X183340000Y-54058572D01*
X183397143Y-53944286D01*
X183454286Y-53887143D01*
X183568571Y-53830000D01*
X183854286Y-53830000D01*
X183968571Y-53887143D01*
X184025714Y-53944286D01*
X184082857Y-54058572D01*
X184082857Y-54401429D01*
X184025714Y-54515715D01*
X183968571Y-54572857D01*
X182997143Y-53372858D02*
X182940000Y-53315715D01*
X182882857Y-53201429D01*
X182882857Y-52915715D01*
X182940000Y-52801429D01*
X182997143Y-52744286D01*
X183111429Y-52687143D01*
X183225714Y-52687143D01*
X183397143Y-52744286D01*
X184082857Y-53430000D01*
X184082857Y-52687143D01*
X184762857Y-62115714D02*
X184762857Y-61430000D01*
X185962857Y-61772857D02*
X184762857Y-61772857D01*
X185962857Y-61030000D02*
X185162857Y-61030000D01*
X185391429Y-61030000D02*
X185277143Y-60972857D01*
X185220000Y-60915714D01*
X185162857Y-60801428D01*
X185162857Y-60687143D01*
X185962857Y-59772857D02*
X185334286Y-59772857D01*
X185220000Y-59830000D01*
X185162857Y-59944286D01*
X185162857Y-60172857D01*
X185220000Y-60287143D01*
X185905714Y-59772857D02*
X185962857Y-59887143D01*
X185962857Y-60172857D01*
X185905714Y-60287143D01*
X185791429Y-60344286D01*
X185677143Y-60344286D01*
X185562857Y-60287143D01*
X185505714Y-60172857D01*
X185505714Y-59887143D01*
X185448571Y-59772857D01*
X185162857Y-59201429D02*
X186362857Y-59201429D01*
X185220000Y-59201429D02*
X185162857Y-59087143D01*
X185162857Y-58858572D01*
X185220000Y-58744286D01*
X185277143Y-58687143D01*
X185391429Y-58630000D01*
X185734286Y-58630000D01*
X185848571Y-58687143D01*
X185905714Y-58744286D01*
X185962857Y-58858572D01*
X185962857Y-59087143D01*
X185905714Y-59201429D01*
X185905714Y-57658572D02*
X185962857Y-57772858D01*
X185962857Y-58001429D01*
X185905714Y-58115715D01*
X185791429Y-58172858D01*
X185334286Y-58172858D01*
X185220000Y-58115715D01*
X185162857Y-58001429D01*
X185162857Y-57772858D01*
X185220000Y-57658572D01*
X185334286Y-57601429D01*
X185448571Y-57601429D01*
X185562857Y-58172858D01*
X185162857Y-57201429D02*
X185162857Y-56572858D01*
X185962857Y-57201429D01*
X185962857Y-56572858D01*
X185962857Y-55944286D02*
X185905714Y-56058572D01*
X185848571Y-56115715D01*
X185734286Y-56172858D01*
X185391429Y-56172858D01*
X185277143Y-56115715D01*
X185220000Y-56058572D01*
X185162857Y-55944286D01*
X185162857Y-55772858D01*
X185220000Y-55658572D01*
X185277143Y-55601429D01*
X185391429Y-55544286D01*
X185734286Y-55544286D01*
X185848571Y-55601429D01*
X185905714Y-55658572D01*
X185962857Y-55772858D01*
X185962857Y-55944286D01*
X185962857Y-55030001D02*
X185162857Y-55030001D01*
X184762857Y-55030001D02*
X184820000Y-55087144D01*
X184877143Y-55030001D01*
X184820000Y-54972858D01*
X184762857Y-55030001D01*
X184877143Y-55030001D01*
X185962857Y-53944286D02*
X184762857Y-53944286D01*
X185905714Y-53944286D02*
X185962857Y-54058572D01*
X185962857Y-54287143D01*
X185905714Y-54401429D01*
X185848571Y-54458572D01*
X185734286Y-54515715D01*
X185391429Y-54515715D01*
X185277143Y-54458572D01*
X185220000Y-54401429D01*
X185162857Y-54287143D01*
X185162857Y-54058572D01*
X185220000Y-53944286D01*
X187271429Y-61201429D02*
X187214286Y-61258571D01*
X187157143Y-61372857D01*
X187157143Y-61487143D01*
X187214286Y-61601429D01*
X187271429Y-61658571D01*
X187385714Y-61715714D01*
X187500000Y-61715714D01*
X187614286Y-61658571D01*
X187671429Y-61601429D01*
X187728571Y-61487143D01*
X187728571Y-61372857D01*
X187671429Y-61258571D01*
X187614286Y-61201429D01*
X187157143Y-61201429D02*
X187614286Y-61201429D01*
X187671429Y-61144286D01*
X187671429Y-61087143D01*
X187614286Y-60972857D01*
X187500000Y-60915714D01*
X187214286Y-60915714D01*
X187042857Y-61030000D01*
X186928571Y-61201429D01*
X186871429Y-61430000D01*
X186928571Y-61658571D01*
X187042857Y-61830000D01*
X187214286Y-61944286D01*
X187442857Y-62001429D01*
X187671429Y-61944286D01*
X187842857Y-61830000D01*
X187957143Y-61658571D01*
X188014286Y-61430000D01*
X187957143Y-61201429D01*
X187842857Y-61030000D01*
X187842857Y-59715714D02*
X187271429Y-60115714D01*
X187842857Y-60401429D02*
X186642857Y-60401429D01*
X186642857Y-59944286D01*
X186700000Y-59830000D01*
X186757143Y-59772857D01*
X186871429Y-59715714D01*
X187042857Y-59715714D01*
X187157143Y-59772857D01*
X187214286Y-59830000D01*
X187271429Y-59944286D01*
X187271429Y-60401429D01*
X187042857Y-59315714D02*
X187842857Y-59030000D01*
X187042857Y-58744286D02*
X187842857Y-59030000D01*
X188128571Y-59144286D01*
X188185714Y-59201429D01*
X188242857Y-59315714D01*
X187842857Y-58115714D02*
X187785714Y-58230000D01*
X187728571Y-58287143D01*
X187614286Y-58344286D01*
X187271429Y-58344286D01*
X187157143Y-58287143D01*
X187100000Y-58230000D01*
X187042857Y-58115714D01*
X187042857Y-57944286D01*
X187100000Y-57830000D01*
X187157143Y-57772857D01*
X187271429Y-57715714D01*
X187614286Y-57715714D01*
X187728571Y-57772857D01*
X187785714Y-57830000D01*
X187842857Y-57944286D01*
X187842857Y-58115714D01*
X187842857Y-57201429D02*
X186642857Y-57201429D01*
X187385714Y-57087143D02*
X187842857Y-56744286D01*
X187042857Y-56744286D02*
X187500000Y-57201429D01*
X187785714Y-55772857D02*
X187842857Y-55887143D01*
X187842857Y-56115714D01*
X187785714Y-56230000D01*
X187671429Y-56287143D01*
X187214286Y-56287143D01*
X187100000Y-56230000D01*
X187042857Y-56115714D01*
X187042857Y-55887143D01*
X187100000Y-55772857D01*
X187214286Y-55715714D01*
X187328571Y-55715714D01*
X187442857Y-56287143D01*
X187842857Y-55201429D02*
X187042857Y-55201429D01*
X187271429Y-55201429D02*
X187157143Y-55144286D01*
X187100000Y-55087143D01*
X187042857Y-54972857D01*
X187042857Y-54858572D01*
X187842857Y-54458572D02*
X187042857Y-54458572D01*
X186642857Y-54458572D02*
X186700000Y-54515715D01*
X186757143Y-54458572D01*
X186700000Y-54401429D01*
X186642857Y-54458572D01*
X186757143Y-54458572D01*
X187842857Y-53258571D02*
X187842857Y-53944286D01*
X187842857Y-53601428D02*
X186642857Y-53601428D01*
X186814286Y-53715714D01*
X186928571Y-53830000D01*
X186985714Y-53944286D01*
X187042857Y-52230000D02*
X187842857Y-52230000D01*
X186585714Y-52515714D02*
X187442857Y-52801429D01*
X187442857Y-52058571D01*
X170465714Y-101532857D02*
X170465714Y-100332857D01*
X171151429Y-101532857D02*
X170637143Y-100847143D01*
X171151429Y-100332857D02*
X170465714Y-101018571D01*
X171665714Y-100904286D02*
X172065714Y-100904286D01*
X172237143Y-101532857D02*
X171665714Y-101532857D01*
X171665714Y-100332857D01*
X172237143Y-100332857D01*
X173437143Y-101532857D02*
X173037143Y-100961429D01*
X172751428Y-101532857D02*
X172751428Y-100332857D01*
X173208571Y-100332857D01*
X173322857Y-100390000D01*
X173380000Y-100447143D01*
X173437143Y-100561429D01*
X173437143Y-100732857D01*
X173380000Y-100847143D01*
X173322857Y-100904286D01*
X173208571Y-100961429D01*
X172751428Y-100961429D01*
X173951428Y-101532857D02*
X173951428Y-100332857D01*
X174522857Y-100904286D02*
X174922857Y-100904286D01*
X175094286Y-101532857D02*
X174522857Y-101532857D01*
X174522857Y-100332857D01*
X175094286Y-100332857D01*
X175551428Y-101475714D02*
X175722857Y-101532857D01*
X176008571Y-101532857D01*
X176122857Y-101475714D01*
X176180000Y-101418571D01*
X176237143Y-101304286D01*
X176237143Y-101190000D01*
X176180000Y-101075714D01*
X176122857Y-101018571D01*
X176008571Y-100961429D01*
X175780000Y-100904286D01*
X175665714Y-100847143D01*
X175608571Y-100790000D01*
X175551428Y-100675714D01*
X175551428Y-100561429D01*
X175608571Y-100447143D01*
X175665714Y-100390000D01*
X175780000Y-100332857D01*
X176065714Y-100332857D01*
X176237143Y-100390000D01*
X176751428Y-101532857D02*
X176751428Y-100332857D01*
X177208571Y-100332857D01*
X177322857Y-100390000D01*
X177380000Y-100447143D01*
X177437143Y-100561429D01*
X177437143Y-100732857D01*
X177380000Y-100847143D01*
X177322857Y-100904286D01*
X177208571Y-100961429D01*
X176751428Y-100961429D01*
X177837143Y-100332857D02*
X178580000Y-100332857D01*
X178180000Y-100790000D01*
X178351428Y-100790000D01*
X178465714Y-100847143D01*
X178522857Y-100904286D01*
X178580000Y-101018571D01*
X178580000Y-101304286D01*
X178522857Y-101418571D01*
X178465714Y-101475714D01*
X178351428Y-101532857D01*
X178008571Y-101532857D01*
X177894285Y-101475714D01*
X177837143Y-101418571D01*
X179037142Y-100447143D02*
X179094285Y-100390000D01*
X179208571Y-100332857D01*
X179494285Y-100332857D01*
X179608571Y-100390000D01*
X179665714Y-100447143D01*
X179722857Y-100561429D01*
X179722857Y-100675714D01*
X179665714Y-100847143D01*
X178980000Y-101532857D01*
X179722857Y-101532857D01*
X170294286Y-102212857D02*
X170980000Y-102212857D01*
X170637143Y-103412857D02*
X170637143Y-102212857D01*
X171380000Y-103412857D02*
X171380000Y-102612857D01*
X171380000Y-102841429D02*
X171437143Y-102727143D01*
X171494286Y-102670000D01*
X171608572Y-102612857D01*
X171722857Y-102612857D01*
X172637143Y-103412857D02*
X172637143Y-102784286D01*
X172580000Y-102670000D01*
X172465714Y-102612857D01*
X172237143Y-102612857D01*
X172122857Y-102670000D01*
X172637143Y-103355714D02*
X172522857Y-103412857D01*
X172237143Y-103412857D01*
X172122857Y-103355714D01*
X172065714Y-103241429D01*
X172065714Y-103127143D01*
X172122857Y-103012857D01*
X172237143Y-102955714D01*
X172522857Y-102955714D01*
X172637143Y-102898571D01*
X173208571Y-102612857D02*
X173208571Y-103812857D01*
X173208571Y-102670000D02*
X173322857Y-102612857D01*
X173551428Y-102612857D01*
X173665714Y-102670000D01*
X173722857Y-102727143D01*
X173780000Y-102841429D01*
X173780000Y-103184286D01*
X173722857Y-103298571D01*
X173665714Y-103355714D01*
X173551428Y-103412857D01*
X173322857Y-103412857D01*
X173208571Y-103355714D01*
X174751428Y-103355714D02*
X174637142Y-103412857D01*
X174408571Y-103412857D01*
X174294285Y-103355714D01*
X174237142Y-103241429D01*
X174237142Y-102784286D01*
X174294285Y-102670000D01*
X174408571Y-102612857D01*
X174637142Y-102612857D01*
X174751428Y-102670000D01*
X174808571Y-102784286D01*
X174808571Y-102898571D01*
X174237142Y-103012857D01*
X175208571Y-102612857D02*
X175837142Y-102612857D01*
X175208571Y-103412857D01*
X175837142Y-103412857D01*
X176465714Y-103412857D02*
X176351428Y-103355714D01*
X176294285Y-103298571D01*
X176237142Y-103184286D01*
X176237142Y-102841429D01*
X176294285Y-102727143D01*
X176351428Y-102670000D01*
X176465714Y-102612857D01*
X176637142Y-102612857D01*
X176751428Y-102670000D01*
X176808571Y-102727143D01*
X176865714Y-102841429D01*
X176865714Y-103184286D01*
X176808571Y-103298571D01*
X176751428Y-103355714D01*
X176637142Y-103412857D01*
X176465714Y-103412857D01*
X177379999Y-103412857D02*
X177379999Y-102612857D01*
X177379999Y-102212857D02*
X177322856Y-102270000D01*
X177379999Y-102327143D01*
X177437142Y-102270000D01*
X177379999Y-102212857D01*
X177379999Y-102327143D01*
X178465714Y-103412857D02*
X178465714Y-102212857D01*
X178465714Y-103355714D02*
X178351428Y-103412857D01*
X178122857Y-103412857D01*
X178008571Y-103355714D01*
X177951428Y-103298571D01*
X177894285Y-103184286D01*
X177894285Y-102841429D01*
X177951428Y-102727143D01*
X178008571Y-102670000D01*
X178122857Y-102612857D01*
X178351428Y-102612857D01*
X178465714Y-102670000D01*
X171208571Y-104721429D02*
X171151429Y-104664286D01*
X171037143Y-104607143D01*
X170922857Y-104607143D01*
X170808571Y-104664286D01*
X170751429Y-104721429D01*
X170694286Y-104835714D01*
X170694286Y-104950000D01*
X170751429Y-105064286D01*
X170808571Y-105121429D01*
X170922857Y-105178571D01*
X171037143Y-105178571D01*
X171151429Y-105121429D01*
X171208571Y-105064286D01*
X171208571Y-104607143D02*
X171208571Y-105064286D01*
X171265714Y-105121429D01*
X171322857Y-105121429D01*
X171437143Y-105064286D01*
X171494286Y-104950000D01*
X171494286Y-104664286D01*
X171380000Y-104492857D01*
X171208571Y-104378571D01*
X170980000Y-104321429D01*
X170751429Y-104378571D01*
X170580000Y-104492857D01*
X170465714Y-104664286D01*
X170408571Y-104892857D01*
X170465714Y-105121429D01*
X170580000Y-105292857D01*
X170751429Y-105407143D01*
X170980000Y-105464286D01*
X171208571Y-105407143D01*
X171380000Y-105292857D01*
X172694286Y-105292857D02*
X172294286Y-104721429D01*
X172008571Y-105292857D02*
X172008571Y-104092857D01*
X172465714Y-104092857D01*
X172580000Y-104150000D01*
X172637143Y-104207143D01*
X172694286Y-104321429D01*
X172694286Y-104492857D01*
X172637143Y-104607143D01*
X172580000Y-104664286D01*
X172465714Y-104721429D01*
X172008571Y-104721429D01*
X173094286Y-104492857D02*
X173380000Y-105292857D01*
X173665714Y-104492857D02*
X173380000Y-105292857D01*
X173265714Y-105578571D01*
X173208571Y-105635714D01*
X173094286Y-105692857D01*
X174294286Y-105292857D02*
X174180000Y-105235714D01*
X174122857Y-105178571D01*
X174065714Y-105064286D01*
X174065714Y-104721429D01*
X174122857Y-104607143D01*
X174180000Y-104550000D01*
X174294286Y-104492857D01*
X174465714Y-104492857D01*
X174580000Y-104550000D01*
X174637143Y-104607143D01*
X174694286Y-104721429D01*
X174694286Y-105064286D01*
X174637143Y-105178571D01*
X174580000Y-105235714D01*
X174465714Y-105292857D01*
X174294286Y-105292857D01*
X175208571Y-105292857D02*
X175208571Y-104092857D01*
X175322857Y-104835714D02*
X175665714Y-105292857D01*
X175665714Y-104492857D02*
X175208571Y-104950000D01*
X176637143Y-105235714D02*
X176522857Y-105292857D01*
X176294286Y-105292857D01*
X176180000Y-105235714D01*
X176122857Y-105121429D01*
X176122857Y-104664286D01*
X176180000Y-104550000D01*
X176294286Y-104492857D01*
X176522857Y-104492857D01*
X176637143Y-104550000D01*
X176694286Y-104664286D01*
X176694286Y-104778571D01*
X176122857Y-104892857D01*
X177208571Y-105292857D02*
X177208571Y-104492857D01*
X177208571Y-104721429D02*
X177265714Y-104607143D01*
X177322857Y-104550000D01*
X177437143Y-104492857D01*
X177551428Y-104492857D01*
X177951428Y-105292857D02*
X177951428Y-104492857D01*
X177951428Y-104092857D02*
X177894285Y-104150000D01*
X177951428Y-104207143D01*
X178008571Y-104150000D01*
X177951428Y-104092857D01*
X177951428Y-104207143D01*
X179151429Y-105292857D02*
X178465714Y-105292857D01*
X178808572Y-105292857D02*
X178808572Y-104092857D01*
X178694286Y-104264286D01*
X178580000Y-104378571D01*
X178465714Y-104435714D01*
X180180000Y-104492857D02*
X180180000Y-105292857D01*
X179894286Y-104035714D02*
X179608571Y-104892857D01*
X180351429Y-104892857D01*
X138972857Y-114499999D02*
X138401429Y-114899999D01*
X138972857Y-115185714D02*
X137772857Y-115185714D01*
X137772857Y-114728571D01*
X137830000Y-114614285D01*
X137887143Y-114557142D01*
X138001429Y-114499999D01*
X138172857Y-114499999D01*
X138287143Y-114557142D01*
X138344286Y-114614285D01*
X138401429Y-114728571D01*
X138401429Y-115185714D01*
X137772857Y-114099999D02*
X138972857Y-113299999D01*
X137772857Y-113299999D02*
X138972857Y-114099999D01*
X132692857Y-115214285D02*
X132692857Y-114528571D01*
X133892857Y-114871428D02*
X132692857Y-114871428D01*
X132692857Y-114242856D02*
X133892857Y-113442856D01*
X132692857Y-113442856D02*
X133892857Y-114242856D01*
X193652857Y-117176428D02*
X193652857Y-116433571D01*
X194110000Y-116833571D01*
X194110000Y-116662143D01*
X194167143Y-116547857D01*
X194224286Y-116490714D01*
X194338571Y-116433571D01*
X194624286Y-116433571D01*
X194738571Y-116490714D01*
X194795714Y-116547857D01*
X194852857Y-116662143D01*
X194852857Y-117005000D01*
X194795714Y-117119286D01*
X194738571Y-117176428D01*
X194852857Y-115862143D02*
X194852857Y-115633571D01*
X194795714Y-115519286D01*
X194738571Y-115462143D01*
X194567143Y-115347857D01*
X194338571Y-115290714D01*
X193881429Y-115290714D01*
X193767143Y-115347857D01*
X193710000Y-115405000D01*
X193652857Y-115519286D01*
X193652857Y-115747857D01*
X193710000Y-115862143D01*
X193767143Y-115919286D01*
X193881429Y-115976429D01*
X194167143Y-115976429D01*
X194281429Y-115919286D01*
X194338571Y-115862143D01*
X194395714Y-115747857D01*
X194395714Y-115519286D01*
X194338571Y-115405000D01*
X194281429Y-115347857D01*
X194167143Y-115290714D01*
X191112857Y-117176428D02*
X191112857Y-116433571D01*
X191570000Y-116833571D01*
X191570000Y-116662143D01*
X191627143Y-116547857D01*
X191684286Y-116490714D01*
X191798571Y-116433571D01*
X192084286Y-116433571D01*
X192198571Y-116490714D01*
X192255714Y-116547857D01*
X192312857Y-116662143D01*
X192312857Y-117005000D01*
X192255714Y-117119286D01*
X192198571Y-117176428D01*
X191112857Y-115405000D02*
X191112857Y-115633571D01*
X191170000Y-115747857D01*
X191227143Y-115805000D01*
X191398571Y-115919286D01*
X191627143Y-115976429D01*
X192084286Y-115976429D01*
X192198571Y-115919286D01*
X192255714Y-115862143D01*
X192312857Y-115747857D01*
X192312857Y-115519286D01*
X192255714Y-115405000D01*
X192198571Y-115347857D01*
X192084286Y-115290714D01*
X191798571Y-115290714D01*
X191684286Y-115347857D01*
X191627143Y-115405000D01*
X191570000Y-115519286D01*
X191570000Y-115747857D01*
X191627143Y-115862143D01*
X191684286Y-115919286D01*
X191798571Y-115976429D01*
X188572857Y-117176428D02*
X188572857Y-116433571D01*
X189030000Y-116833571D01*
X189030000Y-116662143D01*
X189087143Y-116547857D01*
X189144286Y-116490714D01*
X189258571Y-116433571D01*
X189544286Y-116433571D01*
X189658571Y-116490714D01*
X189715714Y-116547857D01*
X189772857Y-116662143D01*
X189772857Y-117005000D01*
X189715714Y-117119286D01*
X189658571Y-117176428D01*
X188572857Y-115347857D02*
X188572857Y-115919286D01*
X189144286Y-115976429D01*
X189087143Y-115919286D01*
X189030000Y-115805000D01*
X189030000Y-115519286D01*
X189087143Y-115405000D01*
X189144286Y-115347857D01*
X189258571Y-115290714D01*
X189544286Y-115290714D01*
X189658571Y-115347857D01*
X189715714Y-115405000D01*
X189772857Y-115519286D01*
X189772857Y-115805000D01*
X189715714Y-115919286D01*
X189658571Y-115976429D01*
X186032857Y-117176428D02*
X186032857Y-116433571D01*
X186490000Y-116833571D01*
X186490000Y-116662143D01*
X186547143Y-116547857D01*
X186604286Y-116490714D01*
X186718571Y-116433571D01*
X187004286Y-116433571D01*
X187118571Y-116490714D01*
X187175714Y-116547857D01*
X187232857Y-116662143D01*
X187232857Y-117005000D01*
X187175714Y-117119286D01*
X187118571Y-117176428D01*
X186432857Y-115405000D02*
X187232857Y-115405000D01*
X185975714Y-115690714D02*
X186832857Y-115976429D01*
X186832857Y-115233571D01*
X183492857Y-117176428D02*
X183492857Y-116433571D01*
X183950000Y-116833571D01*
X183950000Y-116662143D01*
X184007143Y-116547857D01*
X184064286Y-116490714D01*
X184178571Y-116433571D01*
X184464286Y-116433571D01*
X184578571Y-116490714D01*
X184635714Y-116547857D01*
X184692857Y-116662143D01*
X184692857Y-117005000D01*
X184635714Y-117119286D01*
X184578571Y-117176428D01*
X183492857Y-116033571D02*
X183492857Y-115290714D01*
X183950000Y-115690714D01*
X183950000Y-115519286D01*
X184007143Y-115405000D01*
X184064286Y-115347857D01*
X184178571Y-115290714D01*
X184464286Y-115290714D01*
X184578571Y-115347857D01*
X184635714Y-115405000D01*
X184692857Y-115519286D01*
X184692857Y-115862143D01*
X184635714Y-115976429D01*
X184578571Y-116033571D01*
X180952857Y-117176428D02*
X180952857Y-116433571D01*
X181410000Y-116833571D01*
X181410000Y-116662143D01*
X181467143Y-116547857D01*
X181524286Y-116490714D01*
X181638571Y-116433571D01*
X181924286Y-116433571D01*
X182038571Y-116490714D01*
X182095714Y-116547857D01*
X182152857Y-116662143D01*
X182152857Y-117005000D01*
X182095714Y-117119286D01*
X182038571Y-117176428D01*
X181067143Y-115976429D02*
X181010000Y-115919286D01*
X180952857Y-115805000D01*
X180952857Y-115519286D01*
X181010000Y-115405000D01*
X181067143Y-115347857D01*
X181181429Y-115290714D01*
X181295714Y-115290714D01*
X181467143Y-115347857D01*
X182152857Y-116033571D01*
X182152857Y-115290714D01*
X178527143Y-117119286D02*
X178470000Y-117062143D01*
X178412857Y-116947857D01*
X178412857Y-116662143D01*
X178470000Y-116547857D01*
X178527143Y-116490714D01*
X178641429Y-116433571D01*
X178755714Y-116433571D01*
X178927143Y-116490714D01*
X179612857Y-117176428D01*
X179612857Y-116433571D01*
X178412857Y-116033571D02*
X178412857Y-115233571D01*
X179612857Y-115747857D01*
X175987143Y-117119286D02*
X175930000Y-117062143D01*
X175872857Y-116947857D01*
X175872857Y-116662143D01*
X175930000Y-116547857D01*
X175987143Y-116490714D01*
X176101429Y-116433571D01*
X176215714Y-116433571D01*
X176387143Y-116490714D01*
X177072857Y-117176428D01*
X177072857Y-116433571D01*
X175872857Y-115405000D02*
X175872857Y-115633571D01*
X175930000Y-115747857D01*
X175987143Y-115805000D01*
X176158571Y-115919286D01*
X176387143Y-115976429D01*
X176844286Y-115976429D01*
X176958571Y-115919286D01*
X177015714Y-115862143D01*
X177072857Y-115747857D01*
X177072857Y-115519286D01*
X177015714Y-115405000D01*
X176958571Y-115347857D01*
X176844286Y-115290714D01*
X176558571Y-115290714D01*
X176444286Y-115347857D01*
X176387143Y-115405000D01*
X176330000Y-115519286D01*
X176330000Y-115747857D01*
X176387143Y-115862143D01*
X176444286Y-115919286D01*
X176558571Y-115976429D01*
X173447143Y-117119286D02*
X173390000Y-117062143D01*
X173332857Y-116947857D01*
X173332857Y-116662143D01*
X173390000Y-116547857D01*
X173447143Y-116490714D01*
X173561429Y-116433571D01*
X173675714Y-116433571D01*
X173847143Y-116490714D01*
X174532857Y-117176428D01*
X174532857Y-116433571D01*
X173332857Y-115347857D02*
X173332857Y-115919286D01*
X173904286Y-115976429D01*
X173847143Y-115919286D01*
X173790000Y-115805000D01*
X173790000Y-115519286D01*
X173847143Y-115405000D01*
X173904286Y-115347857D01*
X174018571Y-115290714D01*
X174304286Y-115290714D01*
X174418571Y-115347857D01*
X174475714Y-115405000D01*
X174532857Y-115519286D01*
X174532857Y-115805000D01*
X174475714Y-115919286D01*
X174418571Y-115976429D01*
X170907143Y-117119286D02*
X170850000Y-117062143D01*
X170792857Y-116947857D01*
X170792857Y-116662143D01*
X170850000Y-116547857D01*
X170907143Y-116490714D01*
X171021429Y-116433571D01*
X171135714Y-116433571D01*
X171307143Y-116490714D01*
X171992857Y-117176428D01*
X171992857Y-116433571D01*
X170792857Y-116033571D02*
X170792857Y-115290714D01*
X171250000Y-115690714D01*
X171250000Y-115519286D01*
X171307143Y-115405000D01*
X171364286Y-115347857D01*
X171478571Y-115290714D01*
X171764286Y-115290714D01*
X171878571Y-115347857D01*
X171935714Y-115405000D01*
X171992857Y-115519286D01*
X171992857Y-115862143D01*
X171935714Y-115976429D01*
X171878571Y-116033571D01*
X168367143Y-117119286D02*
X168310000Y-117062143D01*
X168252857Y-116947857D01*
X168252857Y-116662143D01*
X168310000Y-116547857D01*
X168367143Y-116490714D01*
X168481429Y-116433571D01*
X168595714Y-116433571D01*
X168767143Y-116490714D01*
X169452857Y-117176428D01*
X169452857Y-116433571D01*
X168367143Y-115976429D02*
X168310000Y-115919286D01*
X168252857Y-115805000D01*
X168252857Y-115519286D01*
X168310000Y-115405000D01*
X168367143Y-115347857D01*
X168481429Y-115290714D01*
X168595714Y-115290714D01*
X168767143Y-115347857D01*
X169452857Y-116033571D01*
X169452857Y-115290714D01*
X165827143Y-117119286D02*
X165770000Y-117062143D01*
X165712857Y-116947857D01*
X165712857Y-116662143D01*
X165770000Y-116547857D01*
X165827143Y-116490714D01*
X165941429Y-116433571D01*
X166055714Y-116433571D01*
X166227143Y-116490714D01*
X166912857Y-117176428D01*
X166912857Y-116433571D01*
X166912857Y-115290714D02*
X166912857Y-115976429D01*
X166912857Y-115633571D02*
X165712857Y-115633571D01*
X165884286Y-115747857D01*
X165998571Y-115862143D01*
X166055714Y-115976429D01*
X164372857Y-116433571D02*
X164372857Y-117119286D01*
X164372857Y-116776428D02*
X163172857Y-116776428D01*
X163344286Y-116890714D01*
X163458571Y-117005000D01*
X163515714Y-117119286D01*
X164372857Y-115862143D02*
X164372857Y-115633571D01*
X164315714Y-115519286D01*
X164258571Y-115462143D01*
X164087143Y-115347857D01*
X163858571Y-115290714D01*
X163401429Y-115290714D01*
X163287143Y-115347857D01*
X163230000Y-115405000D01*
X163172857Y-115519286D01*
X163172857Y-115747857D01*
X163230000Y-115862143D01*
X163287143Y-115919286D01*
X163401429Y-115976429D01*
X163687143Y-115976429D01*
X163801429Y-115919286D01*
X163858571Y-115862143D01*
X163915714Y-115747857D01*
X163915714Y-115519286D01*
X163858571Y-115405000D01*
X163801429Y-115347857D01*
X163687143Y-115290714D01*
X161832857Y-116433571D02*
X161832857Y-117119286D01*
X161832857Y-116776428D02*
X160632857Y-116776428D01*
X160804286Y-116890714D01*
X160918571Y-117005000D01*
X160975714Y-117119286D01*
X161147143Y-115747857D02*
X161090000Y-115862143D01*
X161032857Y-115919286D01*
X160918571Y-115976429D01*
X160861429Y-115976429D01*
X160747143Y-115919286D01*
X160690000Y-115862143D01*
X160632857Y-115747857D01*
X160632857Y-115519286D01*
X160690000Y-115405000D01*
X160747143Y-115347857D01*
X160861429Y-115290714D01*
X160918571Y-115290714D01*
X161032857Y-115347857D01*
X161090000Y-115405000D01*
X161147143Y-115519286D01*
X161147143Y-115747857D01*
X161204286Y-115862143D01*
X161261429Y-115919286D01*
X161375714Y-115976429D01*
X161604286Y-115976429D01*
X161718571Y-115919286D01*
X161775714Y-115862143D01*
X161832857Y-115747857D01*
X161832857Y-115519286D01*
X161775714Y-115405000D01*
X161718571Y-115347857D01*
X161604286Y-115290714D01*
X161375714Y-115290714D01*
X161261429Y-115347857D01*
X161204286Y-115405000D01*
X161147143Y-115519286D01*
X159292857Y-116433571D02*
X159292857Y-117119286D01*
X159292857Y-116776428D02*
X158092857Y-116776428D01*
X158264286Y-116890714D01*
X158378571Y-117005000D01*
X158435714Y-117119286D01*
X158092857Y-116033571D02*
X158092857Y-115233571D01*
X159292857Y-115747857D01*
X156752857Y-116433571D02*
X156752857Y-117119286D01*
X156752857Y-116776428D02*
X155552857Y-116776428D01*
X155724286Y-116890714D01*
X155838571Y-117005000D01*
X155895714Y-117119286D01*
X155552857Y-115405000D02*
X155552857Y-115633571D01*
X155610000Y-115747857D01*
X155667143Y-115805000D01*
X155838571Y-115919286D01*
X156067143Y-115976429D01*
X156524286Y-115976429D01*
X156638571Y-115919286D01*
X156695714Y-115862143D01*
X156752857Y-115747857D01*
X156752857Y-115519286D01*
X156695714Y-115405000D01*
X156638571Y-115347857D01*
X156524286Y-115290714D01*
X156238571Y-115290714D01*
X156124286Y-115347857D01*
X156067143Y-115405000D01*
X156010000Y-115519286D01*
X156010000Y-115747857D01*
X156067143Y-115862143D01*
X156124286Y-115919286D01*
X156238571Y-115976429D01*
X154212857Y-116433571D02*
X154212857Y-117119286D01*
X154212857Y-116776428D02*
X153012857Y-116776428D01*
X153184286Y-116890714D01*
X153298571Y-117005000D01*
X153355714Y-117119286D01*
X153012857Y-115347857D02*
X153012857Y-115919286D01*
X153584286Y-115976429D01*
X153527143Y-115919286D01*
X153470000Y-115805000D01*
X153470000Y-115519286D01*
X153527143Y-115405000D01*
X153584286Y-115347857D01*
X153698571Y-115290714D01*
X153984286Y-115290714D01*
X154098571Y-115347857D01*
X154155714Y-115405000D01*
X154212857Y-115519286D01*
X154212857Y-115805000D01*
X154155714Y-115919286D01*
X154098571Y-115976429D01*
X151672857Y-116433571D02*
X151672857Y-117119286D01*
X151672857Y-116776428D02*
X150472857Y-116776428D01*
X150644286Y-116890714D01*
X150758571Y-117005000D01*
X150815714Y-117119286D01*
X150872857Y-115405000D02*
X151672857Y-115405000D01*
X150415714Y-115690714D02*
X151272857Y-115976429D01*
X151272857Y-115233571D01*
X149132857Y-116433571D02*
X149132857Y-117119286D01*
X149132857Y-116776428D02*
X147932857Y-116776428D01*
X148104286Y-116890714D01*
X148218571Y-117005000D01*
X148275714Y-117119286D01*
X147932857Y-116033571D02*
X147932857Y-115290714D01*
X148390000Y-115690714D01*
X148390000Y-115519286D01*
X148447143Y-115405000D01*
X148504286Y-115347857D01*
X148618571Y-115290714D01*
X148904286Y-115290714D01*
X149018571Y-115347857D01*
X149075714Y-115405000D01*
X149132857Y-115519286D01*
X149132857Y-115862143D01*
X149075714Y-115976429D01*
X149018571Y-116033571D01*
X146592857Y-116433571D02*
X146592857Y-117119286D01*
X146592857Y-116776428D02*
X145392857Y-116776428D01*
X145564286Y-116890714D01*
X145678571Y-117005000D01*
X145735714Y-117119286D01*
X145507143Y-115976429D02*
X145450000Y-115919286D01*
X145392857Y-115805000D01*
X145392857Y-115519286D01*
X145450000Y-115405000D01*
X145507143Y-115347857D01*
X145621429Y-115290714D01*
X145735714Y-115290714D01*
X145907143Y-115347857D01*
X146592857Y-116033571D01*
X146592857Y-115290714D01*
X142852857Y-116554285D02*
X142852857Y-117125714D01*
X143424286Y-117182857D01*
X143367143Y-117125714D01*
X143310000Y-117011428D01*
X143310000Y-116725714D01*
X143367143Y-116611428D01*
X143424286Y-116554285D01*
X143538571Y-116497142D01*
X143824286Y-116497142D01*
X143938571Y-116554285D01*
X143995714Y-116611428D01*
X144052857Y-116725714D01*
X144052857Y-117011428D01*
X143995714Y-117125714D01*
X143938571Y-117182857D01*
X140712857Y-116611428D02*
X141512857Y-116611428D01*
X140255714Y-116897142D02*
X141112857Y-117182857D01*
X141112857Y-116439999D01*
X137772857Y-117239999D02*
X137772857Y-116497142D01*
X138230000Y-116897142D01*
X138230000Y-116725714D01*
X138287143Y-116611428D01*
X138344286Y-116554285D01*
X138458571Y-116497142D01*
X138744286Y-116497142D01*
X138858571Y-116554285D01*
X138915714Y-116611428D01*
X138972857Y-116725714D01*
X138972857Y-117068571D01*
X138915714Y-117182857D01*
X138858571Y-117239999D01*
X135347143Y-117182857D02*
X135290000Y-117125714D01*
X135232857Y-117011428D01*
X135232857Y-116725714D01*
X135290000Y-116611428D01*
X135347143Y-116554285D01*
X135461429Y-116497142D01*
X135575714Y-116497142D01*
X135747143Y-116554285D01*
X136432857Y-117239999D01*
X136432857Y-116497142D01*
X133892857Y-116497142D02*
X133892857Y-117182857D01*
X133892857Y-116839999D02*
X132692857Y-116839999D01*
X132864286Y-116954285D01*
X132978571Y-117068571D01*
X133035714Y-117182857D01*
X130152857Y-116897142D02*
X130152857Y-116782857D01*
X130210000Y-116668571D01*
X130267143Y-116611428D01*
X130381429Y-116554285D01*
X130610000Y-116497142D01*
X130895714Y-116497142D01*
X131124286Y-116554285D01*
X131238571Y-116611428D01*
X131295714Y-116668571D01*
X131352857Y-116782857D01*
X131352857Y-116897142D01*
X131295714Y-117011428D01*
X131238571Y-117068571D01*
X131124286Y-117125714D01*
X130895714Y-117182857D01*
X130610000Y-117182857D01*
X130381429Y-117125714D01*
X130267143Y-117068571D01*
X130210000Y-117011428D01*
X130152857Y-116897142D01*
X128184286Y-117090714D02*
X128184286Y-116690714D01*
X128812857Y-116519285D02*
X128812857Y-117090714D01*
X127612857Y-117090714D01*
X127612857Y-116519285D01*
X128812857Y-116005000D02*
X127612857Y-116005000D01*
X128812857Y-115319285D01*
X127612857Y-115319285D01*
X125072857Y-117341428D02*
X125072857Y-116598571D01*
X125530000Y-116998571D01*
X125530000Y-116827143D01*
X125587143Y-116712857D01*
X125644286Y-116655714D01*
X125758571Y-116598571D01*
X126044286Y-116598571D01*
X126158571Y-116655714D01*
X126215714Y-116712857D01*
X126272857Y-116827143D01*
X126272857Y-117170000D01*
X126215714Y-117284286D01*
X126158571Y-117341428D01*
X126158571Y-116084286D02*
X126215714Y-116027143D01*
X126272857Y-116084286D01*
X126215714Y-116141429D01*
X126158571Y-116084286D01*
X126272857Y-116084286D01*
X125072857Y-115627142D02*
X125072857Y-114884285D01*
X125530000Y-115284285D01*
X125530000Y-115112857D01*
X125587143Y-114998571D01*
X125644286Y-114941428D01*
X125758571Y-114884285D01*
X126044286Y-114884285D01*
X126158571Y-114941428D01*
X126215714Y-114998571D01*
X126272857Y-115112857D01*
X126272857Y-115455714D01*
X126215714Y-115570000D01*
X126158571Y-115627142D01*
X125072857Y-114541428D02*
X126272857Y-114141428D01*
X125072857Y-113741428D01*
X122590000Y-116484285D02*
X122532857Y-116598571D01*
X122532857Y-116770000D01*
X122590000Y-116941428D01*
X122704286Y-117055714D01*
X122818571Y-117112857D01*
X123047143Y-117170000D01*
X123218571Y-117170000D01*
X123447143Y-117112857D01*
X123561429Y-117055714D01*
X123675714Y-116941428D01*
X123732857Y-116770000D01*
X123732857Y-116655714D01*
X123675714Y-116484285D01*
X123618571Y-116427142D01*
X123218571Y-116427142D01*
X123218571Y-116655714D01*
X123732857Y-115912857D02*
X122532857Y-115912857D01*
X123732857Y-115227142D01*
X122532857Y-115227142D01*
X123732857Y-114655714D02*
X122532857Y-114655714D01*
X122532857Y-114369999D01*
X122590000Y-114198571D01*
X122704286Y-114084285D01*
X122818571Y-114027142D01*
X123047143Y-113969999D01*
X123218571Y-113969999D01*
X123447143Y-114027142D01*
X123561429Y-114084285D01*
X123675714Y-114198571D01*
X123732857Y-114369999D01*
X123732857Y-114655714D01*
X119992857Y-116798571D02*
X121192857Y-116398571D01*
X119992857Y-115998571D01*
X121192857Y-115598572D02*
X120392857Y-115598572D01*
X119992857Y-115598572D02*
X120050000Y-115655715D01*
X120107143Y-115598572D01*
X120050000Y-115541429D01*
X119992857Y-115598572D01*
X120107143Y-115598572D01*
X120392857Y-115027143D02*
X121192857Y-115027143D01*
X120507143Y-115027143D02*
X120450000Y-114970000D01*
X120392857Y-114855714D01*
X120392857Y-114684286D01*
X120450000Y-114570000D01*
X120564286Y-114512857D01*
X121192857Y-114512857D01*
D12*
X167669981Y-56134000D02*
G75*
G03X167669981Y-56134000I-283981J0D01*
G01*
D13*
X148480000Y-56280000D02*
X166480000Y-56280000D01*
X166480000Y-62280000D02*
X166480000Y-36780000D01*
X148480000Y-62280000D02*
X148480000Y-36780000D01*
X148480000Y-36780000D02*
X166480000Y-36780000D01*
X148480000Y-62280000D02*
X166480000Y-62280000D01*
X137160000Y-36500000D02*
X135060000Y-36500000D01*
X135060000Y-36500000D02*
X135060000Y-39700000D01*
X135060000Y-39700000D02*
X139260000Y-39700000D01*
X139260000Y-39700000D02*
X139260000Y-36500000D01*
X139260000Y-36500000D02*
X137160000Y-36500000D01*
X137160000Y-40310000D02*
X135060000Y-40310000D01*
X135060000Y-40310000D02*
X135060000Y-43510000D01*
X135060000Y-43510000D02*
X139260000Y-43510000D01*
X139260000Y-43510000D02*
X139260000Y-40310000D01*
X139260000Y-40310000D02*
X137160000Y-40310000D01*
X179379880Y-38961060D02*
X178879500Y-38961060D01*
X179580540Y-39761160D02*
X179130960Y-40159940D01*
X179130960Y-40159940D02*
X179130960Y-38961060D01*
X178831240Y-40609520D02*
X178831240Y-43210480D01*
X174228760Y-43210480D02*
X174228760Y-40609520D01*
X170950000Y-47585000D02*
X171950000Y-47585000D01*
X171950000Y-48935000D02*
X170950000Y-48935000D01*
X177530000Y-47235000D02*
X175530000Y-47235000D01*
X175530000Y-49285000D02*
X177530000Y-49285000D01*
X170850000Y-42260000D02*
X170850000Y-41560000D01*
X172050000Y-41560000D02*
X172050000Y-42260000D01*
X181010000Y-42260000D02*
X181010000Y-41560000D01*
X182210000Y-41560000D02*
X182210000Y-42260000D01*
X124810000Y-51400000D02*
X124110000Y-51400000D01*
X124110000Y-50200000D02*
X124810000Y-50200000D01*
X124810000Y-61560000D02*
X124110000Y-61560000D01*
X124110000Y-60360000D02*
X124810000Y-60360000D01*
X129785000Y-54880000D02*
X129785000Y-56880000D01*
X131835000Y-56880000D02*
X131835000Y-54880000D01*
X130135000Y-61460000D02*
X130135000Y-60460000D01*
X131485000Y-60460000D02*
X131485000Y-61460000D01*
X121511060Y-53030120D02*
X121511060Y-53530500D01*
X122311160Y-52829460D02*
X122709940Y-53279040D01*
X122709940Y-53279040D02*
X121511060Y-53279040D01*
X123159520Y-53578760D02*
X125760480Y-53578760D01*
X125760480Y-58181240D02*
X123159520Y-58181240D01*
X122860000Y-95250000D02*
X122860000Y-97350000D01*
X122860000Y-97350000D02*
X126060000Y-97350000D01*
X126060000Y-97350000D02*
X126060000Y-93150000D01*
X126060000Y-93150000D02*
X122860000Y-93150000D01*
X122860000Y-93150000D02*
X122860000Y-95250000D01*
X119050000Y-95250000D02*
X119050000Y-97350000D01*
X119050000Y-97350000D02*
X122250000Y-97350000D01*
X122250000Y-97350000D02*
X122250000Y-93150000D01*
X122250000Y-93150000D02*
X119050000Y-93150000D01*
X119050000Y-93150000D02*
X119050000Y-95250000D01*
D12*
X138967981Y-65024000D02*
G75*
G03X138967981Y-65024000I-283981J0D01*
G01*
D13*
X138830000Y-83930000D02*
X138830000Y-65930000D01*
X144830000Y-65930000D02*
X119330000Y-65930000D01*
X144830000Y-83930000D02*
X119330000Y-83930000D01*
X119330000Y-83930000D02*
X119330000Y-65930000D01*
X144830000Y-83930000D02*
X144830000Y-65930000D01*
D12*
X176559981Y-84836000D02*
G75*
G03X176559981Y-84836000I-283981J0D01*
G01*
D13*
X176130000Y-65930000D02*
X176130000Y-83930000D01*
X170130000Y-83930000D02*
X195630000Y-83930000D01*
X170130000Y-65930000D02*
X195630000Y-65930000D01*
X195630000Y-65930000D02*
X195630000Y-83930000D01*
X170130000Y-65930000D02*
X170130000Y-83930000D01*
X195910000Y-54610000D02*
X195910000Y-52510000D01*
X195910000Y-52510000D02*
X192710000Y-52510000D01*
X192710000Y-52510000D02*
X192710000Y-56710000D01*
X192710000Y-56710000D02*
X195910000Y-56710000D01*
X195910000Y-56710000D02*
X195910000Y-54610000D01*
X192100000Y-54610000D02*
X192100000Y-52510000D01*
X192100000Y-52510000D02*
X188900000Y-52510000D01*
X188900000Y-52510000D02*
X188900000Y-56710000D01*
X188900000Y-56710000D02*
X192100000Y-56710000D01*
X192100000Y-56710000D02*
X192100000Y-54610000D01*
X193448940Y-96829880D02*
X193448940Y-96329500D01*
X192648840Y-97030540D02*
X192250060Y-96580960D01*
X192250060Y-96580960D02*
X193448940Y-96580960D01*
X191800480Y-96281240D02*
X189199520Y-96281240D01*
X189199520Y-91678760D02*
X191800480Y-91678760D01*
X184825000Y-88400000D02*
X184825000Y-89400000D01*
X183475000Y-89400000D02*
X183475000Y-88400000D01*
X185175000Y-94980000D02*
X185175000Y-92980000D01*
X183125000Y-92980000D02*
X183125000Y-94980000D01*
X190150000Y-88300000D02*
X190850000Y-88300000D01*
X190850000Y-89500000D02*
X190150000Y-89500000D01*
X190150000Y-98460000D02*
X190850000Y-98460000D01*
X190850000Y-99660000D02*
X190150000Y-99660000D01*
X133950000Y-107600000D02*
X133950000Y-108300000D01*
X132750000Y-108300000D02*
X132750000Y-107600000D01*
X144110000Y-107600000D02*
X144110000Y-108300000D01*
X142910000Y-108300000D02*
X142910000Y-107600000D01*
X137430000Y-102625000D02*
X139430000Y-102625000D01*
X139430000Y-100575000D02*
X137430000Y-100575000D01*
X144010000Y-102275000D02*
X143010000Y-102275000D01*
X143010000Y-100925000D02*
X144010000Y-100925000D01*
X135580120Y-110898940D02*
X136080500Y-110898940D01*
X135379460Y-110098840D02*
X135829040Y-109700060D01*
X135829040Y-109700060D02*
X135829040Y-110898940D01*
X136128760Y-109250480D02*
X136128760Y-106649520D01*
X140731240Y-106649520D02*
X140731240Y-109250480D01*
X177800000Y-109550000D02*
X179900000Y-109550000D01*
X179900000Y-109550000D02*
X179900000Y-106350000D01*
X179900000Y-106350000D02*
X175700000Y-106350000D01*
X175700000Y-106350000D02*
X175700000Y-109550000D01*
X175700000Y-109550000D02*
X177800000Y-109550000D01*
X177800000Y-113360000D02*
X179900000Y-113360000D01*
X179900000Y-113360000D02*
X179900000Y-110160000D01*
X179900000Y-110160000D02*
X175700000Y-110160000D01*
X175700000Y-110160000D02*
X175700000Y-113360000D01*
X175700000Y-113360000D02*
X177800000Y-113360000D01*
D12*
X147857981Y-93726000D02*
G75*
G03X147857981Y-93726000I-283981J0D01*
G01*
D13*
X166480000Y-93580000D02*
X148480000Y-93580000D01*
X148480000Y-87580000D02*
X148480000Y-113080000D01*
X166480000Y-87580000D02*
X166480000Y-113080000D01*
X166480000Y-113080000D02*
X148480000Y-113080000D01*
X166480000Y-87580000D02*
X148480000Y-87580000D01*
X166878095Y-56856381D02*
X166878095Y-57665905D01*
X166925714Y-57761143D01*
X166973333Y-57808762D01*
X167068571Y-57856381D01*
X167259048Y-57856381D01*
X167354286Y-57808762D01*
X167401905Y-57761143D01*
X167449524Y-57665905D01*
X167449524Y-56856381D01*
X167878095Y-56951619D02*
X167925714Y-56904000D01*
X168020952Y-56856381D01*
X168259048Y-56856381D01*
X168354286Y-56904000D01*
X168401905Y-56951619D01*
X168449524Y-57046857D01*
X168449524Y-57142095D01*
X168401905Y-57284952D01*
X167830476Y-57856381D01*
X168449524Y-57856381D01*
X151408572Y-55300571D02*
X151741906Y-55300571D01*
X151884763Y-55824381D02*
X151408572Y-55824381D01*
X151408572Y-54824381D01*
X151884763Y-54824381D01*
X152265715Y-55776762D02*
X152408572Y-55824381D01*
X152646668Y-55824381D01*
X152741906Y-55776762D01*
X152789525Y-55729143D01*
X152837144Y-55633905D01*
X152837144Y-55538667D01*
X152789525Y-55443429D01*
X152741906Y-55395810D01*
X152646668Y-55348190D01*
X152456191Y-55300571D01*
X152360953Y-55252952D01*
X152313334Y-55205333D01*
X152265715Y-55110095D01*
X152265715Y-55014857D01*
X152313334Y-54919619D01*
X152360953Y-54872000D01*
X152456191Y-54824381D01*
X152694287Y-54824381D01*
X152837144Y-54872000D01*
X153265715Y-55824381D02*
X153265715Y-54824381D01*
X153646668Y-54824381D01*
X153741906Y-54872000D01*
X153789525Y-54919619D01*
X153837144Y-55014857D01*
X153837144Y-55157714D01*
X153789525Y-55252952D01*
X153741906Y-55300571D01*
X153646668Y-55348190D01*
X153265715Y-55348190D01*
X154265715Y-55443429D02*
X155027620Y-55443429D01*
X155408572Y-54824381D02*
X155646667Y-55824381D01*
X155837144Y-55110095D01*
X156027620Y-55824381D01*
X156265715Y-54824381D01*
X157218096Y-55824381D02*
X156884762Y-55348190D01*
X156646667Y-55824381D02*
X156646667Y-54824381D01*
X157027620Y-54824381D01*
X157122858Y-54872000D01*
X157170477Y-54919619D01*
X157218096Y-55014857D01*
X157218096Y-55157714D01*
X157170477Y-55252952D01*
X157122858Y-55300571D01*
X157027620Y-55348190D01*
X156646667Y-55348190D01*
X157837143Y-54824381D02*
X158027620Y-54824381D01*
X158122858Y-54872000D01*
X158218096Y-54967238D01*
X158265715Y-55157714D01*
X158265715Y-55491048D01*
X158218096Y-55681524D01*
X158122858Y-55776762D01*
X158027620Y-55824381D01*
X157837143Y-55824381D01*
X157741905Y-55776762D01*
X157646667Y-55681524D01*
X157599048Y-55491048D01*
X157599048Y-55157714D01*
X157646667Y-54967238D01*
X157741905Y-54872000D01*
X157837143Y-54824381D01*
X158884762Y-54824381D02*
X159075239Y-54824381D01*
X159170477Y-54872000D01*
X159265715Y-54967238D01*
X159313334Y-55157714D01*
X159313334Y-55491048D01*
X159265715Y-55681524D01*
X159170477Y-55776762D01*
X159075239Y-55824381D01*
X158884762Y-55824381D01*
X158789524Y-55776762D01*
X158694286Y-55681524D01*
X158646667Y-55491048D01*
X158646667Y-55157714D01*
X158694286Y-54967238D01*
X158789524Y-54872000D01*
X158884762Y-54824381D01*
X159741905Y-55824381D02*
X159741905Y-54824381D01*
X160075239Y-55538667D01*
X160408572Y-54824381D01*
X160408572Y-55824381D01*
X160884762Y-55443429D02*
X161646667Y-55443429D01*
X162027619Y-54824381D02*
X162646667Y-54824381D01*
X162313333Y-55205333D01*
X162456191Y-55205333D01*
X162551429Y-55252952D01*
X162599048Y-55300571D01*
X162646667Y-55395810D01*
X162646667Y-55633905D01*
X162599048Y-55729143D01*
X162551429Y-55776762D01*
X162456191Y-55824381D01*
X162170476Y-55824381D01*
X162075238Y-55776762D01*
X162027619Y-55729143D01*
X163027619Y-54919619D02*
X163075238Y-54872000D01*
X163170476Y-54824381D01*
X163408572Y-54824381D01*
X163503810Y-54872000D01*
X163551429Y-54919619D01*
X163599048Y-55014857D01*
X163599048Y-55110095D01*
X163551429Y-55252952D01*
X162980000Y-55824381D01*
X163599048Y-55824381D01*
X140271667Y-38504762D02*
X140414524Y-38552381D01*
X140652620Y-38552381D01*
X140747858Y-38504762D01*
X140795477Y-38457143D01*
X140843096Y-38361905D01*
X140843096Y-38266667D01*
X140795477Y-38171429D01*
X140747858Y-38123810D01*
X140652620Y-38076190D01*
X140462143Y-38028571D01*
X140366905Y-37980952D01*
X140319286Y-37933333D01*
X140271667Y-37838095D01*
X140271667Y-37742857D01*
X140319286Y-37647619D01*
X140366905Y-37600000D01*
X140462143Y-37552381D01*
X140700239Y-37552381D01*
X140843096Y-37600000D01*
X141176429Y-37552381D02*
X141414524Y-38552381D01*
X141605001Y-37838095D01*
X141795477Y-38552381D01*
X142033572Y-37552381D01*
X142938334Y-38552381D02*
X142366905Y-38552381D01*
X142652619Y-38552381D02*
X142652619Y-37552381D01*
X142557381Y-37695238D01*
X142462143Y-37790476D01*
X142366905Y-37838095D01*
X130627619Y-38552381D02*
X130294285Y-38076190D01*
X130056190Y-38552381D02*
X130056190Y-37552381D01*
X130437143Y-37552381D01*
X130532381Y-37600000D01*
X130580000Y-37647619D01*
X130627619Y-37742857D01*
X130627619Y-37885714D01*
X130580000Y-37980952D01*
X130532381Y-38028571D01*
X130437143Y-38076190D01*
X130056190Y-38076190D01*
X131056190Y-38028571D02*
X131389524Y-38028571D01*
X131532381Y-38552381D02*
X131056190Y-38552381D01*
X131056190Y-37552381D01*
X131532381Y-37552381D01*
X131913333Y-38504762D02*
X132056190Y-38552381D01*
X132294286Y-38552381D01*
X132389524Y-38504762D01*
X132437143Y-38457143D01*
X132484762Y-38361905D01*
X132484762Y-38266667D01*
X132437143Y-38171429D01*
X132389524Y-38123810D01*
X132294286Y-38076190D01*
X132103809Y-38028571D01*
X132008571Y-37980952D01*
X131960952Y-37933333D01*
X131913333Y-37838095D01*
X131913333Y-37742857D01*
X131960952Y-37647619D01*
X132008571Y-37600000D01*
X132103809Y-37552381D01*
X132341905Y-37552381D01*
X132484762Y-37600000D01*
X132913333Y-38028571D02*
X133246667Y-38028571D01*
X133389524Y-38552381D02*
X132913333Y-38552381D01*
X132913333Y-37552381D01*
X133389524Y-37552381D01*
X133675238Y-37552381D02*
X134246667Y-37552381D01*
X133960952Y-38552381D02*
X133960952Y-37552381D01*
X140271667Y-42314762D02*
X140414524Y-42362381D01*
X140652620Y-42362381D01*
X140747858Y-42314762D01*
X140795477Y-42267143D01*
X140843096Y-42171905D01*
X140843096Y-42076667D01*
X140795477Y-41981429D01*
X140747858Y-41933810D01*
X140652620Y-41886190D01*
X140462143Y-41838571D01*
X140366905Y-41790952D01*
X140319286Y-41743333D01*
X140271667Y-41648095D01*
X140271667Y-41552857D01*
X140319286Y-41457619D01*
X140366905Y-41410000D01*
X140462143Y-41362381D01*
X140700239Y-41362381D01*
X140843096Y-41410000D01*
X141176429Y-41362381D02*
X141414524Y-42362381D01*
X141605001Y-41648095D01*
X141795477Y-42362381D01*
X142033572Y-41362381D01*
X142366905Y-41457619D02*
X142414524Y-41410000D01*
X142509762Y-41362381D01*
X142747858Y-41362381D01*
X142843096Y-41410000D01*
X142890715Y-41457619D01*
X142938334Y-41552857D01*
X142938334Y-41648095D01*
X142890715Y-41790952D01*
X142319286Y-42362381D01*
X142938334Y-42362381D01*
X132096000Y-42362381D02*
X132096000Y-41362381D01*
X132762666Y-41362381D02*
X132953143Y-41362381D01*
X133048381Y-41410000D01*
X133143619Y-41505238D01*
X133191238Y-41695714D01*
X133191238Y-42029048D01*
X133143619Y-42219524D01*
X133048381Y-42314762D01*
X132953143Y-42362381D01*
X132762666Y-42362381D01*
X132667428Y-42314762D01*
X132572190Y-42219524D01*
X132524571Y-42029048D01*
X132524571Y-41695714D01*
X132572190Y-41505238D01*
X132667428Y-41410000D01*
X132762666Y-41362381D01*
X133810285Y-41362381D02*
X133905524Y-41362381D01*
X134000762Y-41410000D01*
X134048381Y-41457619D01*
X134096000Y-41552857D01*
X134143619Y-41743333D01*
X134143619Y-41981429D01*
X134096000Y-42171905D01*
X134048381Y-42267143D01*
X134000762Y-42314762D01*
X133905524Y-42362381D01*
X133810285Y-42362381D01*
X133715047Y-42314762D01*
X133667428Y-42267143D01*
X133619809Y-42171905D01*
X133572190Y-41981429D01*
X133572190Y-41743333D01*
X133619809Y-41552857D01*
X133667428Y-41457619D01*
X133715047Y-41410000D01*
X133810285Y-41362381D01*
X175718095Y-45037381D02*
X175718095Y-45846905D01*
X175765714Y-45942143D01*
X175813333Y-45989762D01*
X175908571Y-46037381D01*
X176099048Y-46037381D01*
X176194286Y-45989762D01*
X176241905Y-45942143D01*
X176289524Y-45846905D01*
X176289524Y-45037381D01*
X177289524Y-46037381D02*
X176718095Y-46037381D01*
X177003809Y-46037381D02*
X177003809Y-45037381D01*
X176908571Y-45180238D01*
X176813333Y-45275476D01*
X176718095Y-45323095D01*
X173387143Y-38552381D02*
X173387143Y-37552381D01*
X173958572Y-38552381D01*
X173958572Y-37552381D01*
X174720477Y-37552381D02*
X174720477Y-38266667D01*
X174672857Y-38409524D01*
X174577619Y-38504762D01*
X174434762Y-38552381D01*
X174339524Y-38552381D01*
X175196667Y-38552381D02*
X175196667Y-37552381D01*
X175530001Y-38266667D01*
X175863334Y-37552381D01*
X175863334Y-38552381D01*
X176291905Y-37647619D02*
X176339524Y-37600000D01*
X176434762Y-37552381D01*
X176672858Y-37552381D01*
X176768096Y-37600000D01*
X176815715Y-37647619D01*
X176863334Y-37742857D01*
X176863334Y-37838095D01*
X176815715Y-37980952D01*
X176244286Y-38552381D01*
X176863334Y-38552381D01*
X177434762Y-37980952D02*
X177339524Y-37933333D01*
X177291905Y-37885714D01*
X177244286Y-37790476D01*
X177244286Y-37742857D01*
X177291905Y-37647619D01*
X177339524Y-37600000D01*
X177434762Y-37552381D01*
X177625239Y-37552381D01*
X177720477Y-37600000D01*
X177768096Y-37647619D01*
X177815715Y-37742857D01*
X177815715Y-37790476D01*
X177768096Y-37885714D01*
X177720477Y-37933333D01*
X177625239Y-37980952D01*
X177434762Y-37980952D01*
X177339524Y-38028571D01*
X177291905Y-38076190D01*
X177244286Y-38171429D01*
X177244286Y-38361905D01*
X177291905Y-38457143D01*
X177339524Y-38504762D01*
X177434762Y-38552381D01*
X177625239Y-38552381D01*
X177720477Y-38504762D01*
X177768096Y-38457143D01*
X177815715Y-38361905D01*
X177815715Y-38171429D01*
X177768096Y-38076190D01*
X177720477Y-38028571D01*
X177625239Y-37980952D01*
X178387143Y-37980952D02*
X178291905Y-37933333D01*
X178244286Y-37885714D01*
X178196667Y-37790476D01*
X178196667Y-37742857D01*
X178244286Y-37647619D01*
X178291905Y-37600000D01*
X178387143Y-37552381D01*
X178577620Y-37552381D01*
X178672858Y-37600000D01*
X178720477Y-37647619D01*
X178768096Y-37742857D01*
X178768096Y-37790476D01*
X178720477Y-37885714D01*
X178672858Y-37933333D01*
X178577620Y-37980952D01*
X178387143Y-37980952D01*
X178291905Y-38028571D01*
X178244286Y-38076190D01*
X178196667Y-38171429D01*
X178196667Y-38361905D01*
X178244286Y-38457143D01*
X178291905Y-38504762D01*
X178387143Y-38552381D01*
X178577620Y-38552381D01*
X178672858Y-38504762D01*
X178720477Y-38457143D01*
X178768096Y-38361905D01*
X178768096Y-38171429D01*
X178720477Y-38076190D01*
X178672858Y-38028571D01*
X178577620Y-37980952D01*
X179625239Y-37885714D02*
X179625239Y-38552381D01*
X179387143Y-37504762D02*
X179149048Y-38219048D01*
X179768096Y-38219048D01*
X171283334Y-50212381D02*
X170950000Y-49736190D01*
X170711905Y-50212381D02*
X170711905Y-49212381D01*
X171092858Y-49212381D01*
X171188096Y-49260000D01*
X171235715Y-49307619D01*
X171283334Y-49402857D01*
X171283334Y-49545714D01*
X171235715Y-49640952D01*
X171188096Y-49688571D01*
X171092858Y-49736190D01*
X170711905Y-49736190D01*
X172235715Y-50212381D02*
X171664286Y-50212381D01*
X171950000Y-50212381D02*
X171950000Y-49212381D01*
X171854762Y-49355238D01*
X171759524Y-49450476D01*
X171664286Y-49498095D01*
X170854762Y-47212381D02*
X170283333Y-47212381D01*
X170569047Y-47212381D02*
X170569047Y-46212381D01*
X170473809Y-46355238D01*
X170378571Y-46450476D01*
X170283333Y-46498095D01*
X171473809Y-46212381D02*
X171569048Y-46212381D01*
X171664286Y-46260000D01*
X171711905Y-46307619D01*
X171759524Y-46402857D01*
X171807143Y-46593333D01*
X171807143Y-46831429D01*
X171759524Y-47021905D01*
X171711905Y-47117143D01*
X171664286Y-47164762D01*
X171569048Y-47212381D01*
X171473809Y-47212381D01*
X171378571Y-47164762D01*
X171330952Y-47117143D01*
X171283333Y-47021905D01*
X171235714Y-46831429D01*
X171235714Y-46593333D01*
X171283333Y-46402857D01*
X171330952Y-46307619D01*
X171378571Y-46260000D01*
X171473809Y-46212381D01*
X172235714Y-47212381D02*
X172235714Y-46212381D01*
X172330952Y-46831429D02*
X172616667Y-47212381D01*
X172616667Y-46545714D02*
X172235714Y-46926667D01*
X176363334Y-50522143D02*
X176315715Y-50569762D01*
X176172858Y-50617381D01*
X176077620Y-50617381D01*
X175934762Y-50569762D01*
X175839524Y-50474524D01*
X175791905Y-50379286D01*
X175744286Y-50188810D01*
X175744286Y-50045952D01*
X175791905Y-49855476D01*
X175839524Y-49760238D01*
X175934762Y-49665000D01*
X176077620Y-49617381D01*
X176172858Y-49617381D01*
X176315715Y-49665000D01*
X176363334Y-49712619D01*
X176696667Y-49617381D02*
X177315715Y-49617381D01*
X176982381Y-49998333D01*
X177125239Y-49998333D01*
X177220477Y-50045952D01*
X177268096Y-50093571D01*
X177315715Y-50188810D01*
X177315715Y-50426905D01*
X177268096Y-50522143D01*
X177220477Y-50569762D01*
X177125239Y-50617381D01*
X176839524Y-50617381D01*
X176744286Y-50569762D01*
X176696667Y-50522143D01*
X179651905Y-46815714D02*
X179651905Y-47482381D01*
X179413809Y-46434762D02*
X179175714Y-47149048D01*
X179794762Y-47149048D01*
X180080476Y-46482381D02*
X180747143Y-46482381D01*
X180318571Y-47482381D01*
X181556667Y-46815714D02*
X181556667Y-47482381D01*
X181128095Y-46815714D02*
X181128095Y-47339524D01*
X181175714Y-47434762D01*
X181270952Y-47482381D01*
X181413810Y-47482381D01*
X181509048Y-47434762D01*
X181556667Y-47387143D01*
X171283334Y-44553143D02*
X171235715Y-44600762D01*
X171092858Y-44648381D01*
X170997620Y-44648381D01*
X170854762Y-44600762D01*
X170759524Y-44505524D01*
X170711905Y-44410286D01*
X170664286Y-44219810D01*
X170664286Y-44076952D01*
X170711905Y-43886476D01*
X170759524Y-43791238D01*
X170854762Y-43696000D01*
X170997620Y-43648381D01*
X171092858Y-43648381D01*
X171235715Y-43696000D01*
X171283334Y-43743619D01*
X171664286Y-43743619D02*
X171711905Y-43696000D01*
X171807143Y-43648381D01*
X172045239Y-43648381D01*
X172140477Y-43696000D01*
X172188096Y-43743619D01*
X172235715Y-43838857D01*
X172235715Y-43934095D01*
X172188096Y-44076952D01*
X171616667Y-44648381D01*
X172235715Y-44648381D01*
X170235714Y-39076381D02*
X170330953Y-39076381D01*
X170426191Y-39124000D01*
X170473810Y-39171619D01*
X170521429Y-39266857D01*
X170569048Y-39457333D01*
X170569048Y-39695429D01*
X170521429Y-39885905D01*
X170473810Y-39981143D01*
X170426191Y-40028762D01*
X170330953Y-40076381D01*
X170235714Y-40076381D01*
X170140476Y-40028762D01*
X170092857Y-39981143D01*
X170045238Y-39885905D01*
X169997619Y-39695429D01*
X169997619Y-39457333D01*
X170045238Y-39266857D01*
X170092857Y-39171619D01*
X170140476Y-39124000D01*
X170235714Y-39076381D01*
X170997619Y-39981143D02*
X171045238Y-40028762D01*
X170997619Y-40076381D01*
X170950000Y-40028762D01*
X170997619Y-39981143D01*
X170997619Y-40076381D01*
X171997619Y-40076381D02*
X171426190Y-40076381D01*
X171711904Y-40076381D02*
X171711904Y-39076381D01*
X171616666Y-39219238D01*
X171521428Y-39314476D01*
X171426190Y-39362095D01*
X172854762Y-39409714D02*
X172854762Y-40076381D01*
X172426190Y-39409714D02*
X172426190Y-39933524D01*
X172473809Y-40028762D01*
X172569047Y-40076381D01*
X172711905Y-40076381D01*
X172807143Y-40028762D01*
X172854762Y-39981143D01*
X181443334Y-44553143D02*
X181395715Y-44600762D01*
X181252858Y-44648381D01*
X181157620Y-44648381D01*
X181014762Y-44600762D01*
X180919524Y-44505524D01*
X180871905Y-44410286D01*
X180824286Y-44219810D01*
X180824286Y-44076952D01*
X180871905Y-43886476D01*
X180919524Y-43791238D01*
X181014762Y-43696000D01*
X181157620Y-43648381D01*
X181252858Y-43648381D01*
X181395715Y-43696000D01*
X181443334Y-43743619D01*
X182395715Y-44648381D02*
X181824286Y-44648381D01*
X182110000Y-44648381D02*
X182110000Y-43648381D01*
X182014762Y-43791238D01*
X181919524Y-43886476D01*
X181824286Y-43934095D01*
X180649714Y-38949381D02*
X180744953Y-38949381D01*
X180840191Y-38997000D01*
X180887810Y-39044619D01*
X180935429Y-39139857D01*
X180983048Y-39330333D01*
X180983048Y-39568429D01*
X180935429Y-39758905D01*
X180887810Y-39854143D01*
X180840191Y-39901762D01*
X180744953Y-39949381D01*
X180649714Y-39949381D01*
X180554476Y-39901762D01*
X180506857Y-39854143D01*
X180459238Y-39758905D01*
X180411619Y-39568429D01*
X180411619Y-39330333D01*
X180459238Y-39139857D01*
X180506857Y-39044619D01*
X180554476Y-38997000D01*
X180649714Y-38949381D01*
X181411619Y-39854143D02*
X181459238Y-39901762D01*
X181411619Y-39949381D01*
X181364000Y-39901762D01*
X181411619Y-39854143D01*
X181411619Y-39949381D01*
X182411619Y-39949381D02*
X181840190Y-39949381D01*
X182125904Y-39949381D02*
X182125904Y-38949381D01*
X182030666Y-39092238D01*
X181935428Y-39187476D01*
X181840190Y-39235095D01*
X183268762Y-39282714D02*
X183268762Y-39949381D01*
X182840190Y-39282714D02*
X182840190Y-39806524D01*
X182887809Y-39901762D01*
X182983047Y-39949381D01*
X183125905Y-39949381D01*
X183221143Y-39901762D01*
X183268762Y-39854143D01*
X127103143Y-50966666D02*
X127150762Y-51014285D01*
X127198381Y-51157142D01*
X127198381Y-51252380D01*
X127150762Y-51395238D01*
X127055524Y-51490476D01*
X126960286Y-51538095D01*
X126769810Y-51585714D01*
X126626952Y-51585714D01*
X126436476Y-51538095D01*
X126341238Y-51490476D01*
X126246000Y-51395238D01*
X126198381Y-51252380D01*
X126198381Y-51157142D01*
X126246000Y-51014285D01*
X126293619Y-50966666D01*
X127198381Y-50014285D02*
X127198381Y-50585714D01*
X127198381Y-50300000D02*
X126198381Y-50300000D01*
X126341238Y-50395238D01*
X126436476Y-50490476D01*
X126484095Y-50585714D01*
X121499381Y-51760286D02*
X121499381Y-51665047D01*
X121547000Y-51569809D01*
X121594619Y-51522190D01*
X121689857Y-51474571D01*
X121880333Y-51426952D01*
X122118429Y-51426952D01*
X122308905Y-51474571D01*
X122404143Y-51522190D01*
X122451762Y-51569809D01*
X122499381Y-51665047D01*
X122499381Y-51760286D01*
X122451762Y-51855524D01*
X122404143Y-51903143D01*
X122308905Y-51950762D01*
X122118429Y-51998381D01*
X121880333Y-51998381D01*
X121689857Y-51950762D01*
X121594619Y-51903143D01*
X121547000Y-51855524D01*
X121499381Y-51760286D01*
X122404143Y-50998381D02*
X122451762Y-50950762D01*
X122499381Y-50998381D01*
X122451762Y-51046000D01*
X122404143Y-50998381D01*
X122499381Y-50998381D01*
X122499381Y-49998381D02*
X122499381Y-50569810D01*
X122499381Y-50284096D02*
X121499381Y-50284096D01*
X121642238Y-50379334D01*
X121737476Y-50474572D01*
X121785095Y-50569810D01*
X121832714Y-49141238D02*
X122499381Y-49141238D01*
X121832714Y-49569810D02*
X122356524Y-49569810D01*
X122451762Y-49522191D01*
X122499381Y-49426953D01*
X122499381Y-49284095D01*
X122451762Y-49188857D01*
X122404143Y-49141238D01*
X127103143Y-61126666D02*
X127150762Y-61174285D01*
X127198381Y-61317142D01*
X127198381Y-61412380D01*
X127150762Y-61555238D01*
X127055524Y-61650476D01*
X126960286Y-61698095D01*
X126769810Y-61745714D01*
X126626952Y-61745714D01*
X126436476Y-61698095D01*
X126341238Y-61650476D01*
X126246000Y-61555238D01*
X126198381Y-61412380D01*
X126198381Y-61317142D01*
X126246000Y-61174285D01*
X126293619Y-61126666D01*
X126293619Y-60745714D02*
X126246000Y-60698095D01*
X126198381Y-60602857D01*
X126198381Y-60364761D01*
X126246000Y-60269523D01*
X126293619Y-60221904D01*
X126388857Y-60174285D01*
X126484095Y-60174285D01*
X126626952Y-60221904D01*
X127198381Y-60793333D01*
X127198381Y-60174285D01*
X121626381Y-62174286D02*
X121626381Y-62079047D01*
X121674000Y-61983809D01*
X121721619Y-61936190D01*
X121816857Y-61888571D01*
X122007333Y-61840952D01*
X122245429Y-61840952D01*
X122435905Y-61888571D01*
X122531143Y-61936190D01*
X122578762Y-61983809D01*
X122626381Y-62079047D01*
X122626381Y-62174286D01*
X122578762Y-62269524D01*
X122531143Y-62317143D01*
X122435905Y-62364762D01*
X122245429Y-62412381D01*
X122007333Y-62412381D01*
X121816857Y-62364762D01*
X121721619Y-62317143D01*
X121674000Y-62269524D01*
X121626381Y-62174286D01*
X122531143Y-61412381D02*
X122578762Y-61364762D01*
X122626381Y-61412381D01*
X122578762Y-61460000D01*
X122531143Y-61412381D01*
X122626381Y-61412381D01*
X122626381Y-60412381D02*
X122626381Y-60983810D01*
X122626381Y-60698096D02*
X121626381Y-60698096D01*
X121769238Y-60793334D01*
X121864476Y-60888572D01*
X121912095Y-60983810D01*
X121959714Y-59555238D02*
X122626381Y-59555238D01*
X121959714Y-59983810D02*
X122483524Y-59983810D01*
X122578762Y-59936191D01*
X122626381Y-59840953D01*
X122626381Y-59698095D01*
X122578762Y-59602857D01*
X122531143Y-59555238D01*
X133072143Y-56046666D02*
X133119762Y-56094285D01*
X133167381Y-56237142D01*
X133167381Y-56332380D01*
X133119762Y-56475238D01*
X133024524Y-56570476D01*
X132929286Y-56618095D01*
X132738810Y-56665714D01*
X132595952Y-56665714D01*
X132405476Y-56618095D01*
X132310238Y-56570476D01*
X132215000Y-56475238D01*
X132167381Y-56332380D01*
X132167381Y-56237142D01*
X132215000Y-56094285D01*
X132262619Y-56046666D01*
X132167381Y-55713333D02*
X132167381Y-55094285D01*
X132548333Y-55427619D01*
X132548333Y-55284761D01*
X132595952Y-55189523D01*
X132643571Y-55141904D01*
X132738810Y-55094285D01*
X132976905Y-55094285D01*
X133072143Y-55141904D01*
X133119762Y-55189523D01*
X133167381Y-55284761D01*
X133167381Y-55570476D01*
X133119762Y-55665714D01*
X133072143Y-55713333D01*
X129365714Y-52758095D02*
X130032381Y-52758095D01*
X128984762Y-52996191D02*
X129699048Y-53234286D01*
X129699048Y-52615238D01*
X129032381Y-52329524D02*
X129032381Y-51662857D01*
X130032381Y-52091429D01*
X129365714Y-50853333D02*
X130032381Y-50853333D01*
X129365714Y-51281905D02*
X129889524Y-51281905D01*
X129984762Y-51234286D01*
X130032381Y-51139048D01*
X130032381Y-50996190D01*
X129984762Y-50900952D01*
X129937143Y-50853333D01*
X132762381Y-61126666D02*
X132286190Y-61460000D01*
X132762381Y-61698095D02*
X131762381Y-61698095D01*
X131762381Y-61317142D01*
X131810000Y-61221904D01*
X131857619Y-61174285D01*
X131952857Y-61126666D01*
X132095714Y-61126666D01*
X132190952Y-61174285D01*
X132238571Y-61221904D01*
X132286190Y-61317142D01*
X132286190Y-61698095D01*
X132762381Y-60174285D02*
X132762381Y-60745714D01*
X132762381Y-60460000D02*
X131762381Y-60460000D01*
X131905238Y-60555238D01*
X132000476Y-60650476D01*
X132048095Y-60745714D01*
X129762381Y-61555238D02*
X129762381Y-62126667D01*
X129762381Y-61840953D02*
X128762381Y-61840953D01*
X128905238Y-61936191D01*
X129000476Y-62031429D01*
X129048095Y-62126667D01*
X128762381Y-60936191D02*
X128762381Y-60840952D01*
X128810000Y-60745714D01*
X128857619Y-60698095D01*
X128952857Y-60650476D01*
X129143333Y-60602857D01*
X129381429Y-60602857D01*
X129571905Y-60650476D01*
X129667143Y-60698095D01*
X129714762Y-60745714D01*
X129762381Y-60840952D01*
X129762381Y-60936191D01*
X129714762Y-61031429D01*
X129667143Y-61079048D01*
X129571905Y-61126667D01*
X129381429Y-61174286D01*
X129143333Y-61174286D01*
X128952857Y-61126667D01*
X128857619Y-61079048D01*
X128810000Y-61031429D01*
X128762381Y-60936191D01*
X129762381Y-60174286D02*
X128762381Y-60174286D01*
X129381429Y-60079048D02*
X129762381Y-59793333D01*
X129095714Y-59793333D02*
X129476667Y-60174286D01*
X127587381Y-56691905D02*
X128396905Y-56691905D01*
X128492143Y-56644286D01*
X128539762Y-56596667D01*
X128587381Y-56501429D01*
X128587381Y-56310952D01*
X128539762Y-56215714D01*
X128492143Y-56168095D01*
X128396905Y-56120476D01*
X127587381Y-56120476D01*
X128587381Y-55120476D02*
X128587381Y-55691905D01*
X128587381Y-55406191D02*
X127587381Y-55406191D01*
X127730238Y-55501429D01*
X127825476Y-55596667D01*
X127873095Y-55691905D01*
X121102381Y-59022857D02*
X120102381Y-59022857D01*
X121102381Y-58451428D01*
X120102381Y-58451428D01*
X120102381Y-57689523D02*
X120816667Y-57689523D01*
X120959524Y-57737143D01*
X121054762Y-57832381D01*
X121102381Y-57975238D01*
X121102381Y-58070476D01*
X121102381Y-57213333D02*
X120102381Y-57213333D01*
X120816667Y-56879999D01*
X120102381Y-56546666D01*
X121102381Y-56546666D01*
X120197619Y-56118095D02*
X120150000Y-56070476D01*
X120102381Y-55975238D01*
X120102381Y-55737142D01*
X120150000Y-55641904D01*
X120197619Y-55594285D01*
X120292857Y-55546666D01*
X120388095Y-55546666D01*
X120530952Y-55594285D01*
X121102381Y-56165714D01*
X121102381Y-55546666D01*
X120530952Y-54975238D02*
X120483333Y-55070476D01*
X120435714Y-55118095D01*
X120340476Y-55165714D01*
X120292857Y-55165714D01*
X120197619Y-55118095D01*
X120150000Y-55070476D01*
X120102381Y-54975238D01*
X120102381Y-54784761D01*
X120150000Y-54689523D01*
X120197619Y-54641904D01*
X120292857Y-54594285D01*
X120340476Y-54594285D01*
X120435714Y-54641904D01*
X120483333Y-54689523D01*
X120530952Y-54784761D01*
X120530952Y-54975238D01*
X120578571Y-55070476D01*
X120626190Y-55118095D01*
X120721429Y-55165714D01*
X120911905Y-55165714D01*
X121007143Y-55118095D01*
X121054762Y-55070476D01*
X121102381Y-54975238D01*
X121102381Y-54784761D01*
X121054762Y-54689523D01*
X121007143Y-54641904D01*
X120911905Y-54594285D01*
X120721429Y-54594285D01*
X120626190Y-54641904D01*
X120578571Y-54689523D01*
X120530952Y-54784761D01*
X120530952Y-54022857D02*
X120483333Y-54118095D01*
X120435714Y-54165714D01*
X120340476Y-54213333D01*
X120292857Y-54213333D01*
X120197619Y-54165714D01*
X120150000Y-54118095D01*
X120102381Y-54022857D01*
X120102381Y-53832380D01*
X120150000Y-53737142D01*
X120197619Y-53689523D01*
X120292857Y-53641904D01*
X120340476Y-53641904D01*
X120435714Y-53689523D01*
X120483333Y-53737142D01*
X120530952Y-53832380D01*
X120530952Y-54022857D01*
X120578571Y-54118095D01*
X120626190Y-54165714D01*
X120721429Y-54213333D01*
X120911905Y-54213333D01*
X121007143Y-54165714D01*
X121054762Y-54118095D01*
X121102381Y-54022857D01*
X121102381Y-53832380D01*
X121054762Y-53737142D01*
X121007143Y-53689523D01*
X120911905Y-53641904D01*
X120721429Y-53641904D01*
X120626190Y-53689523D01*
X120578571Y-53737142D01*
X120530952Y-53832380D01*
X120435714Y-52784761D02*
X121102381Y-52784761D01*
X120054762Y-53022857D02*
X120769048Y-53260952D01*
X120769048Y-52641904D01*
X124864762Y-92138333D02*
X124912381Y-91995476D01*
X124912381Y-91757380D01*
X124864762Y-91662142D01*
X124817143Y-91614523D01*
X124721905Y-91566904D01*
X124626667Y-91566904D01*
X124531429Y-91614523D01*
X124483810Y-91662142D01*
X124436190Y-91757380D01*
X124388571Y-91947857D01*
X124340952Y-92043095D01*
X124293333Y-92090714D01*
X124198095Y-92138333D01*
X124102857Y-92138333D01*
X124007619Y-92090714D01*
X123960000Y-92043095D01*
X123912381Y-91947857D01*
X123912381Y-91709761D01*
X123960000Y-91566904D01*
X123912381Y-91233571D02*
X124912381Y-90995476D01*
X124198095Y-90804999D01*
X124912381Y-90614523D01*
X123912381Y-90376428D01*
X124007619Y-90043095D02*
X123960000Y-89995476D01*
X123912381Y-89900238D01*
X123912381Y-89662142D01*
X123960000Y-89566904D01*
X124007619Y-89519285D01*
X124102857Y-89471666D01*
X124198095Y-89471666D01*
X124340952Y-89519285D01*
X124912381Y-90090714D01*
X124912381Y-89471666D01*
X124912381Y-100314000D02*
X123912381Y-100314000D01*
X123912381Y-99647334D02*
X123912381Y-99456857D01*
X123960000Y-99361619D01*
X124055238Y-99266381D01*
X124245714Y-99218762D01*
X124579048Y-99218762D01*
X124769524Y-99266381D01*
X124864762Y-99361619D01*
X124912381Y-99456857D01*
X124912381Y-99647334D01*
X124864762Y-99742572D01*
X124769524Y-99837810D01*
X124579048Y-99885429D01*
X124245714Y-99885429D01*
X124055238Y-99837810D01*
X123960000Y-99742572D01*
X123912381Y-99647334D01*
X123912381Y-98599715D02*
X123912381Y-98504476D01*
X123960000Y-98409238D01*
X124007619Y-98361619D01*
X124102857Y-98314000D01*
X124293333Y-98266381D01*
X124531429Y-98266381D01*
X124721905Y-98314000D01*
X124817143Y-98361619D01*
X124864762Y-98409238D01*
X124912381Y-98504476D01*
X124912381Y-98599715D01*
X124864762Y-98694953D01*
X124817143Y-98742572D01*
X124721905Y-98790191D01*
X124531429Y-98837810D01*
X124293333Y-98837810D01*
X124102857Y-98790191D01*
X124007619Y-98742572D01*
X123960000Y-98694953D01*
X123912381Y-98599715D01*
X121054762Y-92138333D02*
X121102381Y-91995476D01*
X121102381Y-91757380D01*
X121054762Y-91662142D01*
X121007143Y-91614523D01*
X120911905Y-91566904D01*
X120816667Y-91566904D01*
X120721429Y-91614523D01*
X120673810Y-91662142D01*
X120626190Y-91757380D01*
X120578571Y-91947857D01*
X120530952Y-92043095D01*
X120483333Y-92090714D01*
X120388095Y-92138333D01*
X120292857Y-92138333D01*
X120197619Y-92090714D01*
X120150000Y-92043095D01*
X120102381Y-91947857D01*
X120102381Y-91709761D01*
X120150000Y-91566904D01*
X120102381Y-91233571D02*
X121102381Y-90995476D01*
X120388095Y-90804999D01*
X121102381Y-90614523D01*
X120102381Y-90376428D01*
X121102381Y-89471666D02*
X121102381Y-90043095D01*
X121102381Y-89757381D02*
X120102381Y-89757381D01*
X120245238Y-89852619D01*
X120340476Y-89947857D01*
X120388095Y-90043095D01*
X121102381Y-101782381D02*
X120626190Y-102115715D01*
X121102381Y-102353810D02*
X120102381Y-102353810D01*
X120102381Y-101972857D01*
X120150000Y-101877619D01*
X120197619Y-101830000D01*
X120292857Y-101782381D01*
X120435714Y-101782381D01*
X120530952Y-101830000D01*
X120578571Y-101877619D01*
X120626190Y-101972857D01*
X120626190Y-102353810D01*
X120578571Y-101353810D02*
X120578571Y-101020476D01*
X121102381Y-100877619D02*
X121102381Y-101353810D01*
X120102381Y-101353810D01*
X120102381Y-100877619D01*
X121054762Y-100496667D02*
X121102381Y-100353810D01*
X121102381Y-100115714D01*
X121054762Y-100020476D01*
X121007143Y-99972857D01*
X120911905Y-99925238D01*
X120816667Y-99925238D01*
X120721429Y-99972857D01*
X120673810Y-100020476D01*
X120626190Y-100115714D01*
X120578571Y-100306191D01*
X120530952Y-100401429D01*
X120483333Y-100449048D01*
X120388095Y-100496667D01*
X120292857Y-100496667D01*
X120197619Y-100449048D01*
X120150000Y-100401429D01*
X120102381Y-100306191D01*
X120102381Y-100068095D01*
X120150000Y-99925238D01*
X120578571Y-99496667D02*
X120578571Y-99163333D01*
X121102381Y-99020476D02*
X121102381Y-99496667D01*
X120102381Y-99496667D01*
X120102381Y-99020476D01*
X120102381Y-98734762D02*
X120102381Y-98163333D01*
X121102381Y-98449048D02*
X120102381Y-98449048D01*
X139406381Y-65531905D02*
X140215905Y-65531905D01*
X140311143Y-65484286D01*
X140358762Y-65436667D01*
X140406381Y-65341429D01*
X140406381Y-65150952D01*
X140358762Y-65055714D01*
X140311143Y-65008095D01*
X140215905Y-64960476D01*
X139406381Y-64960476D01*
X139501619Y-64531905D02*
X139454000Y-64484286D01*
X139406381Y-64389048D01*
X139406381Y-64150952D01*
X139454000Y-64055714D01*
X139501619Y-64008095D01*
X139596857Y-63960476D01*
X139692095Y-63960476D01*
X139834952Y-64008095D01*
X140406381Y-64579524D01*
X140406381Y-63960476D01*
X137850571Y-81001428D02*
X137850571Y-80668094D01*
X138374381Y-80525237D02*
X138374381Y-81001428D01*
X137374381Y-81001428D01*
X137374381Y-80525237D01*
X138326762Y-80144285D02*
X138374381Y-80001428D01*
X138374381Y-79763332D01*
X138326762Y-79668094D01*
X138279143Y-79620475D01*
X138183905Y-79572856D01*
X138088667Y-79572856D01*
X137993429Y-79620475D01*
X137945810Y-79668094D01*
X137898190Y-79763332D01*
X137850571Y-79953809D01*
X137802952Y-80049047D01*
X137755333Y-80096666D01*
X137660095Y-80144285D01*
X137564857Y-80144285D01*
X137469619Y-80096666D01*
X137422000Y-80049047D01*
X137374381Y-79953809D01*
X137374381Y-79715713D01*
X137422000Y-79572856D01*
X138374381Y-79144285D02*
X137374381Y-79144285D01*
X137374381Y-78763332D01*
X137422000Y-78668094D01*
X137469619Y-78620475D01*
X137564857Y-78572856D01*
X137707714Y-78572856D01*
X137802952Y-78620475D01*
X137850571Y-78668094D01*
X137898190Y-78763332D01*
X137898190Y-79144285D01*
X137993429Y-78144285D02*
X137993429Y-77382380D01*
X137374381Y-77001428D02*
X138374381Y-76763333D01*
X137660095Y-76572856D01*
X138374381Y-76382380D01*
X137374381Y-76144285D01*
X138374381Y-75191904D02*
X137898190Y-75525238D01*
X138374381Y-75763333D02*
X137374381Y-75763333D01*
X137374381Y-75382380D01*
X137422000Y-75287142D01*
X137469619Y-75239523D01*
X137564857Y-75191904D01*
X137707714Y-75191904D01*
X137802952Y-75239523D01*
X137850571Y-75287142D01*
X137898190Y-75382380D01*
X137898190Y-75763333D01*
X137374381Y-74572857D02*
X137374381Y-74382380D01*
X137422000Y-74287142D01*
X137517238Y-74191904D01*
X137707714Y-74144285D01*
X138041048Y-74144285D01*
X138231524Y-74191904D01*
X138326762Y-74287142D01*
X138374381Y-74382380D01*
X138374381Y-74572857D01*
X138326762Y-74668095D01*
X138231524Y-74763333D01*
X138041048Y-74810952D01*
X137707714Y-74810952D01*
X137517238Y-74763333D01*
X137422000Y-74668095D01*
X137374381Y-74572857D01*
X137374381Y-73525238D02*
X137374381Y-73334761D01*
X137422000Y-73239523D01*
X137517238Y-73144285D01*
X137707714Y-73096666D01*
X138041048Y-73096666D01*
X138231524Y-73144285D01*
X138326762Y-73239523D01*
X138374381Y-73334761D01*
X138374381Y-73525238D01*
X138326762Y-73620476D01*
X138231524Y-73715714D01*
X138041048Y-73763333D01*
X137707714Y-73763333D01*
X137517238Y-73715714D01*
X137422000Y-73620476D01*
X137374381Y-73525238D01*
X138374381Y-72668095D02*
X137374381Y-72668095D01*
X138088667Y-72334761D01*
X137374381Y-72001428D01*
X138374381Y-72001428D01*
X137993429Y-71525238D02*
X137993429Y-70763333D01*
X137374381Y-70382381D02*
X137374381Y-69763333D01*
X137755333Y-70096667D01*
X137755333Y-69953809D01*
X137802952Y-69858571D01*
X137850571Y-69810952D01*
X137945810Y-69763333D01*
X138183905Y-69763333D01*
X138279143Y-69810952D01*
X138326762Y-69858571D01*
X138374381Y-69953809D01*
X138374381Y-70239524D01*
X138326762Y-70334762D01*
X138279143Y-70382381D01*
X137469619Y-69382381D02*
X137422000Y-69334762D01*
X137374381Y-69239524D01*
X137374381Y-69001428D01*
X137422000Y-68906190D01*
X137469619Y-68858571D01*
X137564857Y-68810952D01*
X137660095Y-68810952D01*
X137802952Y-68858571D01*
X138374381Y-69430000D01*
X138374381Y-68810952D01*
X174458381Y-85851905D02*
X175267905Y-85851905D01*
X175363143Y-85804286D01*
X175410762Y-85756667D01*
X175458381Y-85661429D01*
X175458381Y-85470952D01*
X175410762Y-85375714D01*
X175363143Y-85328095D01*
X175267905Y-85280476D01*
X174458381Y-85280476D01*
X174553619Y-84851905D02*
X174506000Y-84804286D01*
X174458381Y-84709048D01*
X174458381Y-84470952D01*
X174506000Y-84375714D01*
X174553619Y-84328095D01*
X174648857Y-84280476D01*
X174744095Y-84280476D01*
X174886952Y-84328095D01*
X175458381Y-84899524D01*
X175458381Y-84280476D01*
X176966571Y-81001428D02*
X176966571Y-80668094D01*
X177490381Y-80525237D02*
X177490381Y-81001428D01*
X176490381Y-81001428D01*
X176490381Y-80525237D01*
X177442762Y-80144285D02*
X177490381Y-80001428D01*
X177490381Y-79763332D01*
X177442762Y-79668094D01*
X177395143Y-79620475D01*
X177299905Y-79572856D01*
X177204667Y-79572856D01*
X177109429Y-79620475D01*
X177061810Y-79668094D01*
X177014190Y-79763332D01*
X176966571Y-79953809D01*
X176918952Y-80049047D01*
X176871333Y-80096666D01*
X176776095Y-80144285D01*
X176680857Y-80144285D01*
X176585619Y-80096666D01*
X176538000Y-80049047D01*
X176490381Y-79953809D01*
X176490381Y-79715713D01*
X176538000Y-79572856D01*
X177490381Y-79144285D02*
X176490381Y-79144285D01*
X176490381Y-78763332D01*
X176538000Y-78668094D01*
X176585619Y-78620475D01*
X176680857Y-78572856D01*
X176823714Y-78572856D01*
X176918952Y-78620475D01*
X176966571Y-78668094D01*
X177014190Y-78763332D01*
X177014190Y-79144285D01*
X177109429Y-78144285D02*
X177109429Y-77382380D01*
X176490381Y-77001428D02*
X177490381Y-76763333D01*
X176776095Y-76572856D01*
X177490381Y-76382380D01*
X176490381Y-76144285D01*
X177490381Y-75191904D02*
X177014190Y-75525238D01*
X177490381Y-75763333D02*
X176490381Y-75763333D01*
X176490381Y-75382380D01*
X176538000Y-75287142D01*
X176585619Y-75239523D01*
X176680857Y-75191904D01*
X176823714Y-75191904D01*
X176918952Y-75239523D01*
X176966571Y-75287142D01*
X177014190Y-75382380D01*
X177014190Y-75763333D01*
X176490381Y-74572857D02*
X176490381Y-74382380D01*
X176538000Y-74287142D01*
X176633238Y-74191904D01*
X176823714Y-74144285D01*
X177157048Y-74144285D01*
X177347524Y-74191904D01*
X177442762Y-74287142D01*
X177490381Y-74382380D01*
X177490381Y-74572857D01*
X177442762Y-74668095D01*
X177347524Y-74763333D01*
X177157048Y-74810952D01*
X176823714Y-74810952D01*
X176633238Y-74763333D01*
X176538000Y-74668095D01*
X176490381Y-74572857D01*
X176490381Y-73525238D02*
X176490381Y-73334761D01*
X176538000Y-73239523D01*
X176633238Y-73144285D01*
X176823714Y-73096666D01*
X177157048Y-73096666D01*
X177347524Y-73144285D01*
X177442762Y-73239523D01*
X177490381Y-73334761D01*
X177490381Y-73525238D01*
X177442762Y-73620476D01*
X177347524Y-73715714D01*
X177157048Y-73763333D01*
X176823714Y-73763333D01*
X176633238Y-73715714D01*
X176538000Y-73620476D01*
X176490381Y-73525238D01*
X177490381Y-72668095D02*
X176490381Y-72668095D01*
X177204667Y-72334761D01*
X176490381Y-72001428D01*
X177490381Y-72001428D01*
X177109429Y-71525238D02*
X177109429Y-70763333D01*
X176490381Y-70382381D02*
X176490381Y-69763333D01*
X176871333Y-70096667D01*
X176871333Y-69953809D01*
X176918952Y-69858571D01*
X176966571Y-69810952D01*
X177061810Y-69763333D01*
X177299905Y-69763333D01*
X177395143Y-69810952D01*
X177442762Y-69858571D01*
X177490381Y-69953809D01*
X177490381Y-70239524D01*
X177442762Y-70334762D01*
X177395143Y-70382381D01*
X176585619Y-69382381D02*
X176538000Y-69334762D01*
X176490381Y-69239524D01*
X176490381Y-69001428D01*
X176538000Y-68906190D01*
X176585619Y-68858571D01*
X176680857Y-68810952D01*
X176776095Y-68810952D01*
X176918952Y-68858571D01*
X177490381Y-69430000D01*
X177490381Y-68810952D01*
X194714762Y-60388333D02*
X194762381Y-60245476D01*
X194762381Y-60007380D01*
X194714762Y-59912142D01*
X194667143Y-59864523D01*
X194571905Y-59816904D01*
X194476667Y-59816904D01*
X194381429Y-59864523D01*
X194333810Y-59912142D01*
X194286190Y-60007380D01*
X194238571Y-60197857D01*
X194190952Y-60293095D01*
X194143333Y-60340714D01*
X194048095Y-60388333D01*
X193952857Y-60388333D01*
X193857619Y-60340714D01*
X193810000Y-60293095D01*
X193762381Y-60197857D01*
X193762381Y-59959761D01*
X193810000Y-59816904D01*
X193762381Y-59483571D02*
X194762381Y-59245476D01*
X194048095Y-59054999D01*
X194762381Y-58864523D01*
X193762381Y-58626428D01*
X194762381Y-57721666D02*
X194762381Y-58293095D01*
X194762381Y-58007381D02*
X193762381Y-58007381D01*
X193905238Y-58102619D01*
X194000476Y-58197857D01*
X194048095Y-58293095D01*
X194762381Y-50982381D02*
X194286190Y-51315715D01*
X194762381Y-51553810D02*
X193762381Y-51553810D01*
X193762381Y-51172857D01*
X193810000Y-51077619D01*
X193857619Y-51030000D01*
X193952857Y-50982381D01*
X194095714Y-50982381D01*
X194190952Y-51030000D01*
X194238571Y-51077619D01*
X194286190Y-51172857D01*
X194286190Y-51553810D01*
X194238571Y-50553810D02*
X194238571Y-50220476D01*
X194762381Y-50077619D02*
X194762381Y-50553810D01*
X193762381Y-50553810D01*
X193762381Y-50077619D01*
X194714762Y-49696667D02*
X194762381Y-49553810D01*
X194762381Y-49315714D01*
X194714762Y-49220476D01*
X194667143Y-49172857D01*
X194571905Y-49125238D01*
X194476667Y-49125238D01*
X194381429Y-49172857D01*
X194333810Y-49220476D01*
X194286190Y-49315714D01*
X194238571Y-49506191D01*
X194190952Y-49601429D01*
X194143333Y-49649048D01*
X194048095Y-49696667D01*
X193952857Y-49696667D01*
X193857619Y-49649048D01*
X193810000Y-49601429D01*
X193762381Y-49506191D01*
X193762381Y-49268095D01*
X193810000Y-49125238D01*
X194238571Y-48696667D02*
X194238571Y-48363333D01*
X194762381Y-48220476D02*
X194762381Y-48696667D01*
X193762381Y-48696667D01*
X193762381Y-48220476D01*
X193762381Y-47934762D02*
X193762381Y-47363333D01*
X194762381Y-47649048D02*
X193762381Y-47649048D01*
X190904762Y-60388333D02*
X190952381Y-60245476D01*
X190952381Y-60007380D01*
X190904762Y-59912142D01*
X190857143Y-59864523D01*
X190761905Y-59816904D01*
X190666667Y-59816904D01*
X190571429Y-59864523D01*
X190523810Y-59912142D01*
X190476190Y-60007380D01*
X190428571Y-60197857D01*
X190380952Y-60293095D01*
X190333333Y-60340714D01*
X190238095Y-60388333D01*
X190142857Y-60388333D01*
X190047619Y-60340714D01*
X190000000Y-60293095D01*
X189952381Y-60197857D01*
X189952381Y-59959761D01*
X190000000Y-59816904D01*
X189952381Y-59483571D02*
X190952381Y-59245476D01*
X190238095Y-59054999D01*
X190952381Y-58864523D01*
X189952381Y-58626428D01*
X190047619Y-58293095D02*
X190000000Y-58245476D01*
X189952381Y-58150238D01*
X189952381Y-57912142D01*
X190000000Y-57816904D01*
X190047619Y-57769285D01*
X190142857Y-57721666D01*
X190238095Y-57721666D01*
X190380952Y-57769285D01*
X190952381Y-58340714D01*
X190952381Y-57721666D01*
X190952381Y-51546000D02*
X189952381Y-51546000D01*
X189952381Y-50879334D02*
X189952381Y-50688857D01*
X190000000Y-50593619D01*
X190095238Y-50498381D01*
X190285714Y-50450762D01*
X190619048Y-50450762D01*
X190809524Y-50498381D01*
X190904762Y-50593619D01*
X190952381Y-50688857D01*
X190952381Y-50879334D01*
X190904762Y-50974572D01*
X190809524Y-51069810D01*
X190619048Y-51117429D01*
X190285714Y-51117429D01*
X190095238Y-51069810D01*
X190000000Y-50974572D01*
X189952381Y-50879334D01*
X189952381Y-49831715D02*
X189952381Y-49736476D01*
X190000000Y-49641238D01*
X190047619Y-49593619D01*
X190142857Y-49546000D01*
X190333333Y-49498381D01*
X190571429Y-49498381D01*
X190761905Y-49546000D01*
X190857143Y-49593619D01*
X190904762Y-49641238D01*
X190952381Y-49736476D01*
X190952381Y-49831715D01*
X190904762Y-49926953D01*
X190857143Y-49974572D01*
X190761905Y-50022191D01*
X190571429Y-50069810D01*
X190333333Y-50069810D01*
X190142857Y-50022191D01*
X190047619Y-49974572D01*
X190000000Y-49926953D01*
X189952381Y-49831715D01*
X186277381Y-94691905D02*
X187086905Y-94691905D01*
X187182143Y-94644286D01*
X187229762Y-94596667D01*
X187277381Y-94501429D01*
X187277381Y-94310952D01*
X187229762Y-94215714D01*
X187182143Y-94168095D01*
X187086905Y-94120476D01*
X186277381Y-94120476D01*
X187277381Y-93120476D02*
X187277381Y-93691905D01*
X187277381Y-93406191D02*
X186277381Y-93406191D01*
X186420238Y-93501429D01*
X186515476Y-93596667D01*
X186563095Y-93691905D01*
X194762381Y-97122857D02*
X193762381Y-97122857D01*
X194762381Y-96551428D01*
X193762381Y-96551428D01*
X193762381Y-95789523D02*
X194476667Y-95789523D01*
X194619524Y-95837143D01*
X194714762Y-95932381D01*
X194762381Y-96075238D01*
X194762381Y-96170476D01*
X194762381Y-95313333D02*
X193762381Y-95313333D01*
X194476667Y-94979999D01*
X193762381Y-94646666D01*
X194762381Y-94646666D01*
X193857619Y-94218095D02*
X193810000Y-94170476D01*
X193762381Y-94075238D01*
X193762381Y-93837142D01*
X193810000Y-93741904D01*
X193857619Y-93694285D01*
X193952857Y-93646666D01*
X194048095Y-93646666D01*
X194190952Y-93694285D01*
X194762381Y-94265714D01*
X194762381Y-93646666D01*
X194190952Y-93075238D02*
X194143333Y-93170476D01*
X194095714Y-93218095D01*
X194000476Y-93265714D01*
X193952857Y-93265714D01*
X193857619Y-93218095D01*
X193810000Y-93170476D01*
X193762381Y-93075238D01*
X193762381Y-92884761D01*
X193810000Y-92789523D01*
X193857619Y-92741904D01*
X193952857Y-92694285D01*
X194000476Y-92694285D01*
X194095714Y-92741904D01*
X194143333Y-92789523D01*
X194190952Y-92884761D01*
X194190952Y-93075238D01*
X194238571Y-93170476D01*
X194286190Y-93218095D01*
X194381429Y-93265714D01*
X194571905Y-93265714D01*
X194667143Y-93218095D01*
X194714762Y-93170476D01*
X194762381Y-93075238D01*
X194762381Y-92884761D01*
X194714762Y-92789523D01*
X194667143Y-92741904D01*
X194571905Y-92694285D01*
X194381429Y-92694285D01*
X194286190Y-92741904D01*
X194238571Y-92789523D01*
X194190952Y-92884761D01*
X194190952Y-92122857D02*
X194143333Y-92218095D01*
X194095714Y-92265714D01*
X194000476Y-92313333D01*
X193952857Y-92313333D01*
X193857619Y-92265714D01*
X193810000Y-92218095D01*
X193762381Y-92122857D01*
X193762381Y-91932380D01*
X193810000Y-91837142D01*
X193857619Y-91789523D01*
X193952857Y-91741904D01*
X194000476Y-91741904D01*
X194095714Y-91789523D01*
X194143333Y-91837142D01*
X194190952Y-91932380D01*
X194190952Y-92122857D01*
X194238571Y-92218095D01*
X194286190Y-92265714D01*
X194381429Y-92313333D01*
X194571905Y-92313333D01*
X194667143Y-92265714D01*
X194714762Y-92218095D01*
X194762381Y-92122857D01*
X194762381Y-91932380D01*
X194714762Y-91837142D01*
X194667143Y-91789523D01*
X194571905Y-91741904D01*
X194381429Y-91741904D01*
X194286190Y-91789523D01*
X194238571Y-91837142D01*
X194190952Y-91932380D01*
X194095714Y-90884761D02*
X194762381Y-90884761D01*
X193714762Y-91122857D02*
X194429048Y-91360952D01*
X194429048Y-90741904D01*
X183102381Y-89066666D02*
X182626190Y-89400000D01*
X183102381Y-89638095D02*
X182102381Y-89638095D01*
X182102381Y-89257142D01*
X182150000Y-89161904D01*
X182197619Y-89114285D01*
X182292857Y-89066666D01*
X182435714Y-89066666D01*
X182530952Y-89114285D01*
X182578571Y-89161904D01*
X182626190Y-89257142D01*
X182626190Y-89638095D01*
X183102381Y-88114285D02*
X183102381Y-88685714D01*
X183102381Y-88400000D02*
X182102381Y-88400000D01*
X182245238Y-88495238D01*
X182340476Y-88590476D01*
X182388095Y-88685714D01*
X186102381Y-89495238D02*
X186102381Y-90066667D01*
X186102381Y-89780953D02*
X185102381Y-89780953D01*
X185245238Y-89876191D01*
X185340476Y-89971429D01*
X185388095Y-90066667D01*
X185102381Y-88876191D02*
X185102381Y-88780952D01*
X185150000Y-88685714D01*
X185197619Y-88638095D01*
X185292857Y-88590476D01*
X185483333Y-88542857D01*
X185721429Y-88542857D01*
X185911905Y-88590476D01*
X186007143Y-88638095D01*
X186054762Y-88685714D01*
X186102381Y-88780952D01*
X186102381Y-88876191D01*
X186054762Y-88971429D01*
X186007143Y-89019048D01*
X185911905Y-89066667D01*
X185721429Y-89114286D01*
X185483333Y-89114286D01*
X185292857Y-89066667D01*
X185197619Y-89019048D01*
X185150000Y-88971429D01*
X185102381Y-88876191D01*
X186102381Y-88114286D02*
X185102381Y-88114286D01*
X185721429Y-88019048D02*
X186102381Y-87733333D01*
X185435714Y-87733333D02*
X185816667Y-88114286D01*
X182602143Y-94146666D02*
X182649762Y-94194285D01*
X182697381Y-94337142D01*
X182697381Y-94432380D01*
X182649762Y-94575238D01*
X182554524Y-94670476D01*
X182459286Y-94718095D01*
X182268810Y-94765714D01*
X182125952Y-94765714D01*
X181935476Y-94718095D01*
X181840238Y-94670476D01*
X181745000Y-94575238D01*
X181697381Y-94432380D01*
X181697381Y-94337142D01*
X181745000Y-94194285D01*
X181792619Y-94146666D01*
X181697381Y-93813333D02*
X181697381Y-93194285D01*
X182078333Y-93527619D01*
X182078333Y-93384761D01*
X182125952Y-93289523D01*
X182173571Y-93241904D01*
X182268810Y-93194285D01*
X182506905Y-93194285D01*
X182602143Y-93241904D01*
X182649762Y-93289523D01*
X182697381Y-93384761D01*
X182697381Y-93670476D01*
X182649762Y-93765714D01*
X182602143Y-93813333D01*
X185165714Y-98578095D02*
X185832381Y-98578095D01*
X184784762Y-98816191D02*
X185499048Y-99054286D01*
X185499048Y-98435238D01*
X184832381Y-98149524D02*
X184832381Y-97482857D01*
X185832381Y-97911429D01*
X185165714Y-96673333D02*
X185832381Y-96673333D01*
X185165714Y-97101905D02*
X185689524Y-97101905D01*
X185784762Y-97054286D01*
X185832381Y-96959048D01*
X185832381Y-96816190D01*
X185784762Y-96720952D01*
X185737143Y-96673333D01*
X188571143Y-89066666D02*
X188618762Y-89114285D01*
X188666381Y-89257142D01*
X188666381Y-89352380D01*
X188618762Y-89495238D01*
X188523524Y-89590476D01*
X188428286Y-89638095D01*
X188237810Y-89685714D01*
X188094952Y-89685714D01*
X187904476Y-89638095D01*
X187809238Y-89590476D01*
X187714000Y-89495238D01*
X187666381Y-89352380D01*
X187666381Y-89257142D01*
X187714000Y-89114285D01*
X187761619Y-89066666D01*
X187761619Y-88685714D02*
X187714000Y-88638095D01*
X187666381Y-88542857D01*
X187666381Y-88304761D01*
X187714000Y-88209523D01*
X187761619Y-88161904D01*
X187856857Y-88114285D01*
X187952095Y-88114285D01*
X188094952Y-88161904D01*
X188666381Y-88733333D01*
X188666381Y-88114285D01*
X192238381Y-90114286D02*
X192238381Y-90019047D01*
X192286000Y-89923809D01*
X192333619Y-89876190D01*
X192428857Y-89828571D01*
X192619333Y-89780952D01*
X192857429Y-89780952D01*
X193047905Y-89828571D01*
X193143143Y-89876190D01*
X193190762Y-89923809D01*
X193238381Y-90019047D01*
X193238381Y-90114286D01*
X193190762Y-90209524D01*
X193143143Y-90257143D01*
X193047905Y-90304762D01*
X192857429Y-90352381D01*
X192619333Y-90352381D01*
X192428857Y-90304762D01*
X192333619Y-90257143D01*
X192286000Y-90209524D01*
X192238381Y-90114286D01*
X193143143Y-89352381D02*
X193190762Y-89304762D01*
X193238381Y-89352381D01*
X193190762Y-89400000D01*
X193143143Y-89352381D01*
X193238381Y-89352381D01*
X193238381Y-88352381D02*
X193238381Y-88923810D01*
X193238381Y-88638096D02*
X192238381Y-88638096D01*
X192381238Y-88733334D01*
X192476476Y-88828572D01*
X192524095Y-88923810D01*
X192571714Y-87495238D02*
X193238381Y-87495238D01*
X192571714Y-87923810D02*
X193095524Y-87923810D01*
X193190762Y-87876191D01*
X193238381Y-87780953D01*
X193238381Y-87638095D01*
X193190762Y-87542857D01*
X193143143Y-87495238D01*
X188571143Y-99226666D02*
X188618762Y-99274285D01*
X188666381Y-99417142D01*
X188666381Y-99512380D01*
X188618762Y-99655238D01*
X188523524Y-99750476D01*
X188428286Y-99798095D01*
X188237810Y-99845714D01*
X188094952Y-99845714D01*
X187904476Y-99798095D01*
X187809238Y-99750476D01*
X187714000Y-99655238D01*
X187666381Y-99512380D01*
X187666381Y-99417142D01*
X187714000Y-99274285D01*
X187761619Y-99226666D01*
X188666381Y-98274285D02*
X188666381Y-98845714D01*
X188666381Y-98560000D02*
X187666381Y-98560000D01*
X187809238Y-98655238D01*
X187904476Y-98750476D01*
X187952095Y-98845714D01*
X192365381Y-100528286D02*
X192365381Y-100433047D01*
X192413000Y-100337809D01*
X192460619Y-100290190D01*
X192555857Y-100242571D01*
X192746333Y-100194952D01*
X192984429Y-100194952D01*
X193174905Y-100242571D01*
X193270143Y-100290190D01*
X193317762Y-100337809D01*
X193365381Y-100433047D01*
X193365381Y-100528286D01*
X193317762Y-100623524D01*
X193270143Y-100671143D01*
X193174905Y-100718762D01*
X192984429Y-100766381D01*
X192746333Y-100766381D01*
X192555857Y-100718762D01*
X192460619Y-100671143D01*
X192413000Y-100623524D01*
X192365381Y-100528286D01*
X193270143Y-99766381D02*
X193317762Y-99718762D01*
X193365381Y-99766381D01*
X193317762Y-99814000D01*
X193270143Y-99766381D01*
X193365381Y-99766381D01*
X193365381Y-98766381D02*
X193365381Y-99337810D01*
X193365381Y-99052096D02*
X192365381Y-99052096D01*
X192508238Y-99147334D01*
X192603476Y-99242572D01*
X192651095Y-99337810D01*
X192698714Y-97909238D02*
X193365381Y-97909238D01*
X192698714Y-98337810D02*
X193222524Y-98337810D01*
X193317762Y-98290191D01*
X193365381Y-98194953D01*
X193365381Y-98052095D01*
X193317762Y-97956857D01*
X193270143Y-97909238D01*
X133183334Y-106021143D02*
X133135715Y-106068762D01*
X132992858Y-106116381D01*
X132897620Y-106116381D01*
X132754762Y-106068762D01*
X132659524Y-105973524D01*
X132611905Y-105878286D01*
X132564286Y-105687810D01*
X132564286Y-105544952D01*
X132611905Y-105354476D01*
X132659524Y-105259238D01*
X132754762Y-105164000D01*
X132897620Y-105116381D01*
X132992858Y-105116381D01*
X133135715Y-105164000D01*
X133183334Y-105211619D01*
X134135715Y-106116381D02*
X133564286Y-106116381D01*
X133850000Y-106116381D02*
X133850000Y-105116381D01*
X133754762Y-105259238D01*
X133659524Y-105354476D01*
X133564286Y-105402095D01*
X131881714Y-109815381D02*
X131976953Y-109815381D01*
X132072191Y-109863000D01*
X132119810Y-109910619D01*
X132167429Y-110005857D01*
X132215048Y-110196333D01*
X132215048Y-110434429D01*
X132167429Y-110624905D01*
X132119810Y-110720143D01*
X132072191Y-110767762D01*
X131976953Y-110815381D01*
X131881714Y-110815381D01*
X131786476Y-110767762D01*
X131738857Y-110720143D01*
X131691238Y-110624905D01*
X131643619Y-110434429D01*
X131643619Y-110196333D01*
X131691238Y-110005857D01*
X131738857Y-109910619D01*
X131786476Y-109863000D01*
X131881714Y-109815381D01*
X132643619Y-110720143D02*
X132691238Y-110767762D01*
X132643619Y-110815381D01*
X132596000Y-110767762D01*
X132643619Y-110720143D01*
X132643619Y-110815381D01*
X133643619Y-110815381D02*
X133072190Y-110815381D01*
X133357904Y-110815381D02*
X133357904Y-109815381D01*
X133262666Y-109958238D01*
X133167428Y-110053476D01*
X133072190Y-110101095D01*
X134500762Y-110148714D02*
X134500762Y-110815381D01*
X134072190Y-110148714D02*
X134072190Y-110672524D01*
X134119809Y-110767762D01*
X134215047Y-110815381D01*
X134357905Y-110815381D01*
X134453143Y-110767762D01*
X134500762Y-110720143D01*
X143343334Y-106021143D02*
X143295715Y-106068762D01*
X143152858Y-106116381D01*
X143057620Y-106116381D01*
X142914762Y-106068762D01*
X142819524Y-105973524D01*
X142771905Y-105878286D01*
X142724286Y-105687810D01*
X142724286Y-105544952D01*
X142771905Y-105354476D01*
X142819524Y-105259238D01*
X142914762Y-105164000D01*
X143057620Y-105116381D01*
X143152858Y-105116381D01*
X143295715Y-105164000D01*
X143343334Y-105211619D01*
X143724286Y-105211619D02*
X143771905Y-105164000D01*
X143867143Y-105116381D01*
X144105239Y-105116381D01*
X144200477Y-105164000D01*
X144248096Y-105211619D01*
X144295715Y-105306857D01*
X144295715Y-105402095D01*
X144248096Y-105544952D01*
X143676667Y-106116381D01*
X144295715Y-106116381D01*
X142295714Y-109688381D02*
X142390953Y-109688381D01*
X142486191Y-109736000D01*
X142533810Y-109783619D01*
X142581429Y-109878857D01*
X142629048Y-110069333D01*
X142629048Y-110307429D01*
X142581429Y-110497905D01*
X142533810Y-110593143D01*
X142486191Y-110640762D01*
X142390953Y-110688381D01*
X142295714Y-110688381D01*
X142200476Y-110640762D01*
X142152857Y-110593143D01*
X142105238Y-110497905D01*
X142057619Y-110307429D01*
X142057619Y-110069333D01*
X142105238Y-109878857D01*
X142152857Y-109783619D01*
X142200476Y-109736000D01*
X142295714Y-109688381D01*
X143057619Y-110593143D02*
X143105238Y-110640762D01*
X143057619Y-110688381D01*
X143010000Y-110640762D01*
X143057619Y-110593143D01*
X143057619Y-110688381D01*
X144057619Y-110688381D02*
X143486190Y-110688381D01*
X143771904Y-110688381D02*
X143771904Y-109688381D01*
X143676666Y-109831238D01*
X143581428Y-109926476D01*
X143486190Y-109974095D01*
X144914762Y-110021714D02*
X144914762Y-110688381D01*
X144486190Y-110021714D02*
X144486190Y-110545524D01*
X144533809Y-110640762D01*
X144629047Y-110688381D01*
X144771905Y-110688381D01*
X144867143Y-110640762D01*
X144914762Y-110593143D01*
X138263334Y-100052143D02*
X138215715Y-100099762D01*
X138072858Y-100147381D01*
X137977620Y-100147381D01*
X137834762Y-100099762D01*
X137739524Y-100004524D01*
X137691905Y-99909286D01*
X137644286Y-99718810D01*
X137644286Y-99575952D01*
X137691905Y-99385476D01*
X137739524Y-99290238D01*
X137834762Y-99195000D01*
X137977620Y-99147381D01*
X138072858Y-99147381D01*
X138215715Y-99195000D01*
X138263334Y-99242619D01*
X138596667Y-99147381D02*
X139215715Y-99147381D01*
X138882381Y-99528333D01*
X139025239Y-99528333D01*
X139120477Y-99575952D01*
X139168096Y-99623571D01*
X139215715Y-99718810D01*
X139215715Y-99956905D01*
X139168096Y-100052143D01*
X139120477Y-100099762D01*
X139025239Y-100147381D01*
X138739524Y-100147381D01*
X138644286Y-100099762D01*
X138596667Y-100052143D01*
X133831905Y-102615714D02*
X133831905Y-103282381D01*
X133593809Y-102234762D02*
X133355714Y-102949048D01*
X133974762Y-102949048D01*
X134260476Y-102282381D02*
X134927143Y-102282381D01*
X134498571Y-103282381D01*
X135736667Y-102615714D02*
X135736667Y-103282381D01*
X135308095Y-102615714D02*
X135308095Y-103139524D01*
X135355714Y-103234762D01*
X135450952Y-103282381D01*
X135593810Y-103282381D01*
X135689048Y-103234762D01*
X135736667Y-103187143D01*
X143343334Y-100552381D02*
X143010000Y-100076190D01*
X142771905Y-100552381D02*
X142771905Y-99552381D01*
X143152858Y-99552381D01*
X143248096Y-99600000D01*
X143295715Y-99647619D01*
X143343334Y-99742857D01*
X143343334Y-99885714D01*
X143295715Y-99980952D01*
X143248096Y-100028571D01*
X143152858Y-100076190D01*
X142771905Y-100076190D01*
X144295715Y-100552381D02*
X143724286Y-100552381D01*
X144010000Y-100552381D02*
X144010000Y-99552381D01*
X143914762Y-99695238D01*
X143819524Y-99790476D01*
X143724286Y-99838095D01*
X142914762Y-103552381D02*
X142343333Y-103552381D01*
X142629047Y-103552381D02*
X142629047Y-102552381D01*
X142533809Y-102695238D01*
X142438571Y-102790476D01*
X142343333Y-102838095D01*
X143533809Y-102552381D02*
X143629048Y-102552381D01*
X143724286Y-102600000D01*
X143771905Y-102647619D01*
X143819524Y-102742857D01*
X143867143Y-102933333D01*
X143867143Y-103171429D01*
X143819524Y-103361905D01*
X143771905Y-103457143D01*
X143724286Y-103504762D01*
X143629048Y-103552381D01*
X143533809Y-103552381D01*
X143438571Y-103504762D01*
X143390952Y-103457143D01*
X143343333Y-103361905D01*
X143295714Y-103171429D01*
X143295714Y-102933333D01*
X143343333Y-102742857D01*
X143390952Y-102647619D01*
X143438571Y-102600000D01*
X143533809Y-102552381D01*
X144295714Y-103552381D02*
X144295714Y-102552381D01*
X144390952Y-103171429D02*
X144676667Y-103552381D01*
X144676667Y-102885714D02*
X144295714Y-103266667D01*
X137718095Y-103727381D02*
X137718095Y-104536905D01*
X137765714Y-104632143D01*
X137813333Y-104679762D01*
X137908571Y-104727381D01*
X138099048Y-104727381D01*
X138194286Y-104679762D01*
X138241905Y-104632143D01*
X138289524Y-104536905D01*
X138289524Y-103727381D01*
X139289524Y-104727381D02*
X138718095Y-104727381D01*
X139003809Y-104727381D02*
X139003809Y-103727381D01*
X138908571Y-103870238D01*
X138813333Y-103965476D01*
X138718095Y-104013095D01*
X135287143Y-112212381D02*
X135287143Y-111212381D01*
X135858572Y-112212381D01*
X135858572Y-111212381D01*
X136620477Y-111212381D02*
X136620477Y-111926667D01*
X136572857Y-112069524D01*
X136477619Y-112164762D01*
X136334762Y-112212381D01*
X136239524Y-112212381D01*
X137096667Y-112212381D02*
X137096667Y-111212381D01*
X137430001Y-111926667D01*
X137763334Y-111212381D01*
X137763334Y-112212381D01*
X138191905Y-111307619D02*
X138239524Y-111260000D01*
X138334762Y-111212381D01*
X138572858Y-111212381D01*
X138668096Y-111260000D01*
X138715715Y-111307619D01*
X138763334Y-111402857D01*
X138763334Y-111498095D01*
X138715715Y-111640952D01*
X138144286Y-112212381D01*
X138763334Y-112212381D01*
X139334762Y-111640952D02*
X139239524Y-111593333D01*
X139191905Y-111545714D01*
X139144286Y-111450476D01*
X139144286Y-111402857D01*
X139191905Y-111307619D01*
X139239524Y-111260000D01*
X139334762Y-111212381D01*
X139525239Y-111212381D01*
X139620477Y-111260000D01*
X139668096Y-111307619D01*
X139715715Y-111402857D01*
X139715715Y-111450476D01*
X139668096Y-111545714D01*
X139620477Y-111593333D01*
X139525239Y-111640952D01*
X139334762Y-111640952D01*
X139239524Y-111688571D01*
X139191905Y-111736190D01*
X139144286Y-111831429D01*
X139144286Y-112021905D01*
X139191905Y-112117143D01*
X139239524Y-112164762D01*
X139334762Y-112212381D01*
X139525239Y-112212381D01*
X139620477Y-112164762D01*
X139668096Y-112117143D01*
X139715715Y-112021905D01*
X139715715Y-111831429D01*
X139668096Y-111736190D01*
X139620477Y-111688571D01*
X139525239Y-111640952D01*
X140287143Y-111640952D02*
X140191905Y-111593333D01*
X140144286Y-111545714D01*
X140096667Y-111450476D01*
X140096667Y-111402857D01*
X140144286Y-111307619D01*
X140191905Y-111260000D01*
X140287143Y-111212381D01*
X140477620Y-111212381D01*
X140572858Y-111260000D01*
X140620477Y-111307619D01*
X140668096Y-111402857D01*
X140668096Y-111450476D01*
X140620477Y-111545714D01*
X140572858Y-111593333D01*
X140477620Y-111640952D01*
X140287143Y-111640952D01*
X140191905Y-111688571D01*
X140144286Y-111736190D01*
X140096667Y-111831429D01*
X140096667Y-112021905D01*
X140144286Y-112117143D01*
X140191905Y-112164762D01*
X140287143Y-112212381D01*
X140477620Y-112212381D01*
X140572858Y-112164762D01*
X140620477Y-112117143D01*
X140668096Y-112021905D01*
X140668096Y-111831429D01*
X140620477Y-111736190D01*
X140572858Y-111688571D01*
X140477620Y-111640952D01*
X141525239Y-111545714D02*
X141525239Y-112212381D01*
X141287143Y-111164762D02*
X141049048Y-111879048D01*
X141668096Y-111879048D01*
X172021667Y-108354762D02*
X172164524Y-108402381D01*
X172402620Y-108402381D01*
X172497858Y-108354762D01*
X172545477Y-108307143D01*
X172593096Y-108211905D01*
X172593096Y-108116667D01*
X172545477Y-108021429D01*
X172497858Y-107973810D01*
X172402620Y-107926190D01*
X172212143Y-107878571D01*
X172116905Y-107830952D01*
X172069286Y-107783333D01*
X172021667Y-107688095D01*
X172021667Y-107592857D01*
X172069286Y-107497619D01*
X172116905Y-107450000D01*
X172212143Y-107402381D01*
X172450239Y-107402381D01*
X172593096Y-107450000D01*
X172926429Y-107402381D02*
X173164524Y-108402381D01*
X173355001Y-107688095D01*
X173545477Y-108402381D01*
X173783572Y-107402381D01*
X174116905Y-107497619D02*
X174164524Y-107450000D01*
X174259762Y-107402381D01*
X174497858Y-107402381D01*
X174593096Y-107450000D01*
X174640715Y-107497619D01*
X174688334Y-107592857D01*
X174688334Y-107688095D01*
X174640715Y-107830952D01*
X174069286Y-108402381D01*
X174688334Y-108402381D01*
X180864000Y-108402381D02*
X180864000Y-107402381D01*
X181530666Y-107402381D02*
X181721143Y-107402381D01*
X181816381Y-107450000D01*
X181911619Y-107545238D01*
X181959238Y-107735714D01*
X181959238Y-108069048D01*
X181911619Y-108259524D01*
X181816381Y-108354762D01*
X181721143Y-108402381D01*
X181530666Y-108402381D01*
X181435428Y-108354762D01*
X181340190Y-108259524D01*
X181292571Y-108069048D01*
X181292571Y-107735714D01*
X181340190Y-107545238D01*
X181435428Y-107450000D01*
X181530666Y-107402381D01*
X182578285Y-107402381D02*
X182673524Y-107402381D01*
X182768762Y-107450000D01*
X182816381Y-107497619D01*
X182864000Y-107592857D01*
X182911619Y-107783333D01*
X182911619Y-108021429D01*
X182864000Y-108211905D01*
X182816381Y-108307143D01*
X182768762Y-108354762D01*
X182673524Y-108402381D01*
X182578285Y-108402381D01*
X182483047Y-108354762D01*
X182435428Y-108307143D01*
X182387809Y-108211905D01*
X182340190Y-108021429D01*
X182340190Y-107783333D01*
X182387809Y-107592857D01*
X182435428Y-107497619D01*
X182483047Y-107450000D01*
X182578285Y-107402381D01*
X172021667Y-112164762D02*
X172164524Y-112212381D01*
X172402620Y-112212381D01*
X172497858Y-112164762D01*
X172545477Y-112117143D01*
X172593096Y-112021905D01*
X172593096Y-111926667D01*
X172545477Y-111831429D01*
X172497858Y-111783810D01*
X172402620Y-111736190D01*
X172212143Y-111688571D01*
X172116905Y-111640952D01*
X172069286Y-111593333D01*
X172021667Y-111498095D01*
X172021667Y-111402857D01*
X172069286Y-111307619D01*
X172116905Y-111260000D01*
X172212143Y-111212381D01*
X172450239Y-111212381D01*
X172593096Y-111260000D01*
X172926429Y-111212381D02*
X173164524Y-112212381D01*
X173355001Y-111498095D01*
X173545477Y-112212381D01*
X173783572Y-111212381D01*
X174688334Y-112212381D02*
X174116905Y-112212381D01*
X174402619Y-112212381D02*
X174402619Y-111212381D01*
X174307381Y-111355238D01*
X174212143Y-111450476D01*
X174116905Y-111498095D01*
X181427619Y-112212381D02*
X181094285Y-111736190D01*
X180856190Y-112212381D02*
X180856190Y-111212381D01*
X181237143Y-111212381D01*
X181332381Y-111260000D01*
X181380000Y-111307619D01*
X181427619Y-111402857D01*
X181427619Y-111545714D01*
X181380000Y-111640952D01*
X181332381Y-111688571D01*
X181237143Y-111736190D01*
X180856190Y-111736190D01*
X181856190Y-111688571D02*
X182189524Y-111688571D01*
X182332381Y-112212381D02*
X181856190Y-112212381D01*
X181856190Y-111212381D01*
X182332381Y-111212381D01*
X182713333Y-112164762D02*
X182856190Y-112212381D01*
X183094286Y-112212381D01*
X183189524Y-112164762D01*
X183237143Y-112117143D01*
X183284762Y-112021905D01*
X183284762Y-111926667D01*
X183237143Y-111831429D01*
X183189524Y-111783810D01*
X183094286Y-111736190D01*
X182903809Y-111688571D01*
X182808571Y-111640952D01*
X182760952Y-111593333D01*
X182713333Y-111498095D01*
X182713333Y-111402857D01*
X182760952Y-111307619D01*
X182808571Y-111260000D01*
X182903809Y-111212381D01*
X183141905Y-111212381D01*
X183284762Y-111260000D01*
X183713333Y-111688571D02*
X184046667Y-111688571D01*
X184189524Y-112212381D02*
X183713333Y-112212381D01*
X183713333Y-111212381D01*
X184189524Y-111212381D01*
X184475238Y-111212381D02*
X185046667Y-111212381D01*
X184760952Y-112212381D02*
X184760952Y-111212381D01*
X146558095Y-91908381D02*
X146558095Y-92717905D01*
X146605714Y-92813143D01*
X146653333Y-92860762D01*
X146748571Y-92908381D01*
X146939048Y-92908381D01*
X147034286Y-92860762D01*
X147081905Y-92813143D01*
X147129524Y-92717905D01*
X147129524Y-91908381D01*
X147558095Y-92003619D02*
X147605714Y-91956000D01*
X147700952Y-91908381D01*
X147939048Y-91908381D01*
X148034286Y-91956000D01*
X148081905Y-92003619D01*
X148129524Y-92098857D01*
X148129524Y-92194095D01*
X148081905Y-92336952D01*
X147510476Y-92908381D01*
X148129524Y-92908381D01*
X151408572Y-94416571D02*
X151741906Y-94416571D01*
X151884763Y-94940381D02*
X151408572Y-94940381D01*
X151408572Y-93940381D01*
X151884763Y-93940381D01*
X152265715Y-94892762D02*
X152408572Y-94940381D01*
X152646668Y-94940381D01*
X152741906Y-94892762D01*
X152789525Y-94845143D01*
X152837144Y-94749905D01*
X152837144Y-94654667D01*
X152789525Y-94559429D01*
X152741906Y-94511810D01*
X152646668Y-94464190D01*
X152456191Y-94416571D01*
X152360953Y-94368952D01*
X152313334Y-94321333D01*
X152265715Y-94226095D01*
X152265715Y-94130857D01*
X152313334Y-94035619D01*
X152360953Y-93988000D01*
X152456191Y-93940381D01*
X152694287Y-93940381D01*
X152837144Y-93988000D01*
X153265715Y-94940381D02*
X153265715Y-93940381D01*
X153646668Y-93940381D01*
X153741906Y-93988000D01*
X153789525Y-94035619D01*
X153837144Y-94130857D01*
X153837144Y-94273714D01*
X153789525Y-94368952D01*
X153741906Y-94416571D01*
X153646668Y-94464190D01*
X153265715Y-94464190D01*
X154265715Y-94559429D02*
X155027620Y-94559429D01*
X155408572Y-93940381D02*
X155646667Y-94940381D01*
X155837144Y-94226095D01*
X156027620Y-94940381D01*
X156265715Y-93940381D01*
X157218096Y-94940381D02*
X156884762Y-94464190D01*
X156646667Y-94940381D02*
X156646667Y-93940381D01*
X157027620Y-93940381D01*
X157122858Y-93988000D01*
X157170477Y-94035619D01*
X157218096Y-94130857D01*
X157218096Y-94273714D01*
X157170477Y-94368952D01*
X157122858Y-94416571D01*
X157027620Y-94464190D01*
X156646667Y-94464190D01*
X157837143Y-93940381D02*
X158027620Y-93940381D01*
X158122858Y-93988000D01*
X158218096Y-94083238D01*
X158265715Y-94273714D01*
X158265715Y-94607048D01*
X158218096Y-94797524D01*
X158122858Y-94892762D01*
X158027620Y-94940381D01*
X157837143Y-94940381D01*
X157741905Y-94892762D01*
X157646667Y-94797524D01*
X157599048Y-94607048D01*
X157599048Y-94273714D01*
X157646667Y-94083238D01*
X157741905Y-93988000D01*
X157837143Y-93940381D01*
X158884762Y-93940381D02*
X159075239Y-93940381D01*
X159170477Y-93988000D01*
X159265715Y-94083238D01*
X159313334Y-94273714D01*
X159313334Y-94607048D01*
X159265715Y-94797524D01*
X159170477Y-94892762D01*
X159075239Y-94940381D01*
X158884762Y-94940381D01*
X158789524Y-94892762D01*
X158694286Y-94797524D01*
X158646667Y-94607048D01*
X158646667Y-94273714D01*
X158694286Y-94083238D01*
X158789524Y-93988000D01*
X158884762Y-93940381D01*
X159741905Y-94940381D02*
X159741905Y-93940381D01*
X160075239Y-94654667D01*
X160408572Y-93940381D01*
X160408572Y-94940381D01*
X160884762Y-94559429D02*
X161646667Y-94559429D01*
X162027619Y-93940381D02*
X162646667Y-93940381D01*
X162313333Y-94321333D01*
X162456191Y-94321333D01*
X162551429Y-94368952D01*
X162599048Y-94416571D01*
X162646667Y-94511810D01*
X162646667Y-94749905D01*
X162599048Y-94845143D01*
X162551429Y-94892762D01*
X162456191Y-94940381D01*
X162170476Y-94940381D01*
X162075238Y-94892762D01*
X162027619Y-94845143D01*
X163027619Y-94035619D02*
X163075238Y-93988000D01*
X163170476Y-93940381D01*
X163408572Y-93940381D01*
X163503810Y-93988000D01*
X163551429Y-94035619D01*
X163599048Y-94130857D01*
X163599048Y-94226095D01*
X163551429Y-94368952D01*
X162980000Y-94940381D01*
X163599048Y-94940381D01*
M02*
