M48
;DRILL file {KiCad 4.0.1-stable} date 2017/04/09 10:59:55
;FORMAT={-:-/ absolute / metric / decimal}
FMAT,2
METRIC,TZ
T1C0.300
T2C0.400
T3C1.016
%
G90
G05
M71
T1
X114.796Y-91.402
X117.609Y-70.136
X117.648Y-77.255
X119.908Y-65.93
X120.355Y-92.796
X121.764Y-81.998
X121.99Y-68.099
X122.701Y-81.361
X122.759Y-80.638
X123.455Y-87.83
X123.627Y-86.654
X123.831Y-79.101
X124.011Y-87.266
X124.115Y-85.491
X124.39Y-82.229
X124.853Y-67.703
X125.103Y-86.041
X125.557Y-72.37
X126.16Y-67.636
X127.536Y-75.696
X128.44Y-71.914
X129.71Y-78.734
X129.846Y-62.057
X130.98Y-76.571
X132.048Y-67.975
X133.323Y-82.18
X139.614Y-37.805
X141.008Y-32.246
X144.58Y-40.905
X144.607Y-102.564
X145.144Y-41.462
X145.756Y-41.077
X146.369Y-42.553
X146.919Y-41.565
X148.48Y-112.501
X150.181Y-41.84
X150.186Y-106.25
X150.23Y-50.773
X150.253Y-107.557
X150.412Y-39.214
X150.525Y-100.362
X150.649Y-110.42
X151.049Y-40.151
X151.772Y-40.209
X152.686Y-114.801
X153.309Y-41.281
X153.676Y-47.16
X154.464Y-103.97
X154.921Y-106.853
X155.155Y-35.098
X155.839Y-48.43
X156.714Y-44.986
X158.246Y-104.874
X159.121Y-101.43
X159.805Y-114.762
X160.04Y-43.007
X160.496Y-45.89
X161.284Y-102.7
X161.651Y-108.579
X162.273Y-35.059
X163.188Y-109.651
X163.911Y-109.709
X164.311Y-39.44
X164.435Y-49.498
X164.548Y-110.646
X164.707Y-42.303
X164.73Y-99.087
X164.774Y-43.61
X164.779Y-108.02
X166.48Y-37.358
X168.041Y-108.295
X168.591Y-107.307
X169.204Y-108.783
X169.816Y-108.398
X170.353Y-47.296
X170.38Y-108.955
X173.952Y-117.614
X175.346Y-112.054
X181.637Y-67.68
X182.912Y-81.885
X183.98Y-73.289
X185.114Y-87.803
X185.25Y-71.126
X186.52Y-77.946
X187.424Y-74.164
X188.8Y-82.224
X189.403Y-77.489
X189.857Y-63.819
X190.107Y-82.157
X190.57Y-67.631
X190.845Y-64.369
X190.948Y-62.594
X191.129Y-70.759
X191.333Y-63.206
X191.505Y-62.03
X192.201Y-69.222
X192.259Y-68.499
X192.97Y-81.761
X193.196Y-67.862
X194.605Y-57.064
X195.052Y-83.93
X197.312Y-72.605
X197.351Y-79.724
X200.164Y-58.458
T2
X125.655Y-57.425
X139.975Y-106.755
X174.985Y-43.105
X189.305Y-92.435
T3
X113.03Y-38.1
X113.03Y-40.64
X113.03Y-43.18
X113.03Y-45.72
X113.03Y-48.26
X113.03Y-50.8
X113.03Y-53.34
X113.03Y-55.88
X113.03Y-58.42
X113.03Y-60.96
X113.03Y-63.5
X113.03Y-66.04
X113.03Y-68.58
X113.03Y-71.12
X113.03Y-73.66
X113.03Y-76.2
X113.03Y-78.74
X113.03Y-81.28
X113.03Y-83.82
X113.03Y-86.36
X113.03Y-88.9
X113.03Y-91.44
X113.03Y-93.98
X113.03Y-96.52
X113.03Y-99.06
X113.03Y-101.6
X113.03Y-104.14
X113.03Y-106.68
X113.03Y-109.22
X113.03Y-111.76
X120.65Y-30.48
X120.65Y-119.38
X123.19Y-30.48
X123.19Y-119.38
X125.73Y-30.48
X125.73Y-119.38
X128.27Y-30.48
X128.27Y-119.38
X130.81Y-30.48
X130.81Y-119.38
X133.35Y-30.48
X133.35Y-119.38
X135.89Y-30.48
X135.89Y-119.38
X138.43Y-30.48
X138.43Y-119.38
X140.97Y-30.48
X140.97Y-119.38
X143.51Y-30.48
X143.51Y-119.38
X146.05Y-30.48
X146.05Y-119.38
X148.59Y-30.48
X148.59Y-119.38
X151.13Y-30.48
X151.13Y-119.38
X153.67Y-30.48
X153.67Y-119.38
X156.21Y-30.48
X156.21Y-119.38
X158.75Y-30.48
X158.75Y-119.38
X161.29Y-30.48
X161.29Y-119.38
X163.83Y-30.48
X163.83Y-119.38
X166.37Y-30.48
X166.37Y-119.38
X168.91Y-30.48
X168.91Y-119.38
X171.45Y-30.48
X171.45Y-119.38
X173.99Y-30.48
X173.99Y-119.38
X176.53Y-30.48
X176.53Y-119.38
X179.07Y-30.48
X179.07Y-119.38
X181.61Y-30.48
X181.61Y-119.38
X184.15Y-30.48
X184.15Y-119.38
X186.69Y-30.48
X186.69Y-119.38
X189.23Y-30.48
X189.23Y-119.38
X191.77Y-30.48
X191.77Y-119.38
X194.31Y-30.48
X194.31Y-119.38
X201.93Y-38.1
X201.93Y-40.64
X201.93Y-43.18
X201.93Y-45.72
X201.93Y-48.26
X201.93Y-50.8
X201.93Y-53.34
X201.93Y-55.88
X201.93Y-58.42
X201.93Y-60.96
X201.93Y-63.5
X201.93Y-66.04
X201.93Y-68.58
X201.93Y-71.12
X201.93Y-73.66
X201.93Y-76.2
X201.93Y-78.74
X201.93Y-81.28
X201.93Y-83.82
X201.93Y-86.36
X201.93Y-88.9
X201.93Y-91.44
X201.93Y-93.98
X201.93Y-96.52
X201.93Y-99.06
X201.93Y-101.6
X201.93Y-104.14
X201.93Y-106.68
X201.93Y-109.22
X201.93Y-111.76
T0
M30
