G04 #@! TF.FileFunction,Copper,L2,Bot,Signal*
%FSLAX46Y46*%
G04 Gerber Fmt 4.6, Leading zero omitted, Abs format (unit mm)*
G04 Created by KiCad (PCBNEW 4.0.1-stable) date 2017/04/09 10:59:51*
%MOMM*%
G01*
G04 APERTURE LIST*
%ADD10C,0.100000*%
%ADD11R,1.727200X2.032000*%
%ADD12O,1.727200X2.032000*%
%ADD13R,2.032000X1.727200*%
%ADD14O,2.032000X1.727200*%
%ADD15C,0.600000*%
%ADD16C,0.500000*%
%ADD17C,0.500000*%
%ADD18C,0.200000*%
G04 APERTURE END LIST*
D10*
D11*
X194310000Y-30480000D03*
D12*
X191770000Y-30480000D03*
X189230000Y-30480000D03*
X186690000Y-30480000D03*
X184150000Y-30480000D03*
X181610000Y-30480000D03*
X179070000Y-30480000D03*
X176530000Y-30480000D03*
X173990000Y-30480000D03*
X171450000Y-30480000D03*
X168910000Y-30480000D03*
X166370000Y-30480000D03*
X163830000Y-30480000D03*
X161290000Y-30480000D03*
X158750000Y-30480000D03*
X156210000Y-30480000D03*
X153670000Y-30480000D03*
X151130000Y-30480000D03*
X148590000Y-30480000D03*
X146050000Y-30480000D03*
X143510000Y-30480000D03*
X140970000Y-30480000D03*
X138430000Y-30480000D03*
X135890000Y-30480000D03*
X133350000Y-30480000D03*
X130810000Y-30480000D03*
X128270000Y-30480000D03*
X125730000Y-30480000D03*
X123190000Y-30480000D03*
X120650000Y-30480000D03*
D13*
X113030000Y-38100000D03*
D14*
X113030000Y-40640000D03*
X113030000Y-43180000D03*
X113030000Y-45720000D03*
X113030000Y-48260000D03*
X113030000Y-50800000D03*
X113030000Y-53340000D03*
X113030000Y-55880000D03*
X113030000Y-58420000D03*
X113030000Y-60960000D03*
X113030000Y-63500000D03*
X113030000Y-66040000D03*
X113030000Y-68580000D03*
X113030000Y-71120000D03*
X113030000Y-73660000D03*
X113030000Y-76200000D03*
X113030000Y-78740000D03*
X113030000Y-81280000D03*
X113030000Y-83820000D03*
X113030000Y-86360000D03*
X113030000Y-88900000D03*
X113030000Y-91440000D03*
X113030000Y-93980000D03*
X113030000Y-96520000D03*
X113030000Y-99060000D03*
X113030000Y-101600000D03*
X113030000Y-104140000D03*
X113030000Y-106680000D03*
X113030000Y-109220000D03*
X113030000Y-111760000D03*
D13*
X201930000Y-111760000D03*
D14*
X201930000Y-109220000D03*
X201930000Y-106680000D03*
X201930000Y-104140000D03*
X201930000Y-101600000D03*
X201930000Y-99060000D03*
X201930000Y-96520000D03*
X201930000Y-93980000D03*
X201930000Y-91440000D03*
X201930000Y-88900000D03*
X201930000Y-86360000D03*
X201930000Y-83820000D03*
X201930000Y-81280000D03*
X201930000Y-78740000D03*
X201930000Y-76200000D03*
X201930000Y-73660000D03*
X201930000Y-71120000D03*
X201930000Y-68580000D03*
X201930000Y-66040000D03*
X201930000Y-63500000D03*
X201930000Y-60960000D03*
X201930000Y-58420000D03*
X201930000Y-55880000D03*
X201930000Y-53340000D03*
X201930000Y-50800000D03*
X201930000Y-48260000D03*
X201930000Y-45720000D03*
X201930000Y-43180000D03*
X201930000Y-40640000D03*
X201930000Y-38100000D03*
D11*
X120650000Y-119380000D03*
D12*
X123190000Y-119380000D03*
X125730000Y-119380000D03*
X128270000Y-119380000D03*
X130810000Y-119380000D03*
X133350000Y-119380000D03*
X135890000Y-119380000D03*
X138430000Y-119380000D03*
X140970000Y-119380000D03*
X143510000Y-119380000D03*
X146050000Y-119380000D03*
X148590000Y-119380000D03*
X151130000Y-119380000D03*
X153670000Y-119380000D03*
X156210000Y-119380000D03*
X158750000Y-119380000D03*
X161290000Y-119380000D03*
X163830000Y-119380000D03*
X166370000Y-119380000D03*
X168910000Y-119380000D03*
X171450000Y-119380000D03*
X173990000Y-119380000D03*
X176530000Y-119380000D03*
X179070000Y-119380000D03*
X181610000Y-119380000D03*
X184150000Y-119380000D03*
X186690000Y-119380000D03*
X189230000Y-119380000D03*
X191770000Y-119380000D03*
X194310000Y-119380000D03*
D15*
X174984900Y-43104800D03*
X125654800Y-57425100D03*
X189305200Y-92434900D03*
X139975100Y-106755200D03*
D16*
X139614300Y-37805500D03*
X170352900Y-47296400D03*
X129846400Y-62057100D03*
X120355500Y-92795700D03*
X194604500Y-57064300D03*
X185113600Y-87802900D03*
X144607100Y-102563600D03*
X175345700Y-112054500D03*
X164707400Y-42302600D03*
X124852600Y-67702600D03*
X190107400Y-82157400D03*
X150252600Y-107557400D03*
X151049200Y-40150900D03*
X122700900Y-81360800D03*
X192259100Y-68499200D03*
X163910800Y-109709100D03*
X153308800Y-41280600D03*
X123830600Y-79101200D03*
X191129400Y-70758800D03*
X161651200Y-108579400D03*
X166480000Y-37358500D03*
X119908500Y-65930000D03*
X195051500Y-83930000D03*
X148480000Y-112501500D03*
X162273500Y-35059100D03*
X117609100Y-70136500D03*
X197350900Y-79723500D03*
X152686500Y-114800900D03*
X146918900Y-41565200D03*
X124115200Y-85491100D03*
X190844800Y-64368900D03*
X168041100Y-108294800D03*
X146368600Y-42553200D03*
X125103200Y-86041400D03*
X189856800Y-63818600D03*
X168591400Y-107306800D03*
X145756200Y-41077200D03*
X123627200Y-86653800D03*
X191332800Y-63206200D03*
X169203800Y-108782800D03*
X145143900Y-41461500D03*
X124011500Y-87266100D03*
X190948500Y-62593900D03*
X169816100Y-108398500D03*
X144580300Y-40904600D03*
X123454600Y-87829700D03*
X191505400Y-62030300D03*
X170379700Y-108955400D03*
X164774300Y-43610300D03*
X126160300Y-67635700D03*
X188799700Y-82224300D03*
X150185700Y-106249700D03*
X150181300Y-41839800D03*
X124389800Y-82228700D03*
X190570200Y-67631300D03*
X164778700Y-108020200D03*
X151772200Y-40208600D03*
X122758600Y-80637800D03*
X192201400Y-69222200D03*
X163187800Y-109651400D03*
X150412400Y-39213900D03*
X121763900Y-81997600D03*
X193196100Y-67862400D03*
X164547600Y-110646100D03*
X155154700Y-35097900D03*
X117647900Y-77255300D03*
X197312100Y-72604700D03*
X159805300Y-114762100D03*
X164311400Y-39439800D03*
X121989800Y-68098600D03*
X192970200Y-81761400D03*
X150648600Y-110420200D03*
X141008000Y-32245900D03*
X114795900Y-91402000D03*
X200164100Y-58458000D03*
X173952000Y-117614100D03*
X160039500Y-43006700D03*
X125556700Y-72370500D03*
X189403300Y-77489500D03*
X154920500Y-106853300D03*
X156714100Y-44986400D03*
X127536400Y-75695900D03*
X187423600Y-74164100D03*
X158245900Y-104873600D03*
X160496400Y-45890000D03*
X128440000Y-71913600D03*
X186520000Y-77946400D03*
X154463600Y-103970000D03*
X153675700Y-47160000D03*
X129710000Y-78734300D03*
X185250000Y-71125700D03*
X161284300Y-102700000D03*
X155839400Y-48430000D03*
X130980000Y-76570600D03*
X183980000Y-73289400D03*
X159120600Y-101430000D03*
X164435100Y-49498100D03*
X132048100Y-67974900D03*
X182911900Y-81885100D03*
X150524900Y-100361900D03*
X150230000Y-50773000D03*
X133323000Y-82180000D03*
X181637000Y-67680000D03*
X164730000Y-99087000D03*
D17*
X189230000Y-30480000D02*
X176605200Y-43104800D01*
X176605200Y-43104800D02*
X174984900Y-43104800D01*
X125654800Y-55804800D02*
X125654800Y-57425100D01*
X113030000Y-43180000D02*
X125654800Y-55804800D01*
X201930000Y-106680000D02*
X189305200Y-94055200D01*
X189305200Y-94055200D02*
X189305200Y-92434900D01*
X138354800Y-106755200D02*
X139975100Y-106755200D01*
X125730000Y-119380000D02*
X138354800Y-106755200D01*
D18*
X139614300Y-37805500D02*
X139614300Y-37887200D01*
X139614300Y-37887200D02*
X146086700Y-44359600D01*
X146086700Y-44359600D02*
X156874700Y-44359600D01*
X156874700Y-44359600D02*
X159811500Y-47296400D01*
X159811500Y-47296400D02*
X170352900Y-47296400D01*
X186690000Y-30480000D02*
X170352900Y-46817100D01*
X170352900Y-46817100D02*
X170352900Y-47296400D01*
X129367100Y-62057100D02*
X129846400Y-62057100D01*
X113030000Y-45720000D02*
X129367100Y-62057100D01*
X129846400Y-72598500D02*
X129846400Y-62057100D01*
X126909600Y-75535300D02*
X129846400Y-72598500D01*
X126909600Y-86323300D02*
X126909600Y-75535300D01*
X120437200Y-92795700D02*
X126909600Y-86323300D01*
X120355500Y-92795700D02*
X120437200Y-92795700D01*
X194604500Y-57064300D02*
X194522800Y-57064300D01*
X194522800Y-57064300D02*
X188050400Y-63536700D01*
X188050400Y-63536700D02*
X188050400Y-74324700D01*
X188050400Y-74324700D02*
X185113600Y-77261500D01*
X185113600Y-77261500D02*
X185113600Y-87802900D01*
X201930000Y-104140000D02*
X185592900Y-87802900D01*
X185592900Y-87802900D02*
X185113600Y-87802900D01*
X144607100Y-103042900D02*
X144607100Y-102563600D01*
X128270000Y-119380000D02*
X144607100Y-103042900D01*
X155148500Y-102563600D02*
X144607100Y-102563600D01*
X158085300Y-105500400D02*
X155148500Y-102563600D01*
X168873300Y-105500400D02*
X158085300Y-105500400D01*
X175345700Y-111972800D02*
X168873300Y-105500400D01*
X175345700Y-112054500D02*
X175345700Y-111972800D01*
X176530000Y-30480000D02*
X164707400Y-42302600D01*
X113030000Y-55880000D02*
X124852600Y-67702600D01*
X201930000Y-93980000D02*
X190107400Y-82157400D01*
X138430000Y-119380000D02*
X150252600Y-107557400D01*
X173990000Y-30480000D02*
X173990000Y-31226600D01*
X173990000Y-31226600D02*
X163364600Y-41852000D01*
X163364600Y-41852000D02*
X152564400Y-41852000D01*
X152564400Y-41852000D02*
X151049200Y-40336800D01*
X151049200Y-40336800D02*
X151049200Y-40150900D01*
X122886800Y-81360800D02*
X122700900Y-81360800D01*
X124402000Y-79845600D02*
X122886800Y-81360800D01*
X124402000Y-69045400D02*
X124402000Y-79845600D01*
X113776600Y-58420000D02*
X124402000Y-69045400D01*
X113030000Y-58420000D02*
X113776600Y-58420000D01*
X201930000Y-91440000D02*
X201183400Y-91440000D01*
X201183400Y-91440000D02*
X190558000Y-80814600D01*
X190558000Y-80814600D02*
X190558000Y-70014400D01*
X190558000Y-70014400D02*
X192073200Y-68499200D01*
X192073200Y-68499200D02*
X192259100Y-68499200D01*
X163910800Y-109523200D02*
X163910800Y-109709100D01*
X162395600Y-108008000D02*
X163910800Y-109523200D01*
X151595400Y-108008000D02*
X162395600Y-108008000D01*
X140970000Y-118633400D02*
X151595400Y-108008000D01*
X140970000Y-119380000D02*
X140970000Y-118633400D01*
X171450000Y-33200300D02*
X163369700Y-41280600D01*
X163369700Y-41280600D02*
X153308800Y-41280600D01*
X171450000Y-30480000D02*
X171450000Y-33200300D01*
X113030000Y-60960000D02*
X115750300Y-60960000D01*
X123830600Y-69040300D02*
X123830600Y-79101200D01*
X115750300Y-60960000D02*
X123830600Y-69040300D01*
X199209700Y-88900000D02*
X191129400Y-80819700D01*
X191129400Y-80819700D02*
X191129400Y-70758800D01*
X201930000Y-88900000D02*
X199209700Y-88900000D01*
X143510000Y-119380000D02*
X143510000Y-116659700D01*
X151590300Y-108579400D02*
X161651200Y-108579400D01*
X143510000Y-116659700D02*
X151590300Y-108579400D01*
X168910000Y-30480000D02*
X168910000Y-34928500D01*
X168910000Y-34928500D02*
X166480000Y-37358500D01*
X117478500Y-63500000D02*
X119908500Y-65930000D01*
X113030000Y-63500000D02*
X117478500Y-63500000D01*
X201930000Y-86360000D02*
X197481500Y-86360000D01*
X197481500Y-86360000D02*
X195051500Y-83930000D01*
X146050000Y-114931500D02*
X148480000Y-112501500D01*
X146050000Y-119380000D02*
X146050000Y-114931500D01*
X166370000Y-30480000D02*
X166370000Y-30962600D01*
X166370000Y-30962600D02*
X162273500Y-35059100D01*
X113512600Y-66040000D02*
X117609100Y-70136500D01*
X113030000Y-66040000D02*
X113512600Y-66040000D01*
X201930000Y-83820000D02*
X201447400Y-83820000D01*
X201447400Y-83820000D02*
X197350900Y-79723500D01*
X148590000Y-118897400D02*
X152686500Y-114800900D01*
X148590000Y-119380000D02*
X148590000Y-118897400D01*
X153670000Y-30480000D02*
X146918900Y-37231100D01*
X146918900Y-37231100D02*
X146918900Y-41565200D01*
X119781100Y-85491100D02*
X124115200Y-85491100D01*
X113030000Y-78740000D02*
X119781100Y-85491100D01*
X201930000Y-71120000D02*
X195178900Y-64368900D01*
X195178900Y-64368900D02*
X190844800Y-64368900D01*
X168041100Y-112628900D02*
X168041100Y-108294800D01*
X161290000Y-119380000D02*
X168041100Y-112628900D01*
X151130000Y-30480000D02*
X146368600Y-35241400D01*
X146368600Y-35241400D02*
X146368600Y-42553200D01*
X117791400Y-86041400D02*
X125103200Y-86041400D01*
X113030000Y-81280000D02*
X117791400Y-86041400D01*
X201930000Y-68580000D02*
X197168600Y-63818600D01*
X197168600Y-63818600D02*
X189856800Y-63818600D01*
X168591400Y-114618600D02*
X168591400Y-107306800D01*
X163830000Y-119380000D02*
X168591400Y-114618600D01*
X148590000Y-30480000D02*
X145756200Y-33313800D01*
X145756200Y-33313800D02*
X145756200Y-41077200D01*
X115863800Y-86653800D02*
X123627200Y-86653800D01*
X113030000Y-83820000D02*
X115863800Y-86653800D01*
X201930000Y-66040000D02*
X199096200Y-63206200D01*
X199096200Y-63206200D02*
X191332800Y-63206200D01*
X169203800Y-116546200D02*
X169203800Y-108782800D01*
X166370000Y-119380000D02*
X169203800Y-116546200D01*
X146050000Y-30480000D02*
X145143900Y-31386100D01*
X145143900Y-31386100D02*
X145143900Y-41461500D01*
X113936100Y-87266100D02*
X124011500Y-87266100D01*
X113030000Y-86360000D02*
X113936100Y-87266100D01*
X201930000Y-63500000D02*
X201023900Y-62593900D01*
X201023900Y-62593900D02*
X190948500Y-62593900D01*
X169816100Y-118473900D02*
X169816100Y-108398500D01*
X168910000Y-119380000D02*
X169816100Y-118473900D01*
X143510000Y-30480000D02*
X144580300Y-31550300D01*
X144580300Y-31550300D02*
X144580300Y-40904600D01*
X114100300Y-87829700D02*
X123454600Y-87829700D01*
X113030000Y-88900000D02*
X114100300Y-87829700D01*
X201930000Y-60960000D02*
X200859700Y-62030300D01*
X200859700Y-62030300D02*
X191505400Y-62030300D01*
X170379700Y-118309700D02*
X170379700Y-108955400D01*
X171450000Y-119380000D02*
X170379700Y-118309700D01*
X181610000Y-30480000D02*
X168479700Y-43610300D01*
X168479700Y-43610300D02*
X164774300Y-43610300D01*
X126160300Y-63930300D02*
X126160300Y-67635700D01*
X113030000Y-50800000D02*
X126160300Y-63930300D01*
X201930000Y-99060000D02*
X188799700Y-85929700D01*
X188799700Y-85929700D02*
X188799700Y-82224300D01*
X146480300Y-106249700D02*
X150185700Y-106249700D01*
X133350000Y-119380000D02*
X146480300Y-106249700D01*
X156210000Y-30480000D02*
X149850400Y-36839600D01*
X149850400Y-36839600D02*
X149850400Y-41508900D01*
X149850400Y-41508900D02*
X150181300Y-41839800D01*
X124058900Y-82559600D02*
X124389800Y-82228700D01*
X119389600Y-82559600D02*
X124058900Y-82559600D01*
X113030000Y-76200000D02*
X119389600Y-82559600D01*
X201930000Y-73660000D02*
X195570400Y-67300400D01*
X195570400Y-67300400D02*
X190901100Y-67300400D01*
X190901100Y-67300400D02*
X190570200Y-67631300D01*
X165109600Y-108351100D02*
X164778700Y-108020200D01*
X165109600Y-113020400D02*
X165109600Y-108351100D01*
X158750000Y-119380000D02*
X165109600Y-113020400D01*
X158750000Y-30480000D02*
X151772200Y-37457800D01*
X151772200Y-37457800D02*
X151772200Y-40208600D01*
X120007800Y-80637800D02*
X122758600Y-80637800D01*
X113030000Y-73660000D02*
X120007800Y-80637800D01*
X201930000Y-76200000D02*
X194952200Y-69222200D01*
X194952200Y-69222200D02*
X192201400Y-69222200D01*
X163187800Y-112402200D02*
X163187800Y-109651400D01*
X156210000Y-119380000D02*
X163187800Y-112402200D01*
X184150000Y-30480000D02*
X170466600Y-44163400D01*
X170466600Y-44163400D02*
X163124000Y-44163400D01*
X163124000Y-44163400D02*
X161261400Y-42300800D01*
X161261400Y-42300800D02*
X152355700Y-42300800D01*
X152355700Y-42300800D02*
X150412400Y-40357500D01*
X150412400Y-40357500D02*
X150412400Y-39213900D01*
X122907500Y-81997600D02*
X121763900Y-81997600D01*
X124850800Y-80054300D02*
X122907500Y-81997600D01*
X124850800Y-71148600D02*
X124850800Y-80054300D01*
X126713400Y-69286000D02*
X124850800Y-71148600D01*
X126713400Y-61943400D02*
X126713400Y-69286000D01*
X113030000Y-48260000D02*
X126713400Y-61943400D01*
X201930000Y-101600000D02*
X188246600Y-87916600D01*
X188246600Y-87916600D02*
X188246600Y-80574000D01*
X188246600Y-80574000D02*
X190109200Y-78711400D01*
X190109200Y-78711400D02*
X190109200Y-69805700D01*
X190109200Y-69805700D02*
X192052500Y-67862400D01*
X192052500Y-67862400D02*
X193196100Y-67862400D01*
X164547600Y-109502500D02*
X164547600Y-110646100D01*
X162604300Y-107559200D02*
X164547600Y-109502500D01*
X153698600Y-107559200D02*
X162604300Y-107559200D01*
X151836000Y-105696600D02*
X153698600Y-107559200D01*
X144493400Y-105696600D02*
X151836000Y-105696600D01*
X130810000Y-119380000D02*
X144493400Y-105696600D01*
X161290000Y-30480000D02*
X156672100Y-35097900D01*
X156672100Y-35097900D02*
X155154700Y-35097900D01*
X117647900Y-75737900D02*
X117647900Y-77255300D01*
X113030000Y-71120000D02*
X117647900Y-75737900D01*
X201930000Y-78740000D02*
X197312100Y-74122100D01*
X197312100Y-74122100D02*
X197312100Y-72604700D01*
X158287900Y-114762100D02*
X159805300Y-114762100D01*
X153670000Y-119380000D02*
X158287900Y-114762100D01*
X163830000Y-30480000D02*
X161716100Y-32593900D01*
X161716100Y-32593900D02*
X161716100Y-36844500D01*
X161716100Y-36844500D02*
X164311400Y-39439800D01*
X119394500Y-70693900D02*
X121989800Y-68098600D01*
X115143900Y-70693900D02*
X119394500Y-70693900D01*
X113030000Y-68580000D02*
X115143900Y-70693900D01*
X201930000Y-81280000D02*
X199816100Y-79166100D01*
X199816100Y-79166100D02*
X195565500Y-79166100D01*
X195565500Y-79166100D02*
X192970200Y-81761400D01*
X153243900Y-113015500D02*
X150648600Y-110420200D01*
X153243900Y-117266100D02*
X153243900Y-113015500D01*
X151130000Y-119380000D02*
X153243900Y-117266100D01*
X135890000Y-30480000D02*
X137655900Y-32245900D01*
X137655900Y-32245900D02*
X141008000Y-32245900D01*
X114795900Y-94754100D02*
X114795900Y-91402000D01*
X113030000Y-96520000D02*
X114795900Y-94754100D01*
X201930000Y-53340000D02*
X200164100Y-55105900D01*
X200164100Y-55105900D02*
X200164100Y-58458000D01*
X177304100Y-117614100D02*
X173952000Y-117614100D01*
X179070000Y-119380000D02*
X177304100Y-117614100D01*
X140970000Y-30480000D02*
X142917500Y-32427500D01*
X142917500Y-32427500D02*
X142917500Y-40048500D01*
X142917500Y-40048500D02*
X145979400Y-43110400D01*
X145979400Y-43110400D02*
X159935800Y-43110400D01*
X159935800Y-43110400D02*
X160039500Y-43006700D01*
X125660400Y-72474200D02*
X125556700Y-72370500D01*
X125660400Y-86430600D02*
X125660400Y-72474200D01*
X122598500Y-89492500D02*
X125660400Y-86430600D01*
X114977500Y-89492500D02*
X122598500Y-89492500D01*
X113030000Y-91440000D02*
X114977500Y-89492500D01*
X201930000Y-58420000D02*
X199982500Y-60367500D01*
X199982500Y-60367500D02*
X192361500Y-60367500D01*
X192361500Y-60367500D02*
X189299600Y-63429400D01*
X189299600Y-63429400D02*
X189299600Y-77385800D01*
X189299600Y-77385800D02*
X189403300Y-77489500D01*
X155024200Y-106749600D02*
X154920500Y-106853300D01*
X168980600Y-106749600D02*
X155024200Y-106749600D01*
X172042500Y-109811500D02*
X168980600Y-106749600D01*
X172042500Y-117432500D02*
X172042500Y-109811500D01*
X173990000Y-119380000D02*
X172042500Y-117432500D01*
X130810000Y-30480000D02*
X145090000Y-44760000D01*
X145090000Y-44760000D02*
X156487700Y-44760000D01*
X156487700Y-44760000D02*
X156714100Y-44986400D01*
X127310000Y-75922300D02*
X127536400Y-75695900D01*
X127310000Y-87320000D02*
X127310000Y-75922300D01*
X113030000Y-101600000D02*
X127310000Y-87320000D01*
X201930000Y-48260000D02*
X187650000Y-62540000D01*
X187650000Y-62540000D02*
X187650000Y-73937700D01*
X187650000Y-73937700D02*
X187423600Y-74164100D01*
X158472300Y-105100000D02*
X158245900Y-104873600D01*
X169870000Y-105100000D02*
X158472300Y-105100000D01*
X184150000Y-119380000D02*
X169870000Y-105100000D01*
X133350000Y-30480000D02*
X140581800Y-37711800D01*
X140581800Y-37711800D02*
X140581800Y-38279200D01*
X140581800Y-38279200D02*
X145955900Y-43653300D01*
X145955900Y-43653300D02*
X158259700Y-43653300D01*
X158259700Y-43653300D02*
X160496400Y-45890000D01*
X126203300Y-74150300D02*
X128440000Y-71913600D01*
X126203300Y-86454100D02*
X126203300Y-74150300D01*
X120829200Y-91828200D02*
X126203300Y-86454100D01*
X120261800Y-91828200D02*
X120829200Y-91828200D01*
X113030000Y-99060000D02*
X120261800Y-91828200D01*
X201930000Y-50800000D02*
X194698200Y-58031800D01*
X194698200Y-58031800D02*
X194130800Y-58031800D01*
X194130800Y-58031800D02*
X188756700Y-63405900D01*
X188756700Y-63405900D02*
X188756700Y-75709700D01*
X188756700Y-75709700D02*
X186520000Y-77946400D01*
X156700300Y-106206700D02*
X154463600Y-103970000D01*
X169004100Y-106206700D02*
X156700300Y-106206700D01*
X174378200Y-111580800D02*
X169004100Y-106206700D01*
X174378200Y-112148200D02*
X174378200Y-111580800D01*
X181610000Y-119380000D02*
X174378200Y-112148200D01*
X125730000Y-30480000D02*
X142410000Y-47160000D01*
X142410000Y-47160000D02*
X153675700Y-47160000D01*
X129710000Y-90000000D02*
X129710000Y-78734300D01*
X113030000Y-106680000D02*
X129710000Y-90000000D01*
X201930000Y-43180000D02*
X185250000Y-59860000D01*
X185250000Y-59860000D02*
X185250000Y-71125700D01*
X172550000Y-102700000D02*
X161284300Y-102700000D01*
X189230000Y-119380000D02*
X172550000Y-102700000D01*
X128270000Y-30480000D02*
X142950400Y-45160400D01*
X142950400Y-45160400D02*
X152569800Y-45160400D01*
X152569800Y-45160400D02*
X155839400Y-48430000D01*
X127710400Y-79840200D02*
X130980000Y-76570600D01*
X127710400Y-89459600D02*
X127710400Y-79840200D01*
X113030000Y-104140000D02*
X127710400Y-89459600D01*
X201930000Y-45720000D02*
X187249600Y-60400400D01*
X187249600Y-60400400D02*
X187249600Y-70019800D01*
X187249600Y-70019800D02*
X183980000Y-73289400D01*
X162390200Y-104699600D02*
X159120600Y-101430000D01*
X172009600Y-104699600D02*
X162390200Y-104699600D01*
X186690000Y-119380000D02*
X172009600Y-104699600D01*
X120650000Y-30480000D02*
X124224400Y-34054400D01*
X124224400Y-34054400D02*
X125927200Y-34054400D01*
X125927200Y-34054400D02*
X143213000Y-51340200D01*
X143213000Y-51340200D02*
X162593000Y-51340200D01*
X162593000Y-51340200D02*
X164435100Y-49498100D01*
X133890200Y-69817000D02*
X132048100Y-67974900D01*
X133890200Y-89197000D02*
X133890200Y-69817000D01*
X116604400Y-106482800D02*
X133890200Y-89197000D01*
X116604400Y-108185600D02*
X116604400Y-106482800D01*
X113030000Y-111760000D02*
X116604400Y-108185600D01*
X201930000Y-38100000D02*
X198355600Y-41674400D01*
X198355600Y-41674400D02*
X198355600Y-43377200D01*
X198355600Y-43377200D02*
X181069800Y-60663000D01*
X181069800Y-60663000D02*
X181069800Y-80043000D01*
X181069800Y-80043000D02*
X182911900Y-81885100D01*
X152367000Y-98519800D02*
X150524900Y-100361900D01*
X171747000Y-98519800D02*
X152367000Y-98519800D01*
X189032800Y-115805600D02*
X171747000Y-98519800D01*
X190735600Y-115805600D02*
X189032800Y-115805600D01*
X194310000Y-119380000D02*
X190735600Y-115805600D01*
X123190000Y-30480000D02*
X143483000Y-50773000D01*
X143483000Y-50773000D02*
X150230000Y-50773000D01*
X133323000Y-88927000D02*
X133323000Y-82180000D01*
X113030000Y-109220000D02*
X133323000Y-88927000D01*
X201930000Y-40640000D02*
X181637000Y-60933000D01*
X181637000Y-60933000D02*
X181637000Y-67680000D01*
X171477000Y-99087000D02*
X164730000Y-99087000D01*
X191770000Y-119380000D02*
X171477000Y-99087000D01*
M02*
