G04 #@! TF.FileFunction,Legend,Bot*
%FSLAX46Y46*%
G04 Gerber Fmt 4.6, Leading zero omitted, Abs format (unit mm)*
G04 Created by KiCad (PCBNEW 4.0.1-stable) date 2017/04/12 16:11:32*
%MOMM*%
G01*
G04 APERTURE LIST*
%ADD10C,0.100000*%
%ADD11C,0.180000*%
%ADD12C,0.150000*%
G04 APERTURE END LIST*
D10*
D11*
X135792311Y-51021437D02*
X131196117Y-46425243D01*
X135686245Y-51127503D02*
X135792311Y-51021437D01*
X135686245Y-51410346D02*
X135686245Y-51127503D01*
X135686245Y-51410346D02*
X136923681Y-52647782D01*
X131196117Y-46425243D02*
X130595076Y-46319177D01*
X130595076Y-46319177D02*
X129039441Y-44763542D01*
X146540334Y-44516054D02*
X149085918Y-41970470D01*
X142014850Y-49041538D02*
X145408963Y-45647425D01*
X139787464Y-51268924D02*
X141166322Y-49890066D01*
X149085918Y-41970470D02*
X148732365Y-41616917D01*
X139292489Y-32177041D02*
X140635992Y-33520544D01*
X129357639Y-42111891D02*
X139292489Y-32177041D01*
X129039441Y-44480699D02*
X128791953Y-44233212D01*
X137206524Y-52647782D02*
X136923681Y-52647782D01*
X129039441Y-44480699D02*
X129039441Y-44763542D01*
D12*
X144943751Y-34367223D02*
X144448777Y-33872249D01*
X143600249Y-34720777D02*
X144095223Y-35215751D01*
X193040000Y-31750000D02*
X119380000Y-31750000D01*
X119380000Y-31750000D02*
X119380000Y-29210000D01*
X119380000Y-29210000D02*
X193040000Y-29210000D01*
X195860000Y-28930000D02*
X194310000Y-28930000D01*
X193040000Y-29210000D02*
X193040000Y-31750000D01*
X194310000Y-32030000D02*
X195860000Y-32030000D01*
X195860000Y-32030000D02*
X195860000Y-28930000D01*
X114300000Y-39370000D02*
X114300000Y-113030000D01*
X114300000Y-113030000D02*
X111760000Y-113030000D01*
X111760000Y-113030000D02*
X111760000Y-39370000D01*
X111480000Y-36550000D02*
X111480000Y-38100000D01*
X111760000Y-39370000D02*
X114300000Y-39370000D01*
X114580000Y-38100000D02*
X114580000Y-36550000D01*
X114580000Y-36550000D02*
X111480000Y-36550000D01*
X116917223Y-87466249D02*
X116422249Y-87961223D01*
X117270777Y-88809751D02*
X117765751Y-88314777D01*
D11*
X133571437Y-96617689D02*
X128975243Y-101213883D01*
X133677503Y-96723755D02*
X133571437Y-96617689D01*
X133960346Y-96723755D02*
X133677503Y-96723755D01*
X133960346Y-96723755D02*
X135197782Y-95486319D01*
X128975243Y-101213883D02*
X128869177Y-101814924D01*
X128869177Y-101814924D02*
X127313542Y-103370559D01*
X127066054Y-85869666D02*
X124520470Y-83324082D01*
X131591538Y-90395150D02*
X128197425Y-87001037D01*
X133818924Y-92622536D02*
X132440066Y-91243678D01*
X124520470Y-83324082D02*
X124166917Y-83677635D01*
X114727041Y-93117511D02*
X116070544Y-91774008D01*
X124661891Y-103052361D02*
X114727041Y-93117511D01*
X127030699Y-103370559D02*
X126783212Y-103618047D01*
X135197782Y-95203476D02*
X135197782Y-95486319D01*
X127030699Y-103370559D02*
X127313542Y-103370559D01*
X181388563Y-53242311D02*
X185984757Y-48646117D01*
X181282497Y-53136245D02*
X181388563Y-53242311D01*
X180999654Y-53136245D02*
X181282497Y-53136245D01*
X180999654Y-53136245D02*
X179762218Y-54373681D01*
X185984757Y-48646117D02*
X186090823Y-48045076D01*
X186090823Y-48045076D02*
X187646458Y-46489441D01*
X187893946Y-63990334D02*
X190439530Y-66535918D01*
X183368462Y-59464850D02*
X186762575Y-62858963D01*
X181141076Y-57237464D02*
X182519934Y-58616322D01*
X190439530Y-66535918D02*
X190793083Y-66182365D01*
X200232959Y-56742489D02*
X198889456Y-58085992D01*
X190298109Y-46807639D02*
X200232959Y-56742489D01*
X187929301Y-46489441D02*
X188176788Y-46241953D01*
X179762218Y-54656524D02*
X179762218Y-54373681D01*
X187929301Y-46489441D02*
X187646458Y-46489441D01*
D12*
X198042777Y-62393751D02*
X198537751Y-61898777D01*
X197689223Y-61050249D02*
X197194249Y-61545223D01*
X200660000Y-110490000D02*
X200660000Y-36830000D01*
X200660000Y-36830000D02*
X203200000Y-36830000D01*
X203200000Y-36830000D02*
X203200000Y-110490000D01*
X203480000Y-113310000D02*
X203480000Y-111760000D01*
X203200000Y-110490000D02*
X200660000Y-110490000D01*
X200380000Y-111760000D02*
X200380000Y-113310000D01*
X200380000Y-113310000D02*
X203480000Y-113310000D01*
X121920000Y-118110000D02*
X195580000Y-118110000D01*
X195580000Y-118110000D02*
X195580000Y-120650000D01*
X195580000Y-120650000D02*
X121920000Y-120650000D01*
X119100000Y-120930000D02*
X120650000Y-120930000D01*
X121920000Y-120650000D02*
X121920000Y-118110000D01*
X120650000Y-117830000D02*
X119100000Y-117830000D01*
X119100000Y-117830000D02*
X119100000Y-120930000D01*
X170016249Y-115492777D02*
X170511223Y-115987751D01*
X171359751Y-115139223D02*
X170864777Y-114644249D01*
D11*
X179167689Y-98838563D02*
X183763883Y-103434757D01*
X179273755Y-98732497D02*
X179167689Y-98838563D01*
X179273755Y-98449654D02*
X179273755Y-98732497D01*
X179273755Y-98449654D02*
X178036319Y-97212218D01*
X183763883Y-103434757D02*
X184364924Y-103540823D01*
X184364924Y-103540823D02*
X185920559Y-105096458D01*
X168419666Y-105343946D02*
X165874082Y-107889530D01*
X172945150Y-100818462D02*
X169551037Y-104212575D01*
X175172536Y-98591076D02*
X173793678Y-99969934D01*
X165874082Y-107889530D02*
X166227635Y-108243083D01*
X175667511Y-117682959D02*
X174324008Y-116339456D01*
X185602361Y-107748109D02*
X175667511Y-117682959D01*
X185920559Y-105379301D02*
X186168047Y-105626788D01*
X177753476Y-97212218D02*
X178036319Y-97212218D01*
X185920559Y-105379301D02*
X185920559Y-105096458D01*
X139719052Y-31994473D02*
X139651709Y-32129160D01*
X139483350Y-32297519D01*
X139382334Y-32331191D01*
X139314991Y-32331191D01*
X139213976Y-32297519D01*
X139146632Y-32230176D01*
X139112961Y-32129161D01*
X139112961Y-32061817D01*
X139146632Y-31960802D01*
X139247648Y-31792442D01*
X139281319Y-31691427D01*
X139281319Y-31624084D01*
X139247648Y-31523069D01*
X139180304Y-31455725D01*
X139079289Y-31422053D01*
X139011946Y-31422053D01*
X138910930Y-31455725D01*
X138742571Y-31624084D01*
X138675228Y-31758771D01*
X139045617Y-32735252D02*
X138338511Y-32028145D01*
X138170152Y-32196504D01*
X138102808Y-32331191D01*
X138102808Y-32465878D01*
X138136480Y-32566893D01*
X138237495Y-32735252D01*
X138338511Y-32836268D01*
X138506869Y-32937283D01*
X138607884Y-32970955D01*
X138742571Y-32970955D01*
X138877259Y-32903610D01*
X139045617Y-32735252D01*
X137968121Y-33812748D02*
X138372182Y-33408687D01*
X138170152Y-33610717D02*
X137463045Y-32903610D01*
X137631404Y-32937282D01*
X137766091Y-32937282D01*
X137867106Y-32903610D01*
D12*
X147182389Y-37218688D02*
X147249732Y-37218688D01*
X147384419Y-37151344D01*
X147451763Y-37084001D01*
X147519107Y-36949313D01*
X147519107Y-36814626D01*
X147485435Y-36713611D01*
X147384420Y-36545253D01*
X147283404Y-36444237D01*
X147115045Y-36343222D01*
X147014030Y-36309550D01*
X146879343Y-36309550D01*
X146744656Y-36376894D01*
X146677312Y-36444237D01*
X146609969Y-36578924D01*
X146609969Y-36646268D01*
X146172236Y-37420718D02*
X146643641Y-37892123D01*
X146071222Y-36982985D02*
X146744657Y-37319703D01*
X146306924Y-37757436D01*
X146775404Y-34314145D02*
X146708060Y-34381489D01*
X146674388Y-34482504D01*
X146674388Y-34549848D01*
X146708060Y-34650863D01*
X146809075Y-34819222D01*
X146977434Y-34987581D01*
X147145793Y-35088596D01*
X147246808Y-35122268D01*
X147314151Y-35122268D01*
X147415166Y-35088596D01*
X147482511Y-35021252D01*
X147516182Y-34920237D01*
X147516182Y-34852893D01*
X147482511Y-34751878D01*
X147381495Y-34583519D01*
X147213136Y-34415160D01*
X147044777Y-34314145D01*
X146943762Y-34280473D01*
X146876419Y-34280473D01*
X146775404Y-34314145D01*
X146876419Y-35492657D02*
X146876419Y-35560000D01*
X146943762Y-35560000D01*
X146943762Y-35492657D01*
X146876419Y-35492657D01*
X146943762Y-35560000D01*
X146236656Y-36267107D02*
X146640717Y-35863045D01*
X146438687Y-36065076D02*
X145731580Y-35357969D01*
X145899938Y-35391641D01*
X146034625Y-35391641D01*
X146135640Y-35357969D01*
X145159159Y-36401794D02*
X145630564Y-36873198D01*
X145462205Y-36098747D02*
X145832595Y-36469137D01*
X145866267Y-36570152D01*
X145832595Y-36671167D01*
X145731579Y-36772183D01*
X145630564Y-36805855D01*
X145563221Y-36805855D01*
X195048095Y-33472381D02*
X195048095Y-32472381D01*
X194667142Y-32472381D01*
X194571904Y-32520000D01*
X194524285Y-32567619D01*
X194476666Y-32662857D01*
X194476666Y-32805714D01*
X194524285Y-32900952D01*
X194571904Y-32948571D01*
X194667142Y-32996190D01*
X195048095Y-32996190D01*
X193524285Y-33472381D02*
X194095714Y-33472381D01*
X193810000Y-33472381D02*
X193810000Y-32472381D01*
X193905238Y-32615238D01*
X194000476Y-32710476D01*
X194095714Y-32758095D01*
X116022381Y-37361905D02*
X115022381Y-37361905D01*
X115022381Y-37742858D01*
X115070000Y-37838096D01*
X115117619Y-37885715D01*
X115212857Y-37933334D01*
X115355714Y-37933334D01*
X115450952Y-37885715D01*
X115498571Y-37838096D01*
X115546190Y-37742858D01*
X115546190Y-37361905D01*
X116022381Y-38885715D02*
X116022381Y-38314286D01*
X116022381Y-38600000D02*
X115022381Y-38600000D01*
X115165238Y-38504762D01*
X115260476Y-38409524D01*
X115308095Y-38314286D01*
X119499312Y-85968389D02*
X119499312Y-86035732D01*
X119566656Y-86170419D01*
X119633999Y-86237763D01*
X119768687Y-86305107D01*
X119903374Y-86305107D01*
X120004389Y-86271435D01*
X120172747Y-86170420D01*
X120273763Y-86069404D01*
X120374778Y-85901045D01*
X120408450Y-85800030D01*
X120408450Y-85665343D01*
X120341106Y-85530656D01*
X120273763Y-85463312D01*
X120139076Y-85395969D01*
X120071732Y-85395969D01*
X119297282Y-84958236D02*
X118825877Y-85429641D01*
X119735015Y-84857222D02*
X119398297Y-85530657D01*
X118960564Y-85092924D01*
X119355855Y-86577406D02*
X119288511Y-86510062D01*
X119187496Y-86476390D01*
X119120152Y-86476390D01*
X119019137Y-86510062D01*
X118850778Y-86611077D01*
X118682419Y-86779436D01*
X118581404Y-86947795D01*
X118547732Y-87048810D01*
X118547732Y-87116153D01*
X118581404Y-87217168D01*
X118648748Y-87284513D01*
X118749763Y-87318184D01*
X118817107Y-87318184D01*
X118918122Y-87284513D01*
X119086481Y-87183497D01*
X119254840Y-87015138D01*
X119355855Y-86846779D01*
X119389527Y-86745764D01*
X119389527Y-86678421D01*
X119355855Y-86577406D01*
X118177343Y-86678421D02*
X118110000Y-86678421D01*
X118110000Y-86745764D01*
X118177343Y-86745764D01*
X118177343Y-86678421D01*
X118110000Y-86745764D01*
X117402893Y-86038658D02*
X117806955Y-86442719D01*
X117604924Y-86240689D02*
X118312031Y-85533582D01*
X118278359Y-85701940D01*
X118278359Y-85836627D01*
X118312031Y-85937642D01*
X117268206Y-84961161D02*
X116796802Y-85432566D01*
X117571253Y-85264207D02*
X117200863Y-85634597D01*
X117099848Y-85668269D01*
X116998833Y-85634597D01*
X116897817Y-85533581D01*
X116864145Y-85432566D01*
X116864145Y-85365223D01*
D11*
X117103527Y-97809054D02*
X116968840Y-97741711D01*
X116800481Y-97573352D01*
X116766809Y-97472336D01*
X116766809Y-97404993D01*
X116800481Y-97303978D01*
X116867824Y-97236634D01*
X116968839Y-97202963D01*
X117036183Y-97202963D01*
X117137198Y-97236634D01*
X117305558Y-97337650D01*
X117406573Y-97371321D01*
X117473916Y-97371321D01*
X117574931Y-97337650D01*
X117642275Y-97270306D01*
X117675947Y-97169291D01*
X117675947Y-97101948D01*
X117642275Y-97000932D01*
X117473916Y-96832573D01*
X117339229Y-96765230D01*
X116362748Y-97135619D02*
X117069855Y-96428513D01*
X116901496Y-96260154D01*
X116766809Y-96192810D01*
X116632122Y-96192810D01*
X116531107Y-96226482D01*
X116362748Y-96327497D01*
X116261732Y-96428513D01*
X116160717Y-96596871D01*
X116127045Y-96697886D01*
X116127045Y-96832573D01*
X116194390Y-96967261D01*
X116362748Y-97135619D01*
X115285252Y-96058123D02*
X115689313Y-96462184D01*
X115487283Y-96260154D02*
X116194390Y-95553047D01*
X116160718Y-95721406D01*
X116160718Y-95856093D01*
X116194390Y-95957108D01*
X200415527Y-57169052D02*
X200280840Y-57101709D01*
X200112481Y-56933350D01*
X200078809Y-56832334D01*
X200078809Y-56764991D01*
X200112481Y-56663976D01*
X200179824Y-56596632D01*
X200280839Y-56562961D01*
X200348183Y-56562961D01*
X200449198Y-56596632D01*
X200617558Y-56697648D01*
X200718573Y-56731319D01*
X200785916Y-56731319D01*
X200886931Y-56697648D01*
X200954275Y-56630304D01*
X200987947Y-56529289D01*
X200987947Y-56461946D01*
X200954275Y-56360930D01*
X200785916Y-56192571D01*
X200651229Y-56125228D01*
X199674748Y-56495617D02*
X200381855Y-55788511D01*
X200213496Y-55620152D01*
X200078809Y-55552808D01*
X199944122Y-55552808D01*
X199843107Y-55586480D01*
X199674748Y-55687495D01*
X199573732Y-55788511D01*
X199472717Y-55956869D01*
X199439045Y-56057884D01*
X199439045Y-56192571D01*
X199506390Y-56327259D01*
X199674748Y-56495617D01*
X198597252Y-55418121D02*
X199001313Y-55822182D01*
X198799283Y-55620152D02*
X199506390Y-54913045D01*
X199472718Y-55081404D01*
X199472718Y-55216091D01*
X199506390Y-55317106D01*
D12*
X195191312Y-64632389D02*
X195191312Y-64699732D01*
X195258656Y-64834419D01*
X195325999Y-64901763D01*
X195460687Y-64969107D01*
X195595374Y-64969107D01*
X195696389Y-64935435D01*
X195864747Y-64834420D01*
X195965763Y-64733404D01*
X196066778Y-64565045D01*
X196100450Y-64464030D01*
X196100450Y-64329343D01*
X196033106Y-64194656D01*
X195965763Y-64127312D01*
X195831076Y-64059969D01*
X195763732Y-64059969D01*
X194989282Y-63622236D02*
X194517877Y-64093641D01*
X195427015Y-63521222D02*
X195090297Y-64194657D01*
X194652564Y-63756924D01*
X198095855Y-64225404D02*
X198028511Y-64158060D01*
X197927496Y-64124388D01*
X197860152Y-64124388D01*
X197759137Y-64158060D01*
X197590778Y-64259075D01*
X197422419Y-64427434D01*
X197321404Y-64595793D01*
X197287732Y-64696808D01*
X197287732Y-64764151D01*
X197321404Y-64865166D01*
X197388748Y-64932511D01*
X197489763Y-64966182D01*
X197557107Y-64966182D01*
X197658122Y-64932511D01*
X197826481Y-64831495D01*
X197994840Y-64663136D01*
X198095855Y-64494777D01*
X198129527Y-64393762D01*
X198129527Y-64326419D01*
X198095855Y-64225404D01*
X196917343Y-64326419D02*
X196850000Y-64326419D01*
X196850000Y-64393762D01*
X196917343Y-64393762D01*
X196917343Y-64326419D01*
X196850000Y-64393762D01*
X196142893Y-63686656D02*
X196546955Y-64090717D01*
X196344924Y-63888687D02*
X197052031Y-63181580D01*
X197018359Y-63349938D01*
X197018359Y-63484625D01*
X197052031Y-63585640D01*
X196008206Y-62609159D02*
X195536802Y-63080564D01*
X196311253Y-62912205D02*
X195940863Y-63282595D01*
X195839848Y-63316267D01*
X195738833Y-63282595D01*
X195637817Y-63181579D01*
X195604145Y-63080564D01*
X195604145Y-63013221D01*
X199842381Y-111021905D02*
X198842381Y-111021905D01*
X198842381Y-111402858D01*
X198890000Y-111498096D01*
X198937619Y-111545715D01*
X199032857Y-111593334D01*
X199175714Y-111593334D01*
X199270952Y-111545715D01*
X199318571Y-111498096D01*
X199366190Y-111402858D01*
X199366190Y-111021905D01*
X199842381Y-112545715D02*
X199842381Y-111974286D01*
X199842381Y-112260000D02*
X198842381Y-112260000D01*
X198985238Y-112164762D01*
X199080476Y-112069524D01*
X199128095Y-111974286D01*
X121388095Y-117292381D02*
X121388095Y-116292381D01*
X121007142Y-116292381D01*
X120911904Y-116340000D01*
X120864285Y-116387619D01*
X120816666Y-116482857D01*
X120816666Y-116625714D01*
X120864285Y-116720952D01*
X120911904Y-116768571D01*
X121007142Y-116816190D01*
X121388095Y-116816190D01*
X119864285Y-117292381D02*
X120435714Y-117292381D01*
X120150000Y-117292381D02*
X120150000Y-116292381D01*
X120245238Y-116435238D01*
X120340476Y-116530476D01*
X120435714Y-116578095D01*
X168518389Y-112910688D02*
X168585732Y-112910688D01*
X168720419Y-112843344D01*
X168787763Y-112776001D01*
X168855107Y-112641313D01*
X168855107Y-112506626D01*
X168821435Y-112405611D01*
X168720420Y-112237253D01*
X168619404Y-112136237D01*
X168451045Y-112035222D01*
X168350030Y-112001550D01*
X168215343Y-112001550D01*
X168080656Y-112068894D01*
X168013312Y-112136237D01*
X167945969Y-112270924D01*
X167945969Y-112338268D01*
X167508236Y-113112718D02*
X167979641Y-113584123D01*
X167407222Y-112674985D02*
X168080657Y-113011703D01*
X167642924Y-113449436D01*
X169127406Y-113054145D02*
X169060062Y-113121489D01*
X169026390Y-113222504D01*
X169026390Y-113289848D01*
X169060062Y-113390863D01*
X169161077Y-113559222D01*
X169329436Y-113727581D01*
X169497795Y-113828596D01*
X169598810Y-113862268D01*
X169666153Y-113862268D01*
X169767168Y-113828596D01*
X169834513Y-113761252D01*
X169868184Y-113660237D01*
X169868184Y-113592893D01*
X169834513Y-113491878D01*
X169733497Y-113323519D01*
X169565138Y-113155160D01*
X169396779Y-113054145D01*
X169295764Y-113020473D01*
X169228421Y-113020473D01*
X169127406Y-113054145D01*
X169228421Y-114232657D02*
X169228421Y-114300000D01*
X169295764Y-114300000D01*
X169295764Y-114232657D01*
X169228421Y-114232657D01*
X169295764Y-114300000D01*
X168588658Y-115007107D02*
X168992719Y-114603045D01*
X168790689Y-114805076D02*
X168083582Y-114097969D01*
X168251940Y-114131641D01*
X168386627Y-114131641D01*
X168487642Y-114097969D01*
X167511161Y-115141794D02*
X167982566Y-115613198D01*
X167814207Y-114838747D02*
X168184597Y-115209137D01*
X168218269Y-115310152D01*
X168184597Y-115411167D01*
X168083581Y-115512183D01*
X167982566Y-115545855D01*
X167915223Y-115545855D01*
D11*
X180359054Y-115306473D02*
X180291711Y-115441160D01*
X180123352Y-115609519D01*
X180022336Y-115643191D01*
X179954993Y-115643191D01*
X179853978Y-115609519D01*
X179786634Y-115542176D01*
X179752963Y-115441161D01*
X179752963Y-115373817D01*
X179786634Y-115272802D01*
X179887650Y-115104442D01*
X179921321Y-115003427D01*
X179921321Y-114936084D01*
X179887650Y-114835069D01*
X179820306Y-114767725D01*
X179719291Y-114734053D01*
X179651948Y-114734053D01*
X179550932Y-114767725D01*
X179382573Y-114936084D01*
X179315230Y-115070771D01*
X179685619Y-116047252D02*
X178978513Y-115340145D01*
X178810154Y-115508504D01*
X178742810Y-115643191D01*
X178742810Y-115777878D01*
X178776482Y-115878893D01*
X178877497Y-116047252D01*
X178978513Y-116148268D01*
X179146871Y-116249283D01*
X179247886Y-116282955D01*
X179382573Y-116282955D01*
X179517261Y-116215610D01*
X179685619Y-116047252D01*
X178608123Y-117124748D02*
X179012184Y-116720687D01*
X178810154Y-116922717D02*
X178103047Y-116215610D01*
X178271406Y-116249282D01*
X178406093Y-116249282D01*
X178507108Y-116215610D01*
M02*
