G04 #@! TF.FileFunction,Legend,Top*
%FSLAX46Y46*%
G04 Gerber Fmt 4.6, Leading zero omitted, Abs format (unit mm)*
G04 Created by KiCad (PCBNEW 4.0.1-stable) date 2017/04/09 10:59:51*
%MOMM*%
G01*
G04 APERTURE LIST*
%ADD10C,0.100000*%
%ADD11C,0.200000*%
%ADD12C,0.150000*%
G04 APERTURE END LIST*
D10*
D11*
X194967143Y-33061429D02*
X193767143Y-33461429D01*
X194967143Y-33861429D01*
X193767143Y-34261428D02*
X194567143Y-34261428D01*
X194967143Y-34261428D02*
X194910000Y-34204285D01*
X194852857Y-34261428D01*
X194910000Y-34318571D01*
X194967143Y-34261428D01*
X194852857Y-34261428D01*
X194567143Y-34832857D02*
X193767143Y-34832857D01*
X194452857Y-34832857D02*
X194510000Y-34890000D01*
X194567143Y-35004286D01*
X194567143Y-35175714D01*
X194510000Y-35290000D01*
X194395714Y-35347143D01*
X193767143Y-35347143D01*
X192370000Y-33375715D02*
X192427143Y-33261429D01*
X192427143Y-33090000D01*
X192370000Y-32918572D01*
X192255714Y-32804286D01*
X192141429Y-32747143D01*
X191912857Y-32690000D01*
X191741429Y-32690000D01*
X191512857Y-32747143D01*
X191398571Y-32804286D01*
X191284286Y-32918572D01*
X191227143Y-33090000D01*
X191227143Y-33204286D01*
X191284286Y-33375715D01*
X191341429Y-33432858D01*
X191741429Y-33432858D01*
X191741429Y-33204286D01*
X191227143Y-33947143D02*
X192427143Y-33947143D01*
X191227143Y-34632858D01*
X192427143Y-34632858D01*
X191227143Y-35204286D02*
X192427143Y-35204286D01*
X192427143Y-35490001D01*
X192370000Y-35661429D01*
X192255714Y-35775715D01*
X192141429Y-35832858D01*
X191912857Y-35890001D01*
X191741429Y-35890001D01*
X191512857Y-35832858D01*
X191398571Y-35775715D01*
X191284286Y-35661429D01*
X191227143Y-35490001D01*
X191227143Y-35204286D01*
X189887143Y-32518572D02*
X189887143Y-33261429D01*
X189430000Y-32861429D01*
X189430000Y-33032857D01*
X189372857Y-33147143D01*
X189315714Y-33204286D01*
X189201429Y-33261429D01*
X188915714Y-33261429D01*
X188801429Y-33204286D01*
X188744286Y-33147143D01*
X188687143Y-33032857D01*
X188687143Y-32690000D01*
X188744286Y-32575714D01*
X188801429Y-32518572D01*
X188801429Y-33775714D02*
X188744286Y-33832857D01*
X188687143Y-33775714D01*
X188744286Y-33718571D01*
X188801429Y-33775714D01*
X188687143Y-33775714D01*
X189887143Y-34232858D02*
X189887143Y-34975715D01*
X189430000Y-34575715D01*
X189430000Y-34747143D01*
X189372857Y-34861429D01*
X189315714Y-34918572D01*
X189201429Y-34975715D01*
X188915714Y-34975715D01*
X188801429Y-34918572D01*
X188744286Y-34861429D01*
X188687143Y-34747143D01*
X188687143Y-34404286D01*
X188744286Y-34290000D01*
X188801429Y-34232858D01*
X189887143Y-35318572D02*
X188687143Y-35718572D01*
X189887143Y-36118572D01*
X186775714Y-32769286D02*
X186775714Y-33169286D01*
X186147143Y-33340715D02*
X186147143Y-32769286D01*
X187347143Y-32769286D01*
X187347143Y-33340715D01*
X186147143Y-33855000D02*
X187347143Y-33855000D01*
X186147143Y-34540715D01*
X187347143Y-34540715D01*
X184807143Y-32962858D02*
X184807143Y-33077143D01*
X184750000Y-33191429D01*
X184692857Y-33248572D01*
X184578571Y-33305715D01*
X184350000Y-33362858D01*
X184064286Y-33362858D01*
X183835714Y-33305715D01*
X183721429Y-33248572D01*
X183664286Y-33191429D01*
X183607143Y-33077143D01*
X183607143Y-32962858D01*
X183664286Y-32848572D01*
X183721429Y-32791429D01*
X183835714Y-32734286D01*
X184064286Y-32677143D01*
X184350000Y-32677143D01*
X184578571Y-32734286D01*
X184692857Y-32791429D01*
X184750000Y-32848572D01*
X184807143Y-32962858D01*
X181067143Y-33362858D02*
X181067143Y-32677143D01*
X181067143Y-33020001D02*
X182267143Y-33020001D01*
X182095714Y-32905715D01*
X181981429Y-32791429D01*
X181924286Y-32677143D01*
X179612857Y-32677143D02*
X179670000Y-32734286D01*
X179727143Y-32848572D01*
X179727143Y-33134286D01*
X179670000Y-33248572D01*
X179612857Y-33305715D01*
X179498571Y-33362858D01*
X179384286Y-33362858D01*
X179212857Y-33305715D01*
X178527143Y-32620001D01*
X178527143Y-33362858D01*
X177187143Y-32620001D02*
X177187143Y-33362858D01*
X176730000Y-32962858D01*
X176730000Y-33134286D01*
X176672857Y-33248572D01*
X176615714Y-33305715D01*
X176501429Y-33362858D01*
X176215714Y-33362858D01*
X176101429Y-33305715D01*
X176044286Y-33248572D01*
X175987143Y-33134286D01*
X175987143Y-32791429D01*
X176044286Y-32677143D01*
X176101429Y-32620001D01*
X174247143Y-33248572D02*
X173447143Y-33248572D01*
X174704286Y-32962858D02*
X173847143Y-32677143D01*
X173847143Y-33420001D01*
X172107143Y-33305715D02*
X172107143Y-32734286D01*
X171535714Y-32677143D01*
X171592857Y-32734286D01*
X171650000Y-32848572D01*
X171650000Y-33134286D01*
X171592857Y-33248572D01*
X171535714Y-33305715D01*
X171421429Y-33362858D01*
X171135714Y-33362858D01*
X171021429Y-33305715D01*
X170964286Y-33248572D01*
X170907143Y-33134286D01*
X170907143Y-32848572D01*
X170964286Y-32734286D01*
X171021429Y-32677143D01*
X168367143Y-33426429D02*
X168367143Y-32740714D01*
X168367143Y-33083572D02*
X169567143Y-33083572D01*
X169395714Y-32969286D01*
X169281429Y-32855000D01*
X169224286Y-32740714D01*
X169452857Y-33883571D02*
X169510000Y-33940714D01*
X169567143Y-34055000D01*
X169567143Y-34340714D01*
X169510000Y-34455000D01*
X169452857Y-34512143D01*
X169338571Y-34569286D01*
X169224286Y-34569286D01*
X169052857Y-34512143D01*
X168367143Y-33826429D01*
X168367143Y-34569286D01*
X165827143Y-33426429D02*
X165827143Y-32740714D01*
X165827143Y-33083572D02*
X167027143Y-33083572D01*
X166855714Y-32969286D01*
X166741429Y-32855000D01*
X166684286Y-32740714D01*
X167027143Y-33826429D02*
X167027143Y-34569286D01*
X166570000Y-34169286D01*
X166570000Y-34340714D01*
X166512857Y-34455000D01*
X166455714Y-34512143D01*
X166341429Y-34569286D01*
X166055714Y-34569286D01*
X165941429Y-34512143D01*
X165884286Y-34455000D01*
X165827143Y-34340714D01*
X165827143Y-33997857D01*
X165884286Y-33883571D01*
X165941429Y-33826429D01*
X163287143Y-33426429D02*
X163287143Y-32740714D01*
X163287143Y-33083572D02*
X164487143Y-33083572D01*
X164315714Y-32969286D01*
X164201429Y-32855000D01*
X164144286Y-32740714D01*
X164087143Y-34455000D02*
X163287143Y-34455000D01*
X164544286Y-34169286D02*
X163687143Y-33883571D01*
X163687143Y-34626429D01*
X160747143Y-33426429D02*
X160747143Y-32740714D01*
X160747143Y-33083572D02*
X161947143Y-33083572D01*
X161775714Y-32969286D01*
X161661429Y-32855000D01*
X161604286Y-32740714D01*
X161947143Y-34512143D02*
X161947143Y-33940714D01*
X161375714Y-33883571D01*
X161432857Y-33940714D01*
X161490000Y-34055000D01*
X161490000Y-34340714D01*
X161432857Y-34455000D01*
X161375714Y-34512143D01*
X161261429Y-34569286D01*
X160975714Y-34569286D01*
X160861429Y-34512143D01*
X160804286Y-34455000D01*
X160747143Y-34340714D01*
X160747143Y-34055000D01*
X160804286Y-33940714D01*
X160861429Y-33883571D01*
X158207143Y-33426429D02*
X158207143Y-32740714D01*
X158207143Y-33083572D02*
X159407143Y-33083572D01*
X159235714Y-32969286D01*
X159121429Y-32855000D01*
X159064286Y-32740714D01*
X159407143Y-34455000D02*
X159407143Y-34226429D01*
X159350000Y-34112143D01*
X159292857Y-34055000D01*
X159121429Y-33940714D01*
X158892857Y-33883571D01*
X158435714Y-33883571D01*
X158321429Y-33940714D01*
X158264286Y-33997857D01*
X158207143Y-34112143D01*
X158207143Y-34340714D01*
X158264286Y-34455000D01*
X158321429Y-34512143D01*
X158435714Y-34569286D01*
X158721429Y-34569286D01*
X158835714Y-34512143D01*
X158892857Y-34455000D01*
X158950000Y-34340714D01*
X158950000Y-34112143D01*
X158892857Y-33997857D01*
X158835714Y-33940714D01*
X158721429Y-33883571D01*
X155667143Y-33426429D02*
X155667143Y-32740714D01*
X155667143Y-33083572D02*
X156867143Y-33083572D01*
X156695714Y-32969286D01*
X156581429Y-32855000D01*
X156524286Y-32740714D01*
X156867143Y-33826429D02*
X156867143Y-34626429D01*
X155667143Y-34112143D01*
X153127143Y-33426429D02*
X153127143Y-32740714D01*
X153127143Y-33083572D02*
X154327143Y-33083572D01*
X154155714Y-32969286D01*
X154041429Y-32855000D01*
X153984286Y-32740714D01*
X153812857Y-34112143D02*
X153870000Y-33997857D01*
X153927143Y-33940714D01*
X154041429Y-33883571D01*
X154098571Y-33883571D01*
X154212857Y-33940714D01*
X154270000Y-33997857D01*
X154327143Y-34112143D01*
X154327143Y-34340714D01*
X154270000Y-34455000D01*
X154212857Y-34512143D01*
X154098571Y-34569286D01*
X154041429Y-34569286D01*
X153927143Y-34512143D01*
X153870000Y-34455000D01*
X153812857Y-34340714D01*
X153812857Y-34112143D01*
X153755714Y-33997857D01*
X153698571Y-33940714D01*
X153584286Y-33883571D01*
X153355714Y-33883571D01*
X153241429Y-33940714D01*
X153184286Y-33997857D01*
X153127143Y-34112143D01*
X153127143Y-34340714D01*
X153184286Y-34455000D01*
X153241429Y-34512143D01*
X153355714Y-34569286D01*
X153584286Y-34569286D01*
X153698571Y-34512143D01*
X153755714Y-34455000D01*
X153812857Y-34340714D01*
X150587143Y-33426429D02*
X150587143Y-32740714D01*
X150587143Y-33083572D02*
X151787143Y-33083572D01*
X151615714Y-32969286D01*
X151501429Y-32855000D01*
X151444286Y-32740714D01*
X150587143Y-33997857D02*
X150587143Y-34226429D01*
X150644286Y-34340714D01*
X150701429Y-34397857D01*
X150872857Y-34512143D01*
X151101429Y-34569286D01*
X151558571Y-34569286D01*
X151672857Y-34512143D01*
X151730000Y-34455000D01*
X151787143Y-34340714D01*
X151787143Y-34112143D01*
X151730000Y-33997857D01*
X151672857Y-33940714D01*
X151558571Y-33883571D01*
X151272857Y-33883571D01*
X151158571Y-33940714D01*
X151101429Y-33997857D01*
X151044286Y-34112143D01*
X151044286Y-34340714D01*
X151101429Y-34455000D01*
X151158571Y-34512143D01*
X151272857Y-34569286D01*
X149132857Y-32740714D02*
X149190000Y-32797857D01*
X149247143Y-32912143D01*
X149247143Y-33197857D01*
X149190000Y-33312143D01*
X149132857Y-33369286D01*
X149018571Y-33426429D01*
X148904286Y-33426429D01*
X148732857Y-33369286D01*
X148047143Y-32683572D01*
X148047143Y-33426429D01*
X148047143Y-34569286D02*
X148047143Y-33883571D01*
X148047143Y-34226429D02*
X149247143Y-34226429D01*
X149075714Y-34112143D01*
X148961429Y-33997857D01*
X148904286Y-33883571D01*
X146592857Y-32740714D02*
X146650000Y-32797857D01*
X146707143Y-32912143D01*
X146707143Y-33197857D01*
X146650000Y-33312143D01*
X146592857Y-33369286D01*
X146478571Y-33426429D01*
X146364286Y-33426429D01*
X146192857Y-33369286D01*
X145507143Y-32683572D01*
X145507143Y-33426429D01*
X146592857Y-33883571D02*
X146650000Y-33940714D01*
X146707143Y-34055000D01*
X146707143Y-34340714D01*
X146650000Y-34455000D01*
X146592857Y-34512143D01*
X146478571Y-34569286D01*
X146364286Y-34569286D01*
X146192857Y-34512143D01*
X145507143Y-33826429D01*
X145507143Y-34569286D01*
X144052857Y-32740714D02*
X144110000Y-32797857D01*
X144167143Y-32912143D01*
X144167143Y-33197857D01*
X144110000Y-33312143D01*
X144052857Y-33369286D01*
X143938571Y-33426429D01*
X143824286Y-33426429D01*
X143652857Y-33369286D01*
X142967143Y-32683572D01*
X142967143Y-33426429D01*
X144167143Y-33826429D02*
X144167143Y-34569286D01*
X143710000Y-34169286D01*
X143710000Y-34340714D01*
X143652857Y-34455000D01*
X143595714Y-34512143D01*
X143481429Y-34569286D01*
X143195714Y-34569286D01*
X143081429Y-34512143D01*
X143024286Y-34455000D01*
X142967143Y-34340714D01*
X142967143Y-33997857D01*
X143024286Y-33883571D01*
X143081429Y-33826429D01*
X141512857Y-32740714D02*
X141570000Y-32797857D01*
X141627143Y-32912143D01*
X141627143Y-33197857D01*
X141570000Y-33312143D01*
X141512857Y-33369286D01*
X141398571Y-33426429D01*
X141284286Y-33426429D01*
X141112857Y-33369286D01*
X140427143Y-32683572D01*
X140427143Y-33426429D01*
X141627143Y-34512143D02*
X141627143Y-33940714D01*
X141055714Y-33883571D01*
X141112857Y-33940714D01*
X141170000Y-34055000D01*
X141170000Y-34340714D01*
X141112857Y-34455000D01*
X141055714Y-34512143D01*
X140941429Y-34569286D01*
X140655714Y-34569286D01*
X140541429Y-34512143D01*
X140484286Y-34455000D01*
X140427143Y-34340714D01*
X140427143Y-34055000D01*
X140484286Y-33940714D01*
X140541429Y-33883571D01*
X138972857Y-32740714D02*
X139030000Y-32797857D01*
X139087143Y-32912143D01*
X139087143Y-33197857D01*
X139030000Y-33312143D01*
X138972857Y-33369286D01*
X138858571Y-33426429D01*
X138744286Y-33426429D01*
X138572857Y-33369286D01*
X137887143Y-32683572D01*
X137887143Y-33426429D01*
X139087143Y-34455000D02*
X139087143Y-34226429D01*
X139030000Y-34112143D01*
X138972857Y-34055000D01*
X138801429Y-33940714D01*
X138572857Y-33883571D01*
X138115714Y-33883571D01*
X138001429Y-33940714D01*
X137944286Y-33997857D01*
X137887143Y-34112143D01*
X137887143Y-34340714D01*
X137944286Y-34455000D01*
X138001429Y-34512143D01*
X138115714Y-34569286D01*
X138401429Y-34569286D01*
X138515714Y-34512143D01*
X138572857Y-34455000D01*
X138630000Y-34340714D01*
X138630000Y-34112143D01*
X138572857Y-33997857D01*
X138515714Y-33940714D01*
X138401429Y-33883571D01*
X136432857Y-32740714D02*
X136490000Y-32797857D01*
X136547143Y-32912143D01*
X136547143Y-33197857D01*
X136490000Y-33312143D01*
X136432857Y-33369286D01*
X136318571Y-33426429D01*
X136204286Y-33426429D01*
X136032857Y-33369286D01*
X135347143Y-32683572D01*
X135347143Y-33426429D01*
X136547143Y-33826429D02*
X136547143Y-34626429D01*
X135347143Y-34112143D01*
X134007143Y-32683572D02*
X134007143Y-33426429D01*
X133550000Y-33026429D01*
X133550000Y-33197857D01*
X133492857Y-33312143D01*
X133435714Y-33369286D01*
X133321429Y-33426429D01*
X133035714Y-33426429D01*
X132921429Y-33369286D01*
X132864286Y-33312143D01*
X132807143Y-33197857D01*
X132807143Y-32855000D01*
X132864286Y-32740714D01*
X132921429Y-32683572D01*
X133892857Y-33883571D02*
X133950000Y-33940714D01*
X134007143Y-34055000D01*
X134007143Y-34340714D01*
X133950000Y-34455000D01*
X133892857Y-34512143D01*
X133778571Y-34569286D01*
X133664286Y-34569286D01*
X133492857Y-34512143D01*
X132807143Y-33826429D01*
X132807143Y-34569286D01*
X131467143Y-32683572D02*
X131467143Y-33426429D01*
X131010000Y-33026429D01*
X131010000Y-33197857D01*
X130952857Y-33312143D01*
X130895714Y-33369286D01*
X130781429Y-33426429D01*
X130495714Y-33426429D01*
X130381429Y-33369286D01*
X130324286Y-33312143D01*
X130267143Y-33197857D01*
X130267143Y-32855000D01*
X130324286Y-32740714D01*
X130381429Y-32683572D01*
X131467143Y-33826429D02*
X131467143Y-34569286D01*
X131010000Y-34169286D01*
X131010000Y-34340714D01*
X130952857Y-34455000D01*
X130895714Y-34512143D01*
X130781429Y-34569286D01*
X130495714Y-34569286D01*
X130381429Y-34512143D01*
X130324286Y-34455000D01*
X130267143Y-34340714D01*
X130267143Y-33997857D01*
X130324286Y-33883571D01*
X130381429Y-33826429D01*
X128927143Y-32683572D02*
X128927143Y-33426429D01*
X128470000Y-33026429D01*
X128470000Y-33197857D01*
X128412857Y-33312143D01*
X128355714Y-33369286D01*
X128241429Y-33426429D01*
X127955714Y-33426429D01*
X127841429Y-33369286D01*
X127784286Y-33312143D01*
X127727143Y-33197857D01*
X127727143Y-32855000D01*
X127784286Y-32740714D01*
X127841429Y-32683572D01*
X128527143Y-34455000D02*
X127727143Y-34455000D01*
X128984286Y-34169286D02*
X128127143Y-33883571D01*
X128127143Y-34626429D01*
X126387143Y-32683572D02*
X126387143Y-33426429D01*
X125930000Y-33026429D01*
X125930000Y-33197857D01*
X125872857Y-33312143D01*
X125815714Y-33369286D01*
X125701429Y-33426429D01*
X125415714Y-33426429D01*
X125301429Y-33369286D01*
X125244286Y-33312143D01*
X125187143Y-33197857D01*
X125187143Y-32855000D01*
X125244286Y-32740714D01*
X125301429Y-32683572D01*
X126387143Y-34512143D02*
X126387143Y-33940714D01*
X125815714Y-33883571D01*
X125872857Y-33940714D01*
X125930000Y-34055000D01*
X125930000Y-34340714D01*
X125872857Y-34455000D01*
X125815714Y-34512143D01*
X125701429Y-34569286D01*
X125415714Y-34569286D01*
X125301429Y-34512143D01*
X125244286Y-34455000D01*
X125187143Y-34340714D01*
X125187143Y-34055000D01*
X125244286Y-33940714D01*
X125301429Y-33883571D01*
X123847143Y-32683572D02*
X123847143Y-33426429D01*
X123390000Y-33026429D01*
X123390000Y-33197857D01*
X123332857Y-33312143D01*
X123275714Y-33369286D01*
X123161429Y-33426429D01*
X122875714Y-33426429D01*
X122761429Y-33369286D01*
X122704286Y-33312143D01*
X122647143Y-33197857D01*
X122647143Y-32855000D01*
X122704286Y-32740714D01*
X122761429Y-32683572D01*
X123847143Y-34455000D02*
X123847143Y-34226429D01*
X123790000Y-34112143D01*
X123732857Y-34055000D01*
X123561429Y-33940714D01*
X123332857Y-33883571D01*
X122875714Y-33883571D01*
X122761429Y-33940714D01*
X122704286Y-33997857D01*
X122647143Y-34112143D01*
X122647143Y-34340714D01*
X122704286Y-34455000D01*
X122761429Y-34512143D01*
X122875714Y-34569286D01*
X123161429Y-34569286D01*
X123275714Y-34512143D01*
X123332857Y-34455000D01*
X123390000Y-34340714D01*
X123390000Y-34112143D01*
X123332857Y-33997857D01*
X123275714Y-33940714D01*
X123161429Y-33883571D01*
X121307143Y-32683572D02*
X121307143Y-33426429D01*
X120850000Y-33026429D01*
X120850000Y-33197857D01*
X120792857Y-33312143D01*
X120735714Y-33369286D01*
X120621429Y-33426429D01*
X120335714Y-33426429D01*
X120221429Y-33369286D01*
X120164286Y-33312143D01*
X120107143Y-33197857D01*
X120107143Y-32855000D01*
X120164286Y-32740714D01*
X120221429Y-32683572D01*
X120107143Y-33997857D02*
X120107143Y-34226429D01*
X120164286Y-34340714D01*
X120221429Y-34397857D01*
X120392857Y-34512143D01*
X120621429Y-34569286D01*
X121078571Y-34569286D01*
X121192857Y-34512143D01*
X121250000Y-34455000D01*
X121307143Y-34340714D01*
X121307143Y-34112143D01*
X121250000Y-33997857D01*
X121192857Y-33940714D01*
X121078571Y-33883571D01*
X120792857Y-33883571D01*
X120678571Y-33940714D01*
X120621429Y-33997857D01*
X120564286Y-34112143D01*
X120564286Y-34340714D01*
X120621429Y-34455000D01*
X120678571Y-34512143D01*
X120792857Y-34569286D01*
X182267143Y-34645715D02*
X182267143Y-35331429D01*
X181067143Y-34988572D02*
X182267143Y-34988572D01*
X182267143Y-35617144D02*
X181067143Y-36417144D01*
X182267143Y-36417144D02*
X181067143Y-35617144D01*
X175987143Y-35360001D02*
X176558571Y-34960001D01*
X175987143Y-34674286D02*
X177187143Y-34674286D01*
X177187143Y-35131429D01*
X177130000Y-35245715D01*
X177072857Y-35302858D01*
X176958571Y-35360001D01*
X176787143Y-35360001D01*
X176672857Y-35302858D01*
X176615714Y-35245715D01*
X176558571Y-35131429D01*
X176558571Y-34674286D01*
X177187143Y-35760001D02*
X175987143Y-36560001D01*
X177187143Y-36560001D02*
X175987143Y-35760001D01*
X144494286Y-48327143D02*
X144494286Y-49527143D01*
X143808571Y-48327143D02*
X144322857Y-49012857D01*
X143808571Y-49527143D02*
X144494286Y-48841429D01*
X143294286Y-48955714D02*
X142894286Y-48955714D01*
X142722857Y-48327143D02*
X143294286Y-48327143D01*
X143294286Y-49527143D01*
X142722857Y-49527143D01*
X141522857Y-48327143D02*
X141922857Y-48898571D01*
X142208572Y-48327143D02*
X142208572Y-49527143D01*
X141751429Y-49527143D01*
X141637143Y-49470000D01*
X141580000Y-49412857D01*
X141522857Y-49298571D01*
X141522857Y-49127143D01*
X141580000Y-49012857D01*
X141637143Y-48955714D01*
X141751429Y-48898571D01*
X142208572Y-48898571D01*
X141008572Y-48327143D02*
X141008572Y-49527143D01*
X140437143Y-48955714D02*
X140037143Y-48955714D01*
X139865714Y-48327143D02*
X140437143Y-48327143D01*
X140437143Y-49527143D01*
X139865714Y-49527143D01*
X139408572Y-48384286D02*
X139237143Y-48327143D01*
X138951429Y-48327143D01*
X138837143Y-48384286D01*
X138780000Y-48441429D01*
X138722857Y-48555714D01*
X138722857Y-48670000D01*
X138780000Y-48784286D01*
X138837143Y-48841429D01*
X138951429Y-48898571D01*
X139180000Y-48955714D01*
X139294286Y-49012857D01*
X139351429Y-49070000D01*
X139408572Y-49184286D01*
X139408572Y-49298571D01*
X139351429Y-49412857D01*
X139294286Y-49470000D01*
X139180000Y-49527143D01*
X138894286Y-49527143D01*
X138722857Y-49470000D01*
X138208572Y-48327143D02*
X138208572Y-49527143D01*
X137751429Y-49527143D01*
X137637143Y-49470000D01*
X137580000Y-49412857D01*
X137522857Y-49298571D01*
X137522857Y-49127143D01*
X137580000Y-49012857D01*
X137637143Y-48955714D01*
X137751429Y-48898571D01*
X138208572Y-48898571D01*
X137122857Y-49527143D02*
X136380000Y-49527143D01*
X136780000Y-49070000D01*
X136608572Y-49070000D01*
X136494286Y-49012857D01*
X136437143Y-48955714D01*
X136380000Y-48841429D01*
X136380000Y-48555714D01*
X136437143Y-48441429D01*
X136494286Y-48384286D01*
X136608572Y-48327143D01*
X136951429Y-48327143D01*
X137065715Y-48384286D01*
X137122857Y-48441429D01*
X135922858Y-49412857D02*
X135865715Y-49470000D01*
X135751429Y-49527143D01*
X135465715Y-49527143D01*
X135351429Y-49470000D01*
X135294286Y-49412857D01*
X135237143Y-49298571D01*
X135237143Y-49184286D01*
X135294286Y-49012857D01*
X135980000Y-48327143D01*
X135237143Y-48327143D01*
X144665714Y-47647143D02*
X143980000Y-47647143D01*
X144322857Y-46447143D02*
X144322857Y-47647143D01*
X143580000Y-46447143D02*
X143580000Y-47247143D01*
X143580000Y-47018571D02*
X143522857Y-47132857D01*
X143465714Y-47190000D01*
X143351428Y-47247143D01*
X143237143Y-47247143D01*
X142322857Y-46447143D02*
X142322857Y-47075714D01*
X142380000Y-47190000D01*
X142494286Y-47247143D01*
X142722857Y-47247143D01*
X142837143Y-47190000D01*
X142322857Y-46504286D02*
X142437143Y-46447143D01*
X142722857Y-46447143D01*
X142837143Y-46504286D01*
X142894286Y-46618571D01*
X142894286Y-46732857D01*
X142837143Y-46847143D01*
X142722857Y-46904286D01*
X142437143Y-46904286D01*
X142322857Y-46961429D01*
X141751429Y-47247143D02*
X141751429Y-46047143D01*
X141751429Y-47190000D02*
X141637143Y-47247143D01*
X141408572Y-47247143D01*
X141294286Y-47190000D01*
X141237143Y-47132857D01*
X141180000Y-47018571D01*
X141180000Y-46675714D01*
X141237143Y-46561429D01*
X141294286Y-46504286D01*
X141408572Y-46447143D01*
X141637143Y-46447143D01*
X141751429Y-46504286D01*
X140208572Y-46504286D02*
X140322858Y-46447143D01*
X140551429Y-46447143D01*
X140665715Y-46504286D01*
X140722858Y-46618571D01*
X140722858Y-47075714D01*
X140665715Y-47190000D01*
X140551429Y-47247143D01*
X140322858Y-47247143D01*
X140208572Y-47190000D01*
X140151429Y-47075714D01*
X140151429Y-46961429D01*
X140722858Y-46847143D01*
X139751429Y-47247143D02*
X139122858Y-47247143D01*
X139751429Y-46447143D01*
X139122858Y-46447143D01*
X138494286Y-46447143D02*
X138608572Y-46504286D01*
X138665715Y-46561429D01*
X138722858Y-46675714D01*
X138722858Y-47018571D01*
X138665715Y-47132857D01*
X138608572Y-47190000D01*
X138494286Y-47247143D01*
X138322858Y-47247143D01*
X138208572Y-47190000D01*
X138151429Y-47132857D01*
X138094286Y-47018571D01*
X138094286Y-46675714D01*
X138151429Y-46561429D01*
X138208572Y-46504286D01*
X138322858Y-46447143D01*
X138494286Y-46447143D01*
X137580001Y-46447143D02*
X137580001Y-47247143D01*
X137580001Y-47647143D02*
X137637144Y-47590000D01*
X137580001Y-47532857D01*
X137522858Y-47590000D01*
X137580001Y-47647143D01*
X137580001Y-47532857D01*
X136494286Y-46447143D02*
X136494286Y-47647143D01*
X136494286Y-46504286D02*
X136608572Y-46447143D01*
X136837143Y-46447143D01*
X136951429Y-46504286D01*
X137008572Y-46561429D01*
X137065715Y-46675714D01*
X137065715Y-47018571D01*
X137008572Y-47132857D01*
X136951429Y-47190000D01*
X136837143Y-47247143D01*
X136608572Y-47247143D01*
X136494286Y-47190000D01*
X143751429Y-45138571D02*
X143808571Y-45195714D01*
X143922857Y-45252857D01*
X144037143Y-45252857D01*
X144151429Y-45195714D01*
X144208571Y-45138571D01*
X144265714Y-45024286D01*
X144265714Y-44910000D01*
X144208571Y-44795714D01*
X144151429Y-44738571D01*
X144037143Y-44681429D01*
X143922857Y-44681429D01*
X143808571Y-44738571D01*
X143751429Y-44795714D01*
X143751429Y-45252857D02*
X143751429Y-44795714D01*
X143694286Y-44738571D01*
X143637143Y-44738571D01*
X143522857Y-44795714D01*
X143465714Y-44910000D01*
X143465714Y-45195714D01*
X143580000Y-45367143D01*
X143751429Y-45481429D01*
X143980000Y-45538571D01*
X144208571Y-45481429D01*
X144380000Y-45367143D01*
X144494286Y-45195714D01*
X144551429Y-44967143D01*
X144494286Y-44738571D01*
X144380000Y-44567143D01*
X144208571Y-44452857D01*
X143980000Y-44395714D01*
X143751429Y-44452857D01*
X143580000Y-44567143D01*
X142265714Y-44567143D02*
X142665714Y-45138571D01*
X142951429Y-44567143D02*
X142951429Y-45767143D01*
X142494286Y-45767143D01*
X142380000Y-45710000D01*
X142322857Y-45652857D01*
X142265714Y-45538571D01*
X142265714Y-45367143D01*
X142322857Y-45252857D01*
X142380000Y-45195714D01*
X142494286Y-45138571D01*
X142951429Y-45138571D01*
X141865714Y-45367143D02*
X141580000Y-44567143D01*
X141294286Y-45367143D02*
X141580000Y-44567143D01*
X141694286Y-44281429D01*
X141751429Y-44224286D01*
X141865714Y-44167143D01*
X140665714Y-44567143D02*
X140780000Y-44624286D01*
X140837143Y-44681429D01*
X140894286Y-44795714D01*
X140894286Y-45138571D01*
X140837143Y-45252857D01*
X140780000Y-45310000D01*
X140665714Y-45367143D01*
X140494286Y-45367143D01*
X140380000Y-45310000D01*
X140322857Y-45252857D01*
X140265714Y-45138571D01*
X140265714Y-44795714D01*
X140322857Y-44681429D01*
X140380000Y-44624286D01*
X140494286Y-44567143D01*
X140665714Y-44567143D01*
X139751429Y-44567143D02*
X139751429Y-45767143D01*
X139637143Y-45024286D02*
X139294286Y-44567143D01*
X139294286Y-45367143D02*
X139751429Y-44910000D01*
X138322857Y-44624286D02*
X138437143Y-44567143D01*
X138665714Y-44567143D01*
X138780000Y-44624286D01*
X138837143Y-44738571D01*
X138837143Y-45195714D01*
X138780000Y-45310000D01*
X138665714Y-45367143D01*
X138437143Y-45367143D01*
X138322857Y-45310000D01*
X138265714Y-45195714D01*
X138265714Y-45081429D01*
X138837143Y-44967143D01*
X137751429Y-44567143D02*
X137751429Y-45367143D01*
X137751429Y-45138571D02*
X137694286Y-45252857D01*
X137637143Y-45310000D01*
X137522857Y-45367143D01*
X137408572Y-45367143D01*
X137008572Y-44567143D02*
X137008572Y-45367143D01*
X137008572Y-45767143D02*
X137065715Y-45710000D01*
X137008572Y-45652857D01*
X136951429Y-45710000D01*
X137008572Y-45767143D01*
X137008572Y-45652857D01*
X135808571Y-44567143D02*
X136494286Y-44567143D01*
X136151428Y-44567143D02*
X136151428Y-45767143D01*
X136265714Y-45595714D01*
X136380000Y-45481429D01*
X136494286Y-45424286D01*
X134780000Y-45367143D02*
X134780000Y-44567143D01*
X135065714Y-45824286D02*
X135351429Y-44967143D01*
X134608571Y-44967143D01*
X130877143Y-87915714D02*
X132077143Y-87915714D01*
X130877143Y-88601429D02*
X131562857Y-88087143D01*
X132077143Y-88601429D02*
X131391429Y-87915714D01*
X131505714Y-89115714D02*
X131505714Y-89515714D01*
X130877143Y-89687143D02*
X130877143Y-89115714D01*
X132077143Y-89115714D01*
X132077143Y-89687143D01*
X130877143Y-90887143D02*
X131448571Y-90487143D01*
X130877143Y-90201428D02*
X132077143Y-90201428D01*
X132077143Y-90658571D01*
X132020000Y-90772857D01*
X131962857Y-90830000D01*
X131848571Y-90887143D01*
X131677143Y-90887143D01*
X131562857Y-90830000D01*
X131505714Y-90772857D01*
X131448571Y-90658571D01*
X131448571Y-90201428D01*
X130877143Y-91401428D02*
X132077143Y-91401428D01*
X131505714Y-91972857D02*
X131505714Y-92372857D01*
X130877143Y-92544286D02*
X130877143Y-91972857D01*
X132077143Y-91972857D01*
X132077143Y-92544286D01*
X130934286Y-93001428D02*
X130877143Y-93172857D01*
X130877143Y-93458571D01*
X130934286Y-93572857D01*
X130991429Y-93630000D01*
X131105714Y-93687143D01*
X131220000Y-93687143D01*
X131334286Y-93630000D01*
X131391429Y-93572857D01*
X131448571Y-93458571D01*
X131505714Y-93230000D01*
X131562857Y-93115714D01*
X131620000Y-93058571D01*
X131734286Y-93001428D01*
X131848571Y-93001428D01*
X131962857Y-93058571D01*
X132020000Y-93115714D01*
X132077143Y-93230000D01*
X132077143Y-93515714D01*
X132020000Y-93687143D01*
X130877143Y-94201428D02*
X132077143Y-94201428D01*
X132077143Y-94658571D01*
X132020000Y-94772857D01*
X131962857Y-94830000D01*
X131848571Y-94887143D01*
X131677143Y-94887143D01*
X131562857Y-94830000D01*
X131505714Y-94772857D01*
X131448571Y-94658571D01*
X131448571Y-94201428D01*
X132077143Y-95287143D02*
X132077143Y-96030000D01*
X131620000Y-95630000D01*
X131620000Y-95801428D01*
X131562857Y-95915714D01*
X131505714Y-95972857D01*
X131391429Y-96030000D01*
X131105714Y-96030000D01*
X130991429Y-95972857D01*
X130934286Y-95915714D01*
X130877143Y-95801428D01*
X130877143Y-95458571D01*
X130934286Y-95344285D01*
X130991429Y-95287143D01*
X131962857Y-96487142D02*
X132020000Y-96544285D01*
X132077143Y-96658571D01*
X132077143Y-96944285D01*
X132020000Y-97058571D01*
X131962857Y-97115714D01*
X131848571Y-97172857D01*
X131734286Y-97172857D01*
X131562857Y-97115714D01*
X130877143Y-96430000D01*
X130877143Y-97172857D01*
X130197143Y-87744286D02*
X130197143Y-88430000D01*
X128997143Y-88087143D02*
X130197143Y-88087143D01*
X128997143Y-88830000D02*
X129797143Y-88830000D01*
X129568571Y-88830000D02*
X129682857Y-88887143D01*
X129740000Y-88944286D01*
X129797143Y-89058572D01*
X129797143Y-89172857D01*
X128997143Y-90087143D02*
X129625714Y-90087143D01*
X129740000Y-90030000D01*
X129797143Y-89915714D01*
X129797143Y-89687143D01*
X129740000Y-89572857D01*
X129054286Y-90087143D02*
X128997143Y-89972857D01*
X128997143Y-89687143D01*
X129054286Y-89572857D01*
X129168571Y-89515714D01*
X129282857Y-89515714D01*
X129397143Y-89572857D01*
X129454286Y-89687143D01*
X129454286Y-89972857D01*
X129511429Y-90087143D01*
X129797143Y-90658571D02*
X128597143Y-90658571D01*
X129740000Y-90658571D02*
X129797143Y-90772857D01*
X129797143Y-91001428D01*
X129740000Y-91115714D01*
X129682857Y-91172857D01*
X129568571Y-91230000D01*
X129225714Y-91230000D01*
X129111429Y-91172857D01*
X129054286Y-91115714D01*
X128997143Y-91001428D01*
X128997143Y-90772857D01*
X129054286Y-90658571D01*
X129054286Y-92201428D02*
X128997143Y-92087142D01*
X128997143Y-91858571D01*
X129054286Y-91744285D01*
X129168571Y-91687142D01*
X129625714Y-91687142D01*
X129740000Y-91744285D01*
X129797143Y-91858571D01*
X129797143Y-92087142D01*
X129740000Y-92201428D01*
X129625714Y-92258571D01*
X129511429Y-92258571D01*
X129397143Y-91687142D01*
X129797143Y-92658571D02*
X129797143Y-93287142D01*
X128997143Y-92658571D01*
X128997143Y-93287142D01*
X128997143Y-93915714D02*
X129054286Y-93801428D01*
X129111429Y-93744285D01*
X129225714Y-93687142D01*
X129568571Y-93687142D01*
X129682857Y-93744285D01*
X129740000Y-93801428D01*
X129797143Y-93915714D01*
X129797143Y-94087142D01*
X129740000Y-94201428D01*
X129682857Y-94258571D01*
X129568571Y-94315714D01*
X129225714Y-94315714D01*
X129111429Y-94258571D01*
X129054286Y-94201428D01*
X128997143Y-94087142D01*
X128997143Y-93915714D01*
X128997143Y-94829999D02*
X129797143Y-94829999D01*
X130197143Y-94829999D02*
X130140000Y-94772856D01*
X130082857Y-94829999D01*
X130140000Y-94887142D01*
X130197143Y-94829999D01*
X130082857Y-94829999D01*
X128997143Y-95915714D02*
X130197143Y-95915714D01*
X129054286Y-95915714D02*
X128997143Y-95801428D01*
X128997143Y-95572857D01*
X129054286Y-95458571D01*
X129111429Y-95401428D01*
X129225714Y-95344285D01*
X129568571Y-95344285D01*
X129682857Y-95401428D01*
X129740000Y-95458571D01*
X129797143Y-95572857D01*
X129797143Y-95801428D01*
X129740000Y-95915714D01*
X127688571Y-88658571D02*
X127745714Y-88601429D01*
X127802857Y-88487143D01*
X127802857Y-88372857D01*
X127745714Y-88258571D01*
X127688571Y-88201429D01*
X127574286Y-88144286D01*
X127460000Y-88144286D01*
X127345714Y-88201429D01*
X127288571Y-88258571D01*
X127231429Y-88372857D01*
X127231429Y-88487143D01*
X127288571Y-88601429D01*
X127345714Y-88658571D01*
X127802857Y-88658571D02*
X127345714Y-88658571D01*
X127288571Y-88715714D01*
X127288571Y-88772857D01*
X127345714Y-88887143D01*
X127460000Y-88944286D01*
X127745714Y-88944286D01*
X127917143Y-88830000D01*
X128031429Y-88658571D01*
X128088571Y-88430000D01*
X128031429Y-88201429D01*
X127917143Y-88030000D01*
X127745714Y-87915714D01*
X127517143Y-87858571D01*
X127288571Y-87915714D01*
X127117143Y-88030000D01*
X127002857Y-88201429D01*
X126945714Y-88430000D01*
X127002857Y-88658571D01*
X127117143Y-88830000D01*
X127117143Y-90144286D02*
X127688571Y-89744286D01*
X127117143Y-89458571D02*
X128317143Y-89458571D01*
X128317143Y-89915714D01*
X128260000Y-90030000D01*
X128202857Y-90087143D01*
X128088571Y-90144286D01*
X127917143Y-90144286D01*
X127802857Y-90087143D01*
X127745714Y-90030000D01*
X127688571Y-89915714D01*
X127688571Y-89458571D01*
X127917143Y-90544286D02*
X127117143Y-90830000D01*
X127917143Y-91115714D02*
X127117143Y-90830000D01*
X126831429Y-90715714D01*
X126774286Y-90658571D01*
X126717143Y-90544286D01*
X127117143Y-91744286D02*
X127174286Y-91630000D01*
X127231429Y-91572857D01*
X127345714Y-91515714D01*
X127688571Y-91515714D01*
X127802857Y-91572857D01*
X127860000Y-91630000D01*
X127917143Y-91744286D01*
X127917143Y-91915714D01*
X127860000Y-92030000D01*
X127802857Y-92087143D01*
X127688571Y-92144286D01*
X127345714Y-92144286D01*
X127231429Y-92087143D01*
X127174286Y-92030000D01*
X127117143Y-91915714D01*
X127117143Y-91744286D01*
X127117143Y-92658571D02*
X128317143Y-92658571D01*
X127574286Y-92772857D02*
X127117143Y-93115714D01*
X127917143Y-93115714D02*
X127460000Y-92658571D01*
X127174286Y-94087143D02*
X127117143Y-93972857D01*
X127117143Y-93744286D01*
X127174286Y-93630000D01*
X127288571Y-93572857D01*
X127745714Y-93572857D01*
X127860000Y-93630000D01*
X127917143Y-93744286D01*
X127917143Y-93972857D01*
X127860000Y-94087143D01*
X127745714Y-94144286D01*
X127631429Y-94144286D01*
X127517143Y-93572857D01*
X127117143Y-94658571D02*
X127917143Y-94658571D01*
X127688571Y-94658571D02*
X127802857Y-94715714D01*
X127860000Y-94772857D01*
X127917143Y-94887143D01*
X127917143Y-95001428D01*
X127117143Y-95401428D02*
X127917143Y-95401428D01*
X128317143Y-95401428D02*
X128260000Y-95344285D01*
X128202857Y-95401428D01*
X128260000Y-95458571D01*
X128317143Y-95401428D01*
X128202857Y-95401428D01*
X127117143Y-96601429D02*
X127117143Y-95915714D01*
X127117143Y-96258572D02*
X128317143Y-96258572D01*
X128145714Y-96144286D01*
X128031429Y-96030000D01*
X127974286Y-95915714D01*
X127917143Y-97630000D02*
X127117143Y-97630000D01*
X128374286Y-97344286D02*
X127517143Y-97058571D01*
X127517143Y-97801429D01*
X117910001Y-56422857D02*
X117510001Y-55851429D01*
X117224286Y-56422857D02*
X117224286Y-55222857D01*
X117681429Y-55222857D01*
X117795715Y-55280000D01*
X117852858Y-55337143D01*
X117910001Y-55451429D01*
X117910001Y-55622857D01*
X117852858Y-55737143D01*
X117795715Y-55794286D01*
X117681429Y-55851429D01*
X117224286Y-55851429D01*
X118310001Y-55222857D02*
X119110001Y-56422857D01*
X119110001Y-55222857D02*
X118310001Y-56422857D01*
X117195715Y-50142857D02*
X117881429Y-50142857D01*
X117538572Y-51342857D02*
X117538572Y-50142857D01*
X118167144Y-50142857D02*
X118967144Y-51342857D01*
X118967144Y-50142857D02*
X118167144Y-51342857D01*
X115233572Y-111102857D02*
X115976429Y-111102857D01*
X115576429Y-111560000D01*
X115747857Y-111560000D01*
X115862143Y-111617143D01*
X115919286Y-111674286D01*
X115976429Y-111788571D01*
X115976429Y-112074286D01*
X115919286Y-112188571D01*
X115862143Y-112245714D01*
X115747857Y-112302857D01*
X115405000Y-112302857D01*
X115290714Y-112245714D01*
X115233572Y-112188571D01*
X116547857Y-112302857D02*
X116776429Y-112302857D01*
X116890714Y-112245714D01*
X116947857Y-112188571D01*
X117062143Y-112017143D01*
X117119286Y-111788571D01*
X117119286Y-111331429D01*
X117062143Y-111217143D01*
X117005000Y-111160000D01*
X116890714Y-111102857D01*
X116662143Y-111102857D01*
X116547857Y-111160000D01*
X116490714Y-111217143D01*
X116433571Y-111331429D01*
X116433571Y-111617143D01*
X116490714Y-111731429D01*
X116547857Y-111788571D01*
X116662143Y-111845714D01*
X116890714Y-111845714D01*
X117005000Y-111788571D01*
X117062143Y-111731429D01*
X117119286Y-111617143D01*
X115233572Y-108562857D02*
X115976429Y-108562857D01*
X115576429Y-109020000D01*
X115747857Y-109020000D01*
X115862143Y-109077143D01*
X115919286Y-109134286D01*
X115976429Y-109248571D01*
X115976429Y-109534286D01*
X115919286Y-109648571D01*
X115862143Y-109705714D01*
X115747857Y-109762857D01*
X115405000Y-109762857D01*
X115290714Y-109705714D01*
X115233572Y-109648571D01*
X117005000Y-108562857D02*
X116776429Y-108562857D01*
X116662143Y-108620000D01*
X116605000Y-108677143D01*
X116490714Y-108848571D01*
X116433571Y-109077143D01*
X116433571Y-109534286D01*
X116490714Y-109648571D01*
X116547857Y-109705714D01*
X116662143Y-109762857D01*
X116890714Y-109762857D01*
X117005000Y-109705714D01*
X117062143Y-109648571D01*
X117119286Y-109534286D01*
X117119286Y-109248571D01*
X117062143Y-109134286D01*
X117005000Y-109077143D01*
X116890714Y-109020000D01*
X116662143Y-109020000D01*
X116547857Y-109077143D01*
X116490714Y-109134286D01*
X116433571Y-109248571D01*
X115233572Y-106022857D02*
X115976429Y-106022857D01*
X115576429Y-106480000D01*
X115747857Y-106480000D01*
X115862143Y-106537143D01*
X115919286Y-106594286D01*
X115976429Y-106708571D01*
X115976429Y-106994286D01*
X115919286Y-107108571D01*
X115862143Y-107165714D01*
X115747857Y-107222857D01*
X115405000Y-107222857D01*
X115290714Y-107165714D01*
X115233572Y-107108571D01*
X117062143Y-106022857D02*
X116490714Y-106022857D01*
X116433571Y-106594286D01*
X116490714Y-106537143D01*
X116605000Y-106480000D01*
X116890714Y-106480000D01*
X117005000Y-106537143D01*
X117062143Y-106594286D01*
X117119286Y-106708571D01*
X117119286Y-106994286D01*
X117062143Y-107108571D01*
X117005000Y-107165714D01*
X116890714Y-107222857D01*
X116605000Y-107222857D01*
X116490714Y-107165714D01*
X116433571Y-107108571D01*
X115233572Y-103482857D02*
X115976429Y-103482857D01*
X115576429Y-103940000D01*
X115747857Y-103940000D01*
X115862143Y-103997143D01*
X115919286Y-104054286D01*
X115976429Y-104168571D01*
X115976429Y-104454286D01*
X115919286Y-104568571D01*
X115862143Y-104625714D01*
X115747857Y-104682857D01*
X115405000Y-104682857D01*
X115290714Y-104625714D01*
X115233572Y-104568571D01*
X117005000Y-103882857D02*
X117005000Y-104682857D01*
X116719286Y-103425714D02*
X116433571Y-104282857D01*
X117176429Y-104282857D01*
X115233572Y-100942857D02*
X115976429Y-100942857D01*
X115576429Y-101400000D01*
X115747857Y-101400000D01*
X115862143Y-101457143D01*
X115919286Y-101514286D01*
X115976429Y-101628571D01*
X115976429Y-101914286D01*
X115919286Y-102028571D01*
X115862143Y-102085714D01*
X115747857Y-102142857D01*
X115405000Y-102142857D01*
X115290714Y-102085714D01*
X115233572Y-102028571D01*
X116376429Y-100942857D02*
X117119286Y-100942857D01*
X116719286Y-101400000D01*
X116890714Y-101400000D01*
X117005000Y-101457143D01*
X117062143Y-101514286D01*
X117119286Y-101628571D01*
X117119286Y-101914286D01*
X117062143Y-102028571D01*
X117005000Y-102085714D01*
X116890714Y-102142857D01*
X116547857Y-102142857D01*
X116433571Y-102085714D01*
X116376429Y-102028571D01*
X115233572Y-98402857D02*
X115976429Y-98402857D01*
X115576429Y-98860000D01*
X115747857Y-98860000D01*
X115862143Y-98917143D01*
X115919286Y-98974286D01*
X115976429Y-99088571D01*
X115976429Y-99374286D01*
X115919286Y-99488571D01*
X115862143Y-99545714D01*
X115747857Y-99602857D01*
X115405000Y-99602857D01*
X115290714Y-99545714D01*
X115233572Y-99488571D01*
X116433571Y-98517143D02*
X116490714Y-98460000D01*
X116605000Y-98402857D01*
X116890714Y-98402857D01*
X117005000Y-98460000D01*
X117062143Y-98517143D01*
X117119286Y-98631429D01*
X117119286Y-98745714D01*
X117062143Y-98917143D01*
X116376429Y-99602857D01*
X117119286Y-99602857D01*
X115290714Y-95977143D02*
X115347857Y-95920000D01*
X115462143Y-95862857D01*
X115747857Y-95862857D01*
X115862143Y-95920000D01*
X115919286Y-95977143D01*
X115976429Y-96091429D01*
X115976429Y-96205714D01*
X115919286Y-96377143D01*
X115233572Y-97062857D01*
X115976429Y-97062857D01*
X116376429Y-95862857D02*
X117176429Y-95862857D01*
X116662143Y-97062857D01*
X115290714Y-93437143D02*
X115347857Y-93380000D01*
X115462143Y-93322857D01*
X115747857Y-93322857D01*
X115862143Y-93380000D01*
X115919286Y-93437143D01*
X115976429Y-93551429D01*
X115976429Y-93665714D01*
X115919286Y-93837143D01*
X115233572Y-94522857D01*
X115976429Y-94522857D01*
X117005000Y-93322857D02*
X116776429Y-93322857D01*
X116662143Y-93380000D01*
X116605000Y-93437143D01*
X116490714Y-93608571D01*
X116433571Y-93837143D01*
X116433571Y-94294286D01*
X116490714Y-94408571D01*
X116547857Y-94465714D01*
X116662143Y-94522857D01*
X116890714Y-94522857D01*
X117005000Y-94465714D01*
X117062143Y-94408571D01*
X117119286Y-94294286D01*
X117119286Y-94008571D01*
X117062143Y-93894286D01*
X117005000Y-93837143D01*
X116890714Y-93780000D01*
X116662143Y-93780000D01*
X116547857Y-93837143D01*
X116490714Y-93894286D01*
X116433571Y-94008571D01*
X115290714Y-90897143D02*
X115347857Y-90840000D01*
X115462143Y-90782857D01*
X115747857Y-90782857D01*
X115862143Y-90840000D01*
X115919286Y-90897143D01*
X115976429Y-91011429D01*
X115976429Y-91125714D01*
X115919286Y-91297143D01*
X115233572Y-91982857D01*
X115976429Y-91982857D01*
X117062143Y-90782857D02*
X116490714Y-90782857D01*
X116433571Y-91354286D01*
X116490714Y-91297143D01*
X116605000Y-91240000D01*
X116890714Y-91240000D01*
X117005000Y-91297143D01*
X117062143Y-91354286D01*
X117119286Y-91468571D01*
X117119286Y-91754286D01*
X117062143Y-91868571D01*
X117005000Y-91925714D01*
X116890714Y-91982857D01*
X116605000Y-91982857D01*
X116490714Y-91925714D01*
X116433571Y-91868571D01*
X115290714Y-88357143D02*
X115347857Y-88300000D01*
X115462143Y-88242857D01*
X115747857Y-88242857D01*
X115862143Y-88300000D01*
X115919286Y-88357143D01*
X115976429Y-88471429D01*
X115976429Y-88585714D01*
X115919286Y-88757143D01*
X115233572Y-89442857D01*
X115976429Y-89442857D01*
X116376429Y-88242857D02*
X117119286Y-88242857D01*
X116719286Y-88700000D01*
X116890714Y-88700000D01*
X117005000Y-88757143D01*
X117062143Y-88814286D01*
X117119286Y-88928571D01*
X117119286Y-89214286D01*
X117062143Y-89328571D01*
X117005000Y-89385714D01*
X116890714Y-89442857D01*
X116547857Y-89442857D01*
X116433571Y-89385714D01*
X116376429Y-89328571D01*
X115290714Y-85817143D02*
X115347857Y-85760000D01*
X115462143Y-85702857D01*
X115747857Y-85702857D01*
X115862143Y-85760000D01*
X115919286Y-85817143D01*
X115976429Y-85931429D01*
X115976429Y-86045714D01*
X115919286Y-86217143D01*
X115233572Y-86902857D01*
X115976429Y-86902857D01*
X116433571Y-85817143D02*
X116490714Y-85760000D01*
X116605000Y-85702857D01*
X116890714Y-85702857D01*
X117005000Y-85760000D01*
X117062143Y-85817143D01*
X117119286Y-85931429D01*
X117119286Y-86045714D01*
X117062143Y-86217143D01*
X116376429Y-86902857D01*
X117119286Y-86902857D01*
X115290714Y-83277143D02*
X115347857Y-83220000D01*
X115462143Y-83162857D01*
X115747857Y-83162857D01*
X115862143Y-83220000D01*
X115919286Y-83277143D01*
X115976429Y-83391429D01*
X115976429Y-83505714D01*
X115919286Y-83677143D01*
X115233572Y-84362857D01*
X115976429Y-84362857D01*
X117119286Y-84362857D02*
X116433571Y-84362857D01*
X116776429Y-84362857D02*
X116776429Y-83162857D01*
X116662143Y-83334286D01*
X116547857Y-83448571D01*
X116433571Y-83505714D01*
X115976429Y-81822857D02*
X115290714Y-81822857D01*
X115633572Y-81822857D02*
X115633572Y-80622857D01*
X115519286Y-80794286D01*
X115405000Y-80908571D01*
X115290714Y-80965714D01*
X116547857Y-81822857D02*
X116776429Y-81822857D01*
X116890714Y-81765714D01*
X116947857Y-81708571D01*
X117062143Y-81537143D01*
X117119286Y-81308571D01*
X117119286Y-80851429D01*
X117062143Y-80737143D01*
X117005000Y-80680000D01*
X116890714Y-80622857D01*
X116662143Y-80622857D01*
X116547857Y-80680000D01*
X116490714Y-80737143D01*
X116433571Y-80851429D01*
X116433571Y-81137143D01*
X116490714Y-81251429D01*
X116547857Y-81308571D01*
X116662143Y-81365714D01*
X116890714Y-81365714D01*
X117005000Y-81308571D01*
X117062143Y-81251429D01*
X117119286Y-81137143D01*
X115976429Y-79282857D02*
X115290714Y-79282857D01*
X115633572Y-79282857D02*
X115633572Y-78082857D01*
X115519286Y-78254286D01*
X115405000Y-78368571D01*
X115290714Y-78425714D01*
X116662143Y-78597143D02*
X116547857Y-78540000D01*
X116490714Y-78482857D01*
X116433571Y-78368571D01*
X116433571Y-78311429D01*
X116490714Y-78197143D01*
X116547857Y-78140000D01*
X116662143Y-78082857D01*
X116890714Y-78082857D01*
X117005000Y-78140000D01*
X117062143Y-78197143D01*
X117119286Y-78311429D01*
X117119286Y-78368571D01*
X117062143Y-78482857D01*
X117005000Y-78540000D01*
X116890714Y-78597143D01*
X116662143Y-78597143D01*
X116547857Y-78654286D01*
X116490714Y-78711429D01*
X116433571Y-78825714D01*
X116433571Y-79054286D01*
X116490714Y-79168571D01*
X116547857Y-79225714D01*
X116662143Y-79282857D01*
X116890714Y-79282857D01*
X117005000Y-79225714D01*
X117062143Y-79168571D01*
X117119286Y-79054286D01*
X117119286Y-78825714D01*
X117062143Y-78711429D01*
X117005000Y-78654286D01*
X116890714Y-78597143D01*
X115976429Y-76742857D02*
X115290714Y-76742857D01*
X115633572Y-76742857D02*
X115633572Y-75542857D01*
X115519286Y-75714286D01*
X115405000Y-75828571D01*
X115290714Y-75885714D01*
X116376429Y-75542857D02*
X117176429Y-75542857D01*
X116662143Y-76742857D01*
X115976429Y-74202857D02*
X115290714Y-74202857D01*
X115633572Y-74202857D02*
X115633572Y-73002857D01*
X115519286Y-73174286D01*
X115405000Y-73288571D01*
X115290714Y-73345714D01*
X117005000Y-73002857D02*
X116776429Y-73002857D01*
X116662143Y-73060000D01*
X116605000Y-73117143D01*
X116490714Y-73288571D01*
X116433571Y-73517143D01*
X116433571Y-73974286D01*
X116490714Y-74088571D01*
X116547857Y-74145714D01*
X116662143Y-74202857D01*
X116890714Y-74202857D01*
X117005000Y-74145714D01*
X117062143Y-74088571D01*
X117119286Y-73974286D01*
X117119286Y-73688571D01*
X117062143Y-73574286D01*
X117005000Y-73517143D01*
X116890714Y-73460000D01*
X116662143Y-73460000D01*
X116547857Y-73517143D01*
X116490714Y-73574286D01*
X116433571Y-73688571D01*
X115976429Y-71662857D02*
X115290714Y-71662857D01*
X115633572Y-71662857D02*
X115633572Y-70462857D01*
X115519286Y-70634286D01*
X115405000Y-70748571D01*
X115290714Y-70805714D01*
X117062143Y-70462857D02*
X116490714Y-70462857D01*
X116433571Y-71034286D01*
X116490714Y-70977143D01*
X116605000Y-70920000D01*
X116890714Y-70920000D01*
X117005000Y-70977143D01*
X117062143Y-71034286D01*
X117119286Y-71148571D01*
X117119286Y-71434286D01*
X117062143Y-71548571D01*
X117005000Y-71605714D01*
X116890714Y-71662857D01*
X116605000Y-71662857D01*
X116490714Y-71605714D01*
X116433571Y-71548571D01*
X115976429Y-69122857D02*
X115290714Y-69122857D01*
X115633572Y-69122857D02*
X115633572Y-67922857D01*
X115519286Y-68094286D01*
X115405000Y-68208571D01*
X115290714Y-68265714D01*
X117005000Y-68322857D02*
X117005000Y-69122857D01*
X116719286Y-67865714D02*
X116433571Y-68722857D01*
X117176429Y-68722857D01*
X115976429Y-66582857D02*
X115290714Y-66582857D01*
X115633572Y-66582857D02*
X115633572Y-65382857D01*
X115519286Y-65554286D01*
X115405000Y-65668571D01*
X115290714Y-65725714D01*
X116376429Y-65382857D02*
X117119286Y-65382857D01*
X116719286Y-65840000D01*
X116890714Y-65840000D01*
X117005000Y-65897143D01*
X117062143Y-65954286D01*
X117119286Y-66068571D01*
X117119286Y-66354286D01*
X117062143Y-66468571D01*
X117005000Y-66525714D01*
X116890714Y-66582857D01*
X116547857Y-66582857D01*
X116433571Y-66525714D01*
X116376429Y-66468571D01*
X115976429Y-64042857D02*
X115290714Y-64042857D01*
X115633572Y-64042857D02*
X115633572Y-62842857D01*
X115519286Y-63014286D01*
X115405000Y-63128571D01*
X115290714Y-63185714D01*
X116433571Y-62957143D02*
X116490714Y-62900000D01*
X116605000Y-62842857D01*
X116890714Y-62842857D01*
X117005000Y-62900000D01*
X117062143Y-62957143D01*
X117119286Y-63071429D01*
X117119286Y-63185714D01*
X117062143Y-63357143D01*
X116376429Y-64042857D01*
X117119286Y-64042857D01*
X115855715Y-60302857D02*
X115284286Y-60302857D01*
X115227143Y-60874286D01*
X115284286Y-60817143D01*
X115398572Y-60760000D01*
X115684286Y-60760000D01*
X115798572Y-60817143D01*
X115855715Y-60874286D01*
X115912858Y-60988571D01*
X115912858Y-61274286D01*
X115855715Y-61388571D01*
X115798572Y-61445714D01*
X115684286Y-61502857D01*
X115398572Y-61502857D01*
X115284286Y-61445714D01*
X115227143Y-61388571D01*
X115798572Y-58162857D02*
X115798572Y-58962857D01*
X115512858Y-57705714D02*
X115227143Y-58562857D01*
X115970001Y-58562857D01*
X115170001Y-55222857D02*
X115912858Y-55222857D01*
X115512858Y-55680000D01*
X115684286Y-55680000D01*
X115798572Y-55737143D01*
X115855715Y-55794286D01*
X115912858Y-55908571D01*
X115912858Y-56194286D01*
X115855715Y-56308571D01*
X115798572Y-56365714D01*
X115684286Y-56422857D01*
X115341429Y-56422857D01*
X115227143Y-56365714D01*
X115170001Y-56308571D01*
X115227143Y-52797143D02*
X115284286Y-52740000D01*
X115398572Y-52682857D01*
X115684286Y-52682857D01*
X115798572Y-52740000D01*
X115855715Y-52797143D01*
X115912858Y-52911429D01*
X115912858Y-53025714D01*
X115855715Y-53197143D01*
X115170001Y-53882857D01*
X115912858Y-53882857D01*
X115912858Y-51342857D02*
X115227143Y-51342857D01*
X115570001Y-51342857D02*
X115570001Y-50142857D01*
X115455715Y-50314286D01*
X115341429Y-50428571D01*
X115227143Y-50485714D01*
X115512858Y-47602857D02*
X115627143Y-47602857D01*
X115741429Y-47660000D01*
X115798572Y-47717143D01*
X115855715Y-47831429D01*
X115912858Y-48060000D01*
X115912858Y-48345714D01*
X115855715Y-48574286D01*
X115798572Y-48688571D01*
X115741429Y-48745714D01*
X115627143Y-48802857D01*
X115512858Y-48802857D01*
X115398572Y-48745714D01*
X115341429Y-48688571D01*
X115284286Y-48574286D01*
X115227143Y-48345714D01*
X115227143Y-48060000D01*
X115284286Y-47831429D01*
X115341429Y-47717143D01*
X115398572Y-47660000D01*
X115512858Y-47602857D01*
X115319286Y-45634286D02*
X115719286Y-45634286D01*
X115890715Y-46262857D02*
X115319286Y-46262857D01*
X115319286Y-45062857D01*
X115890715Y-45062857D01*
X116405000Y-46262857D02*
X116405000Y-45062857D01*
X117090715Y-46262857D01*
X117090715Y-45062857D01*
X115068572Y-42522857D02*
X115811429Y-42522857D01*
X115411429Y-42980000D01*
X115582857Y-42980000D01*
X115697143Y-43037143D01*
X115754286Y-43094286D01*
X115811429Y-43208571D01*
X115811429Y-43494286D01*
X115754286Y-43608571D01*
X115697143Y-43665714D01*
X115582857Y-43722857D01*
X115240000Y-43722857D01*
X115125714Y-43665714D01*
X115068572Y-43608571D01*
X116325714Y-43608571D02*
X116382857Y-43665714D01*
X116325714Y-43722857D01*
X116268571Y-43665714D01*
X116325714Y-43608571D01*
X116325714Y-43722857D01*
X116782858Y-42522857D02*
X117525715Y-42522857D01*
X117125715Y-42980000D01*
X117297143Y-42980000D01*
X117411429Y-43037143D01*
X117468572Y-43094286D01*
X117525715Y-43208571D01*
X117525715Y-43494286D01*
X117468572Y-43608571D01*
X117411429Y-43665714D01*
X117297143Y-43722857D01*
X116954286Y-43722857D01*
X116840000Y-43665714D01*
X116782858Y-43608571D01*
X117868572Y-42522857D02*
X118268572Y-43722857D01*
X118668572Y-42522857D01*
X115925715Y-40040000D02*
X115811429Y-39982857D01*
X115640000Y-39982857D01*
X115468572Y-40040000D01*
X115354286Y-40154286D01*
X115297143Y-40268571D01*
X115240000Y-40497143D01*
X115240000Y-40668571D01*
X115297143Y-40897143D01*
X115354286Y-41011429D01*
X115468572Y-41125714D01*
X115640000Y-41182857D01*
X115754286Y-41182857D01*
X115925715Y-41125714D01*
X115982858Y-41068571D01*
X115982858Y-40668571D01*
X115754286Y-40668571D01*
X116497143Y-41182857D02*
X116497143Y-39982857D01*
X117182858Y-41182857D01*
X117182858Y-39982857D01*
X117754286Y-41182857D02*
X117754286Y-39982857D01*
X118040001Y-39982857D01*
X118211429Y-40040000D01*
X118325715Y-40154286D01*
X118382858Y-40268571D01*
X118440001Y-40497143D01*
X118440001Y-40668571D01*
X118382858Y-40897143D01*
X118325715Y-41011429D01*
X118211429Y-41125714D01*
X118040001Y-41182857D01*
X117754286Y-41182857D01*
X115611429Y-37442857D02*
X116011429Y-38642857D01*
X116411429Y-37442857D01*
X116811428Y-38642857D02*
X116811428Y-37842857D01*
X116811428Y-37442857D02*
X116754285Y-37500000D01*
X116811428Y-37557143D01*
X116868571Y-37500000D01*
X116811428Y-37442857D01*
X116811428Y-37557143D01*
X117382857Y-37842857D02*
X117382857Y-38642857D01*
X117382857Y-37957143D02*
X117440000Y-37900000D01*
X117554286Y-37842857D01*
X117725714Y-37842857D01*
X117840000Y-37900000D01*
X117897143Y-38014286D01*
X117897143Y-38642857D01*
X199348571Y-112417143D02*
X198948571Y-111217143D01*
X198548571Y-112417143D01*
X198148572Y-111217143D02*
X198148572Y-112017143D01*
X198148572Y-112417143D02*
X198205715Y-112360000D01*
X198148572Y-112302857D01*
X198091429Y-112360000D01*
X198148572Y-112417143D01*
X198148572Y-112302857D01*
X197577143Y-112017143D02*
X197577143Y-111217143D01*
X197577143Y-111902857D02*
X197520000Y-111960000D01*
X197405714Y-112017143D01*
X197234286Y-112017143D01*
X197120000Y-111960000D01*
X197062857Y-111845714D01*
X197062857Y-111217143D01*
X199034285Y-109820000D02*
X199148571Y-109877143D01*
X199320000Y-109877143D01*
X199491428Y-109820000D01*
X199605714Y-109705714D01*
X199662857Y-109591429D01*
X199720000Y-109362857D01*
X199720000Y-109191429D01*
X199662857Y-108962857D01*
X199605714Y-108848571D01*
X199491428Y-108734286D01*
X199320000Y-108677143D01*
X199205714Y-108677143D01*
X199034285Y-108734286D01*
X198977142Y-108791429D01*
X198977142Y-109191429D01*
X199205714Y-109191429D01*
X198462857Y-108677143D02*
X198462857Y-109877143D01*
X197777142Y-108677143D01*
X197777142Y-109877143D01*
X197205714Y-108677143D02*
X197205714Y-109877143D01*
X196919999Y-109877143D01*
X196748571Y-109820000D01*
X196634285Y-109705714D01*
X196577142Y-109591429D01*
X196519999Y-109362857D01*
X196519999Y-109191429D01*
X196577142Y-108962857D01*
X196634285Y-108848571D01*
X196748571Y-108734286D01*
X196919999Y-108677143D01*
X197205714Y-108677143D01*
X199891428Y-107337143D02*
X199148571Y-107337143D01*
X199548571Y-106880000D01*
X199377143Y-106880000D01*
X199262857Y-106822857D01*
X199205714Y-106765714D01*
X199148571Y-106651429D01*
X199148571Y-106365714D01*
X199205714Y-106251429D01*
X199262857Y-106194286D01*
X199377143Y-106137143D01*
X199720000Y-106137143D01*
X199834286Y-106194286D01*
X199891428Y-106251429D01*
X198634286Y-106251429D02*
X198577143Y-106194286D01*
X198634286Y-106137143D01*
X198691429Y-106194286D01*
X198634286Y-106251429D01*
X198634286Y-106137143D01*
X198177142Y-107337143D02*
X197434285Y-107337143D01*
X197834285Y-106880000D01*
X197662857Y-106880000D01*
X197548571Y-106822857D01*
X197491428Y-106765714D01*
X197434285Y-106651429D01*
X197434285Y-106365714D01*
X197491428Y-106251429D01*
X197548571Y-106194286D01*
X197662857Y-106137143D01*
X198005714Y-106137143D01*
X198120000Y-106194286D01*
X198177142Y-106251429D01*
X197091428Y-107337143D02*
X196691428Y-106137143D01*
X196291428Y-107337143D01*
X199640714Y-104225714D02*
X199240714Y-104225714D01*
X199069285Y-103597143D02*
X199640714Y-103597143D01*
X199640714Y-104797143D01*
X199069285Y-104797143D01*
X198555000Y-103597143D02*
X198555000Y-104797143D01*
X197869285Y-103597143D01*
X197869285Y-104797143D01*
X199447142Y-102257143D02*
X199332857Y-102257143D01*
X199218571Y-102200000D01*
X199161428Y-102142857D01*
X199104285Y-102028571D01*
X199047142Y-101800000D01*
X199047142Y-101514286D01*
X199104285Y-101285714D01*
X199161428Y-101171429D01*
X199218571Y-101114286D01*
X199332857Y-101057143D01*
X199447142Y-101057143D01*
X199561428Y-101114286D01*
X199618571Y-101171429D01*
X199675714Y-101285714D01*
X199732857Y-101514286D01*
X199732857Y-101800000D01*
X199675714Y-102028571D01*
X199618571Y-102142857D01*
X199561428Y-102200000D01*
X199447142Y-102257143D01*
X199047142Y-98517143D02*
X199732857Y-98517143D01*
X199389999Y-98517143D02*
X199389999Y-99717143D01*
X199504285Y-99545714D01*
X199618571Y-99431429D01*
X199732857Y-99374286D01*
X199732857Y-97062857D02*
X199675714Y-97120000D01*
X199561428Y-97177143D01*
X199275714Y-97177143D01*
X199161428Y-97120000D01*
X199104285Y-97062857D01*
X199047142Y-96948571D01*
X199047142Y-96834286D01*
X199104285Y-96662857D01*
X199789999Y-95977143D01*
X199047142Y-95977143D01*
X199789999Y-94637143D02*
X199047142Y-94637143D01*
X199447142Y-94180000D01*
X199275714Y-94180000D01*
X199161428Y-94122857D01*
X199104285Y-94065714D01*
X199047142Y-93951429D01*
X199047142Y-93665714D01*
X199104285Y-93551429D01*
X199161428Y-93494286D01*
X199275714Y-93437143D01*
X199618571Y-93437143D01*
X199732857Y-93494286D01*
X199789999Y-93551429D01*
X199161428Y-91697143D02*
X199161428Y-90897143D01*
X199447142Y-92154286D02*
X199732857Y-91297143D01*
X198989999Y-91297143D01*
X199104285Y-89557143D02*
X199675714Y-89557143D01*
X199732857Y-88985714D01*
X199675714Y-89042857D01*
X199561428Y-89100000D01*
X199275714Y-89100000D01*
X199161428Y-89042857D01*
X199104285Y-88985714D01*
X199047142Y-88871429D01*
X199047142Y-88585714D01*
X199104285Y-88471429D01*
X199161428Y-88414286D01*
X199275714Y-88357143D01*
X199561428Y-88357143D01*
X199675714Y-88414286D01*
X199732857Y-88471429D01*
X198983571Y-85817143D02*
X199669286Y-85817143D01*
X199326428Y-85817143D02*
X199326428Y-87017143D01*
X199440714Y-86845714D01*
X199555000Y-86731429D01*
X199669286Y-86674286D01*
X198526429Y-86902857D02*
X198469286Y-86960000D01*
X198355000Y-87017143D01*
X198069286Y-87017143D01*
X197955000Y-86960000D01*
X197897857Y-86902857D01*
X197840714Y-86788571D01*
X197840714Y-86674286D01*
X197897857Y-86502857D01*
X198583571Y-85817143D01*
X197840714Y-85817143D01*
X198983571Y-83277143D02*
X199669286Y-83277143D01*
X199326428Y-83277143D02*
X199326428Y-84477143D01*
X199440714Y-84305714D01*
X199555000Y-84191429D01*
X199669286Y-84134286D01*
X198583571Y-84477143D02*
X197840714Y-84477143D01*
X198240714Y-84020000D01*
X198069286Y-84020000D01*
X197955000Y-83962857D01*
X197897857Y-83905714D01*
X197840714Y-83791429D01*
X197840714Y-83505714D01*
X197897857Y-83391429D01*
X197955000Y-83334286D01*
X198069286Y-83277143D01*
X198412143Y-83277143D01*
X198526429Y-83334286D01*
X198583571Y-83391429D01*
X198983571Y-80737143D02*
X199669286Y-80737143D01*
X199326428Y-80737143D02*
X199326428Y-81937143D01*
X199440714Y-81765714D01*
X199555000Y-81651429D01*
X199669286Y-81594286D01*
X197955000Y-81537143D02*
X197955000Y-80737143D01*
X198240714Y-81994286D02*
X198526429Y-81137143D01*
X197783571Y-81137143D01*
X198983571Y-78197143D02*
X199669286Y-78197143D01*
X199326428Y-78197143D02*
X199326428Y-79397143D01*
X199440714Y-79225714D01*
X199555000Y-79111429D01*
X199669286Y-79054286D01*
X197897857Y-79397143D02*
X198469286Y-79397143D01*
X198526429Y-78825714D01*
X198469286Y-78882857D01*
X198355000Y-78940000D01*
X198069286Y-78940000D01*
X197955000Y-78882857D01*
X197897857Y-78825714D01*
X197840714Y-78711429D01*
X197840714Y-78425714D01*
X197897857Y-78311429D01*
X197955000Y-78254286D01*
X198069286Y-78197143D01*
X198355000Y-78197143D01*
X198469286Y-78254286D01*
X198526429Y-78311429D01*
X198983571Y-75657143D02*
X199669286Y-75657143D01*
X199326428Y-75657143D02*
X199326428Y-76857143D01*
X199440714Y-76685714D01*
X199555000Y-76571429D01*
X199669286Y-76514286D01*
X197955000Y-76857143D02*
X198183571Y-76857143D01*
X198297857Y-76800000D01*
X198355000Y-76742857D01*
X198469286Y-76571429D01*
X198526429Y-76342857D01*
X198526429Y-75885714D01*
X198469286Y-75771429D01*
X198412143Y-75714286D01*
X198297857Y-75657143D01*
X198069286Y-75657143D01*
X197955000Y-75714286D01*
X197897857Y-75771429D01*
X197840714Y-75885714D01*
X197840714Y-76171429D01*
X197897857Y-76285714D01*
X197955000Y-76342857D01*
X198069286Y-76400000D01*
X198297857Y-76400000D01*
X198412143Y-76342857D01*
X198469286Y-76285714D01*
X198526429Y-76171429D01*
X198983571Y-73117143D02*
X199669286Y-73117143D01*
X199326428Y-73117143D02*
X199326428Y-74317143D01*
X199440714Y-74145714D01*
X199555000Y-74031429D01*
X199669286Y-73974286D01*
X198583571Y-74317143D02*
X197783571Y-74317143D01*
X198297857Y-73117143D01*
X198983571Y-70577143D02*
X199669286Y-70577143D01*
X199326428Y-70577143D02*
X199326428Y-71777143D01*
X199440714Y-71605714D01*
X199555000Y-71491429D01*
X199669286Y-71434286D01*
X198297857Y-71262857D02*
X198412143Y-71320000D01*
X198469286Y-71377143D01*
X198526429Y-71491429D01*
X198526429Y-71548571D01*
X198469286Y-71662857D01*
X198412143Y-71720000D01*
X198297857Y-71777143D01*
X198069286Y-71777143D01*
X197955000Y-71720000D01*
X197897857Y-71662857D01*
X197840714Y-71548571D01*
X197840714Y-71491429D01*
X197897857Y-71377143D01*
X197955000Y-71320000D01*
X198069286Y-71262857D01*
X198297857Y-71262857D01*
X198412143Y-71205714D01*
X198469286Y-71148571D01*
X198526429Y-71034286D01*
X198526429Y-70805714D01*
X198469286Y-70691429D01*
X198412143Y-70634286D01*
X198297857Y-70577143D01*
X198069286Y-70577143D01*
X197955000Y-70634286D01*
X197897857Y-70691429D01*
X197840714Y-70805714D01*
X197840714Y-71034286D01*
X197897857Y-71148571D01*
X197955000Y-71205714D01*
X198069286Y-71262857D01*
X198983571Y-68037143D02*
X199669286Y-68037143D01*
X199326428Y-68037143D02*
X199326428Y-69237143D01*
X199440714Y-69065714D01*
X199555000Y-68951429D01*
X199669286Y-68894286D01*
X198412143Y-68037143D02*
X198183571Y-68037143D01*
X198069286Y-68094286D01*
X198012143Y-68151429D01*
X197897857Y-68322857D01*
X197840714Y-68551429D01*
X197840714Y-69008571D01*
X197897857Y-69122857D01*
X197955000Y-69180000D01*
X198069286Y-69237143D01*
X198297857Y-69237143D01*
X198412143Y-69180000D01*
X198469286Y-69122857D01*
X198526429Y-69008571D01*
X198526429Y-68722857D01*
X198469286Y-68608571D01*
X198412143Y-68551429D01*
X198297857Y-68494286D01*
X198069286Y-68494286D01*
X197955000Y-68551429D01*
X197897857Y-68608571D01*
X197840714Y-68722857D01*
X199669286Y-66582857D02*
X199612143Y-66640000D01*
X199497857Y-66697143D01*
X199212143Y-66697143D01*
X199097857Y-66640000D01*
X199040714Y-66582857D01*
X198983571Y-66468571D01*
X198983571Y-66354286D01*
X199040714Y-66182857D01*
X199726428Y-65497143D01*
X198983571Y-65497143D01*
X197840714Y-65497143D02*
X198526429Y-65497143D01*
X198183571Y-65497143D02*
X198183571Y-66697143D01*
X198297857Y-66525714D01*
X198412143Y-66411429D01*
X198526429Y-66354286D01*
X199669286Y-64042857D02*
X199612143Y-64100000D01*
X199497857Y-64157143D01*
X199212143Y-64157143D01*
X199097857Y-64100000D01*
X199040714Y-64042857D01*
X198983571Y-63928571D01*
X198983571Y-63814286D01*
X199040714Y-63642857D01*
X199726428Y-62957143D01*
X198983571Y-62957143D01*
X198526429Y-64042857D02*
X198469286Y-64100000D01*
X198355000Y-64157143D01*
X198069286Y-64157143D01*
X197955000Y-64100000D01*
X197897857Y-64042857D01*
X197840714Y-63928571D01*
X197840714Y-63814286D01*
X197897857Y-63642857D01*
X198583571Y-62957143D01*
X197840714Y-62957143D01*
X199669286Y-61502857D02*
X199612143Y-61560000D01*
X199497857Y-61617143D01*
X199212143Y-61617143D01*
X199097857Y-61560000D01*
X199040714Y-61502857D01*
X198983571Y-61388571D01*
X198983571Y-61274286D01*
X199040714Y-61102857D01*
X199726428Y-60417143D01*
X198983571Y-60417143D01*
X198583571Y-61617143D02*
X197840714Y-61617143D01*
X198240714Y-61160000D01*
X198069286Y-61160000D01*
X197955000Y-61102857D01*
X197897857Y-61045714D01*
X197840714Y-60931429D01*
X197840714Y-60645714D01*
X197897857Y-60531429D01*
X197955000Y-60474286D01*
X198069286Y-60417143D01*
X198412143Y-60417143D01*
X198526429Y-60474286D01*
X198583571Y-60531429D01*
X199669286Y-58962857D02*
X199612143Y-59020000D01*
X199497857Y-59077143D01*
X199212143Y-59077143D01*
X199097857Y-59020000D01*
X199040714Y-58962857D01*
X198983571Y-58848571D01*
X198983571Y-58734286D01*
X199040714Y-58562857D01*
X199726428Y-57877143D01*
X198983571Y-57877143D01*
X197897857Y-59077143D02*
X198469286Y-59077143D01*
X198526429Y-58505714D01*
X198469286Y-58562857D01*
X198355000Y-58620000D01*
X198069286Y-58620000D01*
X197955000Y-58562857D01*
X197897857Y-58505714D01*
X197840714Y-58391429D01*
X197840714Y-58105714D01*
X197897857Y-57991429D01*
X197955000Y-57934286D01*
X198069286Y-57877143D01*
X198355000Y-57877143D01*
X198469286Y-57934286D01*
X198526429Y-57991429D01*
X199669286Y-56422857D02*
X199612143Y-56480000D01*
X199497857Y-56537143D01*
X199212143Y-56537143D01*
X199097857Y-56480000D01*
X199040714Y-56422857D01*
X198983571Y-56308571D01*
X198983571Y-56194286D01*
X199040714Y-56022857D01*
X199726428Y-55337143D01*
X198983571Y-55337143D01*
X197955000Y-56537143D02*
X198183571Y-56537143D01*
X198297857Y-56480000D01*
X198355000Y-56422857D01*
X198469286Y-56251429D01*
X198526429Y-56022857D01*
X198526429Y-55565714D01*
X198469286Y-55451429D01*
X198412143Y-55394286D01*
X198297857Y-55337143D01*
X198069286Y-55337143D01*
X197955000Y-55394286D01*
X197897857Y-55451429D01*
X197840714Y-55565714D01*
X197840714Y-55851429D01*
X197897857Y-55965714D01*
X197955000Y-56022857D01*
X198069286Y-56080000D01*
X198297857Y-56080000D01*
X198412143Y-56022857D01*
X198469286Y-55965714D01*
X198526429Y-55851429D01*
X199669286Y-53882857D02*
X199612143Y-53940000D01*
X199497857Y-53997143D01*
X199212143Y-53997143D01*
X199097857Y-53940000D01*
X199040714Y-53882857D01*
X198983571Y-53768571D01*
X198983571Y-53654286D01*
X199040714Y-53482857D01*
X199726428Y-52797143D01*
X198983571Y-52797143D01*
X198583571Y-53997143D02*
X197783571Y-53997143D01*
X198297857Y-52797143D01*
X199726428Y-51457143D02*
X198983571Y-51457143D01*
X199383571Y-51000000D01*
X199212143Y-51000000D01*
X199097857Y-50942857D01*
X199040714Y-50885714D01*
X198983571Y-50771429D01*
X198983571Y-50485714D01*
X199040714Y-50371429D01*
X199097857Y-50314286D01*
X199212143Y-50257143D01*
X199555000Y-50257143D01*
X199669286Y-50314286D01*
X199726428Y-50371429D01*
X198526429Y-51342857D02*
X198469286Y-51400000D01*
X198355000Y-51457143D01*
X198069286Y-51457143D01*
X197955000Y-51400000D01*
X197897857Y-51342857D01*
X197840714Y-51228571D01*
X197840714Y-51114286D01*
X197897857Y-50942857D01*
X198583571Y-50257143D01*
X197840714Y-50257143D01*
X199726428Y-48917143D02*
X198983571Y-48917143D01*
X199383571Y-48460000D01*
X199212143Y-48460000D01*
X199097857Y-48402857D01*
X199040714Y-48345714D01*
X198983571Y-48231429D01*
X198983571Y-47945714D01*
X199040714Y-47831429D01*
X199097857Y-47774286D01*
X199212143Y-47717143D01*
X199555000Y-47717143D01*
X199669286Y-47774286D01*
X199726428Y-47831429D01*
X198583571Y-48917143D02*
X197840714Y-48917143D01*
X198240714Y-48460000D01*
X198069286Y-48460000D01*
X197955000Y-48402857D01*
X197897857Y-48345714D01*
X197840714Y-48231429D01*
X197840714Y-47945714D01*
X197897857Y-47831429D01*
X197955000Y-47774286D01*
X198069286Y-47717143D01*
X198412143Y-47717143D01*
X198526429Y-47774286D01*
X198583571Y-47831429D01*
X199726428Y-46377143D02*
X198983571Y-46377143D01*
X199383571Y-45920000D01*
X199212143Y-45920000D01*
X199097857Y-45862857D01*
X199040714Y-45805714D01*
X198983571Y-45691429D01*
X198983571Y-45405714D01*
X199040714Y-45291429D01*
X199097857Y-45234286D01*
X199212143Y-45177143D01*
X199555000Y-45177143D01*
X199669286Y-45234286D01*
X199726428Y-45291429D01*
X197955000Y-45977143D02*
X197955000Y-45177143D01*
X198240714Y-46434286D02*
X198526429Y-45577143D01*
X197783571Y-45577143D01*
X199726428Y-43837143D02*
X198983571Y-43837143D01*
X199383571Y-43380000D01*
X199212143Y-43380000D01*
X199097857Y-43322857D01*
X199040714Y-43265714D01*
X198983571Y-43151429D01*
X198983571Y-42865714D01*
X199040714Y-42751429D01*
X199097857Y-42694286D01*
X199212143Y-42637143D01*
X199555000Y-42637143D01*
X199669286Y-42694286D01*
X199726428Y-42751429D01*
X197897857Y-43837143D02*
X198469286Y-43837143D01*
X198526429Y-43265714D01*
X198469286Y-43322857D01*
X198355000Y-43380000D01*
X198069286Y-43380000D01*
X197955000Y-43322857D01*
X197897857Y-43265714D01*
X197840714Y-43151429D01*
X197840714Y-42865714D01*
X197897857Y-42751429D01*
X197955000Y-42694286D01*
X198069286Y-42637143D01*
X198355000Y-42637143D01*
X198469286Y-42694286D01*
X198526429Y-42751429D01*
X199726428Y-41297143D02*
X198983571Y-41297143D01*
X199383571Y-40840000D01*
X199212143Y-40840000D01*
X199097857Y-40782857D01*
X199040714Y-40725714D01*
X198983571Y-40611429D01*
X198983571Y-40325714D01*
X199040714Y-40211429D01*
X199097857Y-40154286D01*
X199212143Y-40097143D01*
X199555000Y-40097143D01*
X199669286Y-40154286D01*
X199726428Y-40211429D01*
X197955000Y-41297143D02*
X198183571Y-41297143D01*
X198297857Y-41240000D01*
X198355000Y-41182857D01*
X198469286Y-41011429D01*
X198526429Y-40782857D01*
X198526429Y-40325714D01*
X198469286Y-40211429D01*
X198412143Y-40154286D01*
X198297857Y-40097143D01*
X198069286Y-40097143D01*
X197955000Y-40154286D01*
X197897857Y-40211429D01*
X197840714Y-40325714D01*
X197840714Y-40611429D01*
X197897857Y-40725714D01*
X197955000Y-40782857D01*
X198069286Y-40840000D01*
X198297857Y-40840000D01*
X198412143Y-40782857D01*
X198469286Y-40725714D01*
X198526429Y-40611429D01*
X199726428Y-38757143D02*
X198983571Y-38757143D01*
X199383571Y-38300000D01*
X199212143Y-38300000D01*
X199097857Y-38242857D01*
X199040714Y-38185714D01*
X198983571Y-38071429D01*
X198983571Y-37785714D01*
X199040714Y-37671429D01*
X199097857Y-37614286D01*
X199212143Y-37557143D01*
X199555000Y-37557143D01*
X199669286Y-37614286D01*
X199726428Y-37671429D01*
X198412143Y-37557143D02*
X198183571Y-37557143D01*
X198069286Y-37614286D01*
X198012143Y-37671429D01*
X197897857Y-37842857D01*
X197840714Y-38071429D01*
X197840714Y-38528571D01*
X197897857Y-38642857D01*
X197955000Y-38700000D01*
X198069286Y-38757143D01*
X198297857Y-38757143D01*
X198412143Y-38700000D01*
X198469286Y-38642857D01*
X198526429Y-38528571D01*
X198526429Y-38242857D01*
X198469286Y-38128571D01*
X198412143Y-38071429D01*
X198297857Y-38014286D01*
X198069286Y-38014286D01*
X197955000Y-38071429D01*
X197897857Y-38128571D01*
X197840714Y-38242857D01*
X197764285Y-99717143D02*
X197078571Y-99717143D01*
X197421428Y-98517143D02*
X197421428Y-99717143D01*
X196792856Y-99717143D02*
X195992856Y-98517143D01*
X195992856Y-99717143D02*
X196792856Y-98517143D01*
X197049999Y-93437143D02*
X197449999Y-94008571D01*
X197735714Y-93437143D02*
X197735714Y-94637143D01*
X197278571Y-94637143D01*
X197164285Y-94580000D01*
X197107142Y-94522857D01*
X197049999Y-94408571D01*
X197049999Y-94237143D01*
X197107142Y-94122857D01*
X197164285Y-94065714D01*
X197278571Y-94008571D01*
X197735714Y-94008571D01*
X196649999Y-94637143D02*
X195849999Y-93437143D01*
X195849999Y-94637143D02*
X196649999Y-93437143D01*
X184082857Y-61944286D02*
X182882857Y-61944286D01*
X184082857Y-61258571D02*
X183397143Y-61772857D01*
X182882857Y-61258571D02*
X183568571Y-61944286D01*
X183454286Y-60744286D02*
X183454286Y-60344286D01*
X184082857Y-60172857D02*
X184082857Y-60744286D01*
X182882857Y-60744286D01*
X182882857Y-60172857D01*
X184082857Y-58972857D02*
X183511429Y-59372857D01*
X184082857Y-59658572D02*
X182882857Y-59658572D01*
X182882857Y-59201429D01*
X182940000Y-59087143D01*
X182997143Y-59030000D01*
X183111429Y-58972857D01*
X183282857Y-58972857D01*
X183397143Y-59030000D01*
X183454286Y-59087143D01*
X183511429Y-59201429D01*
X183511429Y-59658572D01*
X184082857Y-58458572D02*
X182882857Y-58458572D01*
X183454286Y-57887143D02*
X183454286Y-57487143D01*
X184082857Y-57315714D02*
X184082857Y-57887143D01*
X182882857Y-57887143D01*
X182882857Y-57315714D01*
X184025714Y-56858572D02*
X184082857Y-56687143D01*
X184082857Y-56401429D01*
X184025714Y-56287143D01*
X183968571Y-56230000D01*
X183854286Y-56172857D01*
X183740000Y-56172857D01*
X183625714Y-56230000D01*
X183568571Y-56287143D01*
X183511429Y-56401429D01*
X183454286Y-56630000D01*
X183397143Y-56744286D01*
X183340000Y-56801429D01*
X183225714Y-56858572D01*
X183111429Y-56858572D01*
X182997143Y-56801429D01*
X182940000Y-56744286D01*
X182882857Y-56630000D01*
X182882857Y-56344286D01*
X182940000Y-56172857D01*
X184082857Y-55658572D02*
X182882857Y-55658572D01*
X182882857Y-55201429D01*
X182940000Y-55087143D01*
X182997143Y-55030000D01*
X183111429Y-54972857D01*
X183282857Y-54972857D01*
X183397143Y-55030000D01*
X183454286Y-55087143D01*
X183511429Y-55201429D01*
X183511429Y-55658572D01*
X182882857Y-54572857D02*
X182882857Y-53830000D01*
X183340000Y-54230000D01*
X183340000Y-54058572D01*
X183397143Y-53944286D01*
X183454286Y-53887143D01*
X183568571Y-53830000D01*
X183854286Y-53830000D01*
X183968571Y-53887143D01*
X184025714Y-53944286D01*
X184082857Y-54058572D01*
X184082857Y-54401429D01*
X184025714Y-54515715D01*
X183968571Y-54572857D01*
X182997143Y-53372858D02*
X182940000Y-53315715D01*
X182882857Y-53201429D01*
X182882857Y-52915715D01*
X182940000Y-52801429D01*
X182997143Y-52744286D01*
X183111429Y-52687143D01*
X183225714Y-52687143D01*
X183397143Y-52744286D01*
X184082857Y-53430000D01*
X184082857Y-52687143D01*
X184762857Y-62115714D02*
X184762857Y-61430000D01*
X185962857Y-61772857D02*
X184762857Y-61772857D01*
X185962857Y-61030000D02*
X185162857Y-61030000D01*
X185391429Y-61030000D02*
X185277143Y-60972857D01*
X185220000Y-60915714D01*
X185162857Y-60801428D01*
X185162857Y-60687143D01*
X185962857Y-59772857D02*
X185334286Y-59772857D01*
X185220000Y-59830000D01*
X185162857Y-59944286D01*
X185162857Y-60172857D01*
X185220000Y-60287143D01*
X185905714Y-59772857D02*
X185962857Y-59887143D01*
X185962857Y-60172857D01*
X185905714Y-60287143D01*
X185791429Y-60344286D01*
X185677143Y-60344286D01*
X185562857Y-60287143D01*
X185505714Y-60172857D01*
X185505714Y-59887143D01*
X185448571Y-59772857D01*
X185162857Y-59201429D02*
X186362857Y-59201429D01*
X185220000Y-59201429D02*
X185162857Y-59087143D01*
X185162857Y-58858572D01*
X185220000Y-58744286D01*
X185277143Y-58687143D01*
X185391429Y-58630000D01*
X185734286Y-58630000D01*
X185848571Y-58687143D01*
X185905714Y-58744286D01*
X185962857Y-58858572D01*
X185962857Y-59087143D01*
X185905714Y-59201429D01*
X185905714Y-57658572D02*
X185962857Y-57772858D01*
X185962857Y-58001429D01*
X185905714Y-58115715D01*
X185791429Y-58172858D01*
X185334286Y-58172858D01*
X185220000Y-58115715D01*
X185162857Y-58001429D01*
X185162857Y-57772858D01*
X185220000Y-57658572D01*
X185334286Y-57601429D01*
X185448571Y-57601429D01*
X185562857Y-58172858D01*
X185162857Y-57201429D02*
X185162857Y-56572858D01*
X185962857Y-57201429D01*
X185962857Y-56572858D01*
X185962857Y-55944286D02*
X185905714Y-56058572D01*
X185848571Y-56115715D01*
X185734286Y-56172858D01*
X185391429Y-56172858D01*
X185277143Y-56115715D01*
X185220000Y-56058572D01*
X185162857Y-55944286D01*
X185162857Y-55772858D01*
X185220000Y-55658572D01*
X185277143Y-55601429D01*
X185391429Y-55544286D01*
X185734286Y-55544286D01*
X185848571Y-55601429D01*
X185905714Y-55658572D01*
X185962857Y-55772858D01*
X185962857Y-55944286D01*
X185962857Y-55030001D02*
X185162857Y-55030001D01*
X184762857Y-55030001D02*
X184820000Y-55087144D01*
X184877143Y-55030001D01*
X184820000Y-54972858D01*
X184762857Y-55030001D01*
X184877143Y-55030001D01*
X185962857Y-53944286D02*
X184762857Y-53944286D01*
X185905714Y-53944286D02*
X185962857Y-54058572D01*
X185962857Y-54287143D01*
X185905714Y-54401429D01*
X185848571Y-54458572D01*
X185734286Y-54515715D01*
X185391429Y-54515715D01*
X185277143Y-54458572D01*
X185220000Y-54401429D01*
X185162857Y-54287143D01*
X185162857Y-54058572D01*
X185220000Y-53944286D01*
X187271429Y-61201429D02*
X187214286Y-61258571D01*
X187157143Y-61372857D01*
X187157143Y-61487143D01*
X187214286Y-61601429D01*
X187271429Y-61658571D01*
X187385714Y-61715714D01*
X187500000Y-61715714D01*
X187614286Y-61658571D01*
X187671429Y-61601429D01*
X187728571Y-61487143D01*
X187728571Y-61372857D01*
X187671429Y-61258571D01*
X187614286Y-61201429D01*
X187157143Y-61201429D02*
X187614286Y-61201429D01*
X187671429Y-61144286D01*
X187671429Y-61087143D01*
X187614286Y-60972857D01*
X187500000Y-60915714D01*
X187214286Y-60915714D01*
X187042857Y-61030000D01*
X186928571Y-61201429D01*
X186871429Y-61430000D01*
X186928571Y-61658571D01*
X187042857Y-61830000D01*
X187214286Y-61944286D01*
X187442857Y-62001429D01*
X187671429Y-61944286D01*
X187842857Y-61830000D01*
X187957143Y-61658571D01*
X188014286Y-61430000D01*
X187957143Y-61201429D01*
X187842857Y-61030000D01*
X187842857Y-59715714D02*
X187271429Y-60115714D01*
X187842857Y-60401429D02*
X186642857Y-60401429D01*
X186642857Y-59944286D01*
X186700000Y-59830000D01*
X186757143Y-59772857D01*
X186871429Y-59715714D01*
X187042857Y-59715714D01*
X187157143Y-59772857D01*
X187214286Y-59830000D01*
X187271429Y-59944286D01*
X187271429Y-60401429D01*
X187042857Y-59315714D02*
X187842857Y-59030000D01*
X187042857Y-58744286D02*
X187842857Y-59030000D01*
X188128571Y-59144286D01*
X188185714Y-59201429D01*
X188242857Y-59315714D01*
X187842857Y-58115714D02*
X187785714Y-58230000D01*
X187728571Y-58287143D01*
X187614286Y-58344286D01*
X187271429Y-58344286D01*
X187157143Y-58287143D01*
X187100000Y-58230000D01*
X187042857Y-58115714D01*
X187042857Y-57944286D01*
X187100000Y-57830000D01*
X187157143Y-57772857D01*
X187271429Y-57715714D01*
X187614286Y-57715714D01*
X187728571Y-57772857D01*
X187785714Y-57830000D01*
X187842857Y-57944286D01*
X187842857Y-58115714D01*
X187842857Y-57201429D02*
X186642857Y-57201429D01*
X187385714Y-57087143D02*
X187842857Y-56744286D01*
X187042857Y-56744286D02*
X187500000Y-57201429D01*
X187785714Y-55772857D02*
X187842857Y-55887143D01*
X187842857Y-56115714D01*
X187785714Y-56230000D01*
X187671429Y-56287143D01*
X187214286Y-56287143D01*
X187100000Y-56230000D01*
X187042857Y-56115714D01*
X187042857Y-55887143D01*
X187100000Y-55772857D01*
X187214286Y-55715714D01*
X187328571Y-55715714D01*
X187442857Y-56287143D01*
X187842857Y-55201429D02*
X187042857Y-55201429D01*
X187271429Y-55201429D02*
X187157143Y-55144286D01*
X187100000Y-55087143D01*
X187042857Y-54972857D01*
X187042857Y-54858572D01*
X187842857Y-54458572D02*
X187042857Y-54458572D01*
X186642857Y-54458572D02*
X186700000Y-54515715D01*
X186757143Y-54458572D01*
X186700000Y-54401429D01*
X186642857Y-54458572D01*
X186757143Y-54458572D01*
X187842857Y-53258571D02*
X187842857Y-53944286D01*
X187842857Y-53601428D02*
X186642857Y-53601428D01*
X186814286Y-53715714D01*
X186928571Y-53830000D01*
X186985714Y-53944286D01*
X187042857Y-52230000D02*
X187842857Y-52230000D01*
X186585714Y-52515714D02*
X187442857Y-52801429D01*
X187442857Y-52058571D01*
X170465714Y-101532857D02*
X170465714Y-100332857D01*
X171151429Y-101532857D02*
X170637143Y-100847143D01*
X171151429Y-100332857D02*
X170465714Y-101018571D01*
X171665714Y-100904286D02*
X172065714Y-100904286D01*
X172237143Y-101532857D02*
X171665714Y-101532857D01*
X171665714Y-100332857D01*
X172237143Y-100332857D01*
X173437143Y-101532857D02*
X173037143Y-100961429D01*
X172751428Y-101532857D02*
X172751428Y-100332857D01*
X173208571Y-100332857D01*
X173322857Y-100390000D01*
X173380000Y-100447143D01*
X173437143Y-100561429D01*
X173437143Y-100732857D01*
X173380000Y-100847143D01*
X173322857Y-100904286D01*
X173208571Y-100961429D01*
X172751428Y-100961429D01*
X173951428Y-101532857D02*
X173951428Y-100332857D01*
X174522857Y-100904286D02*
X174922857Y-100904286D01*
X175094286Y-101532857D02*
X174522857Y-101532857D01*
X174522857Y-100332857D01*
X175094286Y-100332857D01*
X175551428Y-101475714D02*
X175722857Y-101532857D01*
X176008571Y-101532857D01*
X176122857Y-101475714D01*
X176180000Y-101418571D01*
X176237143Y-101304286D01*
X176237143Y-101190000D01*
X176180000Y-101075714D01*
X176122857Y-101018571D01*
X176008571Y-100961429D01*
X175780000Y-100904286D01*
X175665714Y-100847143D01*
X175608571Y-100790000D01*
X175551428Y-100675714D01*
X175551428Y-100561429D01*
X175608571Y-100447143D01*
X175665714Y-100390000D01*
X175780000Y-100332857D01*
X176065714Y-100332857D01*
X176237143Y-100390000D01*
X176751428Y-101532857D02*
X176751428Y-100332857D01*
X177208571Y-100332857D01*
X177322857Y-100390000D01*
X177380000Y-100447143D01*
X177437143Y-100561429D01*
X177437143Y-100732857D01*
X177380000Y-100847143D01*
X177322857Y-100904286D01*
X177208571Y-100961429D01*
X176751428Y-100961429D01*
X177837143Y-100332857D02*
X178580000Y-100332857D01*
X178180000Y-100790000D01*
X178351428Y-100790000D01*
X178465714Y-100847143D01*
X178522857Y-100904286D01*
X178580000Y-101018571D01*
X178580000Y-101304286D01*
X178522857Y-101418571D01*
X178465714Y-101475714D01*
X178351428Y-101532857D01*
X178008571Y-101532857D01*
X177894285Y-101475714D01*
X177837143Y-101418571D01*
X179037142Y-100447143D02*
X179094285Y-100390000D01*
X179208571Y-100332857D01*
X179494285Y-100332857D01*
X179608571Y-100390000D01*
X179665714Y-100447143D01*
X179722857Y-100561429D01*
X179722857Y-100675714D01*
X179665714Y-100847143D01*
X178980000Y-101532857D01*
X179722857Y-101532857D01*
X170294286Y-102212857D02*
X170980000Y-102212857D01*
X170637143Y-103412857D02*
X170637143Y-102212857D01*
X171380000Y-103412857D02*
X171380000Y-102612857D01*
X171380000Y-102841429D02*
X171437143Y-102727143D01*
X171494286Y-102670000D01*
X171608572Y-102612857D01*
X171722857Y-102612857D01*
X172637143Y-103412857D02*
X172637143Y-102784286D01*
X172580000Y-102670000D01*
X172465714Y-102612857D01*
X172237143Y-102612857D01*
X172122857Y-102670000D01*
X172637143Y-103355714D02*
X172522857Y-103412857D01*
X172237143Y-103412857D01*
X172122857Y-103355714D01*
X172065714Y-103241429D01*
X172065714Y-103127143D01*
X172122857Y-103012857D01*
X172237143Y-102955714D01*
X172522857Y-102955714D01*
X172637143Y-102898571D01*
X173208571Y-102612857D02*
X173208571Y-103812857D01*
X173208571Y-102670000D02*
X173322857Y-102612857D01*
X173551428Y-102612857D01*
X173665714Y-102670000D01*
X173722857Y-102727143D01*
X173780000Y-102841429D01*
X173780000Y-103184286D01*
X173722857Y-103298571D01*
X173665714Y-103355714D01*
X173551428Y-103412857D01*
X173322857Y-103412857D01*
X173208571Y-103355714D01*
X174751428Y-103355714D02*
X174637142Y-103412857D01*
X174408571Y-103412857D01*
X174294285Y-103355714D01*
X174237142Y-103241429D01*
X174237142Y-102784286D01*
X174294285Y-102670000D01*
X174408571Y-102612857D01*
X174637142Y-102612857D01*
X174751428Y-102670000D01*
X174808571Y-102784286D01*
X174808571Y-102898571D01*
X174237142Y-103012857D01*
X175208571Y-102612857D02*
X175837142Y-102612857D01*
X175208571Y-103412857D01*
X175837142Y-103412857D01*
X176465714Y-103412857D02*
X176351428Y-103355714D01*
X176294285Y-103298571D01*
X176237142Y-103184286D01*
X176237142Y-102841429D01*
X176294285Y-102727143D01*
X176351428Y-102670000D01*
X176465714Y-102612857D01*
X176637142Y-102612857D01*
X176751428Y-102670000D01*
X176808571Y-102727143D01*
X176865714Y-102841429D01*
X176865714Y-103184286D01*
X176808571Y-103298571D01*
X176751428Y-103355714D01*
X176637142Y-103412857D01*
X176465714Y-103412857D01*
X177379999Y-103412857D02*
X177379999Y-102612857D01*
X177379999Y-102212857D02*
X177322856Y-102270000D01*
X177379999Y-102327143D01*
X177437142Y-102270000D01*
X177379999Y-102212857D01*
X177379999Y-102327143D01*
X178465714Y-103412857D02*
X178465714Y-102212857D01*
X178465714Y-103355714D02*
X178351428Y-103412857D01*
X178122857Y-103412857D01*
X178008571Y-103355714D01*
X177951428Y-103298571D01*
X177894285Y-103184286D01*
X177894285Y-102841429D01*
X177951428Y-102727143D01*
X178008571Y-102670000D01*
X178122857Y-102612857D01*
X178351428Y-102612857D01*
X178465714Y-102670000D01*
X171208571Y-104721429D02*
X171151429Y-104664286D01*
X171037143Y-104607143D01*
X170922857Y-104607143D01*
X170808571Y-104664286D01*
X170751429Y-104721429D01*
X170694286Y-104835714D01*
X170694286Y-104950000D01*
X170751429Y-105064286D01*
X170808571Y-105121429D01*
X170922857Y-105178571D01*
X171037143Y-105178571D01*
X171151429Y-105121429D01*
X171208571Y-105064286D01*
X171208571Y-104607143D02*
X171208571Y-105064286D01*
X171265714Y-105121429D01*
X171322857Y-105121429D01*
X171437143Y-105064286D01*
X171494286Y-104950000D01*
X171494286Y-104664286D01*
X171380000Y-104492857D01*
X171208571Y-104378571D01*
X170980000Y-104321429D01*
X170751429Y-104378571D01*
X170580000Y-104492857D01*
X170465714Y-104664286D01*
X170408571Y-104892857D01*
X170465714Y-105121429D01*
X170580000Y-105292857D01*
X170751429Y-105407143D01*
X170980000Y-105464286D01*
X171208571Y-105407143D01*
X171380000Y-105292857D01*
X172694286Y-105292857D02*
X172294286Y-104721429D01*
X172008571Y-105292857D02*
X172008571Y-104092857D01*
X172465714Y-104092857D01*
X172580000Y-104150000D01*
X172637143Y-104207143D01*
X172694286Y-104321429D01*
X172694286Y-104492857D01*
X172637143Y-104607143D01*
X172580000Y-104664286D01*
X172465714Y-104721429D01*
X172008571Y-104721429D01*
X173094286Y-104492857D02*
X173380000Y-105292857D01*
X173665714Y-104492857D02*
X173380000Y-105292857D01*
X173265714Y-105578571D01*
X173208571Y-105635714D01*
X173094286Y-105692857D01*
X174294286Y-105292857D02*
X174180000Y-105235714D01*
X174122857Y-105178571D01*
X174065714Y-105064286D01*
X174065714Y-104721429D01*
X174122857Y-104607143D01*
X174180000Y-104550000D01*
X174294286Y-104492857D01*
X174465714Y-104492857D01*
X174580000Y-104550000D01*
X174637143Y-104607143D01*
X174694286Y-104721429D01*
X174694286Y-105064286D01*
X174637143Y-105178571D01*
X174580000Y-105235714D01*
X174465714Y-105292857D01*
X174294286Y-105292857D01*
X175208571Y-105292857D02*
X175208571Y-104092857D01*
X175322857Y-104835714D02*
X175665714Y-105292857D01*
X175665714Y-104492857D02*
X175208571Y-104950000D01*
X176637143Y-105235714D02*
X176522857Y-105292857D01*
X176294286Y-105292857D01*
X176180000Y-105235714D01*
X176122857Y-105121429D01*
X176122857Y-104664286D01*
X176180000Y-104550000D01*
X176294286Y-104492857D01*
X176522857Y-104492857D01*
X176637143Y-104550000D01*
X176694286Y-104664286D01*
X176694286Y-104778571D01*
X176122857Y-104892857D01*
X177208571Y-105292857D02*
X177208571Y-104492857D01*
X177208571Y-104721429D02*
X177265714Y-104607143D01*
X177322857Y-104550000D01*
X177437143Y-104492857D01*
X177551428Y-104492857D01*
X177951428Y-105292857D02*
X177951428Y-104492857D01*
X177951428Y-104092857D02*
X177894285Y-104150000D01*
X177951428Y-104207143D01*
X178008571Y-104150000D01*
X177951428Y-104092857D01*
X177951428Y-104207143D01*
X179151429Y-105292857D02*
X178465714Y-105292857D01*
X178808572Y-105292857D02*
X178808572Y-104092857D01*
X178694286Y-104264286D01*
X178580000Y-104378571D01*
X178465714Y-104435714D01*
X180180000Y-104492857D02*
X180180000Y-105292857D01*
X179894286Y-104035714D02*
X179608571Y-104892857D01*
X180351429Y-104892857D01*
X138972857Y-114499999D02*
X138401429Y-114899999D01*
X138972857Y-115185714D02*
X137772857Y-115185714D01*
X137772857Y-114728571D01*
X137830000Y-114614285D01*
X137887143Y-114557142D01*
X138001429Y-114499999D01*
X138172857Y-114499999D01*
X138287143Y-114557142D01*
X138344286Y-114614285D01*
X138401429Y-114728571D01*
X138401429Y-115185714D01*
X137772857Y-114099999D02*
X138972857Y-113299999D01*
X137772857Y-113299999D02*
X138972857Y-114099999D01*
X132692857Y-115214285D02*
X132692857Y-114528571D01*
X133892857Y-114871428D02*
X132692857Y-114871428D01*
X132692857Y-114242856D02*
X133892857Y-113442856D01*
X132692857Y-113442856D02*
X133892857Y-114242856D01*
X193652857Y-117176428D02*
X193652857Y-116433571D01*
X194110000Y-116833571D01*
X194110000Y-116662143D01*
X194167143Y-116547857D01*
X194224286Y-116490714D01*
X194338571Y-116433571D01*
X194624286Y-116433571D01*
X194738571Y-116490714D01*
X194795714Y-116547857D01*
X194852857Y-116662143D01*
X194852857Y-117005000D01*
X194795714Y-117119286D01*
X194738571Y-117176428D01*
X194852857Y-115862143D02*
X194852857Y-115633571D01*
X194795714Y-115519286D01*
X194738571Y-115462143D01*
X194567143Y-115347857D01*
X194338571Y-115290714D01*
X193881429Y-115290714D01*
X193767143Y-115347857D01*
X193710000Y-115405000D01*
X193652857Y-115519286D01*
X193652857Y-115747857D01*
X193710000Y-115862143D01*
X193767143Y-115919286D01*
X193881429Y-115976429D01*
X194167143Y-115976429D01*
X194281429Y-115919286D01*
X194338571Y-115862143D01*
X194395714Y-115747857D01*
X194395714Y-115519286D01*
X194338571Y-115405000D01*
X194281429Y-115347857D01*
X194167143Y-115290714D01*
X191112857Y-117176428D02*
X191112857Y-116433571D01*
X191570000Y-116833571D01*
X191570000Y-116662143D01*
X191627143Y-116547857D01*
X191684286Y-116490714D01*
X191798571Y-116433571D01*
X192084286Y-116433571D01*
X192198571Y-116490714D01*
X192255714Y-116547857D01*
X192312857Y-116662143D01*
X192312857Y-117005000D01*
X192255714Y-117119286D01*
X192198571Y-117176428D01*
X191112857Y-115405000D02*
X191112857Y-115633571D01*
X191170000Y-115747857D01*
X191227143Y-115805000D01*
X191398571Y-115919286D01*
X191627143Y-115976429D01*
X192084286Y-115976429D01*
X192198571Y-115919286D01*
X192255714Y-115862143D01*
X192312857Y-115747857D01*
X192312857Y-115519286D01*
X192255714Y-115405000D01*
X192198571Y-115347857D01*
X192084286Y-115290714D01*
X191798571Y-115290714D01*
X191684286Y-115347857D01*
X191627143Y-115405000D01*
X191570000Y-115519286D01*
X191570000Y-115747857D01*
X191627143Y-115862143D01*
X191684286Y-115919286D01*
X191798571Y-115976429D01*
X188572857Y-117176428D02*
X188572857Y-116433571D01*
X189030000Y-116833571D01*
X189030000Y-116662143D01*
X189087143Y-116547857D01*
X189144286Y-116490714D01*
X189258571Y-116433571D01*
X189544286Y-116433571D01*
X189658571Y-116490714D01*
X189715714Y-116547857D01*
X189772857Y-116662143D01*
X189772857Y-117005000D01*
X189715714Y-117119286D01*
X189658571Y-117176428D01*
X188572857Y-115347857D02*
X188572857Y-115919286D01*
X189144286Y-115976429D01*
X189087143Y-115919286D01*
X189030000Y-115805000D01*
X189030000Y-115519286D01*
X189087143Y-115405000D01*
X189144286Y-115347857D01*
X189258571Y-115290714D01*
X189544286Y-115290714D01*
X189658571Y-115347857D01*
X189715714Y-115405000D01*
X189772857Y-115519286D01*
X189772857Y-115805000D01*
X189715714Y-115919286D01*
X189658571Y-115976429D01*
X186032857Y-117176428D02*
X186032857Y-116433571D01*
X186490000Y-116833571D01*
X186490000Y-116662143D01*
X186547143Y-116547857D01*
X186604286Y-116490714D01*
X186718571Y-116433571D01*
X187004286Y-116433571D01*
X187118571Y-116490714D01*
X187175714Y-116547857D01*
X187232857Y-116662143D01*
X187232857Y-117005000D01*
X187175714Y-117119286D01*
X187118571Y-117176428D01*
X186432857Y-115405000D02*
X187232857Y-115405000D01*
X185975714Y-115690714D02*
X186832857Y-115976429D01*
X186832857Y-115233571D01*
X183492857Y-117176428D02*
X183492857Y-116433571D01*
X183950000Y-116833571D01*
X183950000Y-116662143D01*
X184007143Y-116547857D01*
X184064286Y-116490714D01*
X184178571Y-116433571D01*
X184464286Y-116433571D01*
X184578571Y-116490714D01*
X184635714Y-116547857D01*
X184692857Y-116662143D01*
X184692857Y-117005000D01*
X184635714Y-117119286D01*
X184578571Y-117176428D01*
X183492857Y-116033571D02*
X183492857Y-115290714D01*
X183950000Y-115690714D01*
X183950000Y-115519286D01*
X184007143Y-115405000D01*
X184064286Y-115347857D01*
X184178571Y-115290714D01*
X184464286Y-115290714D01*
X184578571Y-115347857D01*
X184635714Y-115405000D01*
X184692857Y-115519286D01*
X184692857Y-115862143D01*
X184635714Y-115976429D01*
X184578571Y-116033571D01*
X180952857Y-117176428D02*
X180952857Y-116433571D01*
X181410000Y-116833571D01*
X181410000Y-116662143D01*
X181467143Y-116547857D01*
X181524286Y-116490714D01*
X181638571Y-116433571D01*
X181924286Y-116433571D01*
X182038571Y-116490714D01*
X182095714Y-116547857D01*
X182152857Y-116662143D01*
X182152857Y-117005000D01*
X182095714Y-117119286D01*
X182038571Y-117176428D01*
X181067143Y-115976429D02*
X181010000Y-115919286D01*
X180952857Y-115805000D01*
X180952857Y-115519286D01*
X181010000Y-115405000D01*
X181067143Y-115347857D01*
X181181429Y-115290714D01*
X181295714Y-115290714D01*
X181467143Y-115347857D01*
X182152857Y-116033571D01*
X182152857Y-115290714D01*
X178527143Y-117119286D02*
X178470000Y-117062143D01*
X178412857Y-116947857D01*
X178412857Y-116662143D01*
X178470000Y-116547857D01*
X178527143Y-116490714D01*
X178641429Y-116433571D01*
X178755714Y-116433571D01*
X178927143Y-116490714D01*
X179612857Y-117176428D01*
X179612857Y-116433571D01*
X178412857Y-116033571D02*
X178412857Y-115233571D01*
X179612857Y-115747857D01*
X175987143Y-117119286D02*
X175930000Y-117062143D01*
X175872857Y-116947857D01*
X175872857Y-116662143D01*
X175930000Y-116547857D01*
X175987143Y-116490714D01*
X176101429Y-116433571D01*
X176215714Y-116433571D01*
X176387143Y-116490714D01*
X177072857Y-117176428D01*
X177072857Y-116433571D01*
X175872857Y-115405000D02*
X175872857Y-115633571D01*
X175930000Y-115747857D01*
X175987143Y-115805000D01*
X176158571Y-115919286D01*
X176387143Y-115976429D01*
X176844286Y-115976429D01*
X176958571Y-115919286D01*
X177015714Y-115862143D01*
X177072857Y-115747857D01*
X177072857Y-115519286D01*
X177015714Y-115405000D01*
X176958571Y-115347857D01*
X176844286Y-115290714D01*
X176558571Y-115290714D01*
X176444286Y-115347857D01*
X176387143Y-115405000D01*
X176330000Y-115519286D01*
X176330000Y-115747857D01*
X176387143Y-115862143D01*
X176444286Y-115919286D01*
X176558571Y-115976429D01*
X173447143Y-117119286D02*
X173390000Y-117062143D01*
X173332857Y-116947857D01*
X173332857Y-116662143D01*
X173390000Y-116547857D01*
X173447143Y-116490714D01*
X173561429Y-116433571D01*
X173675714Y-116433571D01*
X173847143Y-116490714D01*
X174532857Y-117176428D01*
X174532857Y-116433571D01*
X173332857Y-115347857D02*
X173332857Y-115919286D01*
X173904286Y-115976429D01*
X173847143Y-115919286D01*
X173790000Y-115805000D01*
X173790000Y-115519286D01*
X173847143Y-115405000D01*
X173904286Y-115347857D01*
X174018571Y-115290714D01*
X174304286Y-115290714D01*
X174418571Y-115347857D01*
X174475714Y-115405000D01*
X174532857Y-115519286D01*
X174532857Y-115805000D01*
X174475714Y-115919286D01*
X174418571Y-115976429D01*
X170907143Y-117119286D02*
X170850000Y-117062143D01*
X170792857Y-116947857D01*
X170792857Y-116662143D01*
X170850000Y-116547857D01*
X170907143Y-116490714D01*
X171021429Y-116433571D01*
X171135714Y-116433571D01*
X171307143Y-116490714D01*
X171992857Y-117176428D01*
X171992857Y-116433571D01*
X170792857Y-116033571D02*
X170792857Y-115290714D01*
X171250000Y-115690714D01*
X171250000Y-115519286D01*
X171307143Y-115405000D01*
X171364286Y-115347857D01*
X171478571Y-115290714D01*
X171764286Y-115290714D01*
X171878571Y-115347857D01*
X171935714Y-115405000D01*
X171992857Y-115519286D01*
X171992857Y-115862143D01*
X171935714Y-115976429D01*
X171878571Y-116033571D01*
X168367143Y-117119286D02*
X168310000Y-117062143D01*
X168252857Y-116947857D01*
X168252857Y-116662143D01*
X168310000Y-116547857D01*
X168367143Y-116490714D01*
X168481429Y-116433571D01*
X168595714Y-116433571D01*
X168767143Y-116490714D01*
X169452857Y-117176428D01*
X169452857Y-116433571D01*
X168367143Y-115976429D02*
X168310000Y-115919286D01*
X168252857Y-115805000D01*
X168252857Y-115519286D01*
X168310000Y-115405000D01*
X168367143Y-115347857D01*
X168481429Y-115290714D01*
X168595714Y-115290714D01*
X168767143Y-115347857D01*
X169452857Y-116033571D01*
X169452857Y-115290714D01*
X165827143Y-117119286D02*
X165770000Y-117062143D01*
X165712857Y-116947857D01*
X165712857Y-116662143D01*
X165770000Y-116547857D01*
X165827143Y-116490714D01*
X165941429Y-116433571D01*
X166055714Y-116433571D01*
X166227143Y-116490714D01*
X166912857Y-117176428D01*
X166912857Y-116433571D01*
X166912857Y-115290714D02*
X166912857Y-115976429D01*
X166912857Y-115633571D02*
X165712857Y-115633571D01*
X165884286Y-115747857D01*
X165998571Y-115862143D01*
X166055714Y-115976429D01*
X164372857Y-116433571D02*
X164372857Y-117119286D01*
X164372857Y-116776428D02*
X163172857Y-116776428D01*
X163344286Y-116890714D01*
X163458571Y-117005000D01*
X163515714Y-117119286D01*
X164372857Y-115862143D02*
X164372857Y-115633571D01*
X164315714Y-115519286D01*
X164258571Y-115462143D01*
X164087143Y-115347857D01*
X163858571Y-115290714D01*
X163401429Y-115290714D01*
X163287143Y-115347857D01*
X163230000Y-115405000D01*
X163172857Y-115519286D01*
X163172857Y-115747857D01*
X163230000Y-115862143D01*
X163287143Y-115919286D01*
X163401429Y-115976429D01*
X163687143Y-115976429D01*
X163801429Y-115919286D01*
X163858571Y-115862143D01*
X163915714Y-115747857D01*
X163915714Y-115519286D01*
X163858571Y-115405000D01*
X163801429Y-115347857D01*
X163687143Y-115290714D01*
X161832857Y-116433571D02*
X161832857Y-117119286D01*
X161832857Y-116776428D02*
X160632857Y-116776428D01*
X160804286Y-116890714D01*
X160918571Y-117005000D01*
X160975714Y-117119286D01*
X161147143Y-115747857D02*
X161090000Y-115862143D01*
X161032857Y-115919286D01*
X160918571Y-115976429D01*
X160861429Y-115976429D01*
X160747143Y-115919286D01*
X160690000Y-115862143D01*
X160632857Y-115747857D01*
X160632857Y-115519286D01*
X160690000Y-115405000D01*
X160747143Y-115347857D01*
X160861429Y-115290714D01*
X160918571Y-115290714D01*
X161032857Y-115347857D01*
X161090000Y-115405000D01*
X161147143Y-115519286D01*
X161147143Y-115747857D01*
X161204286Y-115862143D01*
X161261429Y-115919286D01*
X161375714Y-115976429D01*
X161604286Y-115976429D01*
X161718571Y-115919286D01*
X161775714Y-115862143D01*
X161832857Y-115747857D01*
X161832857Y-115519286D01*
X161775714Y-115405000D01*
X161718571Y-115347857D01*
X161604286Y-115290714D01*
X161375714Y-115290714D01*
X161261429Y-115347857D01*
X161204286Y-115405000D01*
X161147143Y-115519286D01*
X159292857Y-116433571D02*
X159292857Y-117119286D01*
X159292857Y-116776428D02*
X158092857Y-116776428D01*
X158264286Y-116890714D01*
X158378571Y-117005000D01*
X158435714Y-117119286D01*
X158092857Y-116033571D02*
X158092857Y-115233571D01*
X159292857Y-115747857D01*
X156752857Y-116433571D02*
X156752857Y-117119286D01*
X156752857Y-116776428D02*
X155552857Y-116776428D01*
X155724286Y-116890714D01*
X155838571Y-117005000D01*
X155895714Y-117119286D01*
X155552857Y-115405000D02*
X155552857Y-115633571D01*
X155610000Y-115747857D01*
X155667143Y-115805000D01*
X155838571Y-115919286D01*
X156067143Y-115976429D01*
X156524286Y-115976429D01*
X156638571Y-115919286D01*
X156695714Y-115862143D01*
X156752857Y-115747857D01*
X156752857Y-115519286D01*
X156695714Y-115405000D01*
X156638571Y-115347857D01*
X156524286Y-115290714D01*
X156238571Y-115290714D01*
X156124286Y-115347857D01*
X156067143Y-115405000D01*
X156010000Y-115519286D01*
X156010000Y-115747857D01*
X156067143Y-115862143D01*
X156124286Y-115919286D01*
X156238571Y-115976429D01*
X154212857Y-116433571D02*
X154212857Y-117119286D01*
X154212857Y-116776428D02*
X153012857Y-116776428D01*
X153184286Y-116890714D01*
X153298571Y-117005000D01*
X153355714Y-117119286D01*
X153012857Y-115347857D02*
X153012857Y-115919286D01*
X153584286Y-115976429D01*
X153527143Y-115919286D01*
X153470000Y-115805000D01*
X153470000Y-115519286D01*
X153527143Y-115405000D01*
X153584286Y-115347857D01*
X153698571Y-115290714D01*
X153984286Y-115290714D01*
X154098571Y-115347857D01*
X154155714Y-115405000D01*
X154212857Y-115519286D01*
X154212857Y-115805000D01*
X154155714Y-115919286D01*
X154098571Y-115976429D01*
X151672857Y-116433571D02*
X151672857Y-117119286D01*
X151672857Y-116776428D02*
X150472857Y-116776428D01*
X150644286Y-116890714D01*
X150758571Y-117005000D01*
X150815714Y-117119286D01*
X150872857Y-115405000D02*
X151672857Y-115405000D01*
X150415714Y-115690714D02*
X151272857Y-115976429D01*
X151272857Y-115233571D01*
X149132857Y-116433571D02*
X149132857Y-117119286D01*
X149132857Y-116776428D02*
X147932857Y-116776428D01*
X148104286Y-116890714D01*
X148218571Y-117005000D01*
X148275714Y-117119286D01*
X147932857Y-116033571D02*
X147932857Y-115290714D01*
X148390000Y-115690714D01*
X148390000Y-115519286D01*
X148447143Y-115405000D01*
X148504286Y-115347857D01*
X148618571Y-115290714D01*
X148904286Y-115290714D01*
X149018571Y-115347857D01*
X149075714Y-115405000D01*
X149132857Y-115519286D01*
X149132857Y-115862143D01*
X149075714Y-115976429D01*
X149018571Y-116033571D01*
X146592857Y-116433571D02*
X146592857Y-117119286D01*
X146592857Y-116776428D02*
X145392857Y-116776428D01*
X145564286Y-116890714D01*
X145678571Y-117005000D01*
X145735714Y-117119286D01*
X145507143Y-115976429D02*
X145450000Y-115919286D01*
X145392857Y-115805000D01*
X145392857Y-115519286D01*
X145450000Y-115405000D01*
X145507143Y-115347857D01*
X145621429Y-115290714D01*
X145735714Y-115290714D01*
X145907143Y-115347857D01*
X146592857Y-116033571D01*
X146592857Y-115290714D01*
X142852857Y-116554285D02*
X142852857Y-117125714D01*
X143424286Y-117182857D01*
X143367143Y-117125714D01*
X143310000Y-117011428D01*
X143310000Y-116725714D01*
X143367143Y-116611428D01*
X143424286Y-116554285D01*
X143538571Y-116497142D01*
X143824286Y-116497142D01*
X143938571Y-116554285D01*
X143995714Y-116611428D01*
X144052857Y-116725714D01*
X144052857Y-117011428D01*
X143995714Y-117125714D01*
X143938571Y-117182857D01*
X140712857Y-116611428D02*
X141512857Y-116611428D01*
X140255714Y-116897142D02*
X141112857Y-117182857D01*
X141112857Y-116439999D01*
X137772857Y-117239999D02*
X137772857Y-116497142D01*
X138230000Y-116897142D01*
X138230000Y-116725714D01*
X138287143Y-116611428D01*
X138344286Y-116554285D01*
X138458571Y-116497142D01*
X138744286Y-116497142D01*
X138858571Y-116554285D01*
X138915714Y-116611428D01*
X138972857Y-116725714D01*
X138972857Y-117068571D01*
X138915714Y-117182857D01*
X138858571Y-117239999D01*
X135347143Y-117182857D02*
X135290000Y-117125714D01*
X135232857Y-117011428D01*
X135232857Y-116725714D01*
X135290000Y-116611428D01*
X135347143Y-116554285D01*
X135461429Y-116497142D01*
X135575714Y-116497142D01*
X135747143Y-116554285D01*
X136432857Y-117239999D01*
X136432857Y-116497142D01*
X133892857Y-116497142D02*
X133892857Y-117182857D01*
X133892857Y-116839999D02*
X132692857Y-116839999D01*
X132864286Y-116954285D01*
X132978571Y-117068571D01*
X133035714Y-117182857D01*
X130152857Y-116897142D02*
X130152857Y-116782857D01*
X130210000Y-116668571D01*
X130267143Y-116611428D01*
X130381429Y-116554285D01*
X130610000Y-116497142D01*
X130895714Y-116497142D01*
X131124286Y-116554285D01*
X131238571Y-116611428D01*
X131295714Y-116668571D01*
X131352857Y-116782857D01*
X131352857Y-116897142D01*
X131295714Y-117011428D01*
X131238571Y-117068571D01*
X131124286Y-117125714D01*
X130895714Y-117182857D01*
X130610000Y-117182857D01*
X130381429Y-117125714D01*
X130267143Y-117068571D01*
X130210000Y-117011428D01*
X130152857Y-116897142D01*
X128184286Y-117090714D02*
X128184286Y-116690714D01*
X128812857Y-116519285D02*
X128812857Y-117090714D01*
X127612857Y-117090714D01*
X127612857Y-116519285D01*
X128812857Y-116005000D02*
X127612857Y-116005000D01*
X128812857Y-115319285D01*
X127612857Y-115319285D01*
X125072857Y-117341428D02*
X125072857Y-116598571D01*
X125530000Y-116998571D01*
X125530000Y-116827143D01*
X125587143Y-116712857D01*
X125644286Y-116655714D01*
X125758571Y-116598571D01*
X126044286Y-116598571D01*
X126158571Y-116655714D01*
X126215714Y-116712857D01*
X126272857Y-116827143D01*
X126272857Y-117170000D01*
X126215714Y-117284286D01*
X126158571Y-117341428D01*
X126158571Y-116084286D02*
X126215714Y-116027143D01*
X126272857Y-116084286D01*
X126215714Y-116141429D01*
X126158571Y-116084286D01*
X126272857Y-116084286D01*
X125072857Y-115627142D02*
X125072857Y-114884285D01*
X125530000Y-115284285D01*
X125530000Y-115112857D01*
X125587143Y-114998571D01*
X125644286Y-114941428D01*
X125758571Y-114884285D01*
X126044286Y-114884285D01*
X126158571Y-114941428D01*
X126215714Y-114998571D01*
X126272857Y-115112857D01*
X126272857Y-115455714D01*
X126215714Y-115570000D01*
X126158571Y-115627142D01*
X125072857Y-114541428D02*
X126272857Y-114141428D01*
X125072857Y-113741428D01*
X122590000Y-116484285D02*
X122532857Y-116598571D01*
X122532857Y-116770000D01*
X122590000Y-116941428D01*
X122704286Y-117055714D01*
X122818571Y-117112857D01*
X123047143Y-117170000D01*
X123218571Y-117170000D01*
X123447143Y-117112857D01*
X123561429Y-117055714D01*
X123675714Y-116941428D01*
X123732857Y-116770000D01*
X123732857Y-116655714D01*
X123675714Y-116484285D01*
X123618571Y-116427142D01*
X123218571Y-116427142D01*
X123218571Y-116655714D01*
X123732857Y-115912857D02*
X122532857Y-115912857D01*
X123732857Y-115227142D01*
X122532857Y-115227142D01*
X123732857Y-114655714D02*
X122532857Y-114655714D01*
X122532857Y-114369999D01*
X122590000Y-114198571D01*
X122704286Y-114084285D01*
X122818571Y-114027142D01*
X123047143Y-113969999D01*
X123218571Y-113969999D01*
X123447143Y-114027142D01*
X123561429Y-114084285D01*
X123675714Y-114198571D01*
X123732857Y-114369999D01*
X123732857Y-114655714D01*
X119992857Y-116798571D02*
X121192857Y-116398571D01*
X119992857Y-115998571D01*
X121192857Y-115598572D02*
X120392857Y-115598572D01*
X119992857Y-115598572D02*
X120050000Y-115655715D01*
X120107143Y-115598572D01*
X120050000Y-115541429D01*
X119992857Y-115598572D01*
X120107143Y-115598572D01*
X120392857Y-115027143D02*
X121192857Y-115027143D01*
X120507143Y-115027143D02*
X120450000Y-114970000D01*
X120392857Y-114855714D01*
X120392857Y-114684286D01*
X120450000Y-114570000D01*
X120564286Y-114512857D01*
X121192857Y-114512857D01*
D12*
X137160000Y-36500000D02*
X135060000Y-36500000D01*
X135060000Y-36500000D02*
X135060000Y-39700000D01*
X135060000Y-39700000D02*
X139260000Y-39700000D01*
X139260000Y-39700000D02*
X139260000Y-36500000D01*
X139260000Y-36500000D02*
X137160000Y-36500000D01*
X137160000Y-40310000D02*
X135060000Y-40310000D01*
X135060000Y-40310000D02*
X135060000Y-43510000D01*
X135060000Y-43510000D02*
X139260000Y-43510000D01*
X139260000Y-43510000D02*
X139260000Y-40310000D01*
X139260000Y-40310000D02*
X137160000Y-40310000D01*
X193040000Y-29210000D02*
X119380000Y-29210000D01*
X119380000Y-29210000D02*
X119380000Y-31750000D01*
X119380000Y-31750000D02*
X193040000Y-31750000D01*
X195860000Y-32030000D02*
X194310000Y-32030000D01*
X193040000Y-31750000D02*
X193040000Y-29210000D01*
X194310000Y-28930000D02*
X195860000Y-28930000D01*
X195860000Y-28930000D02*
X195860000Y-32030000D01*
X179379880Y-39596060D02*
X178879500Y-39596060D01*
X179580540Y-40396160D02*
X179130960Y-40794940D01*
X179130960Y-40794940D02*
X179130960Y-39596060D01*
X178831240Y-41244520D02*
X178831240Y-43845480D01*
X174228760Y-43845480D02*
X174228760Y-41244520D01*
X148480000Y-56280000D02*
X166480000Y-56280000D01*
X166480000Y-62280000D02*
X166480000Y-36780000D01*
X148480000Y-62280000D02*
X148480000Y-36780000D01*
X148480000Y-36780000D02*
X166480000Y-36780000D01*
X148480000Y-62280000D02*
X166480000Y-62280000D01*
X170980000Y-47545000D02*
X171980000Y-47545000D01*
X171980000Y-48895000D02*
X170980000Y-48895000D01*
X177480000Y-47195000D02*
X175480000Y-47195000D01*
X175480000Y-49245000D02*
X177480000Y-49245000D01*
X170850000Y-42895000D02*
X170850000Y-42195000D01*
X172050000Y-42195000D02*
X172050000Y-42895000D01*
X181010000Y-42895000D02*
X181010000Y-42195000D01*
X182210000Y-42195000D02*
X182210000Y-42895000D01*
X125445000Y-51400000D02*
X124745000Y-51400000D01*
X124745000Y-50200000D02*
X125445000Y-50200000D01*
X125445000Y-61560000D02*
X124745000Y-61560000D01*
X124745000Y-60360000D02*
X125445000Y-60360000D01*
X129745000Y-54930000D02*
X129745000Y-56930000D01*
X131795000Y-56930000D02*
X131795000Y-54930000D01*
X130095000Y-61430000D02*
X130095000Y-60430000D01*
X131445000Y-60430000D02*
X131445000Y-61430000D01*
X138830000Y-83930000D02*
X138830000Y-65930000D01*
X144830000Y-65930000D02*
X119330000Y-65930000D01*
X144830000Y-83930000D02*
X119330000Y-83930000D01*
X119330000Y-83930000D02*
X119330000Y-65930000D01*
X144830000Y-83930000D02*
X144830000Y-65930000D01*
X122146060Y-53030120D02*
X122146060Y-53530500D01*
X122946160Y-52829460D02*
X123344940Y-53279040D01*
X123344940Y-53279040D02*
X122146060Y-53279040D01*
X123794520Y-53578760D02*
X126395480Y-53578760D01*
X126395480Y-58181240D02*
X123794520Y-58181240D01*
X111760000Y-39370000D02*
X111760000Y-113030000D01*
X111760000Y-113030000D02*
X114300000Y-113030000D01*
X114300000Y-113030000D02*
X114300000Y-39370000D01*
X114580000Y-36550000D02*
X114580000Y-38100000D01*
X114300000Y-39370000D02*
X111760000Y-39370000D01*
X111480000Y-38100000D02*
X111480000Y-36550000D01*
X111480000Y-36550000D02*
X114580000Y-36550000D01*
X122860000Y-95250000D02*
X122860000Y-97350000D01*
X122860000Y-97350000D02*
X126060000Y-97350000D01*
X126060000Y-97350000D02*
X126060000Y-93150000D01*
X126060000Y-93150000D02*
X122860000Y-93150000D01*
X122860000Y-93150000D02*
X122860000Y-95250000D01*
X119050000Y-95250000D02*
X119050000Y-97350000D01*
X119050000Y-97350000D02*
X122250000Y-97350000D01*
X122250000Y-97350000D02*
X122250000Y-93150000D01*
X122250000Y-93150000D02*
X119050000Y-93150000D01*
X119050000Y-93150000D02*
X119050000Y-95250000D01*
X195910000Y-54610000D02*
X195910000Y-52510000D01*
X195910000Y-52510000D02*
X192710000Y-52510000D01*
X192710000Y-52510000D02*
X192710000Y-56710000D01*
X192710000Y-56710000D02*
X195910000Y-56710000D01*
X195910000Y-56710000D02*
X195910000Y-54610000D01*
X192100000Y-54610000D02*
X192100000Y-52510000D01*
X192100000Y-52510000D02*
X188900000Y-52510000D01*
X188900000Y-52510000D02*
X188900000Y-56710000D01*
X188900000Y-56710000D02*
X192100000Y-56710000D01*
X192100000Y-56710000D02*
X192100000Y-54610000D01*
X203200000Y-110490000D02*
X203200000Y-36830000D01*
X203200000Y-36830000D02*
X200660000Y-36830000D01*
X200660000Y-36830000D02*
X200660000Y-110490000D01*
X200380000Y-113310000D02*
X200380000Y-111760000D01*
X200660000Y-110490000D02*
X203200000Y-110490000D01*
X203480000Y-111760000D02*
X203480000Y-113310000D01*
X203480000Y-113310000D02*
X200380000Y-113310000D01*
X192813940Y-96829880D02*
X192813940Y-96329500D01*
X192013840Y-97030540D02*
X191615060Y-96580960D01*
X191615060Y-96580960D02*
X192813940Y-96580960D01*
X191165480Y-96281240D02*
X188564520Y-96281240D01*
X188564520Y-91678760D02*
X191165480Y-91678760D01*
X176130000Y-65930000D02*
X176130000Y-83930000D01*
X170130000Y-83930000D02*
X195630000Y-83930000D01*
X170130000Y-65930000D02*
X195630000Y-65930000D01*
X195630000Y-65930000D02*
X195630000Y-83930000D01*
X170130000Y-65930000D02*
X170130000Y-83930000D01*
X184865000Y-88430000D02*
X184865000Y-89430000D01*
X183515000Y-89430000D02*
X183515000Y-88430000D01*
X185215000Y-94930000D02*
X185215000Y-92930000D01*
X183165000Y-92930000D02*
X183165000Y-94930000D01*
X189515000Y-88300000D02*
X190215000Y-88300000D01*
X190215000Y-89500000D02*
X189515000Y-89500000D01*
X189515000Y-98460000D02*
X190215000Y-98460000D01*
X190215000Y-99660000D02*
X189515000Y-99660000D01*
X133950000Y-106965000D02*
X133950000Y-107665000D01*
X132750000Y-107665000D02*
X132750000Y-106965000D01*
X144110000Y-106965000D02*
X144110000Y-107665000D01*
X142910000Y-107665000D02*
X142910000Y-106965000D01*
X137480000Y-102665000D02*
X139480000Y-102665000D01*
X139480000Y-100615000D02*
X137480000Y-100615000D01*
X143980000Y-102315000D02*
X142980000Y-102315000D01*
X142980000Y-100965000D02*
X143980000Y-100965000D01*
X166480000Y-93580000D02*
X148480000Y-93580000D01*
X148480000Y-87580000D02*
X148480000Y-113080000D01*
X166480000Y-87580000D02*
X166480000Y-113080000D01*
X166480000Y-113080000D02*
X148480000Y-113080000D01*
X166480000Y-87580000D02*
X148480000Y-87580000D01*
X135580120Y-110263940D02*
X136080500Y-110263940D01*
X135379460Y-109463840D02*
X135829040Y-109065060D01*
X135829040Y-109065060D02*
X135829040Y-110263940D01*
X136128760Y-108615480D02*
X136128760Y-106014520D01*
X140731240Y-106014520D02*
X140731240Y-108615480D01*
X121920000Y-120650000D02*
X195580000Y-120650000D01*
X195580000Y-120650000D02*
X195580000Y-118110000D01*
X195580000Y-118110000D02*
X121920000Y-118110000D01*
X119100000Y-117830000D02*
X120650000Y-117830000D01*
X121920000Y-118110000D02*
X121920000Y-120650000D01*
X120650000Y-120930000D02*
X119100000Y-120930000D01*
X119100000Y-120930000D02*
X119100000Y-117830000D01*
X177800000Y-109550000D02*
X179900000Y-109550000D01*
X179900000Y-109550000D02*
X179900000Y-106350000D01*
X179900000Y-106350000D02*
X175700000Y-106350000D01*
X175700000Y-106350000D02*
X175700000Y-109550000D01*
X175700000Y-109550000D02*
X177800000Y-109550000D01*
X177800000Y-113360000D02*
X179900000Y-113360000D01*
X179900000Y-113360000D02*
X179900000Y-110160000D01*
X179900000Y-110160000D02*
X175700000Y-110160000D01*
X175700000Y-110160000D02*
X175700000Y-113360000D01*
X175700000Y-113360000D02*
X177800000Y-113360000D01*
X140271667Y-38504762D02*
X140414524Y-38552381D01*
X140652620Y-38552381D01*
X140747858Y-38504762D01*
X140795477Y-38457143D01*
X140843096Y-38361905D01*
X140843096Y-38266667D01*
X140795477Y-38171429D01*
X140747858Y-38123810D01*
X140652620Y-38076190D01*
X140462143Y-38028571D01*
X140366905Y-37980952D01*
X140319286Y-37933333D01*
X140271667Y-37838095D01*
X140271667Y-37742857D01*
X140319286Y-37647619D01*
X140366905Y-37600000D01*
X140462143Y-37552381D01*
X140700239Y-37552381D01*
X140843096Y-37600000D01*
X141176429Y-37552381D02*
X141414524Y-38552381D01*
X141605001Y-37838095D01*
X141795477Y-38552381D01*
X142033572Y-37552381D01*
X142938334Y-38552381D02*
X142366905Y-38552381D01*
X142652619Y-38552381D02*
X142652619Y-37552381D01*
X142557381Y-37695238D01*
X142462143Y-37790476D01*
X142366905Y-37838095D01*
X130627619Y-38552381D02*
X130294285Y-38076190D01*
X130056190Y-38552381D02*
X130056190Y-37552381D01*
X130437143Y-37552381D01*
X130532381Y-37600000D01*
X130580000Y-37647619D01*
X130627619Y-37742857D01*
X130627619Y-37885714D01*
X130580000Y-37980952D01*
X130532381Y-38028571D01*
X130437143Y-38076190D01*
X130056190Y-38076190D01*
X131056190Y-38028571D02*
X131389524Y-38028571D01*
X131532381Y-38552381D02*
X131056190Y-38552381D01*
X131056190Y-37552381D01*
X131532381Y-37552381D01*
X131913333Y-38504762D02*
X132056190Y-38552381D01*
X132294286Y-38552381D01*
X132389524Y-38504762D01*
X132437143Y-38457143D01*
X132484762Y-38361905D01*
X132484762Y-38266667D01*
X132437143Y-38171429D01*
X132389524Y-38123810D01*
X132294286Y-38076190D01*
X132103809Y-38028571D01*
X132008571Y-37980952D01*
X131960952Y-37933333D01*
X131913333Y-37838095D01*
X131913333Y-37742857D01*
X131960952Y-37647619D01*
X132008571Y-37600000D01*
X132103809Y-37552381D01*
X132341905Y-37552381D01*
X132484762Y-37600000D01*
X132913333Y-38028571D02*
X133246667Y-38028571D01*
X133389524Y-38552381D02*
X132913333Y-38552381D01*
X132913333Y-37552381D01*
X133389524Y-37552381D01*
X133675238Y-37552381D02*
X134246667Y-37552381D01*
X133960952Y-38552381D02*
X133960952Y-37552381D01*
X140271667Y-42314762D02*
X140414524Y-42362381D01*
X140652620Y-42362381D01*
X140747858Y-42314762D01*
X140795477Y-42267143D01*
X140843096Y-42171905D01*
X140843096Y-42076667D01*
X140795477Y-41981429D01*
X140747858Y-41933810D01*
X140652620Y-41886190D01*
X140462143Y-41838571D01*
X140366905Y-41790952D01*
X140319286Y-41743333D01*
X140271667Y-41648095D01*
X140271667Y-41552857D01*
X140319286Y-41457619D01*
X140366905Y-41410000D01*
X140462143Y-41362381D01*
X140700239Y-41362381D01*
X140843096Y-41410000D01*
X141176429Y-41362381D02*
X141414524Y-42362381D01*
X141605001Y-41648095D01*
X141795477Y-42362381D01*
X142033572Y-41362381D01*
X142366905Y-41457619D02*
X142414524Y-41410000D01*
X142509762Y-41362381D01*
X142747858Y-41362381D01*
X142843096Y-41410000D01*
X142890715Y-41457619D01*
X142938334Y-41552857D01*
X142938334Y-41648095D01*
X142890715Y-41790952D01*
X142319286Y-42362381D01*
X142938334Y-42362381D01*
X132096000Y-42362381D02*
X132096000Y-41362381D01*
X132762666Y-41362381D02*
X132953143Y-41362381D01*
X133048381Y-41410000D01*
X133143619Y-41505238D01*
X133191238Y-41695714D01*
X133191238Y-42029048D01*
X133143619Y-42219524D01*
X133048381Y-42314762D01*
X132953143Y-42362381D01*
X132762666Y-42362381D01*
X132667428Y-42314762D01*
X132572190Y-42219524D01*
X132524571Y-42029048D01*
X132524571Y-41695714D01*
X132572190Y-41505238D01*
X132667428Y-41410000D01*
X132762666Y-41362381D01*
X133810285Y-41362381D02*
X133905524Y-41362381D01*
X134000762Y-41410000D01*
X134048381Y-41457619D01*
X134096000Y-41552857D01*
X134143619Y-41743333D01*
X134143619Y-41981429D01*
X134096000Y-42171905D01*
X134048381Y-42267143D01*
X134000762Y-42314762D01*
X133905524Y-42362381D01*
X133810285Y-42362381D01*
X133715047Y-42314762D01*
X133667428Y-42267143D01*
X133619809Y-42171905D01*
X133572190Y-41981429D01*
X133572190Y-41743333D01*
X133619809Y-41552857D01*
X133667428Y-41457619D01*
X133715047Y-41410000D01*
X133810285Y-41362381D01*
X193571905Y-28392381D02*
X193571905Y-27392381D01*
X193952858Y-27392381D01*
X194048096Y-27440000D01*
X194095715Y-27487619D01*
X194143334Y-27582857D01*
X194143334Y-27725714D01*
X194095715Y-27820952D01*
X194048096Y-27868571D01*
X193952858Y-27916190D01*
X193571905Y-27916190D01*
X195095715Y-28392381D02*
X194524286Y-28392381D01*
X194810000Y-28392381D02*
X194810000Y-27392381D01*
X194714762Y-27535238D01*
X194619524Y-27630476D01*
X194524286Y-27678095D01*
X175718095Y-45672381D02*
X175718095Y-46481905D01*
X175765714Y-46577143D01*
X175813333Y-46624762D01*
X175908571Y-46672381D01*
X176099048Y-46672381D01*
X176194286Y-46624762D01*
X176241905Y-46577143D01*
X176289524Y-46481905D01*
X176289524Y-45672381D01*
X176718095Y-45767619D02*
X176765714Y-45720000D01*
X176860952Y-45672381D01*
X177099048Y-45672381D01*
X177194286Y-45720000D01*
X177241905Y-45767619D01*
X177289524Y-45862857D01*
X177289524Y-45958095D01*
X177241905Y-46100952D01*
X176670476Y-46672381D01*
X177289524Y-46672381D01*
X173387143Y-39187381D02*
X173387143Y-38187381D01*
X173958572Y-39187381D01*
X173958572Y-38187381D01*
X174720477Y-38187381D02*
X174720477Y-38901667D01*
X174672857Y-39044524D01*
X174577619Y-39139762D01*
X174434762Y-39187381D01*
X174339524Y-39187381D01*
X175196667Y-39187381D02*
X175196667Y-38187381D01*
X175530001Y-38901667D01*
X175863334Y-38187381D01*
X175863334Y-39187381D01*
X176291905Y-38282619D02*
X176339524Y-38235000D01*
X176434762Y-38187381D01*
X176672858Y-38187381D01*
X176768096Y-38235000D01*
X176815715Y-38282619D01*
X176863334Y-38377857D01*
X176863334Y-38473095D01*
X176815715Y-38615952D01*
X176244286Y-39187381D01*
X176863334Y-39187381D01*
X177434762Y-38615952D02*
X177339524Y-38568333D01*
X177291905Y-38520714D01*
X177244286Y-38425476D01*
X177244286Y-38377857D01*
X177291905Y-38282619D01*
X177339524Y-38235000D01*
X177434762Y-38187381D01*
X177625239Y-38187381D01*
X177720477Y-38235000D01*
X177768096Y-38282619D01*
X177815715Y-38377857D01*
X177815715Y-38425476D01*
X177768096Y-38520714D01*
X177720477Y-38568333D01*
X177625239Y-38615952D01*
X177434762Y-38615952D01*
X177339524Y-38663571D01*
X177291905Y-38711190D01*
X177244286Y-38806429D01*
X177244286Y-38996905D01*
X177291905Y-39092143D01*
X177339524Y-39139762D01*
X177434762Y-39187381D01*
X177625239Y-39187381D01*
X177720477Y-39139762D01*
X177768096Y-39092143D01*
X177815715Y-38996905D01*
X177815715Y-38806429D01*
X177768096Y-38711190D01*
X177720477Y-38663571D01*
X177625239Y-38615952D01*
X178387143Y-38615952D02*
X178291905Y-38568333D01*
X178244286Y-38520714D01*
X178196667Y-38425476D01*
X178196667Y-38377857D01*
X178244286Y-38282619D01*
X178291905Y-38235000D01*
X178387143Y-38187381D01*
X178577620Y-38187381D01*
X178672858Y-38235000D01*
X178720477Y-38282619D01*
X178768096Y-38377857D01*
X178768096Y-38425476D01*
X178720477Y-38520714D01*
X178672858Y-38568333D01*
X178577620Y-38615952D01*
X178387143Y-38615952D01*
X178291905Y-38663571D01*
X178244286Y-38711190D01*
X178196667Y-38806429D01*
X178196667Y-38996905D01*
X178244286Y-39092143D01*
X178291905Y-39139762D01*
X178387143Y-39187381D01*
X178577620Y-39187381D01*
X178672858Y-39139762D01*
X178720477Y-39092143D01*
X178768096Y-38996905D01*
X178768096Y-38806429D01*
X178720477Y-38711190D01*
X178672858Y-38663571D01*
X178577620Y-38615952D01*
X179625239Y-38520714D02*
X179625239Y-39187381D01*
X179387143Y-38139762D02*
X179149048Y-38854048D01*
X179768096Y-38854048D01*
X168148095Y-54062381D02*
X168148095Y-54871905D01*
X168195714Y-54967143D01*
X168243333Y-55014762D01*
X168338571Y-55062381D01*
X168529048Y-55062381D01*
X168624286Y-55014762D01*
X168671905Y-54967143D01*
X168719524Y-54871905D01*
X168719524Y-54062381D01*
X169719524Y-55062381D02*
X169148095Y-55062381D01*
X169433809Y-55062381D02*
X169433809Y-54062381D01*
X169338571Y-54205238D01*
X169243333Y-54300476D01*
X169148095Y-54348095D01*
X151408572Y-54538571D02*
X151741906Y-54538571D01*
X151884763Y-55062381D02*
X151408572Y-55062381D01*
X151408572Y-54062381D01*
X151884763Y-54062381D01*
X152265715Y-55014762D02*
X152408572Y-55062381D01*
X152646668Y-55062381D01*
X152741906Y-55014762D01*
X152789525Y-54967143D01*
X152837144Y-54871905D01*
X152837144Y-54776667D01*
X152789525Y-54681429D01*
X152741906Y-54633810D01*
X152646668Y-54586190D01*
X152456191Y-54538571D01*
X152360953Y-54490952D01*
X152313334Y-54443333D01*
X152265715Y-54348095D01*
X152265715Y-54252857D01*
X152313334Y-54157619D01*
X152360953Y-54110000D01*
X152456191Y-54062381D01*
X152694287Y-54062381D01*
X152837144Y-54110000D01*
X153265715Y-55062381D02*
X153265715Y-54062381D01*
X153646668Y-54062381D01*
X153741906Y-54110000D01*
X153789525Y-54157619D01*
X153837144Y-54252857D01*
X153837144Y-54395714D01*
X153789525Y-54490952D01*
X153741906Y-54538571D01*
X153646668Y-54586190D01*
X153265715Y-54586190D01*
X154265715Y-54681429D02*
X155027620Y-54681429D01*
X155408572Y-54062381D02*
X155646667Y-55062381D01*
X155837144Y-54348095D01*
X156027620Y-55062381D01*
X156265715Y-54062381D01*
X157218096Y-55062381D02*
X156884762Y-54586190D01*
X156646667Y-55062381D02*
X156646667Y-54062381D01*
X157027620Y-54062381D01*
X157122858Y-54110000D01*
X157170477Y-54157619D01*
X157218096Y-54252857D01*
X157218096Y-54395714D01*
X157170477Y-54490952D01*
X157122858Y-54538571D01*
X157027620Y-54586190D01*
X156646667Y-54586190D01*
X157837143Y-54062381D02*
X158027620Y-54062381D01*
X158122858Y-54110000D01*
X158218096Y-54205238D01*
X158265715Y-54395714D01*
X158265715Y-54729048D01*
X158218096Y-54919524D01*
X158122858Y-55014762D01*
X158027620Y-55062381D01*
X157837143Y-55062381D01*
X157741905Y-55014762D01*
X157646667Y-54919524D01*
X157599048Y-54729048D01*
X157599048Y-54395714D01*
X157646667Y-54205238D01*
X157741905Y-54110000D01*
X157837143Y-54062381D01*
X158884762Y-54062381D02*
X159075239Y-54062381D01*
X159170477Y-54110000D01*
X159265715Y-54205238D01*
X159313334Y-54395714D01*
X159313334Y-54729048D01*
X159265715Y-54919524D01*
X159170477Y-55014762D01*
X159075239Y-55062381D01*
X158884762Y-55062381D01*
X158789524Y-55014762D01*
X158694286Y-54919524D01*
X158646667Y-54729048D01*
X158646667Y-54395714D01*
X158694286Y-54205238D01*
X158789524Y-54110000D01*
X158884762Y-54062381D01*
X159741905Y-55062381D02*
X159741905Y-54062381D01*
X160075239Y-54776667D01*
X160408572Y-54062381D01*
X160408572Y-55062381D01*
X160884762Y-54681429D02*
X161646667Y-54681429D01*
X162027619Y-54062381D02*
X162646667Y-54062381D01*
X162313333Y-54443333D01*
X162456191Y-54443333D01*
X162551429Y-54490952D01*
X162599048Y-54538571D01*
X162646667Y-54633810D01*
X162646667Y-54871905D01*
X162599048Y-54967143D01*
X162551429Y-55014762D01*
X162456191Y-55062381D01*
X162170476Y-55062381D01*
X162075238Y-55014762D01*
X162027619Y-54967143D01*
X163027619Y-54157619D02*
X163075238Y-54110000D01*
X163170476Y-54062381D01*
X163408572Y-54062381D01*
X163503810Y-54110000D01*
X163551429Y-54157619D01*
X163599048Y-54252857D01*
X163599048Y-54348095D01*
X163551429Y-54490952D01*
X162980000Y-55062381D01*
X163599048Y-55062381D01*
X171313334Y-50172381D02*
X170980000Y-49696190D01*
X170741905Y-50172381D02*
X170741905Y-49172381D01*
X171122858Y-49172381D01*
X171218096Y-49220000D01*
X171265715Y-49267619D01*
X171313334Y-49362857D01*
X171313334Y-49505714D01*
X171265715Y-49600952D01*
X171218096Y-49648571D01*
X171122858Y-49696190D01*
X170741905Y-49696190D01*
X172265715Y-50172381D02*
X171694286Y-50172381D01*
X171980000Y-50172381D02*
X171980000Y-49172381D01*
X171884762Y-49315238D01*
X171789524Y-49410476D01*
X171694286Y-49458095D01*
X170884762Y-47172381D02*
X170313333Y-47172381D01*
X170599047Y-47172381D02*
X170599047Y-46172381D01*
X170503809Y-46315238D01*
X170408571Y-46410476D01*
X170313333Y-46458095D01*
X171503809Y-46172381D02*
X171599048Y-46172381D01*
X171694286Y-46220000D01*
X171741905Y-46267619D01*
X171789524Y-46362857D01*
X171837143Y-46553333D01*
X171837143Y-46791429D01*
X171789524Y-46981905D01*
X171741905Y-47077143D01*
X171694286Y-47124762D01*
X171599048Y-47172381D01*
X171503809Y-47172381D01*
X171408571Y-47124762D01*
X171360952Y-47077143D01*
X171313333Y-46981905D01*
X171265714Y-46791429D01*
X171265714Y-46553333D01*
X171313333Y-46362857D01*
X171360952Y-46267619D01*
X171408571Y-46220000D01*
X171503809Y-46172381D01*
X172265714Y-47172381D02*
X172265714Y-46172381D01*
X172360952Y-46791429D02*
X172646667Y-47172381D01*
X172646667Y-46505714D02*
X172265714Y-46886667D01*
X176313334Y-50482143D02*
X176265715Y-50529762D01*
X176122858Y-50577381D01*
X176027620Y-50577381D01*
X175884762Y-50529762D01*
X175789524Y-50434524D01*
X175741905Y-50339286D01*
X175694286Y-50148810D01*
X175694286Y-50005952D01*
X175741905Y-49815476D01*
X175789524Y-49720238D01*
X175884762Y-49625000D01*
X176027620Y-49577381D01*
X176122858Y-49577381D01*
X176265715Y-49625000D01*
X176313334Y-49672619D01*
X176646667Y-49577381D02*
X177265715Y-49577381D01*
X176932381Y-49958333D01*
X177075239Y-49958333D01*
X177170477Y-50005952D01*
X177218096Y-50053571D01*
X177265715Y-50148810D01*
X177265715Y-50386905D01*
X177218096Y-50482143D01*
X177170477Y-50529762D01*
X177075239Y-50577381D01*
X176789524Y-50577381D01*
X176694286Y-50529762D01*
X176646667Y-50482143D01*
X179601905Y-46775714D02*
X179601905Y-47442381D01*
X179363809Y-46394762D02*
X179125714Y-47109048D01*
X179744762Y-47109048D01*
X180030476Y-46442381D02*
X180697143Y-46442381D01*
X180268571Y-47442381D01*
X181506667Y-46775714D02*
X181506667Y-47442381D01*
X181078095Y-46775714D02*
X181078095Y-47299524D01*
X181125714Y-47394762D01*
X181220952Y-47442381D01*
X181363810Y-47442381D01*
X181459048Y-47394762D01*
X181506667Y-47347143D01*
X171283334Y-45188143D02*
X171235715Y-45235762D01*
X171092858Y-45283381D01*
X170997620Y-45283381D01*
X170854762Y-45235762D01*
X170759524Y-45140524D01*
X170711905Y-45045286D01*
X170664286Y-44854810D01*
X170664286Y-44711952D01*
X170711905Y-44521476D01*
X170759524Y-44426238D01*
X170854762Y-44331000D01*
X170997620Y-44283381D01*
X171092858Y-44283381D01*
X171235715Y-44331000D01*
X171283334Y-44378619D01*
X171664286Y-44378619D02*
X171711905Y-44331000D01*
X171807143Y-44283381D01*
X172045239Y-44283381D01*
X172140477Y-44331000D01*
X172188096Y-44378619D01*
X172235715Y-44473857D01*
X172235715Y-44569095D01*
X172188096Y-44711952D01*
X171616667Y-45283381D01*
X172235715Y-45283381D01*
X170235714Y-39711381D02*
X170330953Y-39711381D01*
X170426191Y-39759000D01*
X170473810Y-39806619D01*
X170521429Y-39901857D01*
X170569048Y-40092333D01*
X170569048Y-40330429D01*
X170521429Y-40520905D01*
X170473810Y-40616143D01*
X170426191Y-40663762D01*
X170330953Y-40711381D01*
X170235714Y-40711381D01*
X170140476Y-40663762D01*
X170092857Y-40616143D01*
X170045238Y-40520905D01*
X169997619Y-40330429D01*
X169997619Y-40092333D01*
X170045238Y-39901857D01*
X170092857Y-39806619D01*
X170140476Y-39759000D01*
X170235714Y-39711381D01*
X170997619Y-40616143D02*
X171045238Y-40663762D01*
X170997619Y-40711381D01*
X170950000Y-40663762D01*
X170997619Y-40616143D01*
X170997619Y-40711381D01*
X171997619Y-40711381D02*
X171426190Y-40711381D01*
X171711904Y-40711381D02*
X171711904Y-39711381D01*
X171616666Y-39854238D01*
X171521428Y-39949476D01*
X171426190Y-39997095D01*
X172854762Y-40044714D02*
X172854762Y-40711381D01*
X172426190Y-40044714D02*
X172426190Y-40568524D01*
X172473809Y-40663762D01*
X172569047Y-40711381D01*
X172711905Y-40711381D01*
X172807143Y-40663762D01*
X172854762Y-40616143D01*
X181443334Y-45188143D02*
X181395715Y-45235762D01*
X181252858Y-45283381D01*
X181157620Y-45283381D01*
X181014762Y-45235762D01*
X180919524Y-45140524D01*
X180871905Y-45045286D01*
X180824286Y-44854810D01*
X180824286Y-44711952D01*
X180871905Y-44521476D01*
X180919524Y-44426238D01*
X181014762Y-44331000D01*
X181157620Y-44283381D01*
X181252858Y-44283381D01*
X181395715Y-44331000D01*
X181443334Y-44378619D01*
X182395715Y-45283381D02*
X181824286Y-45283381D01*
X182110000Y-45283381D02*
X182110000Y-44283381D01*
X182014762Y-44426238D01*
X181919524Y-44521476D01*
X181824286Y-44569095D01*
X180395714Y-39711381D02*
X180490953Y-39711381D01*
X180586191Y-39759000D01*
X180633810Y-39806619D01*
X180681429Y-39901857D01*
X180729048Y-40092333D01*
X180729048Y-40330429D01*
X180681429Y-40520905D01*
X180633810Y-40616143D01*
X180586191Y-40663762D01*
X180490953Y-40711381D01*
X180395714Y-40711381D01*
X180300476Y-40663762D01*
X180252857Y-40616143D01*
X180205238Y-40520905D01*
X180157619Y-40330429D01*
X180157619Y-40092333D01*
X180205238Y-39901857D01*
X180252857Y-39806619D01*
X180300476Y-39759000D01*
X180395714Y-39711381D01*
X181157619Y-40616143D02*
X181205238Y-40663762D01*
X181157619Y-40711381D01*
X181110000Y-40663762D01*
X181157619Y-40616143D01*
X181157619Y-40711381D01*
X182157619Y-40711381D02*
X181586190Y-40711381D01*
X181871904Y-40711381D02*
X181871904Y-39711381D01*
X181776666Y-39854238D01*
X181681428Y-39949476D01*
X181586190Y-39997095D01*
X183014762Y-40044714D02*
X183014762Y-40711381D01*
X182586190Y-40044714D02*
X182586190Y-40568524D01*
X182633809Y-40663762D01*
X182729047Y-40711381D01*
X182871905Y-40711381D01*
X182967143Y-40663762D01*
X183014762Y-40616143D01*
X127738143Y-50966666D02*
X127785762Y-51014285D01*
X127833381Y-51157142D01*
X127833381Y-51252380D01*
X127785762Y-51395238D01*
X127690524Y-51490476D01*
X127595286Y-51538095D01*
X127404810Y-51585714D01*
X127261952Y-51585714D01*
X127071476Y-51538095D01*
X126976238Y-51490476D01*
X126881000Y-51395238D01*
X126833381Y-51252380D01*
X126833381Y-51157142D01*
X126881000Y-51014285D01*
X126928619Y-50966666D01*
X127833381Y-50014285D02*
X127833381Y-50585714D01*
X127833381Y-50300000D02*
X126833381Y-50300000D01*
X126976238Y-50395238D01*
X127071476Y-50490476D01*
X127119095Y-50585714D01*
X122261381Y-52014286D02*
X122261381Y-51919047D01*
X122309000Y-51823809D01*
X122356619Y-51776190D01*
X122451857Y-51728571D01*
X122642333Y-51680952D01*
X122880429Y-51680952D01*
X123070905Y-51728571D01*
X123166143Y-51776190D01*
X123213762Y-51823809D01*
X123261381Y-51919047D01*
X123261381Y-52014286D01*
X123213762Y-52109524D01*
X123166143Y-52157143D01*
X123070905Y-52204762D01*
X122880429Y-52252381D01*
X122642333Y-52252381D01*
X122451857Y-52204762D01*
X122356619Y-52157143D01*
X122309000Y-52109524D01*
X122261381Y-52014286D01*
X123166143Y-51252381D02*
X123213762Y-51204762D01*
X123261381Y-51252381D01*
X123213762Y-51300000D01*
X123166143Y-51252381D01*
X123261381Y-51252381D01*
X123261381Y-50252381D02*
X123261381Y-50823810D01*
X123261381Y-50538096D02*
X122261381Y-50538096D01*
X122404238Y-50633334D01*
X122499476Y-50728572D01*
X122547095Y-50823810D01*
X122594714Y-49395238D02*
X123261381Y-49395238D01*
X122594714Y-49823810D02*
X123118524Y-49823810D01*
X123213762Y-49776191D01*
X123261381Y-49680953D01*
X123261381Y-49538095D01*
X123213762Y-49442857D01*
X123166143Y-49395238D01*
X127738143Y-61126666D02*
X127785762Y-61174285D01*
X127833381Y-61317142D01*
X127833381Y-61412380D01*
X127785762Y-61555238D01*
X127690524Y-61650476D01*
X127595286Y-61698095D01*
X127404810Y-61745714D01*
X127261952Y-61745714D01*
X127071476Y-61698095D01*
X126976238Y-61650476D01*
X126881000Y-61555238D01*
X126833381Y-61412380D01*
X126833381Y-61317142D01*
X126881000Y-61174285D01*
X126928619Y-61126666D01*
X126928619Y-60745714D02*
X126881000Y-60698095D01*
X126833381Y-60602857D01*
X126833381Y-60364761D01*
X126881000Y-60269523D01*
X126928619Y-60221904D01*
X127023857Y-60174285D01*
X127119095Y-60174285D01*
X127261952Y-60221904D01*
X127833381Y-60793333D01*
X127833381Y-60174285D01*
X122261381Y-62174286D02*
X122261381Y-62079047D01*
X122309000Y-61983809D01*
X122356619Y-61936190D01*
X122451857Y-61888571D01*
X122642333Y-61840952D01*
X122880429Y-61840952D01*
X123070905Y-61888571D01*
X123166143Y-61936190D01*
X123213762Y-61983809D01*
X123261381Y-62079047D01*
X123261381Y-62174286D01*
X123213762Y-62269524D01*
X123166143Y-62317143D01*
X123070905Y-62364762D01*
X122880429Y-62412381D01*
X122642333Y-62412381D01*
X122451857Y-62364762D01*
X122356619Y-62317143D01*
X122309000Y-62269524D01*
X122261381Y-62174286D01*
X123166143Y-61412381D02*
X123213762Y-61364762D01*
X123261381Y-61412381D01*
X123213762Y-61460000D01*
X123166143Y-61412381D01*
X123261381Y-61412381D01*
X123261381Y-60412381D02*
X123261381Y-60983810D01*
X123261381Y-60698096D02*
X122261381Y-60698096D01*
X122404238Y-60793334D01*
X122499476Y-60888572D01*
X122547095Y-60983810D01*
X122594714Y-59555238D02*
X123261381Y-59555238D01*
X122594714Y-59983810D02*
X123118524Y-59983810D01*
X123213762Y-59936191D01*
X123261381Y-59840953D01*
X123261381Y-59698095D01*
X123213762Y-59602857D01*
X123166143Y-59555238D01*
X133032143Y-56096666D02*
X133079762Y-56144285D01*
X133127381Y-56287142D01*
X133127381Y-56382380D01*
X133079762Y-56525238D01*
X132984524Y-56620476D01*
X132889286Y-56668095D01*
X132698810Y-56715714D01*
X132555952Y-56715714D01*
X132365476Y-56668095D01*
X132270238Y-56620476D01*
X132175000Y-56525238D01*
X132127381Y-56382380D01*
X132127381Y-56287142D01*
X132175000Y-56144285D01*
X132222619Y-56096666D01*
X132127381Y-55763333D02*
X132127381Y-55144285D01*
X132508333Y-55477619D01*
X132508333Y-55334761D01*
X132555952Y-55239523D01*
X132603571Y-55191904D01*
X132698810Y-55144285D01*
X132936905Y-55144285D01*
X133032143Y-55191904D01*
X133079762Y-55239523D01*
X133127381Y-55334761D01*
X133127381Y-55620476D01*
X133079762Y-55715714D01*
X133032143Y-55763333D01*
X129325714Y-52808095D02*
X129992381Y-52808095D01*
X128944762Y-53046191D02*
X129659048Y-53284286D01*
X129659048Y-52665238D01*
X128992381Y-52379524D02*
X128992381Y-51712857D01*
X129992381Y-52141429D01*
X129325714Y-50903333D02*
X129992381Y-50903333D01*
X129325714Y-51331905D02*
X129849524Y-51331905D01*
X129944762Y-51284286D01*
X129992381Y-51189048D01*
X129992381Y-51046190D01*
X129944762Y-50950952D01*
X129897143Y-50903333D01*
X132722381Y-61096666D02*
X132246190Y-61430000D01*
X132722381Y-61668095D02*
X131722381Y-61668095D01*
X131722381Y-61287142D01*
X131770000Y-61191904D01*
X131817619Y-61144285D01*
X131912857Y-61096666D01*
X132055714Y-61096666D01*
X132150952Y-61144285D01*
X132198571Y-61191904D01*
X132246190Y-61287142D01*
X132246190Y-61668095D01*
X132722381Y-60144285D02*
X132722381Y-60715714D01*
X132722381Y-60430000D02*
X131722381Y-60430000D01*
X131865238Y-60525238D01*
X131960476Y-60620476D01*
X132008095Y-60715714D01*
X129722381Y-61525238D02*
X129722381Y-62096667D01*
X129722381Y-61810953D02*
X128722381Y-61810953D01*
X128865238Y-61906191D01*
X128960476Y-62001429D01*
X129008095Y-62096667D01*
X128722381Y-60906191D02*
X128722381Y-60810952D01*
X128770000Y-60715714D01*
X128817619Y-60668095D01*
X128912857Y-60620476D01*
X129103333Y-60572857D01*
X129341429Y-60572857D01*
X129531905Y-60620476D01*
X129627143Y-60668095D01*
X129674762Y-60715714D01*
X129722381Y-60810952D01*
X129722381Y-60906191D01*
X129674762Y-61001429D01*
X129627143Y-61049048D01*
X129531905Y-61096667D01*
X129341429Y-61144286D01*
X129103333Y-61144286D01*
X128912857Y-61096667D01*
X128817619Y-61049048D01*
X128770000Y-61001429D01*
X128722381Y-60906191D01*
X129722381Y-60144286D02*
X128722381Y-60144286D01*
X129341429Y-60049048D02*
X129722381Y-59763333D01*
X129055714Y-59763333D02*
X129436667Y-60144286D01*
X136612381Y-64261905D02*
X137421905Y-64261905D01*
X137517143Y-64214286D01*
X137564762Y-64166667D01*
X137612381Y-64071429D01*
X137612381Y-63880952D01*
X137564762Y-63785714D01*
X137517143Y-63738095D01*
X137421905Y-63690476D01*
X136612381Y-63690476D01*
X137612381Y-62690476D02*
X137612381Y-63261905D01*
X137612381Y-62976191D02*
X136612381Y-62976191D01*
X136755238Y-63071429D01*
X136850476Y-63166667D01*
X136898095Y-63261905D01*
X137088571Y-81001428D02*
X137088571Y-80668094D01*
X137612381Y-80525237D02*
X137612381Y-81001428D01*
X136612381Y-81001428D01*
X136612381Y-80525237D01*
X137564762Y-80144285D02*
X137612381Y-80001428D01*
X137612381Y-79763332D01*
X137564762Y-79668094D01*
X137517143Y-79620475D01*
X137421905Y-79572856D01*
X137326667Y-79572856D01*
X137231429Y-79620475D01*
X137183810Y-79668094D01*
X137136190Y-79763332D01*
X137088571Y-79953809D01*
X137040952Y-80049047D01*
X136993333Y-80096666D01*
X136898095Y-80144285D01*
X136802857Y-80144285D01*
X136707619Y-80096666D01*
X136660000Y-80049047D01*
X136612381Y-79953809D01*
X136612381Y-79715713D01*
X136660000Y-79572856D01*
X137612381Y-79144285D02*
X136612381Y-79144285D01*
X136612381Y-78763332D01*
X136660000Y-78668094D01*
X136707619Y-78620475D01*
X136802857Y-78572856D01*
X136945714Y-78572856D01*
X137040952Y-78620475D01*
X137088571Y-78668094D01*
X137136190Y-78763332D01*
X137136190Y-79144285D01*
X137231429Y-78144285D02*
X137231429Y-77382380D01*
X136612381Y-77001428D02*
X137612381Y-76763333D01*
X136898095Y-76572856D01*
X137612381Y-76382380D01*
X136612381Y-76144285D01*
X137612381Y-75191904D02*
X137136190Y-75525238D01*
X137612381Y-75763333D02*
X136612381Y-75763333D01*
X136612381Y-75382380D01*
X136660000Y-75287142D01*
X136707619Y-75239523D01*
X136802857Y-75191904D01*
X136945714Y-75191904D01*
X137040952Y-75239523D01*
X137088571Y-75287142D01*
X137136190Y-75382380D01*
X137136190Y-75763333D01*
X136612381Y-74572857D02*
X136612381Y-74382380D01*
X136660000Y-74287142D01*
X136755238Y-74191904D01*
X136945714Y-74144285D01*
X137279048Y-74144285D01*
X137469524Y-74191904D01*
X137564762Y-74287142D01*
X137612381Y-74382380D01*
X137612381Y-74572857D01*
X137564762Y-74668095D01*
X137469524Y-74763333D01*
X137279048Y-74810952D01*
X136945714Y-74810952D01*
X136755238Y-74763333D01*
X136660000Y-74668095D01*
X136612381Y-74572857D01*
X136612381Y-73525238D02*
X136612381Y-73334761D01*
X136660000Y-73239523D01*
X136755238Y-73144285D01*
X136945714Y-73096666D01*
X137279048Y-73096666D01*
X137469524Y-73144285D01*
X137564762Y-73239523D01*
X137612381Y-73334761D01*
X137612381Y-73525238D01*
X137564762Y-73620476D01*
X137469524Y-73715714D01*
X137279048Y-73763333D01*
X136945714Y-73763333D01*
X136755238Y-73715714D01*
X136660000Y-73620476D01*
X136612381Y-73525238D01*
X137612381Y-72668095D02*
X136612381Y-72668095D01*
X137326667Y-72334761D01*
X136612381Y-72001428D01*
X137612381Y-72001428D01*
X137231429Y-71525238D02*
X137231429Y-70763333D01*
X136612381Y-70382381D02*
X136612381Y-69763333D01*
X136993333Y-70096667D01*
X136993333Y-69953809D01*
X137040952Y-69858571D01*
X137088571Y-69810952D01*
X137183810Y-69763333D01*
X137421905Y-69763333D01*
X137517143Y-69810952D01*
X137564762Y-69858571D01*
X137612381Y-69953809D01*
X137612381Y-70239524D01*
X137564762Y-70334762D01*
X137517143Y-70382381D01*
X136707619Y-69382381D02*
X136660000Y-69334762D01*
X136612381Y-69239524D01*
X136612381Y-69001428D01*
X136660000Y-68906190D01*
X136707619Y-68858571D01*
X136802857Y-68810952D01*
X136898095Y-68810952D01*
X137040952Y-68858571D01*
X137612381Y-69430000D01*
X137612381Y-68810952D01*
X128222381Y-56691905D02*
X129031905Y-56691905D01*
X129127143Y-56644286D01*
X129174762Y-56596667D01*
X129222381Y-56501429D01*
X129222381Y-56310952D01*
X129174762Y-56215714D01*
X129127143Y-56168095D01*
X129031905Y-56120476D01*
X128222381Y-56120476D01*
X128317619Y-55691905D02*
X128270000Y-55644286D01*
X128222381Y-55549048D01*
X128222381Y-55310952D01*
X128270000Y-55215714D01*
X128317619Y-55168095D01*
X128412857Y-55120476D01*
X128508095Y-55120476D01*
X128650952Y-55168095D01*
X129222381Y-55739524D01*
X129222381Y-55120476D01*
X121737381Y-59022857D02*
X120737381Y-59022857D01*
X121737381Y-58451428D01*
X120737381Y-58451428D01*
X120737381Y-57689523D02*
X121451667Y-57689523D01*
X121594524Y-57737143D01*
X121689762Y-57832381D01*
X121737381Y-57975238D01*
X121737381Y-58070476D01*
X121737381Y-57213333D02*
X120737381Y-57213333D01*
X121451667Y-56879999D01*
X120737381Y-56546666D01*
X121737381Y-56546666D01*
X120832619Y-56118095D02*
X120785000Y-56070476D01*
X120737381Y-55975238D01*
X120737381Y-55737142D01*
X120785000Y-55641904D01*
X120832619Y-55594285D01*
X120927857Y-55546666D01*
X121023095Y-55546666D01*
X121165952Y-55594285D01*
X121737381Y-56165714D01*
X121737381Y-55546666D01*
X121165952Y-54975238D02*
X121118333Y-55070476D01*
X121070714Y-55118095D01*
X120975476Y-55165714D01*
X120927857Y-55165714D01*
X120832619Y-55118095D01*
X120785000Y-55070476D01*
X120737381Y-54975238D01*
X120737381Y-54784761D01*
X120785000Y-54689523D01*
X120832619Y-54641904D01*
X120927857Y-54594285D01*
X120975476Y-54594285D01*
X121070714Y-54641904D01*
X121118333Y-54689523D01*
X121165952Y-54784761D01*
X121165952Y-54975238D01*
X121213571Y-55070476D01*
X121261190Y-55118095D01*
X121356429Y-55165714D01*
X121546905Y-55165714D01*
X121642143Y-55118095D01*
X121689762Y-55070476D01*
X121737381Y-54975238D01*
X121737381Y-54784761D01*
X121689762Y-54689523D01*
X121642143Y-54641904D01*
X121546905Y-54594285D01*
X121356429Y-54594285D01*
X121261190Y-54641904D01*
X121213571Y-54689523D01*
X121165952Y-54784761D01*
X121165952Y-54022857D02*
X121118333Y-54118095D01*
X121070714Y-54165714D01*
X120975476Y-54213333D01*
X120927857Y-54213333D01*
X120832619Y-54165714D01*
X120785000Y-54118095D01*
X120737381Y-54022857D01*
X120737381Y-53832380D01*
X120785000Y-53737142D01*
X120832619Y-53689523D01*
X120927857Y-53641904D01*
X120975476Y-53641904D01*
X121070714Y-53689523D01*
X121118333Y-53737142D01*
X121165952Y-53832380D01*
X121165952Y-54022857D01*
X121213571Y-54118095D01*
X121261190Y-54165714D01*
X121356429Y-54213333D01*
X121546905Y-54213333D01*
X121642143Y-54165714D01*
X121689762Y-54118095D01*
X121737381Y-54022857D01*
X121737381Y-53832380D01*
X121689762Y-53737142D01*
X121642143Y-53689523D01*
X121546905Y-53641904D01*
X121356429Y-53641904D01*
X121261190Y-53689523D01*
X121213571Y-53737142D01*
X121165952Y-53832380D01*
X121070714Y-52784761D02*
X121737381Y-52784761D01*
X120689762Y-53022857D02*
X121404048Y-53260952D01*
X121404048Y-52641904D01*
X110942381Y-38838095D02*
X109942381Y-38838095D01*
X109942381Y-38457142D01*
X109990000Y-38361904D01*
X110037619Y-38314285D01*
X110132857Y-38266666D01*
X110275714Y-38266666D01*
X110370952Y-38314285D01*
X110418571Y-38361904D01*
X110466190Y-38457142D01*
X110466190Y-38838095D01*
X110942381Y-37314285D02*
X110942381Y-37885714D01*
X110942381Y-37600000D02*
X109942381Y-37600000D01*
X110085238Y-37695238D01*
X110180476Y-37790476D01*
X110228095Y-37885714D01*
X124864762Y-92138333D02*
X124912381Y-91995476D01*
X124912381Y-91757380D01*
X124864762Y-91662142D01*
X124817143Y-91614523D01*
X124721905Y-91566904D01*
X124626667Y-91566904D01*
X124531429Y-91614523D01*
X124483810Y-91662142D01*
X124436190Y-91757380D01*
X124388571Y-91947857D01*
X124340952Y-92043095D01*
X124293333Y-92090714D01*
X124198095Y-92138333D01*
X124102857Y-92138333D01*
X124007619Y-92090714D01*
X123960000Y-92043095D01*
X123912381Y-91947857D01*
X123912381Y-91709761D01*
X123960000Y-91566904D01*
X123912381Y-91233571D02*
X124912381Y-90995476D01*
X124198095Y-90804999D01*
X124912381Y-90614523D01*
X123912381Y-90376428D01*
X124007619Y-90043095D02*
X123960000Y-89995476D01*
X123912381Y-89900238D01*
X123912381Y-89662142D01*
X123960000Y-89566904D01*
X124007619Y-89519285D01*
X124102857Y-89471666D01*
X124198095Y-89471666D01*
X124340952Y-89519285D01*
X124912381Y-90090714D01*
X124912381Y-89471666D01*
X124912381Y-100314000D02*
X123912381Y-100314000D01*
X123912381Y-99647334D02*
X123912381Y-99456857D01*
X123960000Y-99361619D01*
X124055238Y-99266381D01*
X124245714Y-99218762D01*
X124579048Y-99218762D01*
X124769524Y-99266381D01*
X124864762Y-99361619D01*
X124912381Y-99456857D01*
X124912381Y-99647334D01*
X124864762Y-99742572D01*
X124769524Y-99837810D01*
X124579048Y-99885429D01*
X124245714Y-99885429D01*
X124055238Y-99837810D01*
X123960000Y-99742572D01*
X123912381Y-99647334D01*
X123912381Y-98599715D02*
X123912381Y-98504476D01*
X123960000Y-98409238D01*
X124007619Y-98361619D01*
X124102857Y-98314000D01*
X124293333Y-98266381D01*
X124531429Y-98266381D01*
X124721905Y-98314000D01*
X124817143Y-98361619D01*
X124864762Y-98409238D01*
X124912381Y-98504476D01*
X124912381Y-98599715D01*
X124864762Y-98694953D01*
X124817143Y-98742572D01*
X124721905Y-98790191D01*
X124531429Y-98837810D01*
X124293333Y-98837810D01*
X124102857Y-98790191D01*
X124007619Y-98742572D01*
X123960000Y-98694953D01*
X123912381Y-98599715D01*
X121054762Y-92138333D02*
X121102381Y-91995476D01*
X121102381Y-91757380D01*
X121054762Y-91662142D01*
X121007143Y-91614523D01*
X120911905Y-91566904D01*
X120816667Y-91566904D01*
X120721429Y-91614523D01*
X120673810Y-91662142D01*
X120626190Y-91757380D01*
X120578571Y-91947857D01*
X120530952Y-92043095D01*
X120483333Y-92090714D01*
X120388095Y-92138333D01*
X120292857Y-92138333D01*
X120197619Y-92090714D01*
X120150000Y-92043095D01*
X120102381Y-91947857D01*
X120102381Y-91709761D01*
X120150000Y-91566904D01*
X120102381Y-91233571D02*
X121102381Y-90995476D01*
X120388095Y-90804999D01*
X121102381Y-90614523D01*
X120102381Y-90376428D01*
X121102381Y-89471666D02*
X121102381Y-90043095D01*
X121102381Y-89757381D02*
X120102381Y-89757381D01*
X120245238Y-89852619D01*
X120340476Y-89947857D01*
X120388095Y-90043095D01*
X121102381Y-101782381D02*
X120626190Y-102115715D01*
X121102381Y-102353810D02*
X120102381Y-102353810D01*
X120102381Y-101972857D01*
X120150000Y-101877619D01*
X120197619Y-101830000D01*
X120292857Y-101782381D01*
X120435714Y-101782381D01*
X120530952Y-101830000D01*
X120578571Y-101877619D01*
X120626190Y-101972857D01*
X120626190Y-102353810D01*
X120578571Y-101353810D02*
X120578571Y-101020476D01*
X121102381Y-100877619D02*
X121102381Y-101353810D01*
X120102381Y-101353810D01*
X120102381Y-100877619D01*
X121054762Y-100496667D02*
X121102381Y-100353810D01*
X121102381Y-100115714D01*
X121054762Y-100020476D01*
X121007143Y-99972857D01*
X120911905Y-99925238D01*
X120816667Y-99925238D01*
X120721429Y-99972857D01*
X120673810Y-100020476D01*
X120626190Y-100115714D01*
X120578571Y-100306191D01*
X120530952Y-100401429D01*
X120483333Y-100449048D01*
X120388095Y-100496667D01*
X120292857Y-100496667D01*
X120197619Y-100449048D01*
X120150000Y-100401429D01*
X120102381Y-100306191D01*
X120102381Y-100068095D01*
X120150000Y-99925238D01*
X120578571Y-99496667D02*
X120578571Y-99163333D01*
X121102381Y-99020476D02*
X121102381Y-99496667D01*
X120102381Y-99496667D01*
X120102381Y-99020476D01*
X120102381Y-98734762D02*
X120102381Y-98163333D01*
X121102381Y-98449048D02*
X120102381Y-98449048D01*
X194714762Y-60388333D02*
X194762381Y-60245476D01*
X194762381Y-60007380D01*
X194714762Y-59912142D01*
X194667143Y-59864523D01*
X194571905Y-59816904D01*
X194476667Y-59816904D01*
X194381429Y-59864523D01*
X194333810Y-59912142D01*
X194286190Y-60007380D01*
X194238571Y-60197857D01*
X194190952Y-60293095D01*
X194143333Y-60340714D01*
X194048095Y-60388333D01*
X193952857Y-60388333D01*
X193857619Y-60340714D01*
X193810000Y-60293095D01*
X193762381Y-60197857D01*
X193762381Y-59959761D01*
X193810000Y-59816904D01*
X193762381Y-59483571D02*
X194762381Y-59245476D01*
X194048095Y-59054999D01*
X194762381Y-58864523D01*
X193762381Y-58626428D01*
X194762381Y-57721666D02*
X194762381Y-58293095D01*
X194762381Y-58007381D02*
X193762381Y-58007381D01*
X193905238Y-58102619D01*
X194000476Y-58197857D01*
X194048095Y-58293095D01*
X194762381Y-50982381D02*
X194286190Y-51315715D01*
X194762381Y-51553810D02*
X193762381Y-51553810D01*
X193762381Y-51172857D01*
X193810000Y-51077619D01*
X193857619Y-51030000D01*
X193952857Y-50982381D01*
X194095714Y-50982381D01*
X194190952Y-51030000D01*
X194238571Y-51077619D01*
X194286190Y-51172857D01*
X194286190Y-51553810D01*
X194238571Y-50553810D02*
X194238571Y-50220476D01*
X194762381Y-50077619D02*
X194762381Y-50553810D01*
X193762381Y-50553810D01*
X193762381Y-50077619D01*
X194714762Y-49696667D02*
X194762381Y-49553810D01*
X194762381Y-49315714D01*
X194714762Y-49220476D01*
X194667143Y-49172857D01*
X194571905Y-49125238D01*
X194476667Y-49125238D01*
X194381429Y-49172857D01*
X194333810Y-49220476D01*
X194286190Y-49315714D01*
X194238571Y-49506191D01*
X194190952Y-49601429D01*
X194143333Y-49649048D01*
X194048095Y-49696667D01*
X193952857Y-49696667D01*
X193857619Y-49649048D01*
X193810000Y-49601429D01*
X193762381Y-49506191D01*
X193762381Y-49268095D01*
X193810000Y-49125238D01*
X194238571Y-48696667D02*
X194238571Y-48363333D01*
X194762381Y-48220476D02*
X194762381Y-48696667D01*
X193762381Y-48696667D01*
X193762381Y-48220476D01*
X193762381Y-47934762D02*
X193762381Y-47363333D01*
X194762381Y-47649048D02*
X193762381Y-47649048D01*
X190904762Y-60388333D02*
X190952381Y-60245476D01*
X190952381Y-60007380D01*
X190904762Y-59912142D01*
X190857143Y-59864523D01*
X190761905Y-59816904D01*
X190666667Y-59816904D01*
X190571429Y-59864523D01*
X190523810Y-59912142D01*
X190476190Y-60007380D01*
X190428571Y-60197857D01*
X190380952Y-60293095D01*
X190333333Y-60340714D01*
X190238095Y-60388333D01*
X190142857Y-60388333D01*
X190047619Y-60340714D01*
X190000000Y-60293095D01*
X189952381Y-60197857D01*
X189952381Y-59959761D01*
X190000000Y-59816904D01*
X189952381Y-59483571D02*
X190952381Y-59245476D01*
X190238095Y-59054999D01*
X190952381Y-58864523D01*
X189952381Y-58626428D01*
X190047619Y-58293095D02*
X190000000Y-58245476D01*
X189952381Y-58150238D01*
X189952381Y-57912142D01*
X190000000Y-57816904D01*
X190047619Y-57769285D01*
X190142857Y-57721666D01*
X190238095Y-57721666D01*
X190380952Y-57769285D01*
X190952381Y-58340714D01*
X190952381Y-57721666D01*
X190952381Y-51546000D02*
X189952381Y-51546000D01*
X189952381Y-50879334D02*
X189952381Y-50688857D01*
X190000000Y-50593619D01*
X190095238Y-50498381D01*
X190285714Y-50450762D01*
X190619048Y-50450762D01*
X190809524Y-50498381D01*
X190904762Y-50593619D01*
X190952381Y-50688857D01*
X190952381Y-50879334D01*
X190904762Y-50974572D01*
X190809524Y-51069810D01*
X190619048Y-51117429D01*
X190285714Y-51117429D01*
X190095238Y-51069810D01*
X190000000Y-50974572D01*
X189952381Y-50879334D01*
X189952381Y-49831715D02*
X189952381Y-49736476D01*
X190000000Y-49641238D01*
X190047619Y-49593619D01*
X190142857Y-49546000D01*
X190333333Y-49498381D01*
X190571429Y-49498381D01*
X190761905Y-49546000D01*
X190857143Y-49593619D01*
X190904762Y-49641238D01*
X190952381Y-49736476D01*
X190952381Y-49831715D01*
X190904762Y-49926953D01*
X190857143Y-49974572D01*
X190761905Y-50022191D01*
X190571429Y-50069810D01*
X190333333Y-50069810D01*
X190142857Y-50022191D01*
X190047619Y-49974572D01*
X190000000Y-49926953D01*
X189952381Y-49831715D01*
X204922381Y-112498095D02*
X203922381Y-112498095D01*
X203922381Y-112117142D01*
X203970000Y-112021904D01*
X204017619Y-111974285D01*
X204112857Y-111926666D01*
X204255714Y-111926666D01*
X204350952Y-111974285D01*
X204398571Y-112021904D01*
X204446190Y-112117142D01*
X204446190Y-112498095D01*
X204922381Y-110974285D02*
X204922381Y-111545714D01*
X204922381Y-111260000D02*
X203922381Y-111260000D01*
X204065238Y-111355238D01*
X204160476Y-111450476D01*
X204208095Y-111545714D01*
X185642381Y-94691905D02*
X186451905Y-94691905D01*
X186547143Y-94644286D01*
X186594762Y-94596667D01*
X186642381Y-94501429D01*
X186642381Y-94310952D01*
X186594762Y-94215714D01*
X186547143Y-94168095D01*
X186451905Y-94120476D01*
X185642381Y-94120476D01*
X185737619Y-93691905D02*
X185690000Y-93644286D01*
X185642381Y-93549048D01*
X185642381Y-93310952D01*
X185690000Y-93215714D01*
X185737619Y-93168095D01*
X185832857Y-93120476D01*
X185928095Y-93120476D01*
X186070952Y-93168095D01*
X186642381Y-93739524D01*
X186642381Y-93120476D01*
X194127381Y-97122857D02*
X193127381Y-97122857D01*
X194127381Y-96551428D01*
X193127381Y-96551428D01*
X193127381Y-95789523D02*
X193841667Y-95789523D01*
X193984524Y-95837143D01*
X194079762Y-95932381D01*
X194127381Y-96075238D01*
X194127381Y-96170476D01*
X194127381Y-95313333D02*
X193127381Y-95313333D01*
X193841667Y-94979999D01*
X193127381Y-94646666D01*
X194127381Y-94646666D01*
X193222619Y-94218095D02*
X193175000Y-94170476D01*
X193127381Y-94075238D01*
X193127381Y-93837142D01*
X193175000Y-93741904D01*
X193222619Y-93694285D01*
X193317857Y-93646666D01*
X193413095Y-93646666D01*
X193555952Y-93694285D01*
X194127381Y-94265714D01*
X194127381Y-93646666D01*
X193555952Y-93075238D02*
X193508333Y-93170476D01*
X193460714Y-93218095D01*
X193365476Y-93265714D01*
X193317857Y-93265714D01*
X193222619Y-93218095D01*
X193175000Y-93170476D01*
X193127381Y-93075238D01*
X193127381Y-92884761D01*
X193175000Y-92789523D01*
X193222619Y-92741904D01*
X193317857Y-92694285D01*
X193365476Y-92694285D01*
X193460714Y-92741904D01*
X193508333Y-92789523D01*
X193555952Y-92884761D01*
X193555952Y-93075238D01*
X193603571Y-93170476D01*
X193651190Y-93218095D01*
X193746429Y-93265714D01*
X193936905Y-93265714D01*
X194032143Y-93218095D01*
X194079762Y-93170476D01*
X194127381Y-93075238D01*
X194127381Y-92884761D01*
X194079762Y-92789523D01*
X194032143Y-92741904D01*
X193936905Y-92694285D01*
X193746429Y-92694285D01*
X193651190Y-92741904D01*
X193603571Y-92789523D01*
X193555952Y-92884761D01*
X193555952Y-92122857D02*
X193508333Y-92218095D01*
X193460714Y-92265714D01*
X193365476Y-92313333D01*
X193317857Y-92313333D01*
X193222619Y-92265714D01*
X193175000Y-92218095D01*
X193127381Y-92122857D01*
X193127381Y-91932380D01*
X193175000Y-91837142D01*
X193222619Y-91789523D01*
X193317857Y-91741904D01*
X193365476Y-91741904D01*
X193460714Y-91789523D01*
X193508333Y-91837142D01*
X193555952Y-91932380D01*
X193555952Y-92122857D01*
X193603571Y-92218095D01*
X193651190Y-92265714D01*
X193746429Y-92313333D01*
X193936905Y-92313333D01*
X194032143Y-92265714D01*
X194079762Y-92218095D01*
X194127381Y-92122857D01*
X194127381Y-91932380D01*
X194079762Y-91837142D01*
X194032143Y-91789523D01*
X193936905Y-91741904D01*
X193746429Y-91741904D01*
X193651190Y-91789523D01*
X193603571Y-91837142D01*
X193555952Y-91932380D01*
X193460714Y-90884761D02*
X194127381Y-90884761D01*
X193079762Y-91122857D02*
X193794048Y-91360952D01*
X193794048Y-90741904D01*
X177252381Y-87121905D02*
X178061905Y-87121905D01*
X178157143Y-87074286D01*
X178204762Y-87026667D01*
X178252381Y-86931429D01*
X178252381Y-86740952D01*
X178204762Y-86645714D01*
X178157143Y-86598095D01*
X178061905Y-86550476D01*
X177252381Y-86550476D01*
X178252381Y-85550476D02*
X178252381Y-86121905D01*
X178252381Y-85836191D02*
X177252381Y-85836191D01*
X177395238Y-85931429D01*
X177490476Y-86026667D01*
X177538095Y-86121905D01*
X177728571Y-81001428D02*
X177728571Y-80668094D01*
X178252381Y-80525237D02*
X178252381Y-81001428D01*
X177252381Y-81001428D01*
X177252381Y-80525237D01*
X178204762Y-80144285D02*
X178252381Y-80001428D01*
X178252381Y-79763332D01*
X178204762Y-79668094D01*
X178157143Y-79620475D01*
X178061905Y-79572856D01*
X177966667Y-79572856D01*
X177871429Y-79620475D01*
X177823810Y-79668094D01*
X177776190Y-79763332D01*
X177728571Y-79953809D01*
X177680952Y-80049047D01*
X177633333Y-80096666D01*
X177538095Y-80144285D01*
X177442857Y-80144285D01*
X177347619Y-80096666D01*
X177300000Y-80049047D01*
X177252381Y-79953809D01*
X177252381Y-79715713D01*
X177300000Y-79572856D01*
X178252381Y-79144285D02*
X177252381Y-79144285D01*
X177252381Y-78763332D01*
X177300000Y-78668094D01*
X177347619Y-78620475D01*
X177442857Y-78572856D01*
X177585714Y-78572856D01*
X177680952Y-78620475D01*
X177728571Y-78668094D01*
X177776190Y-78763332D01*
X177776190Y-79144285D01*
X177871429Y-78144285D02*
X177871429Y-77382380D01*
X177252381Y-77001428D02*
X178252381Y-76763333D01*
X177538095Y-76572856D01*
X178252381Y-76382380D01*
X177252381Y-76144285D01*
X178252381Y-75191904D02*
X177776190Y-75525238D01*
X178252381Y-75763333D02*
X177252381Y-75763333D01*
X177252381Y-75382380D01*
X177300000Y-75287142D01*
X177347619Y-75239523D01*
X177442857Y-75191904D01*
X177585714Y-75191904D01*
X177680952Y-75239523D01*
X177728571Y-75287142D01*
X177776190Y-75382380D01*
X177776190Y-75763333D01*
X177252381Y-74572857D02*
X177252381Y-74382380D01*
X177300000Y-74287142D01*
X177395238Y-74191904D01*
X177585714Y-74144285D01*
X177919048Y-74144285D01*
X178109524Y-74191904D01*
X178204762Y-74287142D01*
X178252381Y-74382380D01*
X178252381Y-74572857D01*
X178204762Y-74668095D01*
X178109524Y-74763333D01*
X177919048Y-74810952D01*
X177585714Y-74810952D01*
X177395238Y-74763333D01*
X177300000Y-74668095D01*
X177252381Y-74572857D01*
X177252381Y-73525238D02*
X177252381Y-73334761D01*
X177300000Y-73239523D01*
X177395238Y-73144285D01*
X177585714Y-73096666D01*
X177919048Y-73096666D01*
X178109524Y-73144285D01*
X178204762Y-73239523D01*
X178252381Y-73334761D01*
X178252381Y-73525238D01*
X178204762Y-73620476D01*
X178109524Y-73715714D01*
X177919048Y-73763333D01*
X177585714Y-73763333D01*
X177395238Y-73715714D01*
X177300000Y-73620476D01*
X177252381Y-73525238D01*
X178252381Y-72668095D02*
X177252381Y-72668095D01*
X177966667Y-72334761D01*
X177252381Y-72001428D01*
X178252381Y-72001428D01*
X177871429Y-71525238D02*
X177871429Y-70763333D01*
X177252381Y-70382381D02*
X177252381Y-69763333D01*
X177633333Y-70096667D01*
X177633333Y-69953809D01*
X177680952Y-69858571D01*
X177728571Y-69810952D01*
X177823810Y-69763333D01*
X178061905Y-69763333D01*
X178157143Y-69810952D01*
X178204762Y-69858571D01*
X178252381Y-69953809D01*
X178252381Y-70239524D01*
X178204762Y-70334762D01*
X178157143Y-70382381D01*
X177347619Y-69382381D02*
X177300000Y-69334762D01*
X177252381Y-69239524D01*
X177252381Y-69001428D01*
X177300000Y-68906190D01*
X177347619Y-68858571D01*
X177442857Y-68810952D01*
X177538095Y-68810952D01*
X177680952Y-68858571D01*
X178252381Y-69430000D01*
X178252381Y-68810952D01*
X183142381Y-89096666D02*
X182666190Y-89430000D01*
X183142381Y-89668095D02*
X182142381Y-89668095D01*
X182142381Y-89287142D01*
X182190000Y-89191904D01*
X182237619Y-89144285D01*
X182332857Y-89096666D01*
X182475714Y-89096666D01*
X182570952Y-89144285D01*
X182618571Y-89191904D01*
X182666190Y-89287142D01*
X182666190Y-89668095D01*
X183142381Y-88144285D02*
X183142381Y-88715714D01*
X183142381Y-88430000D02*
X182142381Y-88430000D01*
X182285238Y-88525238D01*
X182380476Y-88620476D01*
X182428095Y-88715714D01*
X186142381Y-89525238D02*
X186142381Y-90096667D01*
X186142381Y-89810953D02*
X185142381Y-89810953D01*
X185285238Y-89906191D01*
X185380476Y-90001429D01*
X185428095Y-90096667D01*
X185142381Y-88906191D02*
X185142381Y-88810952D01*
X185190000Y-88715714D01*
X185237619Y-88668095D01*
X185332857Y-88620476D01*
X185523333Y-88572857D01*
X185761429Y-88572857D01*
X185951905Y-88620476D01*
X186047143Y-88668095D01*
X186094762Y-88715714D01*
X186142381Y-88810952D01*
X186142381Y-88906191D01*
X186094762Y-89001429D01*
X186047143Y-89049048D01*
X185951905Y-89096667D01*
X185761429Y-89144286D01*
X185523333Y-89144286D01*
X185332857Y-89096667D01*
X185237619Y-89049048D01*
X185190000Y-89001429D01*
X185142381Y-88906191D01*
X186142381Y-88144286D02*
X185142381Y-88144286D01*
X185761429Y-88049048D02*
X186142381Y-87763333D01*
X185475714Y-87763333D02*
X185856667Y-88144286D01*
X182642143Y-94096666D02*
X182689762Y-94144285D01*
X182737381Y-94287142D01*
X182737381Y-94382380D01*
X182689762Y-94525238D01*
X182594524Y-94620476D01*
X182499286Y-94668095D01*
X182308810Y-94715714D01*
X182165952Y-94715714D01*
X181975476Y-94668095D01*
X181880238Y-94620476D01*
X181785000Y-94525238D01*
X181737381Y-94382380D01*
X181737381Y-94287142D01*
X181785000Y-94144285D01*
X181832619Y-94096666D01*
X181737381Y-93763333D02*
X181737381Y-93144285D01*
X182118333Y-93477619D01*
X182118333Y-93334761D01*
X182165952Y-93239523D01*
X182213571Y-93191904D01*
X182308810Y-93144285D01*
X182546905Y-93144285D01*
X182642143Y-93191904D01*
X182689762Y-93239523D01*
X182737381Y-93334761D01*
X182737381Y-93620476D01*
X182689762Y-93715714D01*
X182642143Y-93763333D01*
X185205714Y-98528095D02*
X185872381Y-98528095D01*
X184824762Y-98766191D02*
X185539048Y-99004286D01*
X185539048Y-98385238D01*
X184872381Y-98099524D02*
X184872381Y-97432857D01*
X185872381Y-97861429D01*
X185205714Y-96623333D02*
X185872381Y-96623333D01*
X185205714Y-97051905D02*
X185729524Y-97051905D01*
X185824762Y-97004286D01*
X185872381Y-96909048D01*
X185872381Y-96766190D01*
X185824762Y-96670952D01*
X185777143Y-96623333D01*
X187936143Y-89066666D02*
X187983762Y-89114285D01*
X188031381Y-89257142D01*
X188031381Y-89352380D01*
X187983762Y-89495238D01*
X187888524Y-89590476D01*
X187793286Y-89638095D01*
X187602810Y-89685714D01*
X187459952Y-89685714D01*
X187269476Y-89638095D01*
X187174238Y-89590476D01*
X187079000Y-89495238D01*
X187031381Y-89352380D01*
X187031381Y-89257142D01*
X187079000Y-89114285D01*
X187126619Y-89066666D01*
X187126619Y-88685714D02*
X187079000Y-88638095D01*
X187031381Y-88542857D01*
X187031381Y-88304761D01*
X187079000Y-88209523D01*
X187126619Y-88161904D01*
X187221857Y-88114285D01*
X187317095Y-88114285D01*
X187459952Y-88161904D01*
X188031381Y-88733333D01*
X188031381Y-88114285D01*
X191603381Y-90114286D02*
X191603381Y-90019047D01*
X191651000Y-89923809D01*
X191698619Y-89876190D01*
X191793857Y-89828571D01*
X191984333Y-89780952D01*
X192222429Y-89780952D01*
X192412905Y-89828571D01*
X192508143Y-89876190D01*
X192555762Y-89923809D01*
X192603381Y-90019047D01*
X192603381Y-90114286D01*
X192555762Y-90209524D01*
X192508143Y-90257143D01*
X192412905Y-90304762D01*
X192222429Y-90352381D01*
X191984333Y-90352381D01*
X191793857Y-90304762D01*
X191698619Y-90257143D01*
X191651000Y-90209524D01*
X191603381Y-90114286D01*
X192508143Y-89352381D02*
X192555762Y-89304762D01*
X192603381Y-89352381D01*
X192555762Y-89400000D01*
X192508143Y-89352381D01*
X192603381Y-89352381D01*
X192603381Y-88352381D02*
X192603381Y-88923810D01*
X192603381Y-88638096D02*
X191603381Y-88638096D01*
X191746238Y-88733334D01*
X191841476Y-88828572D01*
X191889095Y-88923810D01*
X191936714Y-87495238D02*
X192603381Y-87495238D01*
X191936714Y-87923810D02*
X192460524Y-87923810D01*
X192555762Y-87876191D01*
X192603381Y-87780953D01*
X192603381Y-87638095D01*
X192555762Y-87542857D01*
X192508143Y-87495238D01*
X187936143Y-99226666D02*
X187983762Y-99274285D01*
X188031381Y-99417142D01*
X188031381Y-99512380D01*
X187983762Y-99655238D01*
X187888524Y-99750476D01*
X187793286Y-99798095D01*
X187602810Y-99845714D01*
X187459952Y-99845714D01*
X187269476Y-99798095D01*
X187174238Y-99750476D01*
X187079000Y-99655238D01*
X187031381Y-99512380D01*
X187031381Y-99417142D01*
X187079000Y-99274285D01*
X187126619Y-99226666D01*
X188031381Y-98274285D02*
X188031381Y-98845714D01*
X188031381Y-98560000D02*
X187031381Y-98560000D01*
X187174238Y-98655238D01*
X187269476Y-98750476D01*
X187317095Y-98845714D01*
X191603381Y-100274286D02*
X191603381Y-100179047D01*
X191651000Y-100083809D01*
X191698619Y-100036190D01*
X191793857Y-99988571D01*
X191984333Y-99940952D01*
X192222429Y-99940952D01*
X192412905Y-99988571D01*
X192508143Y-100036190D01*
X192555762Y-100083809D01*
X192603381Y-100179047D01*
X192603381Y-100274286D01*
X192555762Y-100369524D01*
X192508143Y-100417143D01*
X192412905Y-100464762D01*
X192222429Y-100512381D01*
X191984333Y-100512381D01*
X191793857Y-100464762D01*
X191698619Y-100417143D01*
X191651000Y-100369524D01*
X191603381Y-100274286D01*
X192508143Y-99512381D02*
X192555762Y-99464762D01*
X192603381Y-99512381D01*
X192555762Y-99560000D01*
X192508143Y-99512381D01*
X192603381Y-99512381D01*
X192603381Y-98512381D02*
X192603381Y-99083810D01*
X192603381Y-98798096D02*
X191603381Y-98798096D01*
X191746238Y-98893334D01*
X191841476Y-98988572D01*
X191889095Y-99083810D01*
X191936714Y-97655238D02*
X192603381Y-97655238D01*
X191936714Y-98083810D02*
X192460524Y-98083810D01*
X192555762Y-98036191D01*
X192603381Y-97940953D01*
X192603381Y-97798095D01*
X192555762Y-97702857D01*
X192508143Y-97655238D01*
X133183334Y-105386143D02*
X133135715Y-105433762D01*
X132992858Y-105481381D01*
X132897620Y-105481381D01*
X132754762Y-105433762D01*
X132659524Y-105338524D01*
X132611905Y-105243286D01*
X132564286Y-105052810D01*
X132564286Y-104909952D01*
X132611905Y-104719476D01*
X132659524Y-104624238D01*
X132754762Y-104529000D01*
X132897620Y-104481381D01*
X132992858Y-104481381D01*
X133135715Y-104529000D01*
X133183334Y-104576619D01*
X134135715Y-105481381D02*
X133564286Y-105481381D01*
X133850000Y-105481381D02*
X133850000Y-104481381D01*
X133754762Y-104624238D01*
X133659524Y-104719476D01*
X133564286Y-104767095D01*
X132135714Y-109053381D02*
X132230953Y-109053381D01*
X132326191Y-109101000D01*
X132373810Y-109148619D01*
X132421429Y-109243857D01*
X132469048Y-109434333D01*
X132469048Y-109672429D01*
X132421429Y-109862905D01*
X132373810Y-109958143D01*
X132326191Y-110005762D01*
X132230953Y-110053381D01*
X132135714Y-110053381D01*
X132040476Y-110005762D01*
X131992857Y-109958143D01*
X131945238Y-109862905D01*
X131897619Y-109672429D01*
X131897619Y-109434333D01*
X131945238Y-109243857D01*
X131992857Y-109148619D01*
X132040476Y-109101000D01*
X132135714Y-109053381D01*
X132897619Y-109958143D02*
X132945238Y-110005762D01*
X132897619Y-110053381D01*
X132850000Y-110005762D01*
X132897619Y-109958143D01*
X132897619Y-110053381D01*
X133897619Y-110053381D02*
X133326190Y-110053381D01*
X133611904Y-110053381D02*
X133611904Y-109053381D01*
X133516666Y-109196238D01*
X133421428Y-109291476D01*
X133326190Y-109339095D01*
X134754762Y-109386714D02*
X134754762Y-110053381D01*
X134326190Y-109386714D02*
X134326190Y-109910524D01*
X134373809Y-110005762D01*
X134469047Y-110053381D01*
X134611905Y-110053381D01*
X134707143Y-110005762D01*
X134754762Y-109958143D01*
X143343334Y-105386143D02*
X143295715Y-105433762D01*
X143152858Y-105481381D01*
X143057620Y-105481381D01*
X142914762Y-105433762D01*
X142819524Y-105338524D01*
X142771905Y-105243286D01*
X142724286Y-105052810D01*
X142724286Y-104909952D01*
X142771905Y-104719476D01*
X142819524Y-104624238D01*
X142914762Y-104529000D01*
X143057620Y-104481381D01*
X143152858Y-104481381D01*
X143295715Y-104529000D01*
X143343334Y-104576619D01*
X143724286Y-104576619D02*
X143771905Y-104529000D01*
X143867143Y-104481381D01*
X144105239Y-104481381D01*
X144200477Y-104529000D01*
X144248096Y-104576619D01*
X144295715Y-104671857D01*
X144295715Y-104767095D01*
X144248096Y-104909952D01*
X143676667Y-105481381D01*
X144295715Y-105481381D01*
X142295714Y-109053381D02*
X142390953Y-109053381D01*
X142486191Y-109101000D01*
X142533810Y-109148619D01*
X142581429Y-109243857D01*
X142629048Y-109434333D01*
X142629048Y-109672429D01*
X142581429Y-109862905D01*
X142533810Y-109958143D01*
X142486191Y-110005762D01*
X142390953Y-110053381D01*
X142295714Y-110053381D01*
X142200476Y-110005762D01*
X142152857Y-109958143D01*
X142105238Y-109862905D01*
X142057619Y-109672429D01*
X142057619Y-109434333D01*
X142105238Y-109243857D01*
X142152857Y-109148619D01*
X142200476Y-109101000D01*
X142295714Y-109053381D01*
X143057619Y-109958143D02*
X143105238Y-110005762D01*
X143057619Y-110053381D01*
X143010000Y-110005762D01*
X143057619Y-109958143D01*
X143057619Y-110053381D01*
X144057619Y-110053381D02*
X143486190Y-110053381D01*
X143771904Y-110053381D02*
X143771904Y-109053381D01*
X143676666Y-109196238D01*
X143581428Y-109291476D01*
X143486190Y-109339095D01*
X144914762Y-109386714D02*
X144914762Y-110053381D01*
X144486190Y-109386714D02*
X144486190Y-109910524D01*
X144533809Y-110005762D01*
X144629047Y-110053381D01*
X144771905Y-110053381D01*
X144867143Y-110005762D01*
X144914762Y-109958143D01*
X138313334Y-100092143D02*
X138265715Y-100139762D01*
X138122858Y-100187381D01*
X138027620Y-100187381D01*
X137884762Y-100139762D01*
X137789524Y-100044524D01*
X137741905Y-99949286D01*
X137694286Y-99758810D01*
X137694286Y-99615952D01*
X137741905Y-99425476D01*
X137789524Y-99330238D01*
X137884762Y-99235000D01*
X138027620Y-99187381D01*
X138122858Y-99187381D01*
X138265715Y-99235000D01*
X138313334Y-99282619D01*
X138646667Y-99187381D02*
X139265715Y-99187381D01*
X138932381Y-99568333D01*
X139075239Y-99568333D01*
X139170477Y-99615952D01*
X139218096Y-99663571D01*
X139265715Y-99758810D01*
X139265715Y-99996905D01*
X139218096Y-100092143D01*
X139170477Y-100139762D01*
X139075239Y-100187381D01*
X138789524Y-100187381D01*
X138694286Y-100139762D01*
X138646667Y-100092143D01*
X133881905Y-102655714D02*
X133881905Y-103322381D01*
X133643809Y-102274762D02*
X133405714Y-102989048D01*
X134024762Y-102989048D01*
X134310476Y-102322381D02*
X134977143Y-102322381D01*
X134548571Y-103322381D01*
X135786667Y-102655714D02*
X135786667Y-103322381D01*
X135358095Y-102655714D02*
X135358095Y-103179524D01*
X135405714Y-103274762D01*
X135500952Y-103322381D01*
X135643810Y-103322381D01*
X135739048Y-103274762D01*
X135786667Y-103227143D01*
X143313334Y-100592381D02*
X142980000Y-100116190D01*
X142741905Y-100592381D02*
X142741905Y-99592381D01*
X143122858Y-99592381D01*
X143218096Y-99640000D01*
X143265715Y-99687619D01*
X143313334Y-99782857D01*
X143313334Y-99925714D01*
X143265715Y-100020952D01*
X143218096Y-100068571D01*
X143122858Y-100116190D01*
X142741905Y-100116190D01*
X144265715Y-100592381D02*
X143694286Y-100592381D01*
X143980000Y-100592381D02*
X143980000Y-99592381D01*
X143884762Y-99735238D01*
X143789524Y-99830476D01*
X143694286Y-99878095D01*
X142884762Y-103592381D02*
X142313333Y-103592381D01*
X142599047Y-103592381D02*
X142599047Y-102592381D01*
X142503809Y-102735238D01*
X142408571Y-102830476D01*
X142313333Y-102878095D01*
X143503809Y-102592381D02*
X143599048Y-102592381D01*
X143694286Y-102640000D01*
X143741905Y-102687619D01*
X143789524Y-102782857D01*
X143837143Y-102973333D01*
X143837143Y-103211429D01*
X143789524Y-103401905D01*
X143741905Y-103497143D01*
X143694286Y-103544762D01*
X143599048Y-103592381D01*
X143503809Y-103592381D01*
X143408571Y-103544762D01*
X143360952Y-103497143D01*
X143313333Y-103401905D01*
X143265714Y-103211429D01*
X143265714Y-102973333D01*
X143313333Y-102782857D01*
X143360952Y-102687619D01*
X143408571Y-102640000D01*
X143503809Y-102592381D01*
X144265714Y-103592381D02*
X144265714Y-102592381D01*
X144360952Y-103211429D02*
X144646667Y-103592381D01*
X144646667Y-102925714D02*
X144265714Y-103306667D01*
X145288095Y-94702381D02*
X145288095Y-95511905D01*
X145335714Y-95607143D01*
X145383333Y-95654762D01*
X145478571Y-95702381D01*
X145669048Y-95702381D01*
X145764286Y-95654762D01*
X145811905Y-95607143D01*
X145859524Y-95511905D01*
X145859524Y-94702381D01*
X146859524Y-95702381D02*
X146288095Y-95702381D01*
X146573809Y-95702381D02*
X146573809Y-94702381D01*
X146478571Y-94845238D01*
X146383333Y-94940476D01*
X146288095Y-94988095D01*
X151408572Y-95178571D02*
X151741906Y-95178571D01*
X151884763Y-95702381D02*
X151408572Y-95702381D01*
X151408572Y-94702381D01*
X151884763Y-94702381D01*
X152265715Y-95654762D02*
X152408572Y-95702381D01*
X152646668Y-95702381D01*
X152741906Y-95654762D01*
X152789525Y-95607143D01*
X152837144Y-95511905D01*
X152837144Y-95416667D01*
X152789525Y-95321429D01*
X152741906Y-95273810D01*
X152646668Y-95226190D01*
X152456191Y-95178571D01*
X152360953Y-95130952D01*
X152313334Y-95083333D01*
X152265715Y-94988095D01*
X152265715Y-94892857D01*
X152313334Y-94797619D01*
X152360953Y-94750000D01*
X152456191Y-94702381D01*
X152694287Y-94702381D01*
X152837144Y-94750000D01*
X153265715Y-95702381D02*
X153265715Y-94702381D01*
X153646668Y-94702381D01*
X153741906Y-94750000D01*
X153789525Y-94797619D01*
X153837144Y-94892857D01*
X153837144Y-95035714D01*
X153789525Y-95130952D01*
X153741906Y-95178571D01*
X153646668Y-95226190D01*
X153265715Y-95226190D01*
X154265715Y-95321429D02*
X155027620Y-95321429D01*
X155408572Y-94702381D02*
X155646667Y-95702381D01*
X155837144Y-94988095D01*
X156027620Y-95702381D01*
X156265715Y-94702381D01*
X157218096Y-95702381D02*
X156884762Y-95226190D01*
X156646667Y-95702381D02*
X156646667Y-94702381D01*
X157027620Y-94702381D01*
X157122858Y-94750000D01*
X157170477Y-94797619D01*
X157218096Y-94892857D01*
X157218096Y-95035714D01*
X157170477Y-95130952D01*
X157122858Y-95178571D01*
X157027620Y-95226190D01*
X156646667Y-95226190D01*
X157837143Y-94702381D02*
X158027620Y-94702381D01*
X158122858Y-94750000D01*
X158218096Y-94845238D01*
X158265715Y-95035714D01*
X158265715Y-95369048D01*
X158218096Y-95559524D01*
X158122858Y-95654762D01*
X158027620Y-95702381D01*
X157837143Y-95702381D01*
X157741905Y-95654762D01*
X157646667Y-95559524D01*
X157599048Y-95369048D01*
X157599048Y-95035714D01*
X157646667Y-94845238D01*
X157741905Y-94750000D01*
X157837143Y-94702381D01*
X158884762Y-94702381D02*
X159075239Y-94702381D01*
X159170477Y-94750000D01*
X159265715Y-94845238D01*
X159313334Y-95035714D01*
X159313334Y-95369048D01*
X159265715Y-95559524D01*
X159170477Y-95654762D01*
X159075239Y-95702381D01*
X158884762Y-95702381D01*
X158789524Y-95654762D01*
X158694286Y-95559524D01*
X158646667Y-95369048D01*
X158646667Y-95035714D01*
X158694286Y-94845238D01*
X158789524Y-94750000D01*
X158884762Y-94702381D01*
X159741905Y-95702381D02*
X159741905Y-94702381D01*
X160075239Y-95416667D01*
X160408572Y-94702381D01*
X160408572Y-95702381D01*
X160884762Y-95321429D02*
X161646667Y-95321429D01*
X162027619Y-94702381D02*
X162646667Y-94702381D01*
X162313333Y-95083333D01*
X162456191Y-95083333D01*
X162551429Y-95130952D01*
X162599048Y-95178571D01*
X162646667Y-95273810D01*
X162646667Y-95511905D01*
X162599048Y-95607143D01*
X162551429Y-95654762D01*
X162456191Y-95702381D01*
X162170476Y-95702381D01*
X162075238Y-95654762D01*
X162027619Y-95607143D01*
X163027619Y-94797619D02*
X163075238Y-94750000D01*
X163170476Y-94702381D01*
X163408572Y-94702381D01*
X163503810Y-94750000D01*
X163551429Y-94797619D01*
X163599048Y-94892857D01*
X163599048Y-94988095D01*
X163551429Y-95130952D01*
X162980000Y-95702381D01*
X163599048Y-95702381D01*
X137718095Y-103092381D02*
X137718095Y-103901905D01*
X137765714Y-103997143D01*
X137813333Y-104044762D01*
X137908571Y-104092381D01*
X138099048Y-104092381D01*
X138194286Y-104044762D01*
X138241905Y-103997143D01*
X138289524Y-103901905D01*
X138289524Y-103092381D01*
X138718095Y-103187619D02*
X138765714Y-103140000D01*
X138860952Y-103092381D01*
X139099048Y-103092381D01*
X139194286Y-103140000D01*
X139241905Y-103187619D01*
X139289524Y-103282857D01*
X139289524Y-103378095D01*
X139241905Y-103520952D01*
X138670476Y-104092381D01*
X139289524Y-104092381D01*
X135287143Y-111577381D02*
X135287143Y-110577381D01*
X135858572Y-111577381D01*
X135858572Y-110577381D01*
X136620477Y-110577381D02*
X136620477Y-111291667D01*
X136572857Y-111434524D01*
X136477619Y-111529762D01*
X136334762Y-111577381D01*
X136239524Y-111577381D01*
X137096667Y-111577381D02*
X137096667Y-110577381D01*
X137430001Y-111291667D01*
X137763334Y-110577381D01*
X137763334Y-111577381D01*
X138191905Y-110672619D02*
X138239524Y-110625000D01*
X138334762Y-110577381D01*
X138572858Y-110577381D01*
X138668096Y-110625000D01*
X138715715Y-110672619D01*
X138763334Y-110767857D01*
X138763334Y-110863095D01*
X138715715Y-111005952D01*
X138144286Y-111577381D01*
X138763334Y-111577381D01*
X139334762Y-111005952D02*
X139239524Y-110958333D01*
X139191905Y-110910714D01*
X139144286Y-110815476D01*
X139144286Y-110767857D01*
X139191905Y-110672619D01*
X139239524Y-110625000D01*
X139334762Y-110577381D01*
X139525239Y-110577381D01*
X139620477Y-110625000D01*
X139668096Y-110672619D01*
X139715715Y-110767857D01*
X139715715Y-110815476D01*
X139668096Y-110910714D01*
X139620477Y-110958333D01*
X139525239Y-111005952D01*
X139334762Y-111005952D01*
X139239524Y-111053571D01*
X139191905Y-111101190D01*
X139144286Y-111196429D01*
X139144286Y-111386905D01*
X139191905Y-111482143D01*
X139239524Y-111529762D01*
X139334762Y-111577381D01*
X139525239Y-111577381D01*
X139620477Y-111529762D01*
X139668096Y-111482143D01*
X139715715Y-111386905D01*
X139715715Y-111196429D01*
X139668096Y-111101190D01*
X139620477Y-111053571D01*
X139525239Y-111005952D01*
X140287143Y-111005952D02*
X140191905Y-110958333D01*
X140144286Y-110910714D01*
X140096667Y-110815476D01*
X140096667Y-110767857D01*
X140144286Y-110672619D01*
X140191905Y-110625000D01*
X140287143Y-110577381D01*
X140477620Y-110577381D01*
X140572858Y-110625000D01*
X140620477Y-110672619D01*
X140668096Y-110767857D01*
X140668096Y-110815476D01*
X140620477Y-110910714D01*
X140572858Y-110958333D01*
X140477620Y-111005952D01*
X140287143Y-111005952D01*
X140191905Y-111053571D01*
X140144286Y-111101190D01*
X140096667Y-111196429D01*
X140096667Y-111386905D01*
X140144286Y-111482143D01*
X140191905Y-111529762D01*
X140287143Y-111577381D01*
X140477620Y-111577381D01*
X140572858Y-111529762D01*
X140620477Y-111482143D01*
X140668096Y-111386905D01*
X140668096Y-111196429D01*
X140620477Y-111101190D01*
X140572858Y-111053571D01*
X140477620Y-111005952D01*
X141525239Y-110910714D02*
X141525239Y-111577381D01*
X141287143Y-110529762D02*
X141049048Y-111244048D01*
X141668096Y-111244048D01*
X119911905Y-122372381D02*
X119911905Y-121372381D01*
X120292858Y-121372381D01*
X120388096Y-121420000D01*
X120435715Y-121467619D01*
X120483334Y-121562857D01*
X120483334Y-121705714D01*
X120435715Y-121800952D01*
X120388096Y-121848571D01*
X120292858Y-121896190D01*
X119911905Y-121896190D01*
X121435715Y-122372381D02*
X120864286Y-122372381D01*
X121150000Y-122372381D02*
X121150000Y-121372381D01*
X121054762Y-121515238D01*
X120959524Y-121610476D01*
X120864286Y-121658095D01*
X172021667Y-108354762D02*
X172164524Y-108402381D01*
X172402620Y-108402381D01*
X172497858Y-108354762D01*
X172545477Y-108307143D01*
X172593096Y-108211905D01*
X172593096Y-108116667D01*
X172545477Y-108021429D01*
X172497858Y-107973810D01*
X172402620Y-107926190D01*
X172212143Y-107878571D01*
X172116905Y-107830952D01*
X172069286Y-107783333D01*
X172021667Y-107688095D01*
X172021667Y-107592857D01*
X172069286Y-107497619D01*
X172116905Y-107450000D01*
X172212143Y-107402381D01*
X172450239Y-107402381D01*
X172593096Y-107450000D01*
X172926429Y-107402381D02*
X173164524Y-108402381D01*
X173355001Y-107688095D01*
X173545477Y-108402381D01*
X173783572Y-107402381D01*
X174116905Y-107497619D02*
X174164524Y-107450000D01*
X174259762Y-107402381D01*
X174497858Y-107402381D01*
X174593096Y-107450000D01*
X174640715Y-107497619D01*
X174688334Y-107592857D01*
X174688334Y-107688095D01*
X174640715Y-107830952D01*
X174069286Y-108402381D01*
X174688334Y-108402381D01*
X180864000Y-108402381D02*
X180864000Y-107402381D01*
X181530666Y-107402381D02*
X181721143Y-107402381D01*
X181816381Y-107450000D01*
X181911619Y-107545238D01*
X181959238Y-107735714D01*
X181959238Y-108069048D01*
X181911619Y-108259524D01*
X181816381Y-108354762D01*
X181721143Y-108402381D01*
X181530666Y-108402381D01*
X181435428Y-108354762D01*
X181340190Y-108259524D01*
X181292571Y-108069048D01*
X181292571Y-107735714D01*
X181340190Y-107545238D01*
X181435428Y-107450000D01*
X181530666Y-107402381D01*
X182578285Y-107402381D02*
X182673524Y-107402381D01*
X182768762Y-107450000D01*
X182816381Y-107497619D01*
X182864000Y-107592857D01*
X182911619Y-107783333D01*
X182911619Y-108021429D01*
X182864000Y-108211905D01*
X182816381Y-108307143D01*
X182768762Y-108354762D01*
X182673524Y-108402381D01*
X182578285Y-108402381D01*
X182483047Y-108354762D01*
X182435428Y-108307143D01*
X182387809Y-108211905D01*
X182340190Y-108021429D01*
X182340190Y-107783333D01*
X182387809Y-107592857D01*
X182435428Y-107497619D01*
X182483047Y-107450000D01*
X182578285Y-107402381D01*
X172021667Y-112164762D02*
X172164524Y-112212381D01*
X172402620Y-112212381D01*
X172497858Y-112164762D01*
X172545477Y-112117143D01*
X172593096Y-112021905D01*
X172593096Y-111926667D01*
X172545477Y-111831429D01*
X172497858Y-111783810D01*
X172402620Y-111736190D01*
X172212143Y-111688571D01*
X172116905Y-111640952D01*
X172069286Y-111593333D01*
X172021667Y-111498095D01*
X172021667Y-111402857D01*
X172069286Y-111307619D01*
X172116905Y-111260000D01*
X172212143Y-111212381D01*
X172450239Y-111212381D01*
X172593096Y-111260000D01*
X172926429Y-111212381D02*
X173164524Y-112212381D01*
X173355001Y-111498095D01*
X173545477Y-112212381D01*
X173783572Y-111212381D01*
X174688334Y-112212381D02*
X174116905Y-112212381D01*
X174402619Y-112212381D02*
X174402619Y-111212381D01*
X174307381Y-111355238D01*
X174212143Y-111450476D01*
X174116905Y-111498095D01*
X181427619Y-112212381D02*
X181094285Y-111736190D01*
X180856190Y-112212381D02*
X180856190Y-111212381D01*
X181237143Y-111212381D01*
X181332381Y-111260000D01*
X181380000Y-111307619D01*
X181427619Y-111402857D01*
X181427619Y-111545714D01*
X181380000Y-111640952D01*
X181332381Y-111688571D01*
X181237143Y-111736190D01*
X180856190Y-111736190D01*
X181856190Y-111688571D02*
X182189524Y-111688571D01*
X182332381Y-112212381D02*
X181856190Y-112212381D01*
X181856190Y-111212381D01*
X182332381Y-111212381D01*
X182713333Y-112164762D02*
X182856190Y-112212381D01*
X183094286Y-112212381D01*
X183189524Y-112164762D01*
X183237143Y-112117143D01*
X183284762Y-112021905D01*
X183284762Y-111926667D01*
X183237143Y-111831429D01*
X183189524Y-111783810D01*
X183094286Y-111736190D01*
X182903809Y-111688571D01*
X182808571Y-111640952D01*
X182760952Y-111593333D01*
X182713333Y-111498095D01*
X182713333Y-111402857D01*
X182760952Y-111307619D01*
X182808571Y-111260000D01*
X182903809Y-111212381D01*
X183141905Y-111212381D01*
X183284762Y-111260000D01*
X183713333Y-111688571D02*
X184046667Y-111688571D01*
X184189524Y-112212381D02*
X183713333Y-112212381D01*
X183713333Y-111212381D01*
X184189524Y-111212381D01*
X184475238Y-111212381D02*
X185046667Y-111212381D01*
X184760952Y-112212381D02*
X184760952Y-111212381D01*
M02*
